  0
SECTION
  2
HEADER
  9
$ACADVER
  1
AC1024
  9
$ACADMAINTVER
 70
6
  9
$DWGCODEPAGE
  3
ANSI_1252
  9
$LASTSAVEDBY
  1
ezdxf
  9
$INSBASE
 10
0.0
 20
0.0
 30
0.0
  9
$EXTMIN
 10
1e+20
 20
1e+20
 30
1e+20
  9
$EXTMAX
 10
-1e+20
 20
-1e+20
 30
-1e+20
  9
$LIMMIN
 10
0.0
 20
0.0
  9
$LIMMAX
 10
420.0
 20
297.0
  9
$ORTHOMODE
 70
0
  9
$REGENMODE
 70
1
  9
$FILLMODE
 70
1
  9
$QTEXTMODE
 70
0
  9
$MIRRTEXT
 70
1
  9
$LTSCALE
 40
1.0
  9
$ATTMODE
 70
1
  9
$TEXTSIZE
 40
2.5
  9
$TRACEWID
 40
1.0
  9
$TEXTSTYLE
  7
Standard
  9
$CLAYER
  8
0
  9
$CELTYPE
  6
ByLayer
  9
$CECOLOR
 62
256
  9
$CELTSCALE
 40
1.0
  9
$DISPSILH
 70
0
  9
$DIMSCALE
 40
1.0
  9
$DIMASZ
 40
2.5
  9
$DIMEXO
 40
0.625
  9
$DIMDLI
 40
3.75
  9
$DIMRND
 40
0.0
  9
$DIMDLE
 40
0.0
  9
$DIMEXE
 40
1.25
  9
$DIMTP
 40
0.0
  9
$DIMTM
 40
0.0
  9
$DIMTXT
 40
2.5
  9
$DIMCEN
 40
2.5
  9
$DIMTSZ
 40
0.0
  9
$DIMTOL
 70
0
  9
$DIMLIM
 70
0
  9
$DIMTIH
 70
0
  9
$DIMTOH
 70
0
  9
$DIMSE1
 70
0
  9
$DIMSE2
 70
0
  9
$DIMTAD
 70
1
  9
$DIMZIN
 70
8
  9
$DIMBLK
  1

  9
$DIMASO
 70
1
  9
$DIMSHO
 70
1
  9
$DIMPOST
  1

  9
$DIMAPOST
  1

  9
$DIMALT
 70
0
  9
$DIMALTD
 70
3
  9
$DIMALTF
 40
0.03937007874
  9
$DIMLFAC
 40
1.0
  9
$DIMTOFL
 70
1
  9
$DIMTVP
 40
0.0
  9
$DIMTIX
 70
0
  9
$DIMSOXD
 70
0
  9
$DIMSAH
 70
0
  9
$DIMBLK1
  1

  9
$DIMBLK2
  1

  9
$DIMSTYLE
  2
ISO-25
  9
$DIMCLRD
 70
0
  9
$DIMCLRE
 70
0
  9
$DIMCLRT
 70
0
  9
$DIMTFAC
 40
1.0
  9
$DIMGAP
 40
0.625
  9
$DIMJUST
 70
0
  9
$DIMSD1
 70
0
  9
$DIMSD2
 70
0
  9
$DIMTOLJ
 70
0
  9
$DIMTZIN
 70
8
  9
$DIMALTZ
 70
0
  9
$DIMALTTZ
 70
0
  9
$DIMUPT
 70
0
  9
$DIMDEC
 70
2
  9
$DIMTDEC
 70
2
  9
$DIMALTU
 70
2
  9
$DIMALTTD
 70
3
  9
$DIMTXSTY
  7
Standard
  9
$DIMAUNIT
 70
0
  9
$DIMADEC
 70
0
  9
$DIMALTRND
 40
0.0
  9
$DIMAZIN
 70
0
  9
$DIMDSEP
 70
44
  9
$DIMATFIT
 70
3
  9
$DIMFRAC
 70
0
  9
$DIMLDRBLK
  1

  9
$DIMLUNIT
 70
2
  9
$DIMLWD
 70
-2
  9
$DIMLWE
 70
-2
  9
$DIMTMOVE
 70
0
  9
$DIMFXL
 40
1.0
  9
$DIMFXLON
 70
0
  9
$DIMJOGANG
 40
0.785398163397
  9
$DIMTFILL
 70
0
  9
$DIMTFILLCLR
 70
0
  9
$DIMARCSYM
 70
0
  9
$DIMLTYPE
  6

  9
$DIMLTEX1
  6

  9
$DIMLTEX2
  6

  9
$DIMTXTDIRECTION
 70
0
  9
$LUNITS
 70
2
  9
$LUPREC
 70
3
  9
$SKETCHINC
 40
1.0
  9
$FILLETRAD
 40
10.0
  9
$AUNITS
 70
0
  9
$AUPREC
 70
2
  9
$MENU
  1
.
  9
$ELEVATION
 40
0.0
  9
$PELEVATION
 40
0.0
  9
$THICKNESS
 40
0.0
  9
$LIMCHECK
 70
0
  9
$CHAMFERA
 40
0.0
  9
$CHAMFERB
 40
0.0
  9
$CHAMFERC
 40
0.0
  9
$CHAMFERD
 40
0.0
  9
$SKPOLY
 70
0
  9
$TDCREATE
 40
2451545.0
  9
$TDUCREATE
 40
2451545.0
  9
$TDUPDATE
 40
2451545.0
  9
$TDUUPDATE
 40
2451545.0
  9
$TDINDWG
 40
0.0
  9
$TDUSRTIMER
 40
0.0
  9
$USRTIMER
 70
1
  9
$ANGBASE
 50
0.0
  9
$ANGDIR
 70
0
  9
$PDMODE
 70
0
  9
$PDSIZE
 40
0.0
  9
$PLINEWID
 40
0.0
  9
$SPLFRAME
 70
0
  9
$SPLINETYPE
 70
6
  9
$SPLINESEGS
 70
8
  9
$HANDSEED
  5
177
  9
$SURFTAB1
 70
6
  9
$SURFTAB2
 70
6
  9
$SURFTYPE
 70
6
  9
$SURFU
 70
6
  9
$SURFV
 70
6
  9
$UCSBASE
  2

  9
$UCSNAME
  2

  9
$UCSORG
 10
0.0
 20
0.0
 30
0.0
  9
$UCSXDIR
 10
1.0
 20
0.0
 30
0.0
  9
$UCSYDIR
 10
0.0
 20
1.0
 30
0.0
  9
$UCSORTHOREF
  2

  9
$UCSORTHOVIEW
 70
0
  9
$UCSORGTOP
 10
0.0
 20
0.0
 30
0.0
  9
$UCSORGBOTTOM
 10
0.0
 20
0.0
 30
0.0
  9
$UCSORGLEFT
 10
0.0
 20
0.0
 30
0.0
  9
$UCSORGRIGHT
 10
0.0
 20
0.0
 30
0.0
  9
$UCSORGFRONT
 10
0.0
 20
0.0
 30
0.0
  9
$UCSORGBACK
 10
0.0
 20
0.0
 30
0.0
  9
$PUCSBASE
  2

  9
$PUCSNAME
  2

  9
$PUCSORG
 10
0.0
 20
0.0
 30
0.0
  9
$PUCSXDIR
 10
1.0
 20
0.0
 30
0.0
  9
$PUCSYDIR
 10
0.0
 20
1.0
 30
0.0
  9
$PUCSORTHOREF
  2

  9
$PUCSORTHOVIEW
 70
0
  9
$PUCSORGTOP
 10
0.0
 20
0.0
 30
0.0
  9
$PUCSORGBOTTOM
 10
0.0
 20
0.0
 30
0.0
  9
$PUCSORGLEFT
 10
0.0
 20
0.0
 30
0.0
  9
$PUCSORGRIGHT
 10
0.0
 20
0.0
 30
0.0
  9
$PUCSORGFRONT
 10
0.0
 20
0.0
 30
0.0
  9
$PUCSORGBACK
 10
0.0
 20
0.0
 30
0.0
  9
$USERI1
 70
0
  9
$USERI2
 70
0
  9
$USERI3
 70
0
  9
$USERI4
 70
0
  9
$USERI5
 70
0
  9
$USERR1
 40
0.0
  9
$USERR2
 40
0.0
  9
$USERR3
 40
0.0
  9
$USERR4
 40
0.0
  9
$USERR5
 40
0.0
  9
$WORLDVIEW
 70
1
  9
$SHADEDGE
 70
3
  9
$SHADEDIF
 70
70
  9
$TILEMODE
 70
1
  9
$MAXACTVP
 70
64
  9
$PINSBASE
 10
0.0
 20
0.0
 30
0.0
  9
$PLIMCHECK
 70
0
  9
$PEXTMIN
 10
1e+20
 20
1e+20
 30
1e+20
  9
$PEXTMAX
 10
-1e+20
 20
-1e+20
 30
-1e+20
  9
$PLIMMIN
 10
0.0
 20
0.0
  9
$PLIMMAX
 10
420.0
 20
297.0
  9
$UNITMODE
 70
0
  9
$VISRETAIN
 70
1
  9
$PLINEGEN
 70
0
  9
$PSLTSCALE
 70
1
  9
$TREEDEPTH
 70
3020
  9
$CMLSTYLE
  2
Standard
  9
$CMLJUST
 70
0
  9
$CMLSCALE
 40
20.0
  9
$PROXYGRAPHICS
 70
1
  9
$MEASUREMENT
 70
1
  9
$CELWEIGHT
370
-1
  9
$ENDCAPS
280
0
  9
$JOINSTYLE
280
0
  9
$LWDISPLAY
290
1
  9
$INSUNITS
 70
4
  9
$HYPERLINKBASE
  1

  9
$STYLESHEET
  1

  9
$XEDIT
290
1
  9
$CEPSNTYPE
380
0
  9
$PSTYLEMODE
290
1
  9
$FINGERPRINTGUID
  2
{00000000-0000-0000-0000-000000000000}
  9
$VERSIONGUID
  2
{00000000-0000-0000-0000-000000000000}
  9
$EXTNAMES
290
1
  9
$PSVPSCALE
 40
0.0
  9
$OLESTARTUP
290
0
  9
$SORTENTS
280
127
  9
$INDEXCTL
280
0
  9
$HIDETEXT
280
1
  9
$XCLIPFRAME
280
1
  9
$HALOGAP
280
0
  9
$OBSCOLOR
 70
257
  9
$OBSLTYPE
280
0
  9
$INTERSECTIONDISPLAY
280
0
  9
$INTERSECTIONCOLOR
 70
257
  9
$DIMASSOC
280
2
  9
$PROJECTNAME
  1

  9
$CAMERADISPLAY
290
0
  9
$LENSLENGTH
 40
50.0
  9
$CAMERAHEIGHT
 40
0.0
  9
$STEPSPERSEC
 40
24.0
  9
$STEPSIZE
 40
100.0
  9
$3DDWFPREC
 40
2.0
  9
$PSOLWIDTH
 40
0.005
  9
$PSOLHEIGHT
 40
0.08
  9
$LOFTANG1
 40
1.570796326795
  9
$LOFTANG2
 40
1.570796326795
  9
$LOFTMAG1
 40
0.0
  9
$LOFTMAG2
 40
0.0
  9
$LOFTPARAM
 70
7
  9
$LOFTNORMALS
280
1
  9
$LATITUDE
 40
37.795
  9
$LONGITUDE
 40
-122.394
  9
$NORTHDIRECTION
 40
0.0
  9
$TIMEZONE
 70
-8000
  9
$LIGHTGLYPHDISPLAY
280
1
  9
$TILEMODELIGHTSYNCH
280
1
  9
$CMATERIAL
347
20
  9
$SOLIDHIST
280
0
  9
$SHOWHIST
280
1
  9
$DWFFRAME
280
2
  9
$DGNFRAME
280
2
  9
$REALWORLDSCALE
290
1
  9
$INTERFERECOLOR
 62
256
  9
$CSHADOW
280
0
  9
$SHADOWPLANELOCATION
 40
0.0
  0
ENDSEC
  0
SECTION
  2
CLASSES
  0
CLASS
  1
ACDBDICTIONARYWDFLT
  2
AcDbDictionaryWithDefault
  3
ObjectDBX Classes
 90
0
 91
0
280
0
281
0
  0
CLASS
  1
SUN
  2
AcDbSun
  3
SCENEOE
 90
1153
 91
0
280
0
281
0
  0
CLASS
  1
VISUALSTYLE
  2
AcDbVisualStyle
  3
ObjectDBX Classes
 90
4095
 91
0
280
0
281
0
  0
CLASS
  1
MATERIAL
  2
AcDbMaterial
  3
ObjectDBX Classes
 90
1153
 91
0
280
0
281
0
  0
CLASS
  1
SCALE
  2
AcDbScale
  3
ObjectDBX Classes
 90
1153
 91
0
280
0
281
0
  0
CLASS
  1
TABLESTYLE
  2
AcDbTableStyle
  3
ObjectDBX Classes
 90
4095
 91
0
280
0
281
0
  0
CLASS
  1
MLEADERSTYLE
  2
AcDbMLeaderStyle
  3
ACDB_MLEADERSTYLE_CLASS
 90
4095
 91
0
280
0
281
0
  0
CLASS
  1
DICTIONARYVAR
  2
AcDbDictionaryVar
  3
ObjectDBX Classes
 90
0
 91
0
280
0
281
0
  0
CLASS
  1
CELLSTYLEMAP
  2
AcDbCellStyleMap
  3
ObjectDBX Classes
 90
1152
 91
0
280
0
281
0
  0
CLASS
  1
MENTALRAYRENDERSETTINGS
  2
AcDbMentalRayRenderSettings
  3
SCENEOE
 90
1024
 91
0
280
0
281
0
  0
CLASS
  1
ACDBDETAILVIEWSTYLE
  2
AcDbDetailViewStyle
  3
ObjectDBX Classes
 90
1025
 91
0
280
0
281
0
  0
CLASS
  1
ACDBSECTIONVIEWSTYLE
  2
AcDbSectionViewStyle
  3
ObjectDBX Classes
 90
1025
 91
0
280
0
281
0
  0
CLASS
  1
RASTERVARIABLES
  2
AcDbRasterVariables
  3
ISM
 90
0
 91
0
280
0
281
0
  0
CLASS
  1
ACDBPLACEHOLDER
  2
AcDbPlaceHolder
  3
ObjectDBX Classes
 90
0
 91
0
280
0
281
0
  0
CLASS
  1
LAYOUT
  2
AcDbLayout
  3
ObjectDBX Classes
 90
0
 91
0
280
0
281
0
  0
ENDSEC
  0
SECTION
  2
TABLES
  0
TABLE
  2
VPORT
  5
8
330
0
100
AcDbSymbolTable
 70
1
  0
VPORT
  5
173
330
8
100
AcDbSymbolTableRecord
100
AcDbViewportTableRecord
  2
*Active
 70
0
 10
0.0
 20
0.0
 11
1.0
 21
1.0
 12
610.0
 22
440.0
 13
0.0
 23
0.0
 14
0.5
 24
0.5
 15
0.5
 25
0.5
 16
0.0
 26
0.0
 36
1.0
 17
0.0
 27
0.0
 37
0.0
 40
1090.0
 41
1.34
 42
50.0
 43
0.0
 44
0.0
 50
0.0
 51
0.0
 71
0
 72
1000
 73
1
 74
3
 75
0
 76
0
 77
0
 78
0
281
0
 65
1
110
0.0
120
0.0
130
0.0
111
1.0
121
0.0
131
0.0
112
0.0
122
1.0
132
0.0
 79
0
146
0.0
  0
ENDTAB
  0
TABLE
  2
LTYPE
  5
2
330
0
100
AcDbSymbolTable
 70
5
  0
LTYPE
  5
24
330
2
100
AcDbSymbolTableRecord
100
AcDbLinetypeTableRecord
  2
ByBlock
 70
0
  3

 72
65
 73
0
 40
0.0
  0
LTYPE
  5
25
330
2
100
AcDbSymbolTableRecord
100
AcDbLinetypeTableRecord
  2
ByLayer
 70
0
  3

 72
65
 73
0
 40
0.0
  0
LTYPE
  5
26
330
2
100
AcDbSymbolTableRecord
100
AcDbLinetypeTableRecord
  2
Continuous
 70
0
  3

 72
65
 73
0
 40
0.0
  0
LTYPE
  5
40
330
2
100
AcDbSymbolTableRecord
100
AcDbLinetypeTableRecord
  2
REF_DASH
 70
0
  3
Reference dash 4-2
 72
65
 73
2
 40
6.0
 49
4.0
 74
0
 49
-2.0
 74
0
  0
LTYPE
  5
41
330
2
100
AcDbSymbolTableRecord
100
AcDbLinetypeTableRecord
  2
A3_DASHDOT
 70
0
  3
A3 picture dash-dot
 72
65
 73
4
 40
13.0
 49
8.0
 74
0
 49
-2.0
 74
0
 49
1.0
 74
0
 49
-2.0
 74
0
  0
ENDTAB
  0
TABLE
  2
LAYER
  5
1
330
0
100
AcDbSymbolTable
 70
14
  0
LAYER
  5
27
330
1
100
AcDbSymbolTableRecord
100
AcDbLayerTableRecord
  2
0
 70
0
 62
7
  6
Continuous
370
-3
390
13
347
21
  0
LAYER
  5
28
330
1
100
AcDbSymbolTableRecord
100
AcDbLayerTableRecord
  2
Defpoints
 70
0
 62
7
  6
Continuous
290
0
370
-3
390
13
347
21
  0
LAYER
  5
34
330
1
100
AcDbSymbolTableRecord
100
AcDbLayerTableRecord
  2
BOARD_BOUNDARY
 70
0
 62
8
  6
Continuous
370
35
390
13
347
21
  0
LAYER
  5
35
330
1
100
AcDbSymbolTableRecord
100
AcDbLayerTableRecord
  2
CUT_THROUGH
 70
0
 62
7
  6
Continuous
370
35
390
13
347
21
  0
LAYER
  5
36
330
1
100
AcDbSymbolTableRecord
100
AcDbLayerTableRecord
  2
POCKET_10MM
 70
0
 62
30
  6
Continuous
370
25
390
13
347
21
  0
LAYER
  5
37
330
1
100
AcDbSymbolTableRecord
100
AcDbLayerTableRecord
  2
DOGBONE
 70
0
 62
6
  6
Continuous
370
25
390
13
347
21
  0
LAYER
  5
38
330
1
100
AcDbSymbolTableRecord
100
AcDbLayerTableRecord
  2
HINGE_REF
 70
0
 62
4
  6
REF_DASH
370
18
390
13
347
21
  0
LAYER
  5
39
330
1
100
AcDbSymbolTableRecord
100
AcDbLayerTableRecord
  2
LATCH_REF
 70
0
 62
4
  6
REF_DASH
370
18
390
13
347
21
  0
LAYER
  5
3A
330
1
100
AcDbSymbolTableRecord
100
AcDbLayerTableRecord
  2
PART_ID
 70
0
 62
7
  6
Continuous
370
18
390
13
347
21
  0
LAYER
  5
3B
330
1
100
AcDbSymbolTableRecord
100
AcDbLayerTableRecord
  2
DIMENSIONS
 70
0
 62
3
  6
Continuous
370
18
390
13
347
21
  0
LAYER
  5
3C
330
1
100
AcDbSymbolTableRecord
100
AcDbLayerTableRecord
  2
GRAIN_DIRECTION
 70
0
 62
3
  6
Continuous
370
35
390
13
347
21
  0
LAYER
  5
3D
330
1
100
AcDbSymbolTableRecord
100
AcDbLayerTableRecord
  2
ASSEMBLY_REFERENCE
 70
0
 62
8
  6
Continuous
370
18
390
13
347
21
  0
LAYER
  5
3E
330
1
100
AcDbSymbolTableRecord
100
AcDbLayerTableRecord
  2
JOINT_DETAILS_REF
 70
0
 62
8
  6
Continuous
370
18
390
13
347
21
  0
LAYER
  5
3F
330
1
100
AcDbSymbolTableRecord
100
AcDbLayerTableRecord
  2
NOTES
 70
0
 62
7
  6
Continuous
370
18
390
13
347
21
  0
ENDTAB
  0
TABLE
  2
STYLE
  5
5
330
0
100
AcDbSymbolTable
 70
1
  0
STYLE
  5
29
330
5
100
AcDbSymbolTableRecord
100
AcDbTextStyleTableRecord
  2
Standard
 70
0
 40
0.0
 41
1.0
 50
0.0
 71
0
 42
2.5
  3
txt
  4

  0
ENDTAB
  0
TABLE
  2
VIEW
  5
7
330
0
100
AcDbSymbolTable
 70
0
  0
ENDTAB
  0
TABLE
  2
UCS
  5
6
330
0
100
AcDbSymbolTable
 70
0
  0
ENDTAB
  0
TABLE
  2
APPID
  5
3
330
0
100
AcDbSymbolTable
 70
4
  0
APPID
  5
2A
330
3
100
AcDbSymbolTableRecord
100
AcDbRegAppTableRecord
  2
ACAD
 70
0
  0
APPID
  5
33
330
3
100
AcDbSymbolTableRecord
100
AcDbRegAppTableRecord
  2
HANOK_PORTRAIT_DL
 70
0
  0
APPID
  5
174
330
3
100
AcDbSymbolTableRecord
100
AcDbRegAppTableRecord
  2
HATCHBACKGROUNDCOLOR
 70
0
  0
APPID
  5
175
330
3
100
AcDbSymbolTableRecord
100
AcDbRegAppTableRecord
  2
EZDXF
 70
0
  0
ENDTAB
  0
TABLE
  2
DIMSTYLE
  5
4
330
0
100
AcDbSymbolTable
 70
1
100
AcDbDimStyleTable
  0
DIMSTYLE
105
2B
330
4
100
AcDbSymbolTableRecord
100
AcDbDimStyleTableRecord
  2
Standard
 70
0
 40
1.0
 41
2.5
 42
0.625
 43
3.75
 44
1.25
 45
0.0
 46
0.0
 47
0.0
 48
0.0
 49
2.5
140
2.5
141
2.5
142
0.0
143
0.03937007874
144
1.0
145
0.0
146
1.0
147
0.625
148
0.0
 69
0
 70
0
 71
0
 72
0
 73
0
 74
0
 75
0
 76
0
 77
1
 78
8
 79
3
170
0
171
3
172
1
173
0
174
0
175
0
176
0
177
0
178
0
179
2
271
2
272
2
273
2
274
3
275
0
276
0
277
2
278
44
279
0
280
0
281
0
282
0
283
0
284
8
285
0
286
0
288
0
289
3
290
0
371
-2
372
-2
  0
ENDTAB
  0
TABLE
  2
BLOCK_RECORD
  5
9
330
0
100
AcDbSymbolTable
 70
2
  0
BLOCK_RECORD
  5
17
330
9
100
AcDbSymbolTableRecord
100
AcDbBlockTableRecord
  2
*Model_Space
340
1A
 70
0
280
1
281
0
  0
BLOCK_RECORD
  5
1B
330
9
100
AcDbSymbolTableRecord
100
AcDbBlockTableRecord
  2
*Paper_Space
340
1E
 70
0
280
1
281
0
  0
ENDTAB
  0
ENDSEC
  0
SECTION
  2
BLOCKS
  0
BLOCK
  5
18
330
17
100
AcDbEntity
  8
0
100
AcDbBlockBegin
  2
*Model_Space
 70
0
 10
0.0
 20
0.0
 30
0.0
  3
*Model_Space
  1

  0
ENDBLK
  5
19
330
17
100
AcDbEntity
  8
0
100
AcDbBlockEnd
  0
BLOCK
  5
1C
330
1B
100
AcDbEntity
  8
0
100
AcDbBlockBegin
  2
*Paper_Space
 70
0
 10
0.0
 20
0.0
 30
0.0
  3
*Paper_Space
  1

  0
ENDBLK
  5
1D
330
1B
100
AcDbEntity
  8
0
100
AcDbBlockEnd
  0
ENDSEC
  0
SECTION
  2
ENTITIES
  0
LWPOLYLINE
  5
42
330
17
100
AcDbEntity
  8
CUT_THROUGH
100
AcDbPolyline
 90
4
 70
1
 10
20.0
 20
20.0
 10
920.0
 20
20.0
 10
920.0
 20
60.0
 10
20.0
 20
60.0
1001
HANOK_PORTRAIT_DL
1000
{"kind":"part","part_id":"F01-1","family":"F01","length_mm":900.0,"width_mm":40.0,"thickness_mm":20,"depth_mm":20,"nesting_origin":[20,20],"assembly_map":[0,1,-1,0,0,900],"assembly_face_A":"FRONT","assembly_group":"FIXED","machining_face":"
1000
A"}
  0
TEXT
  5
43
330
17
100
AcDbEntity
  8
PART_ID
100
AcDbText
 10
470.0
 20
32.4
 30
0.0
 40
4.5
  1
F01-1
 72
1
 11
470.0
 21
32.4
 31
0.0
100
AcDbText
 73
2
1001
HANOK_PORTRAIT_DL
1000
{"text_align":"center","kind":"part_id","part_id":"F01-1","view":"nest"}
  0
LWPOLYLINE
  5
44
330
17
100
AcDbEntity
  8
POCKET_10MM
100
AcDbPolyline
 90
4
 70
1
 10
20.0
 20
20.0
 10
60.0
 20
20.0
 10
60.0
 20
60.0
 10
20.0
 20
60.0
1001
HANOK_PORTRAIT_DL
1000
{"kind":"pocket","part_id":"F01-1","feature_id":"F01-1-P01","joint":"J1","joint_id":"PAIR-01","mate_part_id":"F02-2","mate_feature_id":"F02-2-P01","seat":false,"depth_mm":10.0,"local_rect":[0,0,40,40],"open_edges":["U_MIN","V_MIN","V_MAX"],
1000
"machining_face":"A"}
  0
LWPOLYLINE
  5
45
330
17
100
AcDbEntity
  8
POCKET_10MM
100
AcDbPolyline
 90
4
 70
1
 10
880.0
 20
20.0
 10
920.0
 20
20.0
 10
920.0
 20
60.0
 10
880.0
 20
60.0
1001
HANOK_PORTRAIT_DL
1000
{"kind":"pocket","part_id":"F01-1","feature_id":"F01-1-P02","joint":"J1","joint_id":"PAIR-02","mate_part_id":"F02-1","mate_feature_id":"F02-1-P02","seat":false,"depth_mm":10.0,"local_rect":[860,0,40,40],"open_edges":["U_MAX","V_MIN","V_MAX"
1000
],"machining_face":"A"}
  0
LWPOLYLINE
  5
46
330
17
100
AcDbEntity
  8
CUT_THROUGH
100
AcDbPolyline
 90
4
 70
1
 10
20.0
 20
72.0
 10
920.0
 20
72.0
 10
920.0
 20
112.0
 10
20.0
 20
112.0
1001
HANOK_PORTRAIT_DL
1000
{"kind":"part","part_id":"F01-2","family":"F01","length_mm":900.0,"width_mm":40.0,"thickness_mm":20,"depth_mm":20,"nesting_origin":[20,72],"assembly_map":[0,-1,1,0,420,0],"assembly_face_A":"FRONT","assembly_group":"FIXED","machining_face":"
1000
A"}
  0
TEXT
  5
47
330
17
100
AcDbEntity
  8
PART_ID
100
AcDbText
 10
470.0
 20
84.4
 30
0.0
 40
4.5
  1
F01-2
 72
1
 11
470.0
 21
84.4
 31
0.0
100
AcDbText
 73
2
1001
HANOK_PORTRAIT_DL
1000
{"text_align":"center","kind":"part_id","part_id":"F01-2","view":"nest"}
  0
LWPOLYLINE
  5
48
330
17
100
AcDbEntity
  8
POCKET_10MM
100
AcDbPolyline
 90
4
 70
1
 10
20.0
 20
72.0
 10
60.0
 20
72.0
 10
60.0
 20
112.0
 10
20.0
 20
112.0
1001
HANOK_PORTRAIT_DL
1000
{"kind":"pocket","part_id":"F01-2","feature_id":"F01-2-P01","joint":"J1","joint_id":"PAIR-03","mate_part_id":"F02-1","mate_feature_id":"F02-1-P01","seat":false,"depth_mm":10.0,"local_rect":[0,0,40,40],"open_edges":["U_MIN","V_MIN","V_MAX"],
1000
"machining_face":"A"}
  0
LWPOLYLINE
  5
49
330
17
100
AcDbEntity
  8
POCKET_10MM
100
AcDbPolyline
 90
4
 70
1
 10
880.0
 20
72.0
 10
920.0
 20
72.0
 10
920.0
 20
112.0
 10
880.0
 20
112.0
1001
HANOK_PORTRAIT_DL
1000
{"kind":"pocket","part_id":"F01-2","feature_id":"F01-2-P02","joint":"J1","joint_id":"PAIR-04","mate_part_id":"F02-2","mate_feature_id":"F02-2-P02","seat":false,"depth_mm":10.0,"local_rect":[860,0,40,40],"open_edges":["U_MAX","V_MIN","V_MAX"
1000
],"machining_face":"A"}
  0
LWPOLYLINE
  5
4A
330
17
100
AcDbEntity
  8
CUT_THROUGH
100
AcDbPolyline
 90
4
 70
1
 10
20.0
 20
124.0
 10
440.0
 20
124.0
 10
440.0
 20
164.0
 10
20.0
 20
164.0
1001
HANOK_PORTRAIT_DL
1000
{"kind":"part","part_id":"F02-1","family":"F02","length_mm":420.0,"width_mm":40.0,"thickness_mm":20,"depth_mm":20,"nesting_origin":[20,124],"assembly_map":[-1,0,0,1,420,0],"assembly_face_A":"BACK","assembly_group":"FIXED","machining_face":"
1000
A"}
  0
TEXT
  5
4B
330
17
100
AcDbEntity
  8
PART_ID
100
AcDbText
 10
230.0
 20
136.4
 30
0.0
 40
4.5
  1
F02-1
 72
1
 11
230.0
 21
136.4
 31
0.0
100
AcDbText
 73
2
1001
HANOK_PORTRAIT_DL
1000
{"text_align":"center","kind":"part_id","part_id":"F02-1","view":"nest"}
  0
LWPOLYLINE
  5
4C
330
17
100
AcDbEntity
  8
POCKET_10MM
100
AcDbPolyline
 90
4
 70
1
 10
20.0
 20
124.0
 10
60.0
 20
124.0
 10
60.0
 20
164.0
 10
20.0
 20
164.0
1001
HANOK_PORTRAIT_DL
1000
{"kind":"pocket","part_id":"F02-1","feature_id":"F02-1-P01","joint":"J1","joint_id":"PAIR-03","mate_part_id":"F01-2","mate_feature_id":"F01-2-P01","seat":false,"depth_mm":10.0,"local_rect":[0,0,40,40],"open_edges":["U_MIN","V_MIN","V_MAX"],
1000
"machining_face":"A"}
  0
LWPOLYLINE
  5
4D
330
17
100
AcDbEntity
  8
POCKET_10MM
100
AcDbPolyline
 90
4
 70
1
 10
400.0
 20
124.0
 10
440.0
 20
124.0
 10
440.0
 20
164.0
 10
400.0
 20
164.0
1001
HANOK_PORTRAIT_DL
1000
{"kind":"pocket","part_id":"F02-1","feature_id":"F02-1-P02","joint":"J1","joint_id":"PAIR-02","mate_part_id":"F01-1","mate_feature_id":"F01-1-P02","seat":false,"depth_mm":10.0,"local_rect":[380,0,40,40],"open_edges":["U_MAX","V_MIN","V_MAX"
1000
],"machining_face":"A"}
  0
LWPOLYLINE
  5
4E
330
17
100
AcDbEntity
  8
CUT_THROUGH
100
AcDbPolyline
 90
4
 70
1
 10
452.0
 20
124.0
 10
872.0
 20
124.0
 10
872.0
 20
164.0
 10
452.0
 20
164.0
1001
HANOK_PORTRAIT_DL
1000
{"kind":"part","part_id":"F02-2","family":"F02","length_mm":420.0,"width_mm":40.0,"thickness_mm":20,"depth_mm":20,"nesting_origin":[452,124],"assembly_map":[1,0,0,-1,0,900],"assembly_face_A":"BACK","assembly_group":"FIXED","machining_face":
1000
"A"}
  0
TEXT
  5
4F
330
17
100
AcDbEntity
  8
PART_ID
100
AcDbText
 10
662.0
 20
136.4
 30
0.0
 40
4.5
  1
F02-2
 72
1
 11
662.0
 21
136.4
 31
0.0
100
AcDbText
 73
2
1001
HANOK_PORTRAIT_DL
1000
{"text_align":"center","kind":"part_id","part_id":"F02-2","view":"nest"}
  0
LWPOLYLINE
  5
50
330
17
100
AcDbEntity
  8
POCKET_10MM
100
AcDbPolyline
 90
4
 70
1
 10
452.0
 20
124.0
 10
492.0
 20
124.0
 10
492.0
 20
164.0
 10
452.0
 20
164.0
1001
HANOK_PORTRAIT_DL
1000
{"kind":"pocket","part_id":"F02-2","feature_id":"F02-2-P01","joint":"J1","joint_id":"PAIR-01","mate_part_id":"F01-1","mate_feature_id":"F01-1-P01","seat":false,"depth_mm":10.0,"local_rect":[0,0,40,40],"open_edges":["U_MIN","V_MIN","V_MAX"],
1000
"machining_face":"A"}
  0
LWPOLYLINE
  5
51
330
17
100
AcDbEntity
  8
POCKET_10MM
100
AcDbPolyline
 90
4
 70
1
 10
832.0
 20
124.0
 10
872.0
 20
124.0
 10
872.0
 20
164.0
 10
832.0
 20
164.0
1001
HANOK_PORTRAIT_DL
1000
{"kind":"pocket","part_id":"F02-2","feature_id":"F02-2-P02","joint":"J1","joint_id":"PAIR-04","mate_part_id":"F01-2","mate_feature_id":"F01-2-P02","seat":false,"depth_mm":10.0,"local_rect":[380,0,40,40],"open_edges":["U_MAX","V_MIN","V_MAX"
1000
],"machining_face":"A"}
  0
LWPOLYLINE
  5
52
330
17
100
AcDbEntity
  8
CUT_THROUGH
100
AcDbPolyline
 90
4
 70
1
 10
20.0
 20
176.0
 10
834.0
 20
176.0
 10
834.0
 20
206.0
 10
20.0
 20
206.0
1001
HANOK_PORTRAIT_DL
1000
{"kind":"part","part_id":"S01-1","family":"S01","length_mm":814.0,"width_mm":30.0,"thickness_mm":20,"depth_mm":20,"nesting_origin":[20,176],"assembly_map":[0,1,-1,0,43.0,857],"assembly_face_A":"FRONT","assembly_group":"LEAF_1","machining_fa
1000
ce":"A"}
  0
TEXT
  5
53
330
17
100
AcDbEntity
  8
PART_ID
100
AcDbText
 10
345.6
 20
185.3
 30
0.0
 40
4.5
  1
S01-1
 72
1
 11
345.6
 21
185.3
 31
0.0
100
AcDbText
 73
2
1001
HANOK_PORTRAIT_DL
1000
{"text_align":"center","kind":"part_id","part_id":"S01-1","view":"nest"}
  0
LWPOLYLINE
  5
54
330
17
100
AcDbEntity
  8
POCKET_10MM
100
AcDbPolyline
 90
4
 70
1
 10
20.0
 20
176.0
 10
50.0
 20
176.0
 10
50.0
 20
206.0
 10
20.0
 20
206.0
1001
HANOK_PORTRAIT_DL
1000
{"kind":"pocket","part_id":"S01-1","feature_id":"S01-1-P01","joint":"J2","joint_id":"PAIR-05","mate_part_id":"S02-2","mate_feature_id":"S02-2-P01","seat":false,"depth_mm":10.0,"local_rect":[0,0.0,30,30.0],"open_edges":["U_MIN","V_MIN","V_MA
1000
X"],"machining_face":"A"}
  0
LWPOLYLINE
  5
55
330
17
100
AcDbEntity
  8
POCKET_10MM
100
AcDbPolyline
 90
4
 70
1
 10
804.0
 20
176.0
 10
834.0
 20
176.0
 10
834.0
 20
206.0
 10
804.0
 20
206.0
1001
HANOK_PORTRAIT_DL
1000
{"kind":"pocket","part_id":"S01-1","feature_id":"S01-1-P02","joint":"J2","joint_id":"PAIR-06","mate_part_id":"S02-1","mate_feature_id":"S02-1-P02","seat":false,"depth_mm":10.0,"local_rect":[784,0.0,30,30.0],"open_edges":["U_MAX","V_MIN","V_
1000
MAX"],"machining_face":"A"}
  0
LWPOLYLINE
  5
56
330
17
100
AcDbEntity
  8
CUT_THROUGH
100
AcDbPolyline
 90
4
 70
1
 10
20.0
 20
218.0
 10
834.0
 20
218.0
 10
834.0
 20
248.0
 10
20.0
 20
248.0
1001
HANOK_PORTRAIT_DL
1000
{"kind":"part","part_id":"S01-2","family":"S01","length_mm":814.0,"width_mm":30.0,"thickness_mm":20,"depth_mm":20,"nesting_origin":[20,218.0],"assembly_map":[0,-1,1,0,377.0,43],"assembly_face_A":"FRONT","assembly_group":"LEAF_1","machining_
1000
face":"A"}
  0
TEXT
  5
57
330
17
100
AcDbEntity
  8
PART_ID
100
AcDbText
 10
345.6
 20
227.3
 30
0.0
 40
4.5
  1
S01-2
 72
1
 11
345.6
 21
227.3
 31
0.0
100
AcDbText
 73
2
1001
HANOK_PORTRAIT_DL
1000
{"text_align":"center","kind":"part_id","part_id":"S01-2","view":"nest"}
  0
LWPOLYLINE
  5
58
330
17
100
AcDbEntity
  8
POCKET_10MM
100
AcDbPolyline
 90
4
 70
1
 10
20.0
 20
218.0
 10
50.0
 20
218.0
 10
50.0
 20
248.0
 10
20.0
 20
248.0
1001
HANOK_PORTRAIT_DL
1000
{"kind":"pocket","part_id":"S01-2","feature_id":"S01-2-P01","joint":"J2","joint_id":"PAIR-07","mate_part_id":"S02-1","mate_feature_id":"S02-1-P01","seat":false,"depth_mm":10.0,"local_rect":[0,0.0,30,30.0],"open_edges":["U_MIN","V_MIN","V_MA
1000
X"],"machining_face":"A"}
  0
LWPOLYLINE
  5
59
330
17
100
AcDbEntity
  8
POCKET_10MM
100
AcDbPolyline
 90
4
 70
1
 10
804.0
 20
218.0
 10
834.0
 20
218.0
 10
834.0
 20
248.0
 10
804.0
 20
248.0
1001
HANOK_PORTRAIT_DL
1000
{"kind":"pocket","part_id":"S01-2","feature_id":"S01-2-P02","joint":"J2","joint_id":"PAIR-08","mate_part_id":"S02-2","mate_feature_id":"S02-2-P02","seat":false,"depth_mm":10.0,"local_rect":[784,0.0,30,30.0],"open_edges":["U_MAX","V_MIN","V_
1000
MAX"],"machining_face":"A"}
  0
LWPOLYLINE
  5
5A
330
17
100
AcDbEntity
  8
CUT_THROUGH
100
AcDbPolyline
 90
4
 70
1
 10
846.0
 20
176.0
 10
1180.0
 20
176.0
 10
1180.0
 20
206.0
 10
846.0
 20
206.0
1001
HANOK_PORTRAIT_DL
1000
{"kind":"part","part_id":"S02-1","family":"S02","length_mm":334.0,"width_mm":30.0,"thickness_mm":20,"depth_mm":20,"nesting_origin":[846,176],"assembly_map":[-1,0,0,1,377.0,43],"assembly_face_A":"BACK","assembly_group":"LEAF_1","machining_fa
1000
ce":"A"}
  0
TEXT
  5
5B
330
17
100
AcDbEntity
  8
PART_ID
100
AcDbText
 10
1013.0
 20
185.3
 30
0.0
 40
4.5
  1
S02-1
 72
1
 11
1013.0
 21
185.3
 31
0.0
100
AcDbText
 73
2
1001
HANOK_PORTRAIT_DL
1000
{"text_align":"center","kind":"part_id","part_id":"S02-1","view":"nest"}
  0
LWPOLYLINE
  5
5C
330
17
100
AcDbEntity
  8
POCKET_10MM
100
AcDbPolyline
 90
4
 70
1
 10
846.0
 20
176.0
 10
876.0
 20
176.0
 10
876.0
 20
206.0
 10
846.0
 20
206.0
1001
HANOK_PORTRAIT_DL
1000
{"kind":"pocket","part_id":"S02-1","feature_id":"S02-1-P01","joint":"J2","joint_id":"PAIR-07","mate_part_id":"S01-2","mate_feature_id":"S01-2-P01","seat":false,"depth_mm":10.0,"local_rect":[0.0,0,30.0,30],"open_edges":["U_MIN","V_MIN","V_MA
1000
X"],"machining_face":"A"}
  0
LWPOLYLINE
  5
5D
330
17
100
AcDbEntity
  8
POCKET_10MM
100
AcDbPolyline
 90
4
 70
1
 10
1150.0
 20
176.0
 10
1180.0
 20
176.0
 10
1180.0
 20
206.0
 10
1150.0
 20
206.0
1001
HANOK_PORTRAIT_DL
1000
{"kind":"pocket","part_id":"S02-1","feature_id":"S02-1-P02","joint":"J2","joint_id":"PAIR-06","mate_part_id":"S01-1","mate_feature_id":"S01-1-P02","seat":false,"depth_mm":10.0,"local_rect":[304.0,0,30.0,30],"open_edges":["U_MAX","V_MIN","V_
1000
MAX"],"machining_face":"A"}
  0
LWPOLYLINE
  5
5E
330
17
100
AcDbEntity
  8
CUT_THROUGH
100
AcDbPolyline
 90
4
 70
1
 10
846.0
 20
218.0
 10
1180.0
 20
218.0
 10
1180.0
 20
248.0
 10
846.0
 20
248.0
1001
HANOK_PORTRAIT_DL
1000
{"kind":"part","part_id":"S02-2","family":"S02","length_mm":334.0,"width_mm":30.0,"thickness_mm":20,"depth_mm":20,"nesting_origin":[846,218.0],"assembly_map":[1,0,0,-1,43.0,857],"assembly_face_A":"BACK","assembly_group":"LEAF_1","machining_
1000
face":"A"}
  0
TEXT
  5
5F
330
17
100
AcDbEntity
  8
PART_ID
100
AcDbText
 10
1013.0
 20
227.3
 30
0.0
 40
4.5
  1
S02-2
 72
1
 11
1013.0
 21
227.3
 31
0.0
100
AcDbText
 73
2
1001
HANOK_PORTRAIT_DL
1000
{"text_align":"center","kind":"part_id","part_id":"S02-2","view":"nest"}
  0
LWPOLYLINE
  5
60
330
17
100
AcDbEntity
  8
POCKET_10MM
100
AcDbPolyline
 90
4
 70
1
 10
846.0
 20
218.0
 10
876.0
 20
218.0
 10
876.0
 20
248.0
 10
846.0
 20
248.0
1001
HANOK_PORTRAIT_DL
1000
{"kind":"pocket","part_id":"S02-2","feature_id":"S02-2-P01","joint":"J2","joint_id":"PAIR-05","mate_part_id":"S01-1","mate_feature_id":"S01-1-P01","seat":false,"depth_mm":10.0,"local_rect":[0.0,0,30.0,30],"open_edges":["U_MIN","V_MIN","V_MA
1000
X"],"machining_face":"A"}
  0
LWPOLYLINE
  5
61
330
17
100
AcDbEntity
  8
POCKET_10MM
100
AcDbPolyline
 90
4
 70
1
 10
1150.0
 20
218.0
 10
1180.0
 20
218.0
 10
1180.0
 20
248.0
 10
1150.0
 20
248.0
1001
HANOK_PORTRAIT_DL
1000
{"kind":"pocket","part_id":"S02-2","feature_id":"S02-2-P02","joint":"J2","joint_id":"PAIR-08","mate_part_id":"S01-2","mate_feature_id":"S01-2-P02","seat":false,"depth_mm":10.0,"local_rect":[304.0,0,30.0,30],"open_edges":["U_MAX","V_MIN","V_
1000
MAX"],"machining_face":"A"}
  0
LWPOLYLINE
  5
62
330
17
100
AcDbEntity
  8
BOARD_BOUNDARY
100
AcDbPolyline
 90
4
 70
1
 10
0.0
 20
0.0
 10
1220.0
 20
0.0
 10
1220.0
 20
900.0
 10
0.0
 20
900.0
1001
HANOK_PORTRAIT_DL
1000
{"kind":"board","view":"nest","size_mm":[1220,900,20]}
  0
TEXT
  5
63
330
17
100
AcDbEntity
  8
NOTES
100
AcDbText
 10
0.0
 20
955.0
 30
0.0
 40
13.0
  1
HANOK WINDOW / SINGLE LEAF / LEFT HINGES
 11
0.0
 21
955.0
 31
0.0
100
AcDbText
 73
2
1001
HANOK_PORTRAIT_DL
1000
{"text_align":"left","kind":"title","view":"nest"}
  0
TEXT
  5
64
330
17
100
AcDbEntity
  8
NOTES
100
AcDbText
 10
1220.0
 20
955.0
 30
0.0
 40
6.0
  1
REVISION HANOK_GEN_V1_9ee45712a705 / 2026-09-12 / GENERATED FROM design_parameters.json
 72
2
 11
1220.0
 21
955.0
 31
0.0
100
AcDbText
 73
2
1001
HANOK_PORTRAIT_DL
1000
{"text_align":"right","kind":"revision","view":"nest"}
  0
TEXT
  5
65
330
17
100
AcDbEntity
  8
NOTES
100
AcDbText
 10
0.0
 20
930.0
 30
0.0
 40
5.5
  1
420 W x 900 H / 8 PARTS / 16 POCKETS / 0 RELIEFS / mm / MODEL SPACE 1:1
 11
0.0
 21
930.0
 31
0.0
100
AcDbText
 73
2
1001
HANOK_PORTRAIT_DL
1000
{"text_align":"left","view":"nest"}
  0
LINE
  5
66
330
17
100
AcDbEntity
  8
DIMENSIONS
100
AcDbLine
 10
0.0
 20
900.0
 30
0.0
 11
0.0
 21
916.0
 31
0.0
1001
HANOK_PORTRAIT_DL
1000
{"kind":"dim","detail":null,"view":"nest"}
  0
LINE
  5
67
330
17
100
AcDbEntity
  8
DIMENSIONS
100
AcDbLine
 10
1220.0
 20
900.0
 30
0.0
 11
1220.0
 21
916.0
 31
0.0
1001
HANOK_PORTRAIT_DL
1000
{"kind":"dim","detail":null,"view":"nest"}
  0
LINE
  5
68
330
17
100
AcDbEntity
  8
DIMENSIONS
100
AcDbLine
 10
0.0
 20
914.0
 30
0.0
 11
1220.0
 21
914.0
 31
0.0
1001
HANOK_PORTRAIT_DL
1000
{"kind":"dim","detail":null,"view":"nest"}
  0
LINE
  5
69
330
17
100
AcDbEntity
  8
DIMENSIONS
100
AcDbLine
 10
0.0
 20
914.0
 30
0.0
 11
3.0
 21
915.5
 31
0.0
1001
HANOK_PORTRAIT_DL
1000
{"kind":"dim","detail":null,"view":"nest"}
  0
LINE
  5
6A
330
17
100
AcDbEntity
  8
DIMENSIONS
100
AcDbLine
 10
0.0
 20
914.0
 30
0.0
 11
3.0
 21
912.5
 31
0.0
1001
HANOK_PORTRAIT_DL
1000
{"kind":"dim","detail":null,"view":"nest"}
  0
LINE
  5
6B
330
17
100
AcDbEntity
  8
DIMENSIONS
100
AcDbLine
 10
1220.0
 20
914.0
 30
0.0
 11
1217.0
 21
915.5
 31
0.0
1001
HANOK_PORTRAIT_DL
1000
{"kind":"dim","detail":null,"view":"nest"}
  0
LINE
  5
6C
330
17
100
AcDbEntity
  8
DIMENSIONS
100
AcDbLine
 10
1220.0
 20
914.0
 30
0.0
 11
1217.0
 21
912.5
 31
0.0
1001
HANOK_PORTRAIT_DL
1000
{"kind":"dim","detail":null,"view":"nest"}
  0
TEXT
  5
6D
330
17
100
AcDbEntity
  8
DIMENSIONS
100
AcDbText
 10
610.0
 20
918.0
 30
0.0
 40
3.6
  1
1220
 72
1
 11
610.0
 21
918.0
 31
0.0
100
AcDbText
 73
2
1001
HANOK_PORTRAIT_DL
1000
{"text_align":"center","kind":"dim","detail":null,"view":"nest"}
  0
LINE
  5
6E
330
17
100
AcDbEntity
  8
DIMENSIONS
100
AcDbLine
 10
0.0
 20
0.0
 30
0.0
 11
-29.0
 21
0.0
 31
0.0
1001
HANOK_PORTRAIT_DL
1000
{"kind":"dim","detail":null,"view":"nest"}
  0
LINE
  5
6F
330
17
100
AcDbEntity
  8
DIMENSIONS
100
AcDbLine
 10
0.0
 20
900.0
 30
0.0
 11
-29.0
 21
900.0
 31
0.0
1001
HANOK_PORTRAIT_DL
1000
{"kind":"dim","detail":null,"view":"nest"}
  0
LINE
  5
70
330
17
100
AcDbEntity
  8
DIMENSIONS
100
AcDbLine
 10
-27.0
 20
0.0
 30
0.0
 11
-27.0
 21
900.0
 31
0.0
1001
HANOK_PORTRAIT_DL
1000
{"kind":"dim","detail":null,"view":"nest"}
  0
LINE
  5
71
330
17
100
AcDbEntity
  8
DIMENSIONS
100
AcDbLine
 10
-27.0
 20
0.0
 30
0.0
 11
-28.5
 21
3.0
 31
0.0
1001
HANOK_PORTRAIT_DL
1000
{"kind":"dim","detail":null,"view":"nest"}
  0
LINE
  5
72
330
17
100
AcDbEntity
  8
DIMENSIONS
100
AcDbLine
 10
-27.0
 20
0.0
 30
0.0
 11
-25.5
 21
3.0
 31
0.0
1001
HANOK_PORTRAIT_DL
1000
{"kind":"dim","detail":null,"view":"nest"}
  0
LINE
  5
73
330
17
100
AcDbEntity
  8
DIMENSIONS
100
AcDbLine
 10
-27.0
 20
900.0
 30
0.0
 11
-28.5
 21
897.0
 31
0.0
1001
HANOK_PORTRAIT_DL
1000
{"kind":"dim","detail":null,"view":"nest"}
  0
LINE
  5
74
330
17
100
AcDbEntity
  8
DIMENSIONS
100
AcDbLine
 10
-27.0
 20
900.0
 30
0.0
 11
-25.5
 21
897.0
 31
0.0
1001
HANOK_PORTRAIT_DL
1000
{"kind":"dim","detail":null,"view":"nest"}
  0
TEXT
  5
75
330
17
100
AcDbEntity
  8
DIMENSIONS
100
AcDbText
 10
-23.0
 20
450.0
 30
0.0
 40
3.6
  1
900
 50
90.0
 72
1
 11
-23.0
 21
450.0
 31
0.0
100
AcDbText
 73
2
1001
HANOK_PORTRAIT_DL
1000
{"text_align":"center","kind":"dim","detail":null,"view":"nest"}
  0
LINE
  5
76
330
17
100
AcDbEntity
  8
GRAIN_DIRECTION
100
AcDbLine
 10
140.3
 20
456.64
 30
0.0
 11
1079.7
 21
456.64
 31
0.0
1001
HANOK_PORTRAIT_DL
1000
{"view":"nest"}
  0
LINE
  5
77
330
17
100
AcDbEntity
  8
GRAIN_DIRECTION
100
AcDbLine
 10
1079.7
 20
456.64
 30
0.0
 11
1035.7
 21
477.64
 31
0.0
1001
HANOK_PORTRAIT_DL
1000
{"view":"nest"}
  0
LINE
  5
78
330
17
100
AcDbEntity
  8
GRAIN_DIRECTION
100
AcDbLine
 10
1079.7
 20
456.64
 30
0.0
 11
1035.7
 21
435.64
 31
0.0
1001
HANOK_PORTRAIT_DL
1000
{"view":"nest"}
  0
TEXT
  5
79
330
17
100
AcDbEntity
  8
GRAIN_DIRECTION
100
AcDbText
 10
610.0
 20
501.64
 30
0.0
 40
19.0
  1
GRAIN DIRECTION  +X
 72
1
 11
610.0
 21
501.64
 31
0.0
100
AcDbText
 73
2
1001
HANOK_PORTRAIT_DL
1000
{"text_align":"center","view":"nest"}
  0
TEXT
  5
7A
330
17
100
AcDbEntity
  8
NOTES
100
AcDbText
 10
610.0
 20
671.8
 30
0.0
 40
13.0
  1
UNUSED OFFCUT / NOT ADDITIONAL PARTS
 72
1
 11
610.0
 21
671.8
 31
0.0
100
AcDbText
 73
2
1001
HANOK_PORTRAIT_DL
1000
{"text_align":"center","view":"nest"}
  0
TEXT
  5
7B
330
17
100
AcDbEntity
  8
NOTES
100
AcDbText
 10
610.0
 20
637.8
 30
0.0
 40
8.0
  1
All 8 part lengths run parallel to the 1220 mm grain direction.
 72
1
 11
610.0
 21
637.8
 31
0.0
100
AcDbText
 73
2
1001
HANOK_PORTRAIT_DL
1000
{"text_align":"center","view":"nest"}
  0
TEXT
  5
7C
330
17
100
AcDbEntity
  8
NOTES
100
AcDbText
 10
30.0
 20
852.0
 30
0.0
 40
6.6
  1
ONE BOARD 1220 x 900 x 20 / ALL POCKETS MACHINED FROM COMMON FACE A
 11
30.0
 21
852.0
 31
0.0
100
AcDbText
 73
2
1001
HANOK_PORTRAIT_DL
1000
{"text_align":"left","view":"nest"}
  0
TEXT
  5
7D
330
17
100
AcDbEntity
  8
NOTES
100
AcDbText
 10
30.0
 20
832.0
 30
0.0
 40
6.6
  1
F01 / S01: A -> FRONT. F02 / S02: flip A -> BACK.
 11
30.0
 21
832.0
 31
0.0
100
AcDbText
 73
2
1001
HANOK_PORTRAIT_DL
1000
{"text_align":"left","view":"nest"}
  0
TEXT
  5
7E
330
17
100
AcDbEntity
  8
NOTES
100
AcDbText
 10
30.0
 20
812.0
 30
0.0
 40
6.6
  1
POCKET_10MM + DOGBONE: UNION, REMOVE 10 mm. OPEN LAPS NEED WASTE-SIDE OVERRUN.
 11
30.0
 21
812.0
 31
0.0
100
AcDbText
 73
2
1001
HANOK_PORTRAIT_DL
1000
{"text_align":"left","view":"nest"}
  0
TEXT
  5
7F
330
17
100
AcDbEntity
  8
NOTES
100
AcDbText
 10
30.0
 20
792.0
 30
0.0
 40
6.6
  1
HINGE_REF / LATCH_REF ARE POSITION REFERENCES ONLY. DO NOT MACHINE.
 11
30.0
 21
792.0
 31
0.0
100
AcDbText
 73
2
1001
HANOK_PORTRAIT_DL
1000
{"text_align":"left","view":"nest"}
  0
TEXT
  5
80
330
17
100
AcDbEntity
  8
NOTES
100
AcDbText
 10
30.0
 20
772.0
 30
0.0
 40
6.6
  1
NOMINAL FIT: VERIFY STOCK, TEST COUPONS, WORKHOLDING AND CAM BEFORE CUTTING.
 11
30.0
 21
772.0
 31
0.0
100
AcDbText
 73
2
1001
HANOK_PORTRAIT_DL
1000
{"text_align":"left","view":"nest"}
  0
TEXT
  5
81
330
17
100
AcDbEntity
  8
NOTES
100
AcDbText
 10
0.0
 20
-35.0
 30
0.0
 40
5.3
  1
No G-code, tabs, toolpaths, feeds or speeds are included. All hardware and backing remain PENDING.
 11
0.0
 21
-35.0
 31
0.0
100
AcDbText
 73
2
1001
HANOK_PORTRAIT_DL
1000
{"text_align":"left","view":"nest"}
  0
TEXT
  5
82
330
17
100
AcDbEntity
  8
NOTES
100
AcDbText
 10
1350.0
 20
1084.0
 30
0.0
 40
10.0
  1
SINGLE LEAF / LEFT HINGES / W420 x H900
 11
1350.0
 21
1084.0
 31
0.0
100
AcDbText
 73
2
1001
HANOK_PORTRAIT_DL
1000
{"text_align":"left","view":"assembly","kind":"title"}
  0
TEXT
  5
83
330
17
100
AcDbEntity
  8
NOTES
100
AcDbText
 10
1350.0
 20
1061.0
 30
0.0
 40
5.0
  1
1 LEAF / REFERENCE ONLY
 11
1350.0
 21
1061.0
 31
0.0
100
AcDbText
 73
2
1001
HANOK_PORTRAIT_DL
1000
{"text_align":"left","view":"assembly"}
  0
LWPOLYLINE
  5
84
330
17
100
AcDbEntity
  8
ASSEMBLY_REFERENCE
100
AcDbPolyline
 90
4
 70
1
 10
1350.0
 20
100.0
 10
1390.0
 20
100.0
 10
1390.0
 20
1000.0
 10
1350.0
 20
1000.0
1001
HANOK_PORTRAIT_DL
1000
{"view":"assembly","role":"body","part_id":"F01-1","assembly_group":"FIXED"}
  0
LWPOLYLINE
  5
85
330
17
100
AcDbEntity
  8
ASSEMBLY_REFERENCE
100
AcDbPolyline
 90
4
 70
1
 10
1770.0
 20
1000.0
 10
1730.0
 20
1000.0
 10
1730.0
 20
100.0
 10
1770.0
 20
100.0
1001
HANOK_PORTRAIT_DL
1000
{"view":"assembly","role":"body","part_id":"F01-2","assembly_group":"FIXED"}
  0
LWPOLYLINE
  5
86
330
17
100
AcDbEntity
  8
ASSEMBLY_REFERENCE
100
AcDbPolyline
 90
4
 70
1
 10
1393.0
 20
143.0
 10
1423.0
 20
143.0
 10
1423.0
 20
957.0
 10
1393.0
 20
957.0
1001
HANOK_PORTRAIT_DL
1000
{"view":"assembly","role":"body","part_id":"S01-1","assembly_group":"LEAF_1"}
  0
LWPOLYLINE
  5
87
330
17
100
AcDbEntity
  8
ASSEMBLY_REFERENCE
100
AcDbPolyline
 90
4
 70
1
 10
1727.0
 20
957.0
 10
1697.0
 20
957.0
 10
1697.0
 20
143.0
 10
1727.0
 20
143.0
1001
HANOK_PORTRAIT_DL
1000
{"view":"assembly","role":"body","part_id":"S01-2","assembly_group":"LEAF_1"}
  0
LWPOLYLINE
  5
88
330
17
100
AcDbEntity
  8
ASSEMBLY_REFERENCE
100
AcDbPolyline
 90
4
 70
1
 10
1350.0
 20
100.0
 10
1350.0
 20
140.0
 10
1770.0
 20
140.0
 10
1770.0
 20
100.0
1001
HANOK_PORTRAIT_DL
1000
{"view":"assembly","role":"body","part_id":"F02-1","assembly_group":"FIXED"}
  0
LWPOLYLINE
  5
89
330
17
100
AcDbEntity
  8
ASSEMBLY_REFERENCE
100
AcDbPolyline
 90
4
 70
1
 10
1770.0
 20
1000.0
 10
1770.0
 20
960.0
 10
1350.0
 20
960.0
 10
1350.0
 20
1000.0
1001
HANOK_PORTRAIT_DL
1000
{"view":"assembly","role":"body","part_id":"F02-2","assembly_group":"FIXED"}
  0
LWPOLYLINE
  5
8A
330
17
100
AcDbEntity
  8
ASSEMBLY_REFERENCE
100
AcDbPolyline
 90
4
 70
1
 10
1393.0
 20
143.0
 10
1393.0
 20
173.0
 10
1727.0
 20
173.0
 10
1727.0
 20
143.0
1001
HANOK_PORTRAIT_DL
1000
{"view":"assembly","role":"body","part_id":"S02-1","assembly_group":"LEAF_1"}
  0
LWPOLYLINE
  5
8B
330
17
100
AcDbEntity
  8
ASSEMBLY_REFERENCE
100
AcDbPolyline
 90
4
 70
1
 10
1727.0
 20
957.0
 10
1727.0
 20
927.0
 10
1393.0
 20
927.0
 10
1393.0
 20
957.0
1001
HANOK_PORTRAIT_DL
1000
{"view":"assembly","role":"body","part_id":"S02-2","assembly_group":"LEAF_1"}
  0
LWPOLYLINE
  5
8C
330
17
100
AcDbEntity
  8
ASSEMBLY_REFERENCE
  6
REF_DASH
100
AcDbPolyline
 90
4
 70
1
 10
1423.0
 20
173.0
 10
1697.0
 20
173.0
 10
1697.0
 20
927.0
 10
1423.0
 20
927.0
1001
HANOK_PORTRAIT_DL
1000
{"view":"assembly","role":"opening","nominal_size":[274.0,754]}
  0
LINE
  5
8D
330
17
100
AcDbEntity
  8
DIMENSIONS
100
AcDbLine
 10
1350.0
 20
1000.0
 30
0.0
 11
1350.0
 21
1029.0
 31
0.0
1001
HANOK_PORTRAIT_DL
1000
{"kind":"dim","detail":null,"view":"assembly"}
  0
LINE
  5
8E
330
17
100
AcDbEntity
  8
DIMENSIONS
100
AcDbLine
 10
1770.0
 20
1000.0
 30
0.0
 11
1770.0
 21
1029.0
 31
0.0
1001
HANOK_PORTRAIT_DL
1000
{"kind":"dim","detail":null,"view":"assembly"}
  0
LINE
  5
8F
330
17
100
AcDbEntity
  8
DIMENSIONS
100
AcDbLine
 10
1350.0
 20
1027.0
 30
0.0
 11
1770.0
 21
1027.0
 31
0.0
1001
HANOK_PORTRAIT_DL
1000
{"kind":"dim","detail":null,"view":"assembly"}
  0
LINE
  5
90
330
17
100
AcDbEntity
  8
DIMENSIONS
100
AcDbLine
 10
1350.0
 20
1027.0
 30
0.0
 11
1353.0
 21
1028.5
 31
0.0
1001
HANOK_PORTRAIT_DL
1000
{"kind":"dim","detail":null,"view":"assembly"}
  0
LINE
  5
91
330
17
100
AcDbEntity
  8
DIMENSIONS
100
AcDbLine
 10
1350.0
 20
1027.0
 30
0.0
 11
1353.0
 21
1025.5
 31
0.0
1001
HANOK_PORTRAIT_DL
1000
{"kind":"dim","detail":null,"view":"assembly"}
  0
LINE
  5
92
330
17
100
AcDbEntity
  8
DIMENSIONS
100
AcDbLine
 10
1770.0
 20
1027.0
 30
0.0
 11
1767.0
 21
1028.5
 31
0.0
1001
HANOK_PORTRAIT_DL
1000
{"kind":"dim","detail":null,"view":"assembly"}
  0
LINE
  5
93
330
17
100
AcDbEntity
  8
DIMENSIONS
100
AcDbLine
 10
1770.0
 20
1027.0
 30
0.0
 11
1767.0
 21
1025.5
 31
0.0
1001
HANOK_PORTRAIT_DL
1000
{"kind":"dim","detail":null,"view":"assembly"}
  0
TEXT
  5
94
330
17
100
AcDbEntity
  8
DIMENSIONS
100
AcDbText
 10
1560.0
 20
1031.0
 30
0.0
 40
3.6
  1
420 OVERALL (INPUT)
 72
1
 11
1560.0
 21
1031.0
 31
0.0
100
AcDbText
 73
2
1001
HANOK_PORTRAIT_DL
1000
{"text_align":"center","kind":"dim","detail":null,"view":"assembly"}
  0
LINE
  5
95
330
17
100
AcDbEntity
  8
DIMENSIONS
100
AcDbLine
 10
1770.0
 20
100.0
 30
0.0
 11
1808.0
 21
100.0
 31
0.0
1001
HANOK_PORTRAIT_DL
1000
{"kind":"dim","detail":null,"view":"assembly"}
  0
LINE
  5
96
330
17
100
AcDbEntity
  8
DIMENSIONS
100
AcDbLine
 10
1770.0
 20
1000.0
 30
0.0
 11
1808.0
 21
1000.0
 31
0.0
1001
HANOK_PORTRAIT_DL
1000
{"kind":"dim","detail":null,"view":"assembly"}
  0
LINE
  5
97
330
17
100
AcDbEntity
  8
DIMENSIONS
100
AcDbLine
 10
1806.0
 20
100.0
 30
0.0
 11
1806.0
 21
1000.0
 31
0.0
1001
HANOK_PORTRAIT_DL
1000
{"kind":"dim","detail":null,"view":"assembly"}
  0
LINE
  5
98
330
17
100
AcDbEntity
  8
DIMENSIONS
100
AcDbLine
 10
1806.0
 20
100.0
 30
0.0
 11
1804.5
 21
103.0
 31
0.0
1001
HANOK_PORTRAIT_DL
1000
{"kind":"dim","detail":null,"view":"assembly"}
  0
LINE
  5
99
330
17
100
AcDbEntity
  8
DIMENSIONS
100
AcDbLine
 10
1806.0
 20
100.0
 30
0.0
 11
1807.5
 21
103.0
 31
0.0
1001
HANOK_PORTRAIT_DL
1000
{"kind":"dim","detail":null,"view":"assembly"}
  0
LINE
  5
9A
330
17
100
AcDbEntity
  8
DIMENSIONS
100
AcDbLine
 10
1806.0
 20
1000.0
 30
0.0
 11
1804.5
 21
997.0
 31
0.0
1001
HANOK_PORTRAIT_DL
1000
{"kind":"dim","detail":null,"view":"assembly"}
  0
LINE
  5
9B
330
17
100
AcDbEntity
  8
DIMENSIONS
100
AcDbLine
 10
1806.0
 20
1000.0
 30
0.0
 11
1807.5
 21
997.0
 31
0.0
1001
HANOK_PORTRAIT_DL
1000
{"kind":"dim","detail":null,"view":"assembly"}
  0
TEXT
  5
9C
330
17
100
AcDbEntity
  8
DIMENSIONS
100
AcDbText
 10
1810.0
 20
550.0
 30
0.0
 40
3.6
  1
900 OVERALL (INPUT)
 50
90.0
 72
1
 11
1810.0
 21
550.0
 31
0.0
100
AcDbText
 73
2
1001
HANOK_PORTRAIT_DL
1000
{"text_align":"center","kind":"dim","detail":null,"view":"assembly"}
  0
LINE
  5
9D
330
17
100
AcDbEntity
  8
DIMENSIONS
100
AcDbLine
 10
1390.0
 20
140.0
 30
0.0
 11
1390.0
 21
26.0
 31
0.0
1001
HANOK_PORTRAIT_DL
1000
{"kind":"dim","detail":null,"view":"assembly"}
  0
LINE
  5
9E
330
17
100
AcDbEntity
  8
DIMENSIONS
100
AcDbLine
 10
1730.0
 20
140.0
 30
0.0
 11
1730.0
 21
26.0
 31
0.0
1001
HANOK_PORTRAIT_DL
1000
{"kind":"dim","detail":null,"view":"assembly"}
  0
LINE
  5
9F
330
17
100
AcDbEntity
  8
DIMENSIONS
100
AcDbLine
 10
1390.0
 20
28.0
 30
0.0
 11
1730.0
 21
28.0
 31
0.0
1001
HANOK_PORTRAIT_DL
1000
{"kind":"dim","detail":null,"view":"assembly"}
  0
LINE
  5
A0
330
17
100
AcDbEntity
  8
DIMENSIONS
100
AcDbLine
 10
1390.0
 20
28.0
 30
0.0
 11
1393.0
 21
29.5
 31
0.0
1001
HANOK_PORTRAIT_DL
1000
{"kind":"dim","detail":null,"view":"assembly"}
  0
LINE
  5
A1
330
17
100
AcDbEntity
  8
DIMENSIONS
100
AcDbLine
 10
1390.0
 20
28.0
 30
0.0
 11
1393.0
 21
26.5
 31
0.0
1001
HANOK_PORTRAIT_DL
1000
{"kind":"dim","detail":null,"view":"assembly"}
  0
LINE
  5
A2
330
17
100
AcDbEntity
  8
DIMENSIONS
100
AcDbLine
 10
1730.0
 20
28.0
 30
0.0
 11
1727.0
 21
29.5
 31
0.0
1001
HANOK_PORTRAIT_DL
1000
{"kind":"dim","detail":null,"view":"assembly"}
  0
LINE
  5
A3
330
17
100
AcDbEntity
  8
DIMENSIONS
100
AcDbLine
 10
1730.0
 20
28.0
 30
0.0
 11
1727.0
 21
26.5
 31
0.0
1001
HANOK_PORTRAIT_DL
1000
{"kind":"dim","detail":null,"view":"assembly"}
  0
TEXT
  5
A4
330
17
100
AcDbEntity
  8
DIMENSIONS
100
AcDbText
 10
1560.0
 20
32.0
 30
0.0
 40
3.6
  1
340 FRAME INNER
 72
1
 11
1560.0
 21
32.0
 31
0.0
100
AcDbText
 73
2
1001
HANOK_PORTRAIT_DL
1000
{"text_align":"center","kind":"dim","detail":null,"view":"assembly"}
  0
LINE
  5
A5
330
17
100
AcDbEntity
  8
DIMENSIONS
100
AcDbLine
 10
1390.0
 20
140.0
 30
0.0
 11
1290.0
 21
140.0
 31
0.0
1001
HANOK_PORTRAIT_DL
1000
{"kind":"dim","detail":null,"view":"assembly"}
  0
LINE
  5
A6
330
17
100
AcDbEntity
  8
DIMENSIONS
100
AcDbLine
 10
1390.0
 20
960.0
 30
0.0
 11
1290.0
 21
960.0
 31
0.0
1001
HANOK_PORTRAIT_DL
1000
{"kind":"dim","detail":null,"view":"assembly"}
  0
LINE
  5
A7
330
17
100
AcDbEntity
  8
DIMENSIONS
100
AcDbLine
 10
1292.0
 20
140.0
 30
0.0
 11
1292.0
 21
960.0
 31
0.0
1001
HANOK_PORTRAIT_DL
1000
{"kind":"dim","detail":null,"view":"assembly"}
  0
LINE
  5
A8
330
17
100
AcDbEntity
  8
DIMENSIONS
100
AcDbLine
 10
1292.0
 20
140.0
 30
0.0
 11
1290.5
 21
143.0
 31
0.0
1001
HANOK_PORTRAIT_DL
1000
{"kind":"dim","detail":null,"view":"assembly"}
  0
LINE
  5
A9
330
17
100
AcDbEntity
  8
DIMENSIONS
100
AcDbLine
 10
1292.0
 20
140.0
 30
0.0
 11
1293.5
 21
143.0
 31
0.0
1001
HANOK_PORTRAIT_DL
1000
{"kind":"dim","detail":null,"view":"assembly"}
  0
LINE
  5
AA
330
17
100
AcDbEntity
  8
DIMENSIONS
100
AcDbLine
 10
1292.0
 20
960.0
 30
0.0
 11
1290.5
 21
957.0
 31
0.0
1001
HANOK_PORTRAIT_DL
1000
{"kind":"dim","detail":null,"view":"assembly"}
  0
LINE
  5
AB
330
17
100
AcDbEntity
  8
DIMENSIONS
100
AcDbLine
 10
1292.0
 20
960.0
 30
0.0
 11
1293.5
 21
957.0
 31
0.0
1001
HANOK_PORTRAIT_DL
1000
{"kind":"dim","detail":null,"view":"assembly"}
  0
TEXT
  5
AC
330
17
100
AcDbEntity
  8
DIMENSIONS
100
AcDbText
 10
1296.0
 20
550.0
 30
0.0
 40
3.6
  1
820 FRAME INNER
 50
90.0
 72
1
 11
1296.0
 21
550.0
 31
0.0
100
AcDbText
 73
2
1001
HANOK_PORTRAIT_DL
1000
{"text_align":"center","kind":"dim","detail":null,"view":"assembly"}
  0
LINE
  5
AD
330
17
100
AcDbEntity
  8
DIMENSIONS
100
AcDbLine
 10
1393.0
 20
143.0
 30
0.0
 11
1393.0
 21
80.0
 31
0.0
1001
HANOK_PORTRAIT_DL
1000
{"kind":"dim","detail":null,"view":"assembly"}
  0
LINE
  5
AE
330
17
100
AcDbEntity
  8
DIMENSIONS
100
AcDbLine
 10
1727.0
 20
143.0
 30
0.0
 11
1727.0
 21
80.0
 31
0.0
1001
HANOK_PORTRAIT_DL
1000
{"kind":"dim","detail":null,"view":"assembly"}
  0
LINE
  5
AF
330
17
100
AcDbEntity
  8
DIMENSIONS
100
AcDbLine
 10
1393.0
 20
82.0
 30
0.0
 11
1727.0
 21
82.0
 31
0.0
1001
HANOK_PORTRAIT_DL
1000
{"kind":"dim","detail":null,"view":"assembly"}
  0
LINE
  5
B0
330
17
100
AcDbEntity
  8
DIMENSIONS
100
AcDbLine
 10
1393.0
 20
82.0
 30
0.0
 11
1396.0
 21
83.5
 31
0.0
1001
HANOK_PORTRAIT_DL
1000
{"kind":"dim","detail":null,"view":"assembly"}
  0
LINE
  5
B1
330
17
100
AcDbEntity
  8
DIMENSIONS
100
AcDbLine
 10
1393.0
 20
82.0
 30
0.0
 11
1396.0
 21
80.5
 31
0.0
1001
HANOK_PORTRAIT_DL
1000
{"kind":"dim","detail":null,"view":"assembly"}
  0
LINE
  5
B2
330
17
100
AcDbEntity
  8
DIMENSIONS
100
AcDbLine
 10
1727.0
 20
82.0
 30
0.0
 11
1724.0
 21
83.5
 31
0.0
1001
HANOK_PORTRAIT_DL
1000
{"kind":"dim","detail":null,"view":"assembly"}
  0
LINE
  5
B3
330
17
100
AcDbEntity
  8
DIMENSIONS
100
AcDbLine
 10
1727.0
 20
82.0
 30
0.0
 11
1724.0
 21
80.5
 31
0.0
1001
HANOK_PORTRAIT_DL
1000
{"kind":"dim","detail":null,"view":"assembly"}
  0
TEXT
  5
B4
330
17
100
AcDbEntity
  8
DIMENSIONS
100
AcDbText
 10
1560.0
 20
86.0
 30
0.0
 40
3.6
  1
334 SINGLE LEAF
 72
1
 11
1560.0
 21
86.0
 31
0.0
100
AcDbText
 73
2
1001
HANOK_PORTRAIT_DL
1000
{"text_align":"center","kind":"dim","detail":null,"view":"assembly"}
  0
LINE
  5
B5
330
17
100
AcDbEntity
  8
DIMENSIONS
100
AcDbLine
 10
1350.0
 20
143.0
 30
0.0
 11
1319.0
 21
143.0
 31
0.0
1001
HANOK_PORTRAIT_DL
1000
{"kind":"dim","detail":null,"view":"assembly"}
  0
LINE
  5
B6
330
17
100
AcDbEntity
  8
DIMENSIONS
100
AcDbLine
 10
1350.0
 20
957.0
 30
0.0
 11
1319.0
 21
957.0
 31
0.0
1001
HANOK_PORTRAIT_DL
1000
{"kind":"dim","detail":null,"view":"assembly"}
  0
LINE
  5
B7
330
17
100
AcDbEntity
  8
DIMENSIONS
100
AcDbLine
 10
1321.0
 20
143.0
 30
0.0
 11
1321.0
 21
957.0
 31
0.0
1001
HANOK_PORTRAIT_DL
1000
{"kind":"dim","detail":null,"view":"assembly"}
  0
LINE
  5
B8
330
17
100
AcDbEntity
  8
DIMENSIONS
100
AcDbLine
 10
1321.0
 20
143.0
 30
0.0
 11
1319.5
 21
146.0
 31
0.0
1001
HANOK_PORTRAIT_DL
1000
{"kind":"dim","detail":null,"view":"assembly"}
  0
LINE
  5
B9
330
17
100
AcDbEntity
  8
DIMENSIONS
100
AcDbLine
 10
1321.0
 20
143.0
 30
0.0
 11
1322.5
 21
146.0
 31
0.0
1001
HANOK_PORTRAIT_DL
1000
{"kind":"dim","detail":null,"view":"assembly"}
  0
LINE
  5
BA
330
17
100
AcDbEntity
  8
DIMENSIONS
100
AcDbLine
 10
1321.0
 20
957.0
 30
0.0
 11
1319.5
 21
954.0
 31
0.0
1001
HANOK_PORTRAIT_DL
1000
{"kind":"dim","detail":null,"view":"assembly"}
  0
LINE
  5
BB
330
17
100
AcDbEntity
  8
DIMENSIONS
100
AcDbLine
 10
1321.0
 20
957.0
 30
0.0
 11
1322.5
 21
954.0
 31
0.0
1001
HANOK_PORTRAIT_DL
1000
{"kind":"dim","detail":null,"view":"assembly"}
  0
TEXT
  5
BC
330
17
100
AcDbEntity
  8
DIMENSIONS
100
AcDbText
 10
1325.0
 20
550.0
 30
0.0
 40
3.6
  1
814 LEAF
 50
90.0
 72
1
 11
1325.0
 21
550.0
 31
0.0
100
AcDbText
 73
2
1001
HANOK_PORTRAIT_DL
1000
{"text_align":"center","kind":"dim","detail":null,"view":"assembly"}
  0
LINE
  5
BD
330
17
100
AcDbEntity
  8
DIMENSIONS
100
AcDbLine
 10
1423.0
 20
927.0
 30
0.0
 11
1423.0
 21
980.0
 31
0.0
1001
HANOK_PORTRAIT_DL
1000
{"kind":"dim","detail":null,"view":"assembly"}
  0
LINE
  5
BE
330
17
100
AcDbEntity
  8
DIMENSIONS
100
AcDbLine
 10
1697.0
 20
927.0
 30
0.0
 11
1697.0
 21
980.0
 31
0.0
1001
HANOK_PORTRAIT_DL
1000
{"kind":"dim","detail":null,"view":"assembly"}
  0
LINE
  5
BF
330
17
100
AcDbEntity
  8
DIMENSIONS
100
AcDbLine
 10
1423.0
 20
978.0
 30
0.0
 11
1697.0
 21
978.0
 31
0.0
1001
HANOK_PORTRAIT_DL
1000
{"kind":"dim","detail":null,"view":"assembly"}
  0
LINE
  5
C0
330
17
100
AcDbEntity
  8
DIMENSIONS
100
AcDbLine
 10
1423.0
 20
978.0
 30
0.0
 11
1426.0
 21
979.5
 31
0.0
1001
HANOK_PORTRAIT_DL
1000
{"kind":"dim","detail":null,"view":"assembly"}
  0
LINE
  5
C1
330
17
100
AcDbEntity
  8
DIMENSIONS
100
AcDbLine
 10
1423.0
 20
978.0
 30
0.0
 11
1426.0
 21
976.5
 31
0.0
1001
HANOK_PORTRAIT_DL
1000
{"kind":"dim","detail":null,"view":"assembly"}
  0
LINE
  5
C2
330
17
100
AcDbEntity
  8
DIMENSIONS
100
AcDbLine
 10
1697.0
 20
978.0
 30
0.0
 11
1694.0
 21
979.5
 31
0.0
1001
HANOK_PORTRAIT_DL
1000
{"kind":"dim","detail":null,"view":"assembly"}
  0
LINE
  5
C3
330
17
100
AcDbEntity
  8
DIMENSIONS
100
AcDbLine
 10
1697.0
 20
978.0
 30
0.0
 11
1694.0
 21
976.5
 31
0.0
1001
HANOK_PORTRAIT_DL
1000
{"kind":"dim","detail":null,"view":"assembly"}
  0
TEXT
  5
C4
330
17
100
AcDbEntity
  8
DIMENSIONS
100
AcDbText
 10
1560.0
 20
982.0
 30
0.0
 40
3.6
  1
274 OPENING
 72
1
 11
1560.0
 21
982.0
 31
0.0
100
AcDbText
 73
2
1001
HANOK_PORTRAIT_DL
1000
{"text_align":"center","kind":"dim","detail":null,"view":"assembly"}
  0
LINE
  5
C5
330
17
100
AcDbEntity
  8
DIMENSIONS
100
AcDbLine
 10
1697.0
 20
173.0
 30
0.0
 11
1751.0
 21
173.0
 31
0.0
1001
HANOK_PORTRAIT_DL
1000
{"kind":"dim","detail":null,"view":"assembly"}
  0
LINE
  5
C6
330
17
100
AcDbEntity
  8
DIMENSIONS
100
AcDbLine
 10
1697.0
 20
927.0
 30
0.0
 11
1751.0
 21
927.0
 31
0.0
1001
HANOK_PORTRAIT_DL
1000
{"kind":"dim","detail":null,"view":"assembly"}
  0
LINE
  5
C7
330
17
100
AcDbEntity
  8
DIMENSIONS
100
AcDbLine
 10
1749.0
 20
173.0
 30
0.0
 11
1749.0
 21
927.0
 31
0.0
1001
HANOK_PORTRAIT_DL
1000
{"kind":"dim","detail":null,"view":"assembly"}
  0
LINE
  5
C8
330
17
100
AcDbEntity
  8
DIMENSIONS
100
AcDbLine
 10
1749.0
 20
173.0
 30
0.0
 11
1747.5
 21
176.0
 31
0.0
1001
HANOK_PORTRAIT_DL
1000
{"kind":"dim","detail":null,"view":"assembly"}
  0
LINE
  5
C9
330
17
100
AcDbEntity
  8
DIMENSIONS
100
AcDbLine
 10
1749.0
 20
173.0
 30
0.0
 11
1750.5
 21
176.0
 31
0.0
1001
HANOK_PORTRAIT_DL
1000
{"kind":"dim","detail":null,"view":"assembly"}
  0
LINE
  5
CA
330
17
100
AcDbEntity
  8
DIMENSIONS
100
AcDbLine
 10
1749.0
 20
927.0
 30
0.0
 11
1747.5
 21
924.0
 31
0.0
1001
HANOK_PORTRAIT_DL
1000
{"kind":"dim","detail":null,"view":"assembly"}
  0
LINE
  5
CB
330
17
100
AcDbEntity
  8
DIMENSIONS
100
AcDbLine
 10
1749.0
 20
927.0
 30
0.0
 11
1750.5
 21
924.0
 31
0.0
1001
HANOK_PORTRAIT_DL
1000
{"kind":"dim","detail":null,"view":"assembly"}
  0
TEXT
  5
CC
330
17
100
AcDbEntity
  8
DIMENSIONS
100
AcDbText
 10
1753.0
 20
550.0
 30
0.0
 40
3.6
  1
754 OPENING
 50
90.0
 72
1
 11
1753.0
 21
550.0
 31
0.0
100
AcDbText
 73
2
1001
HANOK_PORTRAIT_DL
1000
{"text_align":"center","kind":"dim","detail":null,"view":"assembly"}
  0
TEXT
  5
CD
330
17
100
AcDbEntity
  8
ASSEMBLY_REFERENCE
100
AcDbText
 10
1560.0
 20
940.0
 30
0.0
 40
4.0
  1
SINGLE / 334 x 814
 72
1
 11
1560.0
 21
940.0
 31
0.0
100
AcDbText
 73
2
1001
HANOK_PORTRAIT_DL
1000
{"text_align":"center","view":"assembly"}
  0
TEXT
  5
CE
330
17
100
AcDbEntity
  8
ASSEMBLY_REFERENCE
100
AcDbText
 10
1370.0
 20
622.0
 30
0.0
 40
3.6
  1
F01-1
 50
90.0
 72
1
 11
1370.0
 21
622.0
 31
0.0
100
AcDbText
 73
2
1001
HANOK_PORTRAIT_DL
1000
{"text_align":"center","view":"assembly"}
  0
TEXT
  5
CF
330
17
100
AcDbEntity
  8
ASSEMBLY_REFERENCE
100
AcDbText
 10
1750.0
 20
622.0
 30
0.0
 40
3.6
  1
F01-2
 50
90.0
 72
1
 11
1750.0
 21
622.0
 31
0.0
100
AcDbText
 73
2
1001
HANOK_PORTRAIT_DL
1000
{"text_align":"center","view":"assembly"}
  0
TEXT
  5
D0
330
17
100
AcDbEntity
  8
ASSEMBLY_REFERENCE
100
AcDbText
 10
1560.0
 20
120.0
 30
0.0
 40
3.5
  1
F02-1
 72
1
 11
1560.0
 21
120.0
 31
0.0
100
AcDbText
 73
2
1001
HANOK_PORTRAIT_DL
1000
{"text_align":"center","view":"assembly"}
  0
TEXT
  5
D1
330
17
100
AcDbEntity
  8
ASSEMBLY_REFERENCE
100
AcDbText
 10
1560.0
 20
980.0
 30
0.0
 40
3.5
  1
F02-2
 72
1
 11
1560.0
 21
980.0
 31
0.0
100
AcDbText
 73
2
1001
HANOK_PORTRAIT_DL
1000
{"text_align":"center","view":"assembly"}
  0
TEXT
  5
D2
330
17
100
AcDbEntity
  8
ASSEMBLY_REFERENCE
100
AcDbText
 10
1408.0
 20
622.0
 30
0.0
 40
3.6
  1
S01-1
 50
90.0
 72
1
 11
1408.0
 21
622.0
 31
0.0
100
AcDbText
 73
2
1001
HANOK_PORTRAIT_DL
1000
{"text_align":"center","view":"assembly"}
  0
TEXT
  5
D3
330
17
100
AcDbEntity
  8
ASSEMBLY_REFERENCE
100
AcDbText
 10
1712.0
 20
622.0
 30
0.0
 40
3.6
  1
S01-2
 50
90.0
 72
1
 11
1712.0
 21
622.0
 31
0.0
100
AcDbText
 73
2
1001
HANOK_PORTRAIT_DL
1000
{"text_align":"center","view":"assembly"}
  0
TEXT
  5
D4
330
17
100
AcDbEntity
  8
ASSEMBLY_REFERENCE
100
AcDbText
 10
1560.0
 20
158.0
 30
0.0
 40
3.5
  1
S02-1
 72
1
 11
1560.0
 21
158.0
 31
0.0
100
AcDbText
 73
2
1001
HANOK_PORTRAIT_DL
1000
{"text_align":"center","view":"assembly"}
  0
TEXT
  5
D5
330
17
100
AcDbEntity
  8
NOTES
100
AcDbText
 10
1560.0
 20
61.0
 30
0.0
 40
4.7
  1
3 mm external clearances
 72
1
 11
1560.0
 21
61.0
 31
0.0
100
AcDbText
 73
2
1001
HANOK_PORTRAIT_DL
1000
{"text_align":"center","view":"assembly"}
  0
LWPOLYLINE
  5
D6
330
17
100
AcDbEntity
  8
HINGE_REF
100
AcDbPolyline
 90
4
 70
1
 10
837.0
 20
58.0
 10
797.0
 20
58.0
 10
797.0
 20
44.0
 10
837.0
 20
44.0
1001
HANOK_PORTRAIT_DL
1000
{"kind":"hardware_ref","view":"nest","hardware_id":"H-LEFT-1","part_id":"F01-1","hardware_type":"HINGE","wing":"FIXED","depth_ref_mm":2,"reference_only":true,"production_machining":false,"assembly_face":"FRONT","position_only":true}
  0
LWPOLYLINE
  5
D7
330
17
100
AcDbEntity
  8
HINGE_REF
100
AcDbPolyline
 90
4
 70
1
 10
1388.0
 20
183.0
 10
1388.0
 20
223.0
 10
1374.0
 20
223.0
 10
1374.0
 20
183.0
1001
HANOK_PORTRAIT_DL
1000
{"kind":"hardware_ref","view":"assembly","hardware_id":"H-LEFT-1","part_id":"F01-1","hardware_type":"HINGE","wing":"FIXED","depth_ref_mm":2,"reference_only":true,"production_machining":false,"assembly_face":"FRONT","position_only":true}
  0
LWPOLYLINE
  5
D8
330
17
100
AcDbEntity
  8
HINGE_REF
100
AcDbPolyline
 90
4
 70
1
 10
794.0
 20
192.0
 10
754.0
 20
192.0
 10
754.0
 20
178.0
 10
794.0
 20
178.0
1001
HANOK_PORTRAIT_DL
1000
{"kind":"hardware_ref","view":"nest","hardware_id":"H-LEFT-1","part_id":"S01-1","hardware_type":"HINGE","wing":"SASH","depth_ref_mm":2,"reference_only":true,"production_machining":false,"assembly_face":"FRONT","position_only":true}
  0
LWPOLYLINE
  5
D9
330
17
100
AcDbEntity
  8
HINGE_REF
100
AcDbPolyline
 90
4
 70
1
 10
1409.0
 20
183.0
 10
1409.0
 20
223.0
 10
1395.0
 20
223.0
 10
1395.0
 20
183.0
1001
HANOK_PORTRAIT_DL
1000
{"kind":"hardware_ref","view":"assembly","hardware_id":"H-LEFT-1","part_id":"S01-1","hardware_type":"HINGE","wing":"SASH","depth_ref_mm":2,"reference_only":true,"production_machining":false,"assembly_face":"FRONT","position_only":true}
  0
LWPOLYLINE
  5
DA
330
17
100
AcDbEntity
  8
HINGE_REF
100
AcDbPolyline
 90
4
 70
1
 10
143.0
 20
58.0
 10
103.0
 20
58.0
 10
103.0
 20
44.0
 10
143.0
 20
44.0
1001
HANOK_PORTRAIT_DL
1000
{"kind":"hardware_ref","view":"nest","hardware_id":"H-LEFT-2","part_id":"F01-1","hardware_type":"HINGE","wing":"FIXED","depth_ref_mm":2,"reference_only":true,"production_machining":false,"assembly_face":"FRONT","position_only":true}
  0
LWPOLYLINE
  5
DB
330
17
100
AcDbEntity
  8
HINGE_REF
100
AcDbPolyline
 90
4
 70
1
 10
1388.0
 20
877.0
 10
1388.0
 20
917.0
 10
1374.0
 20
917.0
 10
1374.0
 20
877.0
1001
HANOK_PORTRAIT_DL
1000
{"kind":"hardware_ref","view":"assembly","hardware_id":"H-LEFT-2","part_id":"F01-1","hardware_type":"HINGE","wing":"FIXED","depth_ref_mm":2,"reference_only":true,"production_machining":false,"assembly_face":"FRONT","position_only":true}
  0
LWPOLYLINE
  5
DC
330
17
100
AcDbEntity
  8
HINGE_REF
100
AcDbPolyline
 90
4
 70
1
 10
100.0
 20
192.0
 10
60.0
 20
192.0
 10
60.0
 20
178.0
 10
100.0
 20
178.0
1001
HANOK_PORTRAIT_DL
1000
{"kind":"hardware_ref","view":"nest","hardware_id":"H-LEFT-2","part_id":"S01-1","hardware_type":"HINGE","wing":"SASH","depth_ref_mm":2,"reference_only":true,"production_machining":false,"assembly_face":"FRONT","position_only":true}
  0
LWPOLYLINE
  5
DD
330
17
100
AcDbEntity
  8
HINGE_REF
100
AcDbPolyline
 90
4
 70
1
 10
1409.0
 20
877.0
 10
1409.0
 20
917.0
 10
1395.0
 20
917.0
 10
1395.0
 20
877.0
1001
HANOK_PORTRAIT_DL
1000
{"kind":"hardware_ref","view":"assembly","hardware_id":"H-LEFT-2","part_id":"S01-1","hardware_type":"HINGE","wing":"SASH","depth_ref_mm":2,"reference_only":true,"production_machining":false,"assembly_face":"FRONT","position_only":true}
  0
LWPOLYLINE
  5
DE
330
17
100
AcDbEntity
  8
LATCH_REF
100
AcDbPolyline
 90
4
 70
1
 10
417.0
 20
228.0
 10
437.0
 20
228.0
 10
437.0
 20
238.0
 10
417.0
 20
238.0
1001
HANOK_PORTRAIT_DL
1000
{"kind":"hardware_ref","view":"nest","hardware_id":"HANDLE-1","part_id":"S01-2","hardware_type":"HANDLE","reference_only":true,"production_machining":false,"assembly_face":"FRONT","position_only":true}
  0
LWPOLYLINE
  5
DF
330
17
100
AcDbEntity
  8
LATCH_REF
100
AcDbPolyline
 90
4
 70
1
 10
1717.0
 20
540.0
 10
1717.0
 20
560.0
 10
1707.0
 20
560.0
 10
1707.0
 20
540.0
1001
HANOK_PORTRAIT_DL
1000
{"kind":"hardware_ref","view":"assembly","hardware_id":"HANDLE-1","part_id":"S01-2","hardware_type":"HANDLE","reference_only":true,"production_machining":false,"assembly_face":"FRONT","position_only":true}
  0
LWPOLYLINE
  5
E0
330
17
100
AcDbEntity
  8
LATCH_REF
100
AcDbPolyline
 90
4
 70
1
 10
452.0
 20
228.0
 10
462.0
 20
228.0
 10
462.0
 20
238.0
 10
452.0
 20
238.0
1001
HANOK_PORTRAIT_DL
1000
{"kind":"hardware_ref","view":"nest","hardware_id":"CATCH-1","part_id":"S01-2","hardware_type":"CATCH","reference_only":true,"production_machining":false,"assembly_face":"FRONT","position_only":true}
  0
LWPOLYLINE
  5
E1
330
17
100
AcDbEntity
  8
LATCH_REF
100
AcDbPolyline
 90
4
 70
1
 10
1717.0
 20
575.0
 10
1717.0
 20
585.0
 10
1707.0
 20
585.0
 10
1707.0
 20
575.0
1001
HANOK_PORTRAIT_DL
1000
{"kind":"hardware_ref","view":"assembly","hardware_id":"CATCH-1","part_id":"S01-2","hardware_type":"CATCH","reference_only":true,"production_machining":false,"assembly_face":"FRONT","position_only":true}
  0
LWPOLYLINE
  5
E2
330
17
100
AcDbEntity
  8
LATCH_REF
100
AcDbPolyline
 90
4
 70
1
 10
495.0
 20
87.0
 10
505.0
 20
87.0
 10
505.0
 20
97.0
 10
495.0
 20
97.0
1001
HANOK_PORTRAIT_DL
1000
{"kind":"hardware_ref","view":"nest","hardware_id":"CATCH-1","part_id":"F01-2","hardware_type":"CATCH","reference_only":true,"production_machining":false,"assembly_face":"FRONT","position_only":true}
  0
LWPOLYLINE
  5
E3
330
17
100
AcDbEntity
  8
LATCH_REF
100
AcDbPolyline
 90
4
 70
1
 10
1755.0
 20
575.0
 10
1755.0
 20
585.0
 10
1745.0
 20
585.0
 10
1745.0
 20
575.0
1001
HANOK_PORTRAIT_DL
1000
{"kind":"hardware_ref","view":"assembly","hardware_id":"CATCH-1","part_id":"F01-2","hardware_type":"CATCH","reference_only":true,"production_machining":false,"assembly_face":"FRONT","position_only":true}
  0
LINE
  5
E4
330
17
100
AcDbEntity
  8
HINGE_REF
100
AcDbLine
 10
1391.5
 20
179.0
 30
0.0
 11
1391.5
 21
227.0
 31
0.0
1001
HANOK_PORTRAIT_DL
1000
{"view":"assembly","kind":"hinge_location_ref","reference_only":true}
  0
LINE
  5
E5
330
17
100
AcDbEntity
  8
HINGE_REF
100
AcDbLine
 10
1391.5
 20
873.0
 30
0.0
 11
1391.5
 21
921.0
 31
0.0
1001
HANOK_PORTRAIT_DL
1000
{"view":"assembly","kind":"hinge_location_ref","reference_only":true}
  0
LWPOLYLINE
  5
E6
330
17
100
AcDbEntity
  8
NOTES
100
AcDbPolyline
 90
4
 70
1
 10
1930.0
 20
520.0
 10
2170.0
 20
520.0
 10
2170.0
 20
710.0
 10
1930.0
 20
710.0
1001
HANOK_PORTRAIT_DL
1000
{"kind":"detail_border","detail":"J1","view":"detail","detail_part_kinds":["F01","F02"],"joint_type":"J1"}
  0
TEXT
  5
E7
330
17
100
AcDbEntity
  8
NOTES
100
AcDbText
 10
1940.0
 20
698.0
 30
0.0
 40
7.0
  1
J1  FIXED FRAME HALF-LAP
 11
1940.0
 21
698.0
 31
0.0
100
AcDbText
 73
2
1001
HANOK_PORTRAIT_DL
1000
{"text_align":"left","detail":"J1","view":"detail","detail_part_kinds":["F01","F02"],"joint_type":"J1"}
  0
TEXT
  5
E8
330
17
100
AcDbEntity
  8
NOTES
100
AcDbText
 10
1940.0
 20
684.0
 30
0.0
 40
4.7
  1
40 x 40 pocket / depth 10 / stock 20
 11
1940.0
 21
684.0
 31
0.0
100
AcDbText
 73
2
1001
HANOK_PORTRAIT_DL
1000
{"text_align":"left","detail":"J1","view":"detail","detail_part_kinds":["F01","F02"],"joint_type":"J1"}
  0
TEXT
  5
E9
330
17
100
AcDbEntity
  8
NOTES
100
AcDbText
 10
1945.0
 20
668.0
 30
0.0
 40
4.0
  1
F01 / A -> FRONT
 11
1945.0
 21
668.0
 31
0.0
100
AcDbText
 73
2
1001
HANOK_PORTRAIT_DL
1000
{"text_align":"left","detail":"J1","view":"detail","detail_part_kinds":["F01","F02"],"joint_type":"J1"}
  0
TEXT
  5
EA
330
17
100
AcDbEntity
  8
NOTES
100
AcDbText
 10
2065.0
 20
668.0
 30
0.0
 40
3.6
  1
F02 / A -> BACK (flip)
 11
2065.0
 21
668.0
 31
0.0
100
AcDbText
 73
2
1001
HANOK_PORTRAIT_DL
1000
{"text_align":"left","detail":"J1","view":"detail","detail_part_kinds":["F01","F02"],"joint_type":"J1"}
  0
LWPOLYLINE
  5
EB
330
17
100
AcDbEntity
  8
JOINT_DETAILS_REF
100
AcDbPolyline
 90
4
 70
1
 10
1945.0
 20
617.0
 10
2025.0
 20
617.0
 10
2025.0
 20
657.0
 10
1945.0
 20
657.0
1001
HANOK_PORTRAIT_DL
1000
{"role":"body","detail":"J1","view":"detail","detail_part_kinds":["F01","F02"],"joint_type":"J1"}
  0
LWPOLYLINE
  5
EC
330
17
100
AcDbEntity
  8
JOINT_DETAILS_REF
100
AcDbPolyline
 90
4
 70
1
 10
2065.0
 20
617.0
 10
2145.0
 20
617.0
 10
2145.0
 20
657.0
 10
2065.0
 20
657.0
1001
HANOK_PORTRAIT_DL
1000
{"role":"body","detail":"J1","view":"detail","detail_part_kinds":["F01","F02"],"joint_type":"J1"}
  0
LWPOLYLINE
  5
ED
330
17
100
AcDbEntity
  8
JOINT_DETAILS_REF
100
AcDbPolyline
 90
4
 70
1
 10
1945.0
 20
617.0
 10
1985.0
 20
617.0
 10
1985.0
 20
657.0
 10
1945.0
 20
657.0
1001
HANOK_PORTRAIT_DL
1000
{"role":"pocket","detail":"J1","view":"detail","detail_part_kinds":["F01","F02"],"joint_type":"J1"}
  0
LWPOLYLINE
  5
EE
330
17
100
AcDbEntity
  8
JOINT_DETAILS_REF
100
AcDbPolyline
 90
4
 70
1
 10
2065.0
 20
617.0
 10
2105.0
 20
617.0
 10
2105.0
 20
657.0
 10
2065.0
 20
657.0
1001
HANOK_PORTRAIT_DL
1000
{"role":"pocket","detail":"J1","view":"detail","detail_part_kinds":["F01","F02"],"joint_type":"J1"}
  0
LINE
  5
EF
330
17
100
AcDbEntity
  8
DIMENSIONS
100
AcDbLine
 10
1945.0
 20
617.0
 30
0.0
 11
1945.0
 21
606.0
 31
0.0
1001
HANOK_PORTRAIT_DL
1000
{"kind":"dim","detail":"J1","view":null}
  0
LINE
  5
F0
330
17
100
AcDbEntity
  8
DIMENSIONS
100
AcDbLine
 10
1985.0
 20
617.0
 30
0.0
 11
1985.0
 21
606.0
 31
0.0
1001
HANOK_PORTRAIT_DL
1000
{"kind":"dim","detail":"J1","view":null}
  0
LINE
  5
F1
330
17
100
AcDbEntity
  8
DIMENSIONS
100
AcDbLine
 10
1945.0
 20
608.0
 30
0.0
 11
1985.0
 21
608.0
 31
0.0
1001
HANOK_PORTRAIT_DL
1000
{"kind":"dim","detail":"J1","view":null}
  0
LINE
  5
F2
330
17
100
AcDbEntity
  8
DIMENSIONS
100
AcDbLine
 10
1945.0
 20
608.0
 30
0.0
 11
1948.0
 21
609.5
 31
0.0
1001
HANOK_PORTRAIT_DL
1000
{"kind":"dim","detail":"J1","view":null}
  0
LINE
  5
F3
330
17
100
AcDbEntity
  8
DIMENSIONS
100
AcDbLine
 10
1945.0
 20
608.0
 30
0.0
 11
1948.0
 21
606.5
 31
0.0
1001
HANOK_PORTRAIT_DL
1000
{"kind":"dim","detail":"J1","view":null}
  0
LINE
  5
F4
330
17
100
AcDbEntity
  8
DIMENSIONS
100
AcDbLine
 10
1985.0
 20
608.0
 30
0.0
 11
1982.0
 21
609.5
 31
0.0
1001
HANOK_PORTRAIT_DL
1000
{"kind":"dim","detail":"J1","view":null}
  0
LINE
  5
F5
330
17
100
AcDbEntity
  8
DIMENSIONS
100
AcDbLine
 10
1985.0
 20
608.0
 30
0.0
 11
1982.0
 21
606.5
 31
0.0
1001
HANOK_PORTRAIT_DL
1000
{"kind":"dim","detail":"J1","view":null}
  0
TEXT
  5
F6
330
17
100
AcDbEntity
  8
DIMENSIONS
100
AcDbText
 10
1965.0
 20
612.0
 30
0.0
 40
3.6
  1
40
 72
1
 11
1965.0
 21
612.0
 31
0.0
100
AcDbText
 73
2
1001
HANOK_PORTRAIT_DL
1000
{"text_align":"center","kind":"dim","detail":"J1","view":null}
  0
LINE
  5
F7
330
17
100
AcDbEntity
  8
DIMENSIONS
100
AcDbLine
 10
2025.0
 20
617.0
 30
0.0
 11
2036.0
 21
617.0
 31
0.0
1001
HANOK_PORTRAIT_DL
1000
{"kind":"dim","detail":"J1","view":null}
  0
LINE
  5
F8
330
17
100
AcDbEntity
  8
DIMENSIONS
100
AcDbLine
 10
2025.0
 20
657.0
 30
0.0
 11
2036.0
 21
657.0
 31
0.0
1001
HANOK_PORTRAIT_DL
1000
{"kind":"dim","detail":"J1","view":null}
  0
LINE
  5
F9
330
17
100
AcDbEntity
  8
DIMENSIONS
100
AcDbLine
 10
2034.0
 20
617.0
 30
0.0
 11
2034.0
 21
657.0
 31
0.0
1001
HANOK_PORTRAIT_DL
1000
{"kind":"dim","detail":"J1","view":null}
  0
LINE
  5
FA
330
17
100
AcDbEntity
  8
DIMENSIONS
100
AcDbLine
 10
2034.0
 20
617.0
 30
0.0
 11
2032.5
 21
620.0
 31
0.0
1001
HANOK_PORTRAIT_DL
1000
{"kind":"dim","detail":"J1","view":null}
  0
LINE
  5
FB
330
17
100
AcDbEntity
  8
DIMENSIONS
100
AcDbLine
 10
2034.0
 20
617.0
 30
0.0
 11
2035.5
 21
620.0
 31
0.0
1001
HANOK_PORTRAIT_DL
1000
{"kind":"dim","detail":"J1","view":null}
  0
LINE
  5
FC
330
17
100
AcDbEntity
  8
DIMENSIONS
100
AcDbLine
 10
2034.0
 20
657.0
 30
0.0
 11
2032.5
 21
654.0
 31
0.0
1001
HANOK_PORTRAIT_DL
1000
{"kind":"dim","detail":"J1","view":null}
  0
LINE
  5
FD
330
17
100
AcDbEntity
  8
DIMENSIONS
100
AcDbLine
 10
2034.0
 20
657.0
 30
0.0
 11
2035.5
 21
654.0
 31
0.0
1001
HANOK_PORTRAIT_DL
1000
{"kind":"dim","detail":"J1","view":null}
  0
TEXT
  5
FE
330
17
100
AcDbEntity
  8
DIMENSIONS
100
AcDbText
 10
2038.0
 20
637.0
 30
0.0
 40
3.6
  1
40
 50
90.0
 72
1
 11
2038.0
 21
637.0
 31
0.0
100
AcDbText
 73
2
1001
HANOK_PORTRAIT_DL
1000
{"text_align":"center","kind":"dim","detail":"J1","view":null}
  0
LINE
  5
FF
330
17
100
AcDbEntity
  8
DIMENSIONS
100
AcDbLine
 10
2065.0
 20
617.0
 30
0.0
 11
2065.0
 21
606.0
 31
0.0
1001
HANOK_PORTRAIT_DL
1000
{"kind":"dim","detail":"J1","view":null}
  0
LINE
  5
100
330
17
100
AcDbEntity
  8
DIMENSIONS
100
AcDbLine
 10
2105.0
 20
617.0
 30
0.0
 11
2105.0
 21
606.0
 31
0.0
1001
HANOK_PORTRAIT_DL
1000
{"kind":"dim","detail":"J1","view":null}
  0
LINE
  5
101
330
17
100
AcDbEntity
  8
DIMENSIONS
100
AcDbLine
 10
2065.0
 20
608.0
 30
0.0
 11
2105.0
 21
608.0
 31
0.0
1001
HANOK_PORTRAIT_DL
1000
{"kind":"dim","detail":"J1","view":null}
  0
LINE
  5
102
330
17
100
AcDbEntity
  8
DIMENSIONS
100
AcDbLine
 10
2065.0
 20
608.0
 30
0.0
 11
2068.0
 21
609.5
 31
0.0
1001
HANOK_PORTRAIT_DL
1000
{"kind":"dim","detail":"J1","view":null}
  0
LINE
  5
103
330
17
100
AcDbEntity
  8
DIMENSIONS
100
AcDbLine
 10
2065.0
 20
608.0
 30
0.0
 11
2068.0
 21
606.5
 31
0.0
1001
HANOK_PORTRAIT_DL
1000
{"kind":"dim","detail":"J1","view":null}
  0
LINE
  5
104
330
17
100
AcDbEntity
  8
DIMENSIONS
100
AcDbLine
 10
2105.0
 20
608.0
 30
0.0
 11
2102.0
 21
609.5
 31
0.0
1001
HANOK_PORTRAIT_DL
1000
{"kind":"dim","detail":"J1","view":null}
  0
LINE
  5
105
330
17
100
AcDbEntity
  8
DIMENSIONS
100
AcDbLine
 10
2105.0
 20
608.0
 30
0.0
 11
2102.0
 21
606.5
 31
0.0
1001
HANOK_PORTRAIT_DL
1000
{"kind":"dim","detail":"J1","view":null}
  0
TEXT
  5
106
330
17
100
AcDbEntity
  8
DIMENSIONS
100
AcDbText
 10
2085.0
 20
612.0
 30
0.0
 40
3.6
  1
40
 72
1
 11
2085.0
 21
612.0
 31
0.0
100
AcDbText
 73
2
1001
HANOK_PORTRAIT_DL
1000
{"text_align":"center","kind":"dim","detail":"J1","view":null}
  0
LWPOLYLINE
  5
107
330
17
100
AcDbEntity
  8
JOINT_DETAILS_REF
100
AcDbPolyline
 90
6
 70
1
 10
2000.0
 20
556.0
 10
2060.0
 20
556.0
 10
2060.0
 20
566.0
 10
2020.0
 20
566.0
 10
2020.0
 20
576.0
 10
2000.0
 20
576.0
1001
HANOK_PORTRAIT_DL
1000
{"role":"section_back","detail":"J1","view":"detail","detail_part_kinds":["F01","F02"],"joint_type":"J1"}
  0
LWPOLYLINE
  5
108
330
17
100
AcDbEntity
  8
JOINT_DETAILS_REF
100
AcDbPolyline
 90
6
 70
1
 10
2020.0
 20
566.0
 10
2060.0
 20
566.0
 10
2060.0
 20
556.0
 10
2080.0
 20
556.0
 10
2080.0
 20
576.0
 10
2020.0
 20
576.0
1001
HANOK_PORTRAIT_DL
1000
{"role":"section_front","detail":"J1","view":"detail","detail_part_kinds":["F01","F02"],"joint_type":"J1"}
  0
LINE
  5
109
330
17
100
AcDbEntity
  8
DIMENSIONS
100
AcDbLine
 10
2080.0
 20
556.0
 30
0.0
 11
2092.0
 21
556.0
 31
0.0
1001
HANOK_PORTRAIT_DL
1000
{"kind":"dim","detail":"J1","view":null}
  0
LINE
  5
10A
330
17
100
AcDbEntity
  8
DIMENSIONS
100
AcDbLine
 10
2080.0
 20
576.0
 30
0.0
 11
2092.0
 21
576.0
 31
0.0
1001
HANOK_PORTRAIT_DL
1000
{"kind":"dim","detail":"J1","view":null}
  0
LINE
  5
10B
330
17
100
AcDbEntity
  8
DIMENSIONS
100
AcDbLine
 10
2090.0
 20
556.0
 30
0.0
 11
2090.0
 21
576.0
 31
0.0
1001
HANOK_PORTRAIT_DL
1000
{"kind":"dim","detail":"J1","view":null}
  0
LINE
  5
10C
330
17
100
AcDbEntity
  8
DIMENSIONS
100
AcDbLine
 10
2090.0
 20
556.0
 30
0.0
 11
2088.5
 21
559.0
 31
0.0
1001
HANOK_PORTRAIT_DL
1000
{"kind":"dim","detail":"J1","view":null}
  0
LINE
  5
10D
330
17
100
AcDbEntity
  8
DIMENSIONS
100
AcDbLine
 10
2090.0
 20
556.0
 30
0.0
 11
2091.5
 21
559.0
 31
0.0
1001
HANOK_PORTRAIT_DL
1000
{"kind":"dim","detail":"J1","view":null}
  0
LINE
  5
10E
330
17
100
AcDbEntity
  8
DIMENSIONS
100
AcDbLine
 10
2090.0
 20
576.0
 30
0.0
 11
2088.5
 21
573.0
 31
0.0
1001
HANOK_PORTRAIT_DL
1000
{"kind":"dim","detail":"J1","view":null}
  0
LINE
  5
10F
330
17
100
AcDbEntity
  8
DIMENSIONS
100
AcDbLine
 10
2090.0
 20
576.0
 30
0.0
 11
2091.5
 21
573.0
 31
0.0
1001
HANOK_PORTRAIT_DL
1000
{"kind":"dim","detail":"J1","view":null}
  0
TEXT
  5
110
330
17
100
AcDbEntity
  8
DIMENSIONS
100
AcDbText
 10
2094.0
 20
566.0
 30
0.0
 40
3.6
  1
20
 50
90.0
 72
1
 11
2094.0
 21
566.0
 31
0.0
100
AcDbText
 73
2
1001
HANOK_PORTRAIT_DL
1000
{"text_align":"center","kind":"dim","detail":"J1","view":null}
  0
LINE
  5
111
330
17
100
AcDbEntity
  8
DIMENSIONS
100
AcDbLine
 10
2060.0
 20
566.0
 30
0.0
 11
2108.0
 21
566.0
 31
0.0
1001
HANOK_PORTRAIT_DL
1000
{"kind":"dim","detail":"J1","view":null}
  0
LINE
  5
112
330
17
100
AcDbEntity
  8
DIMENSIONS
100
AcDbLine
 10
2060.0
 20
576.0
 30
0.0
 11
2108.0
 21
576.0
 31
0.0
1001
HANOK_PORTRAIT_DL
1000
{"kind":"dim","detail":"J1","view":null}
  0
LINE
  5
113
330
17
100
AcDbEntity
  8
DIMENSIONS
100
AcDbLine
 10
2106.0
 20
566.0
 30
0.0
 11
2106.0
 21
576.0
 31
0.0
1001
HANOK_PORTRAIT_DL
1000
{"kind":"dim","detail":"J1","view":null}
  0
LINE
  5
114
330
17
100
AcDbEntity
  8
DIMENSIONS
100
AcDbLine
 10
2106.0
 20
566.0
 30
0.0
 11
2105.0
 21
568.0
 31
0.0
1001
HANOK_PORTRAIT_DL
1000
{"kind":"dim","detail":"J1","view":null}
  0
LINE
  5
115
330
17
100
AcDbEntity
  8
DIMENSIONS
100
AcDbLine
 10
2106.0
 20
566.0
 30
0.0
 11
2107.0
 21
568.0
 31
0.0
1001
HANOK_PORTRAIT_DL
1000
{"kind":"dim","detail":"J1","view":null}
  0
LINE
  5
116
330
17
100
AcDbEntity
  8
DIMENSIONS
100
AcDbLine
 10
2106.0
 20
576.0
 30
0.0
 11
2105.0
 21
574.0
 31
0.0
1001
HANOK_PORTRAIT_DL
1000
{"kind":"dim","detail":"J1","view":null}
  0
LINE
  5
117
330
17
100
AcDbEntity
  8
DIMENSIONS
100
AcDbLine
 10
2106.0
 20
576.0
 30
0.0
 11
2107.0
 21
574.0
 31
0.0
1001
HANOK_PORTRAIT_DL
1000
{"kind":"dim","detail":"J1","view":null}
  0
TEXT
  5
118
330
17
100
AcDbEntity
  8
DIMENSIONS
100
AcDbText
 10
2110.0
 20
571.0
 30
0.0
 40
3.6
  1
10 depth
 50
90.0
 72
1
 11
2110.0
 21
571.0
 31
0.0
100
AcDbText
 73
2
1001
HANOK_PORTRAIT_DL
1000
{"text_align":"center","kind":"dim","detail":"J1","view":null}
  0
TEXT
  5
119
330
17
100
AcDbEntity
  8
NOTES
100
AcDbText
 10
1945.0
 20
589.0
 30
0.0
 40
4.0
  1
ASSEMBLED SECTION - complementary faces
 11
1945.0
 21
589.0
 31
0.0
100
AcDbText
 73
2
1001
HANOK_PORTRAIT_DL
1000
{"text_align":"left","detail":"J1","view":"detail","detail_part_kinds":["F01","F02"],"joint_type":"J1"}
  0
TEXT
  5
11A
330
17
100
AcDbEntity
  8
NOTES
100
AcDbText
 10
1940.0
 20
538.0
 30
0.0
 40
3.3
  1
Local end regions only; open edges need cutter overrun in CAM.
 11
1940.0
 21
538.0
 31
0.0
100
AcDbText
 73
2
1001
HANOK_PORTRAIT_DL
1000
{"text_align":"left","detail":"J1","view":"detail","detail_part_kinds":["F01","F02"],"joint_type":"J1"}
  0
TEXT
  5
11B
330
17
100
AcDbEntity
  8
NOTES
100
AcDbText
 10
1940.0
 20
527.0
 30
0.0
 40
3.2
  1
REFERENCE ONLY / DXF 1:1 / PNG enlarged
 11
1940.0
 21
527.0
 31
0.0
100
AcDbText
 73
2
1001
HANOK_PORTRAIT_DL
1000
{"text_align":"left","detail":"J1","view":"detail","detail_part_kinds":["F01","F02"],"joint_type":"J1"}
  0
LWPOLYLINE
  5
11C
330
17
100
AcDbEntity
  8
NOTES
100
AcDbPolyline
 90
4
 70
1
 10
2200.0
 20
520.0
 10
2440.0
 20
520.0
 10
2440.0
 20
710.0
 10
2200.0
 20
710.0
1001
HANOK_PORTRAIT_DL
1000
{"kind":"detail_border","detail":"J2","view":"detail","detail_part_kinds":["S01","S02"],"joint_type":"J2"}
  0
TEXT
  5
11D
330
17
100
AcDbEntity
  8
NOTES
100
AcDbText
 10
2210.0
 20
698.0
 30
0.0
 40
7.0
  1
J2  SASH HALF-LAP
 11
2210.0
 21
698.0
 31
0.0
100
AcDbText
 73
2
1001
HANOK_PORTRAIT_DL
1000
{"text_align":"left","detail":"J2","view":"detail","detail_part_kinds":["S01","S02"],"joint_type":"J2"}
  0
TEXT
  5
11E
330
17
100
AcDbEntity
  8
NOTES
100
AcDbText
 10
2210.0
 20
684.0
 30
0.0
 40
4.7
  1
30 x 30 pocket / depth 10 / stock 20
 11
2210.0
 21
684.0
 31
0.0
100
AcDbText
 73
2
1001
HANOK_PORTRAIT_DL
1000
{"text_align":"left","detail":"J2","view":"detail","detail_part_kinds":["S01","S02"],"joint_type":"J2"}
  0
TEXT
  5
11F
330
17
100
AcDbEntity
  8
NOTES
100
AcDbText
 10
2215.0
 20
668.0
 30
0.0
 40
4.0
  1
S01 / A -> FRONT
 11
2215.0
 21
668.0
 31
0.0
100
AcDbText
 73
2
1001
HANOK_PORTRAIT_DL
1000
{"text_align":"left","detail":"J2","view":"detail","detail_part_kinds":["S01","S02"],"joint_type":"J2"}
  0
TEXT
  5
120
330
17
100
AcDbEntity
  8
NOTES
100
AcDbText
 10
2335.0
 20
668.0
 30
0.0
 40
3.6
  1
S02 / A -> BACK (flip)
 11
2335.0
 21
668.0
 31
0.0
100
AcDbText
 73
2
1001
HANOK_PORTRAIT_DL
1000
{"text_align":"left","detail":"J2","view":"detail","detail_part_kinds":["S01","S02"],"joint_type":"J2"}
  0
LWPOLYLINE
  5
121
330
17
100
AcDbEntity
  8
JOINT_DETAILS_REF
100
AcDbPolyline
 90
4
 70
1
 10
2215.0
 20
627.0
 10
2295.0
 20
627.0
 10
2295.0
 20
657.0
 10
2215.0
 20
657.0
1001
HANOK_PORTRAIT_DL
1000
{"role":"body","detail":"J2","view":"detail","detail_part_kinds":["S01","S02"],"joint_type":"J2"}
  0
LWPOLYLINE
  5
122
330
17
100
AcDbEntity
  8
JOINT_DETAILS_REF
100
AcDbPolyline
 90
4
 70
1
 10
2335.0
 20
627.0
 10
2415.0
 20
627.0
 10
2415.0
 20
657.0
 10
2335.0
 20
657.0
1001
HANOK_PORTRAIT_DL
1000
{"role":"body","detail":"J2","view":"detail","detail_part_kinds":["S01","S02"],"joint_type":"J2"}
  0
LWPOLYLINE
  5
123
330
17
100
AcDbEntity
  8
JOINT_DETAILS_REF
100
AcDbPolyline
 90
4
 70
1
 10
2215.0
 20
627.0
 10
2245.0
 20
627.0
 10
2245.0
 20
657.0
 10
2215.0
 20
657.0
1001
HANOK_PORTRAIT_DL
1000
{"role":"pocket","detail":"J2","view":"detail","detail_part_kinds":["S01","S02"],"joint_type":"J2"}
  0
LWPOLYLINE
  5
124
330
17
100
AcDbEntity
  8
JOINT_DETAILS_REF
100
AcDbPolyline
 90
4
 70
1
 10
2335.0
 20
627.0
 10
2365.0
 20
627.0
 10
2365.0
 20
657.0
 10
2335.0
 20
657.0
1001
HANOK_PORTRAIT_DL
1000
{"role":"pocket","detail":"J2","view":"detail","detail_part_kinds":["S01","S02"],"joint_type":"J2"}
  0
LINE
  5
125
330
17
100
AcDbEntity
  8
DIMENSIONS
100
AcDbLine
 10
2215.0
 20
627.0
 30
0.0
 11
2215.0
 21
616.0
 31
0.0
1001
HANOK_PORTRAIT_DL
1000
{"kind":"dim","detail":"J2","view":null}
  0
LINE
  5
126
330
17
100
AcDbEntity
  8
DIMENSIONS
100
AcDbLine
 10
2245.0
 20
627.0
 30
0.0
 11
2245.0
 21
616.0
 31
0.0
1001
HANOK_PORTRAIT_DL
1000
{"kind":"dim","detail":"J2","view":null}
  0
LINE
  5
127
330
17
100
AcDbEntity
  8
DIMENSIONS
100
AcDbLine
 10
2215.0
 20
618.0
 30
0.0
 11
2245.0
 21
618.0
 31
0.0
1001
HANOK_PORTRAIT_DL
1000
{"kind":"dim","detail":"J2","view":null}
  0
LINE
  5
128
330
17
100
AcDbEntity
  8
DIMENSIONS
100
AcDbLine
 10
2215.0
 20
618.0
 30
0.0
 11
2218.0
 21
619.5
 31
0.0
1001
HANOK_PORTRAIT_DL
1000
{"kind":"dim","detail":"J2","view":null}
  0
LINE
  5
129
330
17
100
AcDbEntity
  8
DIMENSIONS
100
AcDbLine
 10
2215.0
 20
618.0
 30
0.0
 11
2218.0
 21
616.5
 31
0.0
1001
HANOK_PORTRAIT_DL
1000
{"kind":"dim","detail":"J2","view":null}
  0
LINE
  5
12A
330
17
100
AcDbEntity
  8
DIMENSIONS
100
AcDbLine
 10
2245.0
 20
618.0
 30
0.0
 11
2242.0
 21
619.5
 31
0.0
1001
HANOK_PORTRAIT_DL
1000
{"kind":"dim","detail":"J2","view":null}
  0
LINE
  5
12B
330
17
100
AcDbEntity
  8
DIMENSIONS
100
AcDbLine
 10
2245.0
 20
618.0
 30
0.0
 11
2242.0
 21
616.5
 31
0.0
1001
HANOK_PORTRAIT_DL
1000
{"kind":"dim","detail":"J2","view":null}
  0
TEXT
  5
12C
330
17
100
AcDbEntity
  8
DIMENSIONS
100
AcDbText
 10
2230.0
 20
622.0
 30
0.0
 40
3.6
  1
30
 72
1
 11
2230.0
 21
622.0
 31
0.0
100
AcDbText
 73
2
1001
HANOK_PORTRAIT_DL
1000
{"text_align":"center","kind":"dim","detail":"J2","view":null}
  0
LINE
  5
12D
330
17
100
AcDbEntity
  8
DIMENSIONS
100
AcDbLine
 10
2295.0
 20
627.0
 30
0.0
 11
2306.0
 21
627.0
 31
0.0
1001
HANOK_PORTRAIT_DL
1000
{"kind":"dim","detail":"J2","view":null}
  0
LINE
  5
12E
330
17
100
AcDbEntity
  8
DIMENSIONS
100
AcDbLine
 10
2295.0
 20
657.0
 30
0.0
 11
2306.0
 21
657.0
 31
0.0
1001
HANOK_PORTRAIT_DL
1000
{"kind":"dim","detail":"J2","view":null}
  0
LINE
  5
12F
330
17
100
AcDbEntity
  8
DIMENSIONS
100
AcDbLine
 10
2304.0
 20
627.0
 30
0.0
 11
2304.0
 21
657.0
 31
0.0
1001
HANOK_PORTRAIT_DL
1000
{"kind":"dim","detail":"J2","view":null}
  0
LINE
  5
130
330
17
100
AcDbEntity
  8
DIMENSIONS
100
AcDbLine
 10
2304.0
 20
627.0
 30
0.0
 11
2302.5
 21
630.0
 31
0.0
1001
HANOK_PORTRAIT_DL
1000
{"kind":"dim","detail":"J2","view":null}
  0
LINE
  5
131
330
17
100
AcDbEntity
  8
DIMENSIONS
100
AcDbLine
 10
2304.0
 20
627.0
 30
0.0
 11
2305.5
 21
630.0
 31
0.0
1001
HANOK_PORTRAIT_DL
1000
{"kind":"dim","detail":"J2","view":null}
  0
LINE
  5
132
330
17
100
AcDbEntity
  8
DIMENSIONS
100
AcDbLine
 10
2304.0
 20
657.0
 30
0.0
 11
2302.5
 21
654.0
 31
0.0
1001
HANOK_PORTRAIT_DL
1000
{"kind":"dim","detail":"J2","view":null}
  0
LINE
  5
133
330
17
100
AcDbEntity
  8
DIMENSIONS
100
AcDbLine
 10
2304.0
 20
657.0
 30
0.0
 11
2305.5
 21
654.0
 31
0.0
1001
HANOK_PORTRAIT_DL
1000
{"kind":"dim","detail":"J2","view":null}
  0
TEXT
  5
134
330
17
100
AcDbEntity
  8
DIMENSIONS
100
AcDbText
 10
2308.0
 20
642.0
 30
0.0
 40
3.6
  1
30
 50
90.0
 72
1
 11
2308.0
 21
642.0
 31
0.0
100
AcDbText
 73
2
1001
HANOK_PORTRAIT_DL
1000
{"text_align":"center","kind":"dim","detail":"J2","view":null}
  0
LINE
  5
135
330
17
100
AcDbEntity
  8
DIMENSIONS
100
AcDbLine
 10
2335.0
 20
627.0
 30
0.0
 11
2335.0
 21
616.0
 31
0.0
1001
HANOK_PORTRAIT_DL
1000
{"kind":"dim","detail":"J2","view":null}
  0
LINE
  5
136
330
17
100
AcDbEntity
  8
DIMENSIONS
100
AcDbLine
 10
2365.0
 20
627.0
 30
0.0
 11
2365.0
 21
616.0
 31
0.0
1001
HANOK_PORTRAIT_DL
1000
{"kind":"dim","detail":"J2","view":null}
  0
LINE
  5
137
330
17
100
AcDbEntity
  8
DIMENSIONS
100
AcDbLine
 10
2335.0
 20
618.0
 30
0.0
 11
2365.0
 21
618.0
 31
0.0
1001
HANOK_PORTRAIT_DL
1000
{"kind":"dim","detail":"J2","view":null}
  0
LINE
  5
138
330
17
100
AcDbEntity
  8
DIMENSIONS
100
AcDbLine
 10
2335.0
 20
618.0
 30
0.0
 11
2338.0
 21
619.5
 31
0.0
1001
HANOK_PORTRAIT_DL
1000
{"kind":"dim","detail":"J2","view":null}
  0
LINE
  5
139
330
17
100
AcDbEntity
  8
DIMENSIONS
100
AcDbLine
 10
2335.0
 20
618.0
 30
0.0
 11
2338.0
 21
616.5
 31
0.0
1001
HANOK_PORTRAIT_DL
1000
{"kind":"dim","detail":"J2","view":null}
  0
LINE
  5
13A
330
17
100
AcDbEntity
  8
DIMENSIONS
100
AcDbLine
 10
2365.0
 20
618.0
 30
0.0
 11
2362.0
 21
619.5
 31
0.0
1001
HANOK_PORTRAIT_DL
1000
{"kind":"dim","detail":"J2","view":null}
  0
LINE
  5
13B
330
17
100
AcDbEntity
  8
DIMENSIONS
100
AcDbLine
 10
2365.0
 20
618.0
 30
0.0
 11
2362.0
 21
616.5
 31
0.0
1001
HANOK_PORTRAIT_DL
1000
{"kind":"dim","detail":"J2","view":null}
  0
TEXT
  5
13C
330
17
100
AcDbEntity
  8
DIMENSIONS
100
AcDbText
 10
2350.0
 20
622.0
 30
0.0
 40
3.6
  1
30
 72
1
 11
2350.0
 21
622.0
 31
0.0
100
AcDbText
 73
2
1001
HANOK_PORTRAIT_DL
1000
{"text_align":"center","kind":"dim","detail":"J2","view":null}
  0
LWPOLYLINE
  5
13D
330
17
100
AcDbEntity
  8
JOINT_DETAILS_REF
100
AcDbPolyline
 90
6
 70
1
 10
2270.0
 20
556.0
 10
2320.0
 20
556.0
 10
2320.0
 20
566.0
 10
2290.0
 20
566.0
 10
2290.0
 20
576.0
 10
2270.0
 20
576.0
1001
HANOK_PORTRAIT_DL
1000
{"role":"section_back","detail":"J2","view":"detail","detail_part_kinds":["S01","S02"],"joint_type":"J2"}
  0
LWPOLYLINE
  5
13E
330
17
100
AcDbEntity
  8
JOINT_DETAILS_REF
100
AcDbPolyline
 90
6
 70
1
 10
2290.0
 20
566.0
 10
2320.0
 20
566.0
 10
2320.0
 20
556.0
 10
2340.0
 20
556.0
 10
2340.0
 20
576.0
 10
2290.0
 20
576.0
1001
HANOK_PORTRAIT_DL
1000
{"role":"section_front","detail":"J2","view":"detail","detail_part_kinds":["S01","S02"],"joint_type":"J2"}
  0
LINE
  5
13F
330
17
100
AcDbEntity
  8
DIMENSIONS
100
AcDbLine
 10
2340.0
 20
556.0
 30
0.0
 11
2352.0
 21
556.0
 31
0.0
1001
HANOK_PORTRAIT_DL
1000
{"kind":"dim","detail":"J2","view":null}
  0
LINE
  5
140
330
17
100
AcDbEntity
  8
DIMENSIONS
100
AcDbLine
 10
2340.0
 20
576.0
 30
0.0
 11
2352.0
 21
576.0
 31
0.0
1001
HANOK_PORTRAIT_DL
1000
{"kind":"dim","detail":"J2","view":null}
  0
LINE
  5
141
330
17
100
AcDbEntity
  8
DIMENSIONS
100
AcDbLine
 10
2350.0
 20
556.0
 30
0.0
 11
2350.0
 21
576.0
 31
0.0
1001
HANOK_PORTRAIT_DL
1000
{"kind":"dim","detail":"J2","view":null}
  0
LINE
  5
142
330
17
100
AcDbEntity
  8
DIMENSIONS
100
AcDbLine
 10
2350.0
 20
556.0
 30
0.0
 11
2348.5
 21
559.0
 31
0.0
1001
HANOK_PORTRAIT_DL
1000
{"kind":"dim","detail":"J2","view":null}
  0
LINE
  5
143
330
17
100
AcDbEntity
  8
DIMENSIONS
100
AcDbLine
 10
2350.0
 20
556.0
 30
0.0
 11
2351.5
 21
559.0
 31
0.0
1001
HANOK_PORTRAIT_DL
1000
{"kind":"dim","detail":"J2","view":null}
  0
LINE
  5
144
330
17
100
AcDbEntity
  8
DIMENSIONS
100
AcDbLine
 10
2350.0
 20
576.0
 30
0.0
 11
2348.5
 21
573.0
 31
0.0
1001
HANOK_PORTRAIT_DL
1000
{"kind":"dim","detail":"J2","view":null}
  0
LINE
  5
145
330
17
100
AcDbEntity
  8
DIMENSIONS
100
AcDbLine
 10
2350.0
 20
576.0
 30
0.0
 11
2351.5
 21
573.0
 31
0.0
1001
HANOK_PORTRAIT_DL
1000
{"kind":"dim","detail":"J2","view":null}
  0
TEXT
  5
146
330
17
100
AcDbEntity
  8
DIMENSIONS
100
AcDbText
 10
2354.0
 20
566.0
 30
0.0
 40
3.6
  1
20
 50
90.0
 72
1
 11
2354.0
 21
566.0
 31
0.0
100
AcDbText
 73
2
1001
HANOK_PORTRAIT_DL
1000
{"text_align":"center","kind":"dim","detail":"J2","view":null}
  0
LINE
  5
147
330
17
100
AcDbEntity
  8
DIMENSIONS
100
AcDbLine
 10
2320.0
 20
566.0
 30
0.0
 11
2368.0
 21
566.0
 31
0.0
1001
HANOK_PORTRAIT_DL
1000
{"kind":"dim","detail":"J2","view":null}
  0
LINE
  5
148
330
17
100
AcDbEntity
  8
DIMENSIONS
100
AcDbLine
 10
2320.0
 20
576.0
 30
0.0
 11
2368.0
 21
576.0
 31
0.0
1001
HANOK_PORTRAIT_DL
1000
{"kind":"dim","detail":"J2","view":null}
  0
LINE
  5
149
330
17
100
AcDbEntity
  8
DIMENSIONS
100
AcDbLine
 10
2366.0
 20
566.0
 30
0.0
 11
2366.0
 21
576.0
 31
0.0
1001
HANOK_PORTRAIT_DL
1000
{"kind":"dim","detail":"J2","view":null}
  0
LINE
  5
14A
330
17
100
AcDbEntity
  8
DIMENSIONS
100
AcDbLine
 10
2366.0
 20
566.0
 30
0.0
 11
2365.0
 21
568.0
 31
0.0
1001
HANOK_PORTRAIT_DL
1000
{"kind":"dim","detail":"J2","view":null}
  0
LINE
  5
14B
330
17
100
AcDbEntity
  8
DIMENSIONS
100
AcDbLine
 10
2366.0
 20
566.0
 30
0.0
 11
2367.0
 21
568.0
 31
0.0
1001
HANOK_PORTRAIT_DL
1000
{"kind":"dim","detail":"J2","view":null}
  0
LINE
  5
14C
330
17
100
AcDbEntity
  8
DIMENSIONS
100
AcDbLine
 10
2366.0
 20
576.0
 30
0.0
 11
2365.0
 21
574.0
 31
0.0
1001
HANOK_PORTRAIT_DL
1000
{"kind":"dim","detail":"J2","view":null}
  0
LINE
  5
14D
330
17
100
AcDbEntity
  8
DIMENSIONS
100
AcDbLine
 10
2366.0
 20
576.0
 30
0.0
 11
2367.0
 21
574.0
 31
0.0
1001
HANOK_PORTRAIT_DL
1000
{"kind":"dim","detail":"J2","view":null}
  0
TEXT
  5
14E
330
17
100
AcDbEntity
  8
DIMENSIONS
100
AcDbText
 10
2370.0
 20
571.0
 30
0.0
 40
3.6
  1
10 depth
 50
90.0
 72
1
 11
2370.0
 21
571.0
 31
0.0
100
AcDbText
 73
2
1001
HANOK_PORTRAIT_DL
1000
{"text_align":"center","kind":"dim","detail":"J2","view":null}
  0
TEXT
  5
14F
330
17
100
AcDbEntity
  8
NOTES
100
AcDbText
 10
2215.0
 20
589.0
 30
0.0
 40
4.0
  1
ASSEMBLED SECTION - complementary faces
 11
2215.0
 21
589.0
 31
0.0
100
AcDbText
 73
2
1001
HANOK_PORTRAIT_DL
1000
{"text_align":"left","detail":"J2","view":"detail","detail_part_kinds":["S01","S02"],"joint_type":"J2"}
  0
TEXT
  5
150
330
17
100
AcDbEntity
  8
NOTES
100
AcDbText
 10
2210.0
 20
538.0
 30
0.0
 40
3.3
  1
Local end regions only; open edges need cutter overrun in CAM.
 11
2210.0
 21
538.0
 31
0.0
100
AcDbText
 73
2
1001
HANOK_PORTRAIT_DL
1000
{"text_align":"left","detail":"J2","view":"detail","detail_part_kinds":["S01","S02"],"joint_type":"J2"}
  0
TEXT
  5
151
330
17
100
AcDbEntity
  8
NOTES
100
AcDbText
 10
2210.0
 20
527.0
 30
0.0
 40
3.2
  1
REFERENCE ONLY / DXF 1:1 / PNG enlarged
 11
2210.0
 21
527.0
 31
0.0
100
AcDbText
 73
2
1001
HANOK_PORTRAIT_DL
1000
{"text_align":"left","detail":"J2","view":"detail","detail_part_kinds":["S01","S02"],"joint_type":"J2"}
  0
TEXT
  5
152
330
17
100
AcDbEntity
  8
NOTES
100
AcDbText
 10
1350.0
 20
64.0
 30
0.0
 40
8.0
  1
OPENING REFERENCE / PLAN (LOOKING DOWN)
 11
1350.0
 21
64.0
 31
0.0
100
AcDbText
 73
2
1001
HANOK_PORTRAIT_DL
1000
{"text_align":"left","view":"opening","kind":"title"}
  0
TEXT
  5
153
330
17
100
AcDbEntity
  8
NOTES
100
AcDbText
 10
1350.0
 20
44.0
 30
0.0
 40
4.7
  1
REFERENCE ONLY / AXES AND BACKING POSITION NOT FINAL
 11
1350.0
 21
44.0
 31
0.0
100
AcDbText
 73
2
1001
HANOK_PORTRAIT_DL
1000
{"text_align":"left","view":"opening"}
  0
LWPOLYLINE
  5
154
330
17
100
AcDbEntity
  8
ASSEMBLY_REFERENCE
100
AcDbPolyline
 90
4
 70
1
 10
1390.0
 20
-370.0
 10
1390.0
 20
-350.0
 10
1350.0
 20
-350.0
 10
1350.0
 20
-370.0
1001
HANOK_PORTRAIT_DL
1000
{"view":"opening","role":"body"}
  0
LWPOLYLINE
  5
155
330
17
100
AcDbEntity
  8
ASSEMBLY_REFERENCE
100
AcDbPolyline
 90
4
 70
1
 10
1770.0
 20
-370.0
 10
1770.0
 20
-350.0
 10
1730.0
 20
-350.0
 10
1730.0
 20
-370.0
1001
HANOK_PORTRAIT_DL
1000
{"view":"opening","role":"body"}
  0
LWPOLYLINE
  5
156
330
17
100
AcDbEntity
  8
ASSEMBLY_REFERENCE
  6
REF_DASH
100
AcDbPolyline
 90
4
 70
1
 10
1727.0
 20
-370.0
 10
1727.0
 20
-350.0
 10
1393.0
 20
-350.0
 10
1393.0
 20
-370.0
1001
HANOK_PORTRAIT_DL
1000
{"view":"opening","role":"opening","kind":"closed_leaf_ghost","leaf":"LEFT"}
  0
LWPOLYLINE
  5
157
330
17
100
AcDbEntity
  8
ASSEMBLY_REFERENCE
100
AcDbPolyline
 90
4
 70
1
 10
1415.5
 20
-10.5
 10
1395.5
 20
-10.5
 10
1395.5
 20
-344.5
 10
1415.5
 20
-344.5
1001
HANOK_PORTRAIT_DL
1000
{"view":"opening","role":"body","kind":"opened_leaf_illustration","leaf":"LEFT","reference_only":true,"illustrative_angle_deg":90,"provisional_axis":[41.5,24]}
  0
LWPOLYLINE
  5
158
330
17
100
AcDbEntity
  8
HINGE_REF
100
AcDbPolyline
 90
2
 70
1
 10
1394.5
 20
-346.0
 42
1.0
 10
1388.5
 20
-346.0
 42
1.0
1001
HANOK_PORTRAIT_DL
1000
{"view":"opening","reference_only":true}
  0
TEXT
  5
159
330
17
100
AcDbEntity
  8
ASSEMBLY_REFERENCE
100
AcDbText
 10
1458.3
 20
-236.0
 30
0.0
 40
5.0
  1
LEFT LEAF
 50
90.0
 72
1
 11
1458.3
 21
-236.0
 31
0.0
100
AcDbText
 73
2
1001
HANOK_PORTRAIT_DL
1000
{"text_align":"center","view":"opening"}
  0
LINE
  5
15A
330
17
100
AcDbEntity
  8
ASSEMBLY_REFERENCE
100
AcDbLine
 10
1511.5
 20
-346.0
 30
0.0
 11
1511.0433637710094
 21
-335.541310870281
 31
0.0
1001
HANOK_PORTRAIT_DL
1000
{"view":"opening","kind":"direction"}
  0
LINE
  5
15B
330
17
100
AcDbEntity
  8
ASSEMBLY_REFERENCE
100
AcDbLine
 10
1511.0433637710094
 20
-335.541310870281
 30
0.0
 11
1509.6769303614649
 21
-325.16221867996836
 31
0.0
1001
HANOK_PORTRAIT_DL
1000
{"view":"opening","kind":"direction"}
  0
LINE
  5
15C
330
17
100
AcDbEntity
  8
ASSEMBLY_REFERENCE
100
AcDbLine
 10
1509.6769303614649
 20
-325.16221867996836
 30
0.0
 11
1507.4110991546881
 21
-314.9417145876975
 31
0.0
1001
HANOK_PORTRAIT_DL
1000
{"view":"opening","kind":"direction"}
  0
LINE
  5
15D
330
17
100
AcDbEntity
  8
ASSEMBLY_REFERENCE
100
AcDbLine
 10
1507.4110991546881
 20
-314.9417145876975
 30
0.0
 11
1504.263114494309
 21
-304.95758280091974
 31
0.0
1001
HANOK_PORTRAIT_DL
1000
{"view":"opening","kind":"direction"}
  0
LINE
  5
15E
330
17
100
AcDbEntity
  8
ASSEMBLY_REFERENCE
100
AcDbLine
 10
1504.263114494309
 20
-304.95758280091974
 30
0.0
 11
1500.256934444398
 21
-295.28580859111605
 31
0.0
1001
HANOK_PORTRAIT_DL
1000
{"view":"opening","kind":"direction"}
  0
LINE
  5
15F
330
17
100
AcDbEntity
  8
ASSEMBLY_REFERENCE
100
AcDbLine
 10
1500.256934444398
 20
-295.28580859111605
 30
0.0
 11
1495.4230484541326
 21
-286.0
 31
0.0
1001
HANOK_PORTRAIT_DL
1000
{"view":"opening","kind":"direction"}
  0
LINE
  5
160
330
17
100
AcDbEntity
  8
ASSEMBLY_REFERENCE
100
AcDbLine
 10
1495.4230484541326
 20
-286.0
 30
0.0
 11
1489.798245314679
 21
-277.1708276378745
 31
0.0
1001
HANOK_PORTRAIT_DL
1000
{"view":"opening","kind":"direction"}
  0
LINE
  5
161
330
17
100
AcDbEntity
  8
ASSEMBLY_REFERENCE
100
AcDbLine
 10
1489.798245314679
 20
-277.1708276378745
 30
0.0
 11
1483.4253331742773
 21
-268.8654868376153
 31
0.0
1001
HANOK_PORTRAIT_DL
1000
{"view":"opening","kind":"direction"}
  0
LINE
  5
162
330
17
100
AcDbEntity
  8
ASSEMBLY_REFERENCE
100
AcDbLine
 10
1483.4253331742773
 20
-268.8654868376153
 30
0.0
 11
1476.3528137423857
 21
-261.1471862576143
 31
0.0
1001
HANOK_PORTRAIT_DL
1000
{"view":"opening","kind":"direction"}
  0
LINE
  5
163
330
17
100
AcDbEntity
  8
ASSEMBLY_REFERENCE
100
AcDbLine
 10
1476.3528137423857
 20
-261.1471862576143
 30
0.0
 11
1468.6345131623848
 21
-254.07466682572266
 31
0.0
1001
HANOK_PORTRAIT_DL
1000
{"view":"opening","kind":"direction"}
  0
LINE
  5
164
330
17
100
AcDbEntity
  8
ASSEMBLY_REFERENCE
100
AcDbLine
 10
1468.6345131623848
 20
-254.07466682572266
 30
0.0
 11
1460.3291723621255
 21
-247.701754685321
 31
0.0
1001
HANOK_PORTRAIT_DL
1000
{"view":"opening","kind":"direction"}
  0
LINE
  5
165
330
17
100
AcDbEntity
  8
ASSEMBLY_REFERENCE
100
AcDbLine
 10
1460.3291723621255
 20
-247.701754685321
 30
0.0
 11
1451.5
 21
-242.07695154586736
 31
0.0
1001
HANOK_PORTRAIT_DL
1000
{"view":"opening","kind":"direction"}
  0
LINE
  5
166
330
17
100
AcDbEntity
  8
ASSEMBLY_REFERENCE
100
AcDbLine
 10
1451.5
 20
-242.07695154586736
 30
0.0
 11
1442.2141914088838
 21
-237.24306555560202
 31
0.0
1001
HANOK_PORTRAIT_DL
1000
{"view":"opening","kind":"direction"}
  0
LINE
  5
167
330
17
100
AcDbEntity
  8
ASSEMBLY_REFERENCE
100
AcDbLine
 10
1442.2141914088838
 20
-237.24306555560202
 30
0.0
 11
1432.5424171990803
 21
-233.23688550569102
 31
0.0
1001
HANOK_PORTRAIT_DL
1000
{"view":"opening","kind":"direction"}
  0
LINE
  5
168
330
17
100
AcDbEntity
  8
ASSEMBLY_REFERENCE
100
AcDbLine
 10
1432.5424171990803
 20
-233.23688550569102
 30
0.0
 11
1422.5582854123024
 21
-230.0889008453118
 31
0.0
1001
HANOK_PORTRAIT_DL
1000
{"view":"opening","kind":"direction"}
  0
LINE
  5
169
330
17
100
AcDbEntity
  8
ASSEMBLY_REFERENCE
100
AcDbLine
 10
1422.5582854123024
 20
-230.0889008453118
 30
0.0
 11
1412.3377813200316
 21
-227.82306963853503
 31
0.0
1001
HANOK_PORTRAIT_DL
1000
{"view":"opening","kind":"direction"}
  0
LINE
  5
16A
330
17
100
AcDbEntity
  8
ASSEMBLY_REFERENCE
100
AcDbLine
 10
1412.3377813200316
 20
-227.82306963853503
 30
0.0
 11
1401.958689129719
 21
-226.45663622899053
 31
0.0
1001
HANOK_PORTRAIT_DL
1000
{"view":"opening","kind":"direction"}
  0
LINE
  5
16B
330
17
100
AcDbEntity
  8
ASSEMBLY_REFERENCE
100
AcDbLine
 10
1401.958689129719
 20
-226.45663622899053
 30
0.0
 11
1391.5
 21
-226.0
 31
0.0
1001
HANOK_PORTRAIT_DL
1000
{"view":"opening","kind":"direction"}
  0
LINE
  5
16C
330
17
100
AcDbEntity
  8
ASSEMBLY_REFERENCE
100
AcDbLine
 10
1391.5
 20
-226.0
 30
0.0
 11
1399.3615276105588
 21
-229.34609976366826
 31
0.0
1001
HANOK_PORTRAIT_DL
1000
{"view":"opening","kind":"direction"}
  0
LINE
  5
16D
330
17
100
AcDbEntity
  8
ASSEMBLY_REFERENCE
100
AcDbLine
 10
1391.5
 20
-226.0
 30
0.0
 11
1399.623243934751
 21
-223.3518104341771
 31
0.0
1001
HANOK_PORTRAIT_DL
1000
{"view":"opening","kind":"direction"}
  0
TEXT
  5
16E
330
17
100
AcDbEntity
  8
ASSEMBLY_REFERENCE
100
AcDbText
 10
1530.0
 20
-182.0
 30
0.0
 40
4.8
  1
90 deg REF
 72
1
 11
1530.0
 21
-182.0
 31
0.0
100
AcDbText
 73
2
1001
HANOK_PORTRAIT_DL
1000
{"text_align":"center","view":"opening"}
  0
TEXT
  5
16F
330
17
100
AcDbEntity
  8
NOTES
100
AcDbText
 10
1560.0
 20
-105.0
 30
0.0
 40
6.0
  1
NO FIXED CENTRE MULLION
 72
1
 11
1560.0
 21
-105.0
 31
0.0
100
AcDbText
 73
2
1001
HANOK_PORTRAIT_DL
1000
{"text_align":"center","view":"opening"}
  0
TEXT
  5
170
330
17
100
AcDbEntity
  8
NOTES
100
AcDbText
 10
1560.0
 20
-148.0
 30
0.0
 40
5.0
  1
VIEWER / FRONT +Z
 72
1
 11
1560.0
 21
-148.0
 31
0.0
100
AcDbText
 73
2
1001
HANOK_PORTRAIT_DL
1000
{"text_align":"center","view":"opening"}
  0
TEXT
  5
171
330
17
100
AcDbEntity
  8
NOTES
100
AcDbText
 10
1350.0
 20
-440.0
 30
0.0
 40
3.8
  1
Illustrative axes: (X,Z)=(41.5,24). Recheck selected hardware.
 11
1350.0
 21
-440.0
 31
0.0
100
AcDbText
 73
2
1001
HANOK_PORTRAIT_DL
1000
{"text_align":"left","view":"opening"}
  0
TEXT
  5
172
330
17
100
AcDbEntity
  8
NOTES
100
AcDbText
 10
1350.0
 20
-453.0
 30
0.0
 40
3.8
  1
No actual hinge, screw, backing clearance or load capacity is verified here.
 11
1350.0
 21
-453.0
 31
0.0
100
AcDbText
 73
2
1001
HANOK_PORTRAIT_DL
1000
{"text_align":"left","view":"opening"}
  0
ENDSEC
  0
SECTION
  2
OBJECTS
  0
DICTIONARY
  5
A
330
0
100
AcDbDictionary
281
1
  3
ACAD_COLOR
350
B
  3
ACAD_GROUP
350
C
  3
ACAD_LAYOUT
350
D
  3
ACAD_MATERIAL
350
E
  3
ACAD_MLEADERSTYLE
350
F
  3
ACAD_MLINESTYLE
350
10
  3
ACAD_PLOTSETTINGS
350
11
  3
ACAD_PLOTSTYLENAME
350
12
  3
ACAD_SCALELIST
350
14
  3
ACAD_TABLESTYLE
350
15
  3
ACAD_VISUALSTYLE
350
16
  3
EZDXF_META
350
2D
  0
DICTIONARY
  5
B
330
A
100
AcDbDictionary
281
1
  0
DICTIONARY
  5
C
330
A
100
AcDbDictionary
281
1
  0
DICTIONARY
  5
D
330
A
100
AcDbDictionary
281
1
  3
Model
350
1A
  3
Layout1
350
1E
  0
DICTIONARY
  5
E
330
A
100
AcDbDictionary
281
1
  3
ByBlock
350
1F
  3
ByLayer
350
20
  3
Global
350
21
  0
DICTIONARY
  5
F
330
A
100
AcDbDictionary
281
1
  3
Standard
350
2C
  0
DICTIONARY
  5
10
330
A
100
AcDbDictionary
281
1
  3
Standard
350
22
  0
DICTIONARY
  5
11
330
A
100
AcDbDictionary
281
1
  0
ACDBDICTIONARYWDFLT
  5
12
330
A
100
AcDbDictionary
281
1
  3
Normal
350
13
100
AcDbDictionaryWithDefault
340
13
  0
ACDBPLACEHOLDER
  5
13
330
12
  0
DICTIONARY
  5
14
330
A
100
AcDbDictionary
281
1
  0
DICTIONARY
  5
15
330
A
100
AcDbDictionary
281
1
  0
DICTIONARY
  5
16
330
A
100
AcDbDictionary
281
1
  0
LAYOUT
  5
1A
330
D
100
AcDbPlotSettings
  1

  4
A3
  6

 40
7.5
 41
20.0
 42
7.5
 43
20.0
 44
420.0
 45
297.0
 46
0.0
 47
0.0
 48
0.0
 49
0.0
140
0.0
141
0.0
142
1.0
143
1.0
 70
1024
 72
1
 73
0
 74
5
  7

 75
16
 76
0
 77
2
 78
300
147
1.0
148
0.0
149
0.0
100
AcDbLayout
  1
Model
 70
1
 71
0
 10
0.0
 20
0.0
 11
420.0
 21
297.0
 12
0.0
 22
0.0
 32
0.0
 14
1e+20
 24
1e+20
 34
1e+20
 15
-1e+20
 25
-1e+20
 35
-1e+20
146
0.0
 13
0.0
 23
0.0
 33
0.0
 16
1.0
 26
0.0
 36
0.0
 17
0.0
 27
1.0
 37
0.0
 76
1
330
17
  0
LAYOUT
  5
1E
330
D
100
AcDbPlotSettings
  1

  4
A3
  6

 40
7.5
 41
20.0
 42
7.5
 43
20.0
 44
420.0
 45
297.0
 46
0.0
 47
0.0
 48
0.0
 49
0.0
140
0.0
141
0.0
142
1.0
143
1.0
 70
0
 72
1
 73
0
 74
5
  7

 75
16
 76
0
 77
2
 78
300
147
1.0
148
0.0
149
0.0
100
AcDbLayout
  1
Layout1
 70
1
 71
1
 10
0.0
 20
0.0
 11
420.0
 21
297.0
 12
0.0
 22
0.0
 32
0.0
 14
1e+20
 24
1e+20
 34
1e+20
 15
-1e+20
 25
-1e+20
 35
-1e+20
146
0.0
 13
0.0
 23
0.0
 33
0.0
 16
1.0
 26
0.0
 36
0.0
 17
0.0
 27
1.0
 37
0.0
 76
1
330
1B
  0
MATERIAL
  5
1F
102
{ACAD_REACTORS
330
E
102
}
330
E
100
AcDbMaterial
  1
ByBlock
  2

 70
0
 40
1.0
 71
1
 41
1.0
 91
-1023410177
 42
1.0
 72
1
  3

 73
1
 74
1
 75
1
 44
0.5
 73
0
 45
1.0
 46
1.0
 77
1
  4

 78
1
 79
1
170
1
 48
1.0
171
1
  6

172
1
173
1
174
1
140
1.0
141
1.0
175
1
  7

176
1
177
1
178
1
143
1.0
179
1
  8

270
1
271
1
272
1
145
1.0
146
1.0
273
1
  9

274
1
275
1
276
1
 42
1.0
 72
1
  3

 73
1
 74
1
 75
1
 94
63
  0
MATERIAL
  5
20
102
{ACAD_REACTORS
330
E
102
}
330
E
100
AcDbMaterial
  1
ByLayer
  2

 70
0
 40
1.0
 71
1
 41
1.0
 91
-1023410177
 42
1.0
 72
1
  3

 73
1
 74
1
 75
1
 44
0.5
 73
0
 45
1.0
 46
1.0
 77
1
  4

 78
1
 79
1
170
1
 48
1.0
171
1
  6

172
1
173
1
174
1
140
1.0
141
1.0
175
1
  7

176
1
177
1
178
1
143
1.0
179
1
  8

270
1
271
1
272
1
145
1.0
146
1.0
273
1
  9

274
1
275
1
276
1
 42
1.0
 72
1
  3

 73
1
 74
1
 75
1
 94
63
  0
MATERIAL
  5
21
102
{ACAD_REACTORS
330
E
102
}
330
E
100
AcDbMaterial
  1
Global
  2

 70
0
 40
1.0
 71
1
 41
1.0
 91
-1023410177
 42
1.0
 72
1
  3

 73
1
 74
1
 75
1
 44
0.5
 73
0
 45
1.0
 46
1.0
 77
1
  4

 78
1
 79
1
170
1
 48
1.0
171
1
  6

172
1
173
1
174
1
140
1.0
141
1.0
175
1
  7

176
1
177
1
178
1
143
1.0
179
1
  8

270
1
271
1
272
1
145
1.0
146
1.0
273
1
  9

274
1
275
1
276
1
 42
1.0
 72
1
  3

 73
1
 74
1
 75
1
 94
63
  0
MLINESTYLE
  5
22
102
{ACAD_REACTORS
330
10
102
}
330
10
100
AcDbMlineStyle
  2
Standard
 70
0
  3

 62
256
 51
90.0
 52
90.0
 71
2
 49
0.5
 62
256
  6
BYLAYER
 49
-0.5
 62
256
  6
BYLAYER
  0
MLEADERSTYLE
  5
2C
102
{ACAD_REACTORS
330
F
102
}
330
F
100
AcDbMLeaderStyle
179
2
170
2
171
1
172
0
 90
2
 40
0.0
 41
0.0
173
1
 91
-1056964608
 92
-2
290
1
 42
2.0
291
1
 43
8.0
  3
Standard
 44
4.0
300

342
29
174
1
175
1
176
0
178
1
 93
-1056964608
 45
4.0
292
0
297
0
 46
4.0
 94
-1056964608
 47
1.0
 49
1.0
140
1.0
294
1
141
0.0
177
0
142
1.0
295
0
296
0
143
3.75
271
0
272
9
273
9
  0
DICTIONARY
  5
2D
330
A
100
AcDbDictionary
280
1
281
1
  3
CREATED_BY_EZDXF
350
2E
  3
HANOK_REVISION
350
2F
  3
HANOK_BUILD_DATE
350
30
  3
HANOK_SOURCE_OF_TRUTH
350
31
  3
HANOK_NUMERIC_POLICY
350
32
  3
WRITTEN_BY_EZDXF
350
176
  0
DICTIONARYVAR
  5
2E
330
2D
100
DictionaryVariables
280
0
  1
0.0 @ 2000-01-01T00:00:00.000000+00:00
  0
DICTIONARYVAR
  5
2F
330
2D
100
DictionaryVariables
280
0
  1
HANOK_GEN_V1_9ee45712a705
  0
DICTIONARYVAR
  5
30
330
2D
100
DictionaryVariables
280
0
  1
2026-09-12
  0
DICTIONARYVAR
  5
31
330
2D
100
DictionaryVariables
280
0
  1
design_parameters.json
  0
DICTIONARYVAR
  5
32
330
2D
100
DictionaryVariables
280
0
  1
HANOK_NUMERIC_V1
  0
DICTIONARYVAR
  5
176
330
2D
100
DictionaryVariables
280
0
  1
0.0 @ 2000-01-01T00:00:00.000000+00:00
  0
ENDSEC
  0
EOF
