  0
SECTION
  2
HEADER
  9
$ACADVER
  1
AC1024
  9
$ACADMAINTVER
 70
6
  9
$DWGCODEPAGE
  3
ANSI_1252
  9
$LASTSAVEDBY
  1
ezdxf
  9
$INSBASE
 10
0.0
 20
0.0
 30
0.0
  9
$EXTMIN
 10
1e+20
 20
1e+20
 30
1e+20
  9
$EXTMAX
 10
-1e+20
 20
-1e+20
 30
-1e+20
  9
$LIMMIN
 10
0.0
 20
0.0
  9
$LIMMAX
 10
420.0
 20
297.0
  9
$ORTHOMODE
 70
0
  9
$REGENMODE
 70
1
  9
$FILLMODE
 70
1
  9
$QTEXTMODE
 70
0
  9
$MIRRTEXT
 70
1
  9
$LTSCALE
 40
1.0
  9
$ATTMODE
 70
1
  9
$TEXTSIZE
 40
2.5
  9
$TRACEWID
 40
1.0
  9
$TEXTSTYLE
  7
Standard
  9
$CLAYER
  8
0
  9
$CELTYPE
  6
ByLayer
  9
$CECOLOR
 62
256
  9
$CELTSCALE
 40
1.0
  9
$DISPSILH
 70
0
  9
$DIMSCALE
 40
1.0
  9
$DIMASZ
 40
2.5
  9
$DIMEXO
 40
0.625
  9
$DIMDLI
 40
3.75
  9
$DIMRND
 40
0.0
  9
$DIMDLE
 40
0.0
  9
$DIMEXE
 40
1.25
  9
$DIMTP
 40
0.0
  9
$DIMTM
 40
0.0
  9
$DIMTXT
 40
2.5
  9
$DIMCEN
 40
2.5
  9
$DIMTSZ
 40
0.0
  9
$DIMTOL
 70
0
  9
$DIMLIM
 70
0
  9
$DIMTIH
 70
0
  9
$DIMTOH
 70
0
  9
$DIMSE1
 70
0
  9
$DIMSE2
 70
0
  9
$DIMTAD
 70
1
  9
$DIMZIN
 70
8
  9
$DIMBLK
  1

  9
$DIMASO
 70
1
  9
$DIMSHO
 70
1
  9
$DIMPOST
  1

  9
$DIMAPOST
  1

  9
$DIMALT
 70
0
  9
$DIMALTD
 70
3
  9
$DIMALTF
 40
0.03937007874
  9
$DIMLFAC
 40
1.0
  9
$DIMTOFL
 70
1
  9
$DIMTVP
 40
0.0
  9
$DIMTIX
 70
0
  9
$DIMSOXD
 70
0
  9
$DIMSAH
 70
0
  9
$DIMBLK1
  1

  9
$DIMBLK2
  1

  9
$DIMSTYLE
  2
ISO-25
  9
$DIMCLRD
 70
0
  9
$DIMCLRE
 70
0
  9
$DIMCLRT
 70
0
  9
$DIMTFAC
 40
1.0
  9
$DIMGAP
 40
0.625
  9
$DIMJUST
 70
0
  9
$DIMSD1
 70
0
  9
$DIMSD2
 70
0
  9
$DIMTOLJ
 70
0
  9
$DIMTZIN
 70
8
  9
$DIMALTZ
 70
0
  9
$DIMALTTZ
 70
0
  9
$DIMUPT
 70
0
  9
$DIMDEC
 70
2
  9
$DIMTDEC
 70
2
  9
$DIMALTU
 70
2
  9
$DIMALTTD
 70
3
  9
$DIMTXSTY
  7
Standard
  9
$DIMAUNIT
 70
0
  9
$DIMADEC
 70
0
  9
$DIMALTRND
 40
0.0
  9
$DIMAZIN
 70
0
  9
$DIMDSEP
 70
44
  9
$DIMATFIT
 70
3
  9
$DIMFRAC
 70
0
  9
$DIMLDRBLK
  1

  9
$DIMLUNIT
 70
2
  9
$DIMLWD
 70
-2
  9
$DIMLWE
 70
-2
  9
$DIMTMOVE
 70
0
  9
$DIMFXL
 40
1.0
  9
$DIMFXLON
 70
0
  9
$DIMJOGANG
 40
0.785398163397
  9
$DIMTFILL
 70
0
  9
$DIMTFILLCLR
 70
0
  9
$DIMARCSYM
 70
0
  9
$DIMLTYPE
  6

  9
$DIMLTEX1
  6

  9
$DIMLTEX2
  6

  9
$DIMTXTDIRECTION
 70
0
  9
$LUNITS
 70
2
  9
$LUPREC
 70
3
  9
$SKETCHINC
 40
1.0
  9
$FILLETRAD
 40
10.0
  9
$AUNITS
 70
0
  9
$AUPREC
 70
2
  9
$MENU
  1
.
  9
$ELEVATION
 40
0.0
  9
$PELEVATION
 40
0.0
  9
$THICKNESS
 40
0.0
  9
$LIMCHECK
 70
0
  9
$CHAMFERA
 40
0.0
  9
$CHAMFERB
 40
0.0
  9
$CHAMFERC
 40
0.0
  9
$CHAMFERD
 40
0.0
  9
$SKPOLY
 70
0
  9
$TDCREATE
 40
2461294.4891435187
  9
$TDUCREATE
 40
2458532.153996898
  9
$TDUPDATE
 40
2461294.4891435187
  9
$TDUUPDATE
 40
2458532.1544311
  9
$TDINDWG
 40
0.0
  9
$TDUSRTIMER
 40
0.0
  9
$USRTIMER
 70
1
  9
$ANGBASE
 50
0.0
  9
$ANGDIR
 70
0
  9
$PDMODE
 70
0
  9
$PDSIZE
 40
0.0
  9
$PLINEWID
 40
0.0
  9
$SPLFRAME
 70
0
  9
$SPLINETYPE
 70
6
  9
$SPLINESEGS
 70
8
  9
$HANDSEED
  5
244
  9
$SURFTAB1
 70
6
  9
$SURFTAB2
 70
6
  9
$SURFTYPE
 70
6
  9
$SURFU
 70
6
  9
$SURFV
 70
6
  9
$UCSBASE
  2

  9
$UCSNAME
  2

  9
$UCSORG
 10
0.0
 20
0.0
 30
0.0
  9
$UCSXDIR
 10
1.0
 20
0.0
 30
0.0
  9
$UCSYDIR
 10
0.0
 20
1.0
 30
0.0
  9
$UCSORTHOREF
  2

  9
$UCSORTHOVIEW
 70
0
  9
$UCSORGTOP
 10
0.0
 20
0.0
 30
0.0
  9
$UCSORGBOTTOM
 10
0.0
 20
0.0
 30
0.0
  9
$UCSORGLEFT
 10
0.0
 20
0.0
 30
0.0
  9
$UCSORGRIGHT
 10
0.0
 20
0.0
 30
0.0
  9
$UCSORGFRONT
 10
0.0
 20
0.0
 30
0.0
  9
$UCSORGBACK
 10
0.0
 20
0.0
 30
0.0
  9
$PUCSBASE
  2

  9
$PUCSNAME
  2

  9
$PUCSORG
 10
0.0
 20
0.0
 30
0.0
  9
$PUCSXDIR
 10
1.0
 20
0.0
 30
0.0
  9
$PUCSYDIR
 10
0.0
 20
1.0
 30
0.0
  9
$PUCSORTHOREF
  2

  9
$PUCSORTHOVIEW
 70
0
  9
$PUCSORGTOP
 10
0.0
 20
0.0
 30
0.0
  9
$PUCSORGBOTTOM
 10
0.0
 20
0.0
 30
0.0
  9
$PUCSORGLEFT
 10
0.0
 20
0.0
 30
0.0
  9
$PUCSORGRIGHT
 10
0.0
 20
0.0
 30
0.0
  9
$PUCSORGFRONT
 10
0.0
 20
0.0
 30
0.0
  9
$PUCSORGBACK
 10
0.0
 20
0.0
 30
0.0
  9
$USERI1
 70
0
  9
$USERI2
 70
0
  9
$USERI3
 70
0
  9
$USERI4
 70
0
  9
$USERI5
 70
0
  9
$USERR1
 40
0.0
  9
$USERR2
 40
0.0
  9
$USERR3
 40
0.0
  9
$USERR4
 40
0.0
  9
$USERR5
 40
0.0
  9
$WORLDVIEW
 70
1
  9
$SHADEDGE
 70
3
  9
$SHADEDIF
 70
70
  9
$TILEMODE
 70
1
  9
$MAXACTVP
 70
64
  9
$PINSBASE
 10
0.0
 20
0.0
 30
0.0
  9
$PLIMCHECK
 70
0
  9
$PEXTMIN
 10
1e+20
 20
1e+20
 30
1e+20
  9
$PEXTMAX
 10
-1e+20
 20
-1e+20
 30
-1e+20
  9
$PLIMMIN
 10
0.0
 20
0.0
  9
$PLIMMAX
 10
420.0
 20
297.0
  9
$UNITMODE
 70
0
  9
$VISRETAIN
 70
1
  9
$PLINEGEN
 70
0
  9
$PSLTSCALE
 70
1
  9
$TREEDEPTH
 70
3020
  9
$CMLSTYLE
  2
Standard
  9
$CMLJUST
 70
0
  9
$CMLSCALE
 40
20.0
  9
$PROXYGRAPHICS
 70
1
  9
$MEASUREMENT
 70
1
  9
$CELWEIGHT
370
-1
  9
$ENDCAPS
280
0
  9
$JOINSTYLE
280
0
  9
$LWDISPLAY
290
1
  9
$INSUNITS
 70
4
  9
$HYPERLINKBASE
  1

  9
$STYLESHEET
  1

  9
$XEDIT
290
1
  9
$CEPSNTYPE
380
0
  9
$PSTYLEMODE
290
1
  9
$FINGERPRINTGUID
  2
{382361FB-77BC-469B-9A2B-7E6A438A649F}
  9
$VERSIONGUID
  2
{3E38B835-85F6-439E-87A3-CB791B236515}
  9
$EXTNAMES
290
1
  9
$PSVPSCALE
 40
0.0
  9
$OLESTARTUP
290
0
  9
$SORTENTS
280
127
  9
$INDEXCTL
280
0
  9
$HIDETEXT
280
1
  9
$XCLIPFRAME
280
1
  9
$HALOGAP
280
0
  9
$OBSCOLOR
 70
257
  9
$OBSLTYPE
280
0
  9
$INTERSECTIONDISPLAY
280
0
  9
$INTERSECTIONCOLOR
 70
257
  9
$DIMASSOC
280
2
  9
$PROJECTNAME
  1

  9
$CAMERADISPLAY
290
0
  9
$LENSLENGTH
 40
50.0
  9
$CAMERAHEIGHT
 40
0.0
  9
$STEPSPERSEC
 40
24.0
  9
$STEPSIZE
 40
100.0
  9
$3DDWFPREC
 40
2.0
  9
$PSOLWIDTH
 40
0.005
  9
$PSOLHEIGHT
 40
0.08
  9
$LOFTANG1
 40
1.570796326795
  9
$LOFTANG2
 40
1.570796326795
  9
$LOFTMAG1
 40
0.0
  9
$LOFTMAG2
 40
0.0
  9
$LOFTPARAM
 70
7
  9
$LOFTNORMALS
280
1
  9
$LATITUDE
 40
37.795
  9
$LONGITUDE
 40
-122.394
  9
$NORTHDIRECTION
 40
0.0
  9
$TIMEZONE
 70
-8000
  9
$LIGHTGLYPHDISPLAY
280
1
  9
$TILEMODELIGHTSYNCH
280
1
  9
$CMATERIAL
347
20
  9
$SOLIDHIST
280
0
  9
$SHOWHIST
280
1
  9
$DWFFRAME
280
2
  9
$DGNFRAME
280
2
  9
$REALWORLDSCALE
290
1
  9
$INTERFERECOLOR
 62
256
  9
$CSHADOW
280
0
  9
$SHADOWPLANELOCATION
 40
0.0
  0
ENDSEC
  0
SECTION
  2
CLASSES
  0
CLASS
  1
ACDBDICTIONARYWDFLT
  2
AcDbDictionaryWithDefault
  3
ObjectDBX Classes
 90
0
 91
0
280
0
281
0
  0
CLASS
  1
SUN
  2
AcDbSun
  3
SCENEOE
 90
1153
 91
0
280
0
281
0
  0
CLASS
  1
VISUALSTYLE
  2
AcDbVisualStyle
  3
ObjectDBX Classes
 90
4095
 91
0
280
0
281
0
  0
CLASS
  1
MATERIAL
  2
AcDbMaterial
  3
ObjectDBX Classes
 90
1153
 91
0
280
0
281
0
  0
CLASS
  1
SCALE
  2
AcDbScale
  3
ObjectDBX Classes
 90
1153
 91
0
280
0
281
0
  0
CLASS
  1
TABLESTYLE
  2
AcDbTableStyle
  3
ObjectDBX Classes
 90
4095
 91
0
280
0
281
0
  0
CLASS
  1
MLEADERSTYLE
  2
AcDbMLeaderStyle
  3
ACDB_MLEADERSTYLE_CLASS
 90
4095
 91
0
280
0
281
0
  0
CLASS
  1
DICTIONARYVAR
  2
AcDbDictionaryVar
  3
ObjectDBX Classes
 90
0
 91
0
280
0
281
0
  0
CLASS
  1
CELLSTYLEMAP
  2
AcDbCellStyleMap
  3
ObjectDBX Classes
 90
1152
 91
0
280
0
281
0
  0
CLASS
  1
MENTALRAYRENDERSETTINGS
  2
AcDbMentalRayRenderSettings
  3
SCENEOE
 90
1024
 91
0
280
0
281
0
  0
CLASS
  1
ACDBDETAILVIEWSTYLE
  2
AcDbDetailViewStyle
  3
ObjectDBX Classes
 90
1025
 91
0
280
0
281
0
  0
CLASS
  1
ACDBSECTIONVIEWSTYLE
  2
AcDbSectionViewStyle
  3
ObjectDBX Classes
 90
1025
 91
0
280
0
281
0
  0
CLASS
  1
RASTERVARIABLES
  2
AcDbRasterVariables
  3
ISM
 90
0
 91
0
280
0
281
0
  0
CLASS
  1
ACDBPLACEHOLDER
  2
AcDbPlaceHolder
  3
ObjectDBX Classes
 90
0
 91
0
280
0
281
0
  0
CLASS
  1
LAYOUT
  2
AcDbLayout
  3
ObjectDBX Classes
 90
0
 91
0
280
0
281
0
  0
ENDSEC
  0
SECTION
  2
TABLES
  0
TABLE
  2
VPORT
  5
8
330
0
100
AcDbSymbolTable
 70
1
  0
VPORT
  5
240
330
8
100
AcDbSymbolTableRecord
100
AcDbViewportTableRecord
  2
*Active
 70
0
 10
0.0
 20
0.0
 11
1.0
 21
1.0
 12
1000.0
 22
415.0
 13
0.0
 23
0.0
 14
0.5
 24
0.5
 15
0.5
 25
0.5
 16
0.0
 26
0.0
 36
1.0
 17
0.0
 27
0.0
 37
0.0
 40
1090.0
 41
1.34
 42
50.0
 43
0.0
 44
0.0
 50
0.0
 51
0.0
 71
0
 72
1000
 73
1
 74
3
 75
0
 76
0
 77
0
 78
0
281
0
 65
1
110
0.0
120
0.0
130
0.0
111
1.0
121
0.0
131
0.0
112
0.0
122
1.0
132
0.0
 79
0
146
0.0
  0
ENDTAB
  0
TABLE
  2
LTYPE
  5
2
330
0
100
AcDbSymbolTable
 70
5
  0
LTYPE
  5
24
330
2
100
AcDbSymbolTableRecord
100
AcDbLinetypeTableRecord
  2
ByBlock
 70
0
  3

 72
65
 73
0
 40
0.0
  0
LTYPE
  5
25
330
2
100
AcDbSymbolTableRecord
100
AcDbLinetypeTableRecord
  2
ByLayer
 70
0
  3

 72
65
 73
0
 40
0.0
  0
LTYPE
  5
26
330
2
100
AcDbSymbolTableRecord
100
AcDbLinetypeTableRecord
  2
Continuous
 70
0
  3

 72
65
 73
0
 40
0.0
  0
LTYPE
  5
3B
330
2
100
AcDbSymbolTableRecord
100
AcDbLinetypeTableRecord
  2
REF_DASH
 70
0
  3
Reference only 4-2
 72
65
 73
2
 40
6.0
 49
4.0
 74
0
 49
-2.0
 74
0
  0
LTYPE
  5
3C
330
2
100
AcDbSymbolTableRecord
100
AcDbLinetypeTableRecord
  2
A3_DASHDOT
 70
0
  3
A3 placement 8-2-1-2
 72
65
 73
4
 40
13.0
 49
8.0
 74
0
 49
-2.0
 74
0
 49
1.0
 74
0
 49
-2.0
 74
0
  0
ENDTAB
  0
TABLE
  2
LAYER
  5
1
330
0
100
AcDbSymbolTable
 70
13
  0
LAYER
  5
27
330
1
100
AcDbSymbolTableRecord
100
AcDbLayerTableRecord
  2
0
 70
0
 62
7
  6
Continuous
370
-3
390
13
347
21
  0
LAYER
  5
28
330
1
100
AcDbSymbolTableRecord
100
AcDbLayerTableRecord
  2
Defpoints
 70
0
 62
7
  6
Continuous
290
0
370
-3
390
13
347
21
  0
LAYER
  5
30
330
1
100
AcDbSymbolTableRecord
100
AcDbLayerTableRecord
  2
BOARD_BOUNDARY
 70
0
 62
8
  6
Continuous
370
35
390
13
347
21
  0
LAYER
  5
31
330
1
100
AcDbSymbolTableRecord
100
AcDbLayerTableRecord
  2
CUT_THROUGH
 70
0
 62
7
  6
Continuous
370
35
390
13
347
21
  0
LAYER
  5
32
330
1
100
AcDbSymbolTableRecord
100
AcDbLayerTableRecord
  2
POCKET_10MM
 70
0
 62
30
  6
Continuous
370
25
390
13
347
21
  0
LAYER
  5
33
330
1
100
AcDbSymbolTableRecord
100
AcDbLayerTableRecord
  2
DOGBONE
 70
0
 62
6
  6
Continuous
370
25
390
13
347
21
  0
LAYER
  5
34
330
1
100
AcDbSymbolTableRecord
100
AcDbLayerTableRecord
  2
HINGE_REF
 70
0
 62
4
  6
REF_DASH
370
18
390
13
347
21
  0
LAYER
  5
35
330
1
100
AcDbSymbolTableRecord
100
AcDbLayerTableRecord
  2
LATCH_REF
 70
0
 62
4
  6
REF_DASH
370
18
390
13
347
21
  0
LAYER
  5
36
330
1
100
AcDbSymbolTableRecord
100
AcDbLayerTableRecord
  2
PART_ID
 70
0
 62
7
  6
Continuous
370
18
390
13
347
21
  0
LAYER
  5
37
330
1
100
AcDbSymbolTableRecord
100
AcDbLayerTableRecord
  2
DIMENSIONS
 70
0
 62
3
  6
Continuous
370
18
390
13
347
21
  0
LAYER
  5
38
330
1
100
AcDbSymbolTableRecord
100
AcDbLayerTableRecord
  2
GRAIN_DIRECTION
 70
0
 62
3
  6
Continuous
370
35
390
13
347
21
  0
LAYER
  5
39
330
1
100
AcDbSymbolTableRecord
100
AcDbLayerTableRecord
  2
ASSEMBLY_REFERENCE
 70
0
 62
8
  6
Continuous
370
18
390
13
347
21
  0
LAYER
  5
3A
330
1
100
AcDbSymbolTableRecord
100
AcDbLayerTableRecord
  2
NOTES
 70
0
 62
7
  6
Continuous
370
18
390
13
347
21
  0
ENDTAB
  0
TABLE
  2
STYLE
  5
5
330
0
100
AcDbSymbolTable
 70
1
  0
STYLE
  5
29
330
5
100
AcDbSymbolTableRecord
100
AcDbTextStyleTableRecord
  2
Standard
 70
0
 40
0.0
 41
1.0
 50
0.0
 71
0
 42
2.5
  3
txt
  4

  0
ENDTAB
  0
TABLE
  2
VIEW
  5
7
330
0
100
AcDbSymbolTable
 70
0
  0
ENDTAB
  0
TABLE
  2
UCS
  5
6
330
0
100
AcDbSymbolTable
 70
0
  0
ENDTAB
  0
TABLE
  2
APPID
  5
3
330
0
100
AcDbSymbolTable
 70
4
  0
APPID
  5
2A
330
3
100
AcDbSymbolTableRecord
100
AcDbRegAppTableRecord
  2
ACAD
 70
0
  0
APPID
  5
2F
330
3
100
AcDbSymbolTableRecord
100
AcDbRegAppTableRecord
  2
HANOK_A3
 70
0
  0
APPID
  5
241
330
3
100
AcDbSymbolTableRecord
100
AcDbRegAppTableRecord
  2
HATCHBACKGROUNDCOLOR
 70
0
  0
APPID
  5
242
330
3
100
AcDbSymbolTableRecord
100
AcDbRegAppTableRecord
  2
EZDXF
 70
0
  0
ENDTAB
  0
TABLE
  2
DIMSTYLE
  5
4
330
0
100
AcDbSymbolTable
 70
1
100
AcDbDimStyleTable
  0
DIMSTYLE
105
2B
330
4
100
AcDbSymbolTableRecord
100
AcDbDimStyleTableRecord
  2
Standard
 70
0
 40
1.0
 41
2.5
 42
0.625
 43
3.75
 44
1.25
 45
0.0
 46
0.0
 47
0.0
 48
0.0
 49
2.5
140
2.5
141
2.5
142
0.0
143
0.03937007874
144
1.0
145
0.0
146
1.0
147
0.625
148
0.0
 69
0
 70
0
 71
0
 72
0
 73
0
 74
0
 75
0
 76
0
 77
1
 78
8
 79
3
170
0
171
3
172
1
173
0
174
0
175
0
176
0
177
0
178
0
179
2
271
2
272
2
273
2
274
3
275
0
276
0
277
2
278
44
279
0
280
0
281
0
282
0
283
0
284
8
285
0
286
0
288
0
289
3
290
0
371
-2
372
-2
  0
ENDTAB
  0
TABLE
  2
BLOCK_RECORD
  5
9
330
0
100
AcDbSymbolTable
 70
2
  0
BLOCK_RECORD
  5
17
330
9
100
AcDbSymbolTableRecord
100
AcDbBlockTableRecord
  2
*Model_Space
340
1A
 70
0
280
1
281
0
  0
BLOCK_RECORD
  5
1B
330
9
100
AcDbSymbolTableRecord
100
AcDbBlockTableRecord
  2
*Paper_Space
340
1E
 70
0
280
1
281
0
  0
ENDTAB
  0
ENDSEC
  0
SECTION
  2
BLOCKS
  0
BLOCK
  5
18
330
17
100
AcDbEntity
  8
0
100
AcDbBlockBegin
  2
*Model_Space
 70
0
 10
0.0
 20
0.0
 30
0.0
  3
*Model_Space
  1

  0
ENDBLK
  5
19
330
17
100
AcDbEntity
  8
0
100
AcDbBlockEnd
  0
BLOCK
  5
1C
330
1B
100
AcDbEntity
  8
0
100
AcDbBlockBegin
  2
*Paper_Space
 70
0
 10
0.0
 20
0.0
 30
0.0
  3
*Paper_Space
  1

  0
ENDBLK
  5
1D
330
1B
100
AcDbEntity
  8
0
100
AcDbBlockEnd
  0
ENDSEC
  0
SECTION
  2
ENTITIES
  0
LWPOLYLINE
  5
3D
330
17
100
AcDbEntity
  8
CUT_THROUGH
100
AcDbPolyline
 90
4
 70
1
 10
20.0
 20
20.0
 10
606.0
 20
20.0
 10
606.0
 20
60.0
 10
20.0
 20
60.0
1001
HANOK_A3
1000
{"kind":"part","part_id":"F02-1","family":"F02","length_mm":586,"width_mm":40,"thickness_mm":20,"depth_mm":20,"nesting_origin":[20,20],"assembly_map":[1,0,0,-1,0,40],"assembly_face_A":"BACK","grain_axis":"X","machining_face":"A"}
  0
TEXT
  5
3E
330
17
100
AcDbEntity
  8
PART_ID
100
AcDbText
 10
76.0
 20
40.0
 30
0.0
 40
4.5
  1
F02-1
 11
76.0
 21
40.0
 31
0.0
100
AcDbText
 73
2
1001
HANOK_A3
1000
{"text_align":"left","kind":"part_id","part_id":"F02-1"}
  0
TEXT
  5
3F
330
17
100
AcDbEntity
  8
NOTES
100
AcDbText
 10
135.0
 20
40.0
 30
0.0
 40
3.2
  1
586 x 40  |  A -> BACK
 11
135.0
 21
40.0
 31
0.0
100
AcDbText
 73
2
1001
HANOK_A3
1000
{"text_align":"left","kind":"part_note","part_id":"F02-1"}
  0
LWPOLYLINE
  5
40
330
17
100
AcDbEntity
  8
POCKET_10MM
100
AcDbPolyline
 90
4
 70
1
 10
20.0
 20
20.0
 10
60.0
 20
20.0
 10
60.0
 20
60.0
 10
20.0
 20
60.0
1001
HANOK_A3
1000
{"kind":"pocket","part_id":"F02-1","joint":"J1","joint_id":"F_BL","depth_mm":10.0,"local_rect":[0,0,40,40],"open_edges":["U_MIN","V_MIN","V_MAX"],"machining_face":"A"}
  0
LWPOLYLINE
  5
41
330
17
100
AcDbEntity
  8
POCKET_10MM
100
AcDbPolyline
 90
4
 70
1
 10
566.0
 20
20.0
 10
606.0
 20
20.0
 10
606.0
 20
60.0
 10
566.0
 20
60.0
1001
HANOK_A3
1000
{"kind":"pocket","part_id":"F02-1","joint":"J1","joint_id":"F_BR","depth_mm":10.0,"local_rect":[546,0,40,40],"open_edges":["U_MAX","V_MIN","V_MAX"],"machining_face":"A"}
  0
LWPOLYLINE
  5
42
330
17
100
AcDbEntity
  8
CUT_THROUGH
100
AcDbPolyline
 90
4
 70
1
 10
618.0
 20
20.0
 10
1081.0
 20
20.0
 10
1081.0
 20
60.0
 10
618.0
 20
60.0
1001
HANOK_A3
1000
{"kind":"part","part_id":"F01-1","family":"F01","length_mm":463,"width_mm":40,"thickness_mm":20,"depth_mm":20,"nesting_origin":[618,20],"assembly_map":[0,-1,1,0,40,0],"assembly_face_A":"FRONT","grain_axis":"X","machining_face":"A"}
  0
TEXT
  5
43
330
17
100
AcDbEntity
  8
PART_ID
100
AcDbText
 10
674.0
 20
40.0
 30
0.0
 40
4.5
  1
F01-1
 11
674.0
 21
40.0
 31
0.0
100
AcDbText
 73
2
1001
HANOK_A3
1000
{"text_align":"left","kind":"part_id","part_id":"F01-1"}
  0
TEXT
  5
44
330
17
100
AcDbEntity
  8
NOTES
100
AcDbText
 10
733.0
 20
40.0
 30
0.0
 40
3.2
  1
463 x 40  |  A -> FRONT
 11
733.0
 21
40.0
 31
0.0
100
AcDbText
 73
2
1001
HANOK_A3
1000
{"text_align":"left","kind":"part_note","part_id":"F01-1"}
  0
LWPOLYLINE
  5
45
330
17
100
AcDbEntity
  8
POCKET_10MM
100
AcDbPolyline
 90
4
 70
1
 10
618.0
 20
20.0
 10
658.0
 20
20.0
 10
658.0
 20
60.0
 10
618.0
 20
60.0
1001
HANOK_A3
1000
{"kind":"pocket","part_id":"F01-1","joint":"J1","joint_id":"F_BL","depth_mm":10.0,"local_rect":[0,0,40,40],"open_edges":["U_MIN","V_MIN","V_MAX"],"machining_face":"A"}
  0
LWPOLYLINE
  5
46
330
17
100
AcDbEntity
  8
POCKET_10MM
100
AcDbPolyline
 90
4
 70
1
 10
1041.0
 20
20.0
 10
1081.0
 20
20.0
 10
1081.0
 20
60.0
 10
1041.0
 20
60.0
1001
HANOK_A3
1000
{"kind":"pocket","part_id":"F01-1","joint":"J1","joint_id":"F_TL","depth_mm":10.0,"local_rect":[423,0,40,40],"open_edges":["U_MAX","V_MIN","V_MAX"],"machining_face":"A"}
  0
LWPOLYLINE
  5
47
330
17
100
AcDbEntity
  8
CUT_THROUGH
100
AcDbPolyline
 90
4
 70
1
 10
20.0
 20
72.0
 10
606.0
 20
72.0
 10
606.0
 20
112.0
 10
20.0
 20
112.0
1001
HANOK_A3
1000
{"kind":"part","part_id":"F02-2","family":"F02","length_mm":586,"width_mm":40,"thickness_mm":20,"depth_mm":20,"nesting_origin":[20,72],"assembly_map":[1,0,0,-1,0,463],"assembly_face_A":"BACK","grain_axis":"X","machining_face":"A"}
  0
TEXT
  5
48
330
17
100
AcDbEntity
  8
PART_ID
100
AcDbText
 10
76.0
 20
92.0
 30
0.0
 40
4.5
  1
F02-2
 11
76.0
 21
92.0
 31
0.0
100
AcDbText
 73
2
1001
HANOK_A3
1000
{"text_align":"left","kind":"part_id","part_id":"F02-2"}
  0
TEXT
  5
49
330
17
100
AcDbEntity
  8
NOTES
100
AcDbText
 10
135.0
 20
92.0
 30
0.0
 40
3.2
  1
586 x 40  |  A -> BACK
 11
135.0
 21
92.0
 31
0.0
100
AcDbText
 73
2
1001
HANOK_A3
1000
{"text_align":"left","kind":"part_note","part_id":"F02-2"}
  0
LWPOLYLINE
  5
4A
330
17
100
AcDbEntity
  8
POCKET_10MM
100
AcDbPolyline
 90
4
 70
1
 10
20.0
 20
72.0
 10
60.0
 20
72.0
 10
60.0
 20
112.0
 10
20.0
 20
112.0
1001
HANOK_A3
1000
{"kind":"pocket","part_id":"F02-2","joint":"J1","joint_id":"F_TL","depth_mm":10.0,"local_rect":[0,0,40,40],"open_edges":["U_MIN","V_MIN","V_MAX"],"machining_face":"A"}
  0
LWPOLYLINE
  5
4B
330
17
100
AcDbEntity
  8
POCKET_10MM
100
AcDbPolyline
 90
4
 70
1
 10
566.0
 20
72.0
 10
606.0
 20
72.0
 10
606.0
 20
112.0
 10
566.0
 20
112.0
1001
HANOK_A3
1000
{"kind":"pocket","part_id":"F02-2","joint":"J1","joint_id":"F_TR","depth_mm":10.0,"local_rect":[546,0,40,40],"open_edges":["U_MAX","V_MIN","V_MAX"],"machining_face":"A"}
  0
LWPOLYLINE
  5
4C
330
17
100
AcDbEntity
  8
CUT_THROUGH
100
AcDbPolyline
 90
4
 70
1
 10
618.0
 20
72.0
 10
1081.0
 20
72.0
 10
1081.0
 20
112.0
 10
618.0
 20
112.0
1001
HANOK_A3
1000
{"kind":"part","part_id":"F01-2","family":"F01","length_mm":463,"width_mm":40,"thickness_mm":20,"depth_mm":20,"nesting_origin":[618,72],"assembly_map":[0,-1,1,0,586,0],"assembly_face_A":"FRONT","grain_axis":"X","machining_face":"A"}
  0
TEXT
  5
4D
330
17
100
AcDbEntity
  8
PART_ID
100
AcDbText
 10
674.0
 20
92.0
 30
0.0
 40
4.5
  1
F01-2
 11
674.0
 21
92.0
 31
0.0
100
AcDbText
 73
2
1001
HANOK_A3
1000
{"text_align":"left","kind":"part_id","part_id":"F01-2"}
  0
TEXT
  5
4E
330
17
100
AcDbEntity
  8
NOTES
100
AcDbText
 10
733.0
 20
92.0
 30
0.0
 40
3.2
  1
463 x 40  |  A -> FRONT
 11
733.0
 21
92.0
 31
0.0
100
AcDbText
 73
2
1001
HANOK_A3
1000
{"text_align":"left","kind":"part_note","part_id":"F01-2"}
  0
LWPOLYLINE
  5
4F
330
17
100
AcDbEntity
  8
POCKET_10MM
100
AcDbPolyline
 90
4
 70
1
 10
618.0
 20
72.0
 10
658.0
 20
72.0
 10
658.0
 20
112.0
 10
618.0
 20
112.0
1001
HANOK_A3
1000
{"kind":"pocket","part_id":"F01-2","joint":"J1","joint_id":"F_BR","depth_mm":10.0,"local_rect":[0,0,40,40],"open_edges":["U_MIN","V_MIN","V_MAX"],"machining_face":"A"}
  0
LWPOLYLINE
  5
50
330
17
100
AcDbEntity
  8
POCKET_10MM
100
AcDbPolyline
 90
4
 70
1
 10
1041.0
 20
72.0
 10
1081.0
 20
72.0
 10
1081.0
 20
112.0
 10
1041.0
 20
112.0
1001
HANOK_A3
1000
{"kind":"pocket","part_id":"F01-2","joint":"J1","joint_id":"F_TR","depth_mm":10.0,"local_rect":[423,0,40,40],"open_edges":["U_MAX","V_MIN","V_MAX"],"machining_face":"A"}
  0
LWPOLYLINE
  5
51
330
17
100
AcDbEntity
  8
CUT_THROUGH
100
AcDbPolyline
 90
4
 70
1
 10
20.0
 20
124.0
 10
520.0
 20
124.0
 10
520.0
 20
154.0
 10
20.0
 20
154.0
1001
HANOK_A3
1000
{"kind":"part","part_id":"S02-1","family":"S02","length_mm":500,"width_mm":30,"thickness_mm":20,"depth_mm":20,"nesting_origin":[20,124],"assembly_map":[1,0,0,-1,43,73],"assembly_face_A":"BACK","grain_axis":"X","machining_face":"A"}
  0
TEXT
  5
52
330
17
100
AcDbEntity
  8
PART_ID
100
AcDbText
 10
76.0
 20
139.0
 30
0.0
 40
4.5
  1
S02-1
 11
76.0
 21
139.0
 31
0.0
100
AcDbText
 73
2
1001
HANOK_A3
1000
{"text_align":"left","kind":"part_id","part_id":"S02-1"}
  0
TEXT
  5
53
330
17
100
AcDbEntity
  8
NOTES
100
AcDbText
 10
135.0
 20
139.0
 30
0.0
 40
3.2
  1
500 x 30  |  A -> BACK
 11
135.0
 21
139.0
 31
0.0
100
AcDbText
 73
2
1001
HANOK_A3
1000
{"text_align":"left","kind":"part_note","part_id":"S02-1"}
  0
LWPOLYLINE
  5
54
330
17
100
AcDbEntity
  8
POCKET_10MM
100
AcDbPolyline
 90
4
 70
1
 10
20.0
 20
124.0
 10
50.0
 20
124.0
 10
50.0
 20
154.0
 10
20.0
 20
154.0
1001
HANOK_A3
1000
{"kind":"pocket","part_id":"S02-1","joint":"J2","joint_id":"S_BL","depth_mm":10.0,"local_rect":[0,0,30,30],"open_edges":["U_MIN","V_MIN","V_MAX"],"machining_face":"A"}
  0
LWPOLYLINE
  5
55
330
17
100
AcDbEntity
  8
POCKET_10MM
100
AcDbPolyline
 90
4
 70
1
 10
490.0
 20
124.0
 10
520.0
 20
124.0
 10
520.0
 20
154.0
 10
490.0
 20
154.0
1001
HANOK_A3
1000
{"kind":"pocket","part_id":"S02-1","joint":"J2","joint_id":"S_BR","depth_mm":10.0,"local_rect":[470,0,30,30],"open_edges":["U_MAX","V_MIN","V_MAX"],"machining_face":"A"}
  0
LWPOLYLINE
  5
56
330
17
100
AcDbEntity
  8
POCKET_10MM
100
AcDbPolyline
 90
4
 70
1
 10
115.0
 20
124.0
 10
125.0
 20
124.0
 10
125.0
 20
134.0
 10
115.0
 20
134.0
1001
HANOK_A3
1000
{"kind":"pocket","part_id":"S02-1","joint":"J4","joint_id":"E_V1_B","depth_mm":10.0,"local_rect":[95.0,0,10,10],"open_edges":["V_MIN"],"machining_face":"A"}
  0
LWPOLYLINE
  5
57
330
17
100
AcDbEntity
  8
DOGBONE
100
AcDbPolyline
 90
2
 70
1
 10
120.46274169979695
 20
131.73725830020305
 42
1.0
 10
114.06274169979694
 20
131.73725830020305
 42
1.0
1001
HANOK_A3
1000
{"kind":"dogbone","part_id":"S02-1","joint":"J4","joint_id":"E_V1_B","depth_mm":10.0,"corner":"LEFT","radius_mm":3.2,"local_center":[97.26274169979695,7.737258300203048],"operation":"UNION_WITH_PARENT_POCKET","machining_face":"A"}
  0
LWPOLYLINE
  5
58
330
17
100
AcDbEntity
  8
DOGBONE
100
AcDbPolyline
 90
2
 70
1
 10
125.93725830020306
 20
131.73725830020305
 42
1.0
 10
119.53725830020305
 20
131.73725830020305
 42
1.0
1001
HANOK_A3
1000
{"kind":"dogbone","part_id":"S02-1","joint":"J4","joint_id":"E_V1_B","depth_mm":10.0,"corner":"RIGHT","radius_mm":3.2,"local_center":[102.73725830020305,7.737258300203048],"operation":"UNION_WITH_PARENT_POCKET","machining_face":"A"}
  0
LWPOLYLINE
  5
59
330
17
100
AcDbEntity
  8
POCKET_10MM
100
AcDbPolyline
 90
4
 70
1
 10
190.0
 20
124.0
 10
200.0
 20
124.0
 10
200.0
 20
134.0
 10
190.0
 20
134.0
1001
HANOK_A3
1000
{"kind":"pocket","part_id":"S02-1","joint":"J4","joint_id":"E_V2_B","depth_mm":10.0,"local_rect":[170.0,0,10,10],"open_edges":["V_MIN"],"machining_face":"A"}
  0
LWPOLYLINE
  5
5A
330
17
100
AcDbEntity
  8
DOGBONE
100
AcDbPolyline
 90
2
 70
1
 10
195.46274169979694
 20
131.73725830020305
 42
1.0
 10
189.06274169979696
 20
131.73725830020305
 42
1.0
1001
HANOK_A3
1000
{"kind":"dogbone","part_id":"S02-1","joint":"J4","joint_id":"E_V2_B","depth_mm":10.0,"corner":"LEFT","radius_mm":3.2,"local_center":[172.26274169979695,7.737258300203048],"operation":"UNION_WITH_PARENT_POCKET","machining_face":"A"}
  0
LWPOLYLINE
  5
5B
330
17
100
AcDbEntity
  8
DOGBONE
100
AcDbPolyline
 90
2
 70
1
 10
200.93725830020304
 20
131.73725830020305
 42
1.0
 10
194.53725830020306
 20
131.73725830020305
 42
1.0
1001
HANOK_A3
1000
{"kind":"dogbone","part_id":"S02-1","joint":"J4","joint_id":"E_V2_B","depth_mm":10.0,"corner":"RIGHT","radius_mm":3.2,"local_center":[177.73725830020305,7.737258300203048],"operation":"UNION_WITH_PARENT_POCKET","machining_face":"A"}
  0
LWPOLYLINE
  5
5C
330
17
100
AcDbEntity
  8
POCKET_10MM
100
AcDbPolyline
 90
4
 70
1
 10
265.0
 20
124.0
 10
275.0
 20
124.0
 10
275.0
 20
134.0
 10
265.0
 20
134.0
1001
HANOK_A3
1000
{"kind":"pocket","part_id":"S02-1","joint":"J4","joint_id":"E_V3_B","depth_mm":10.0,"local_rect":[245.0,0,10,10],"open_edges":["V_MIN"],"machining_face":"A"}
  0
LWPOLYLINE
  5
5D
330
17
100
AcDbEntity
  8
DOGBONE
100
AcDbPolyline
 90
2
 70
1
 10
270.46274169979694
 20
131.73725830020305
 42
1.0
 10
264.06274169979696
 20
131.73725830020305
 42
1.0
1001
HANOK_A3
1000
{"kind":"dogbone","part_id":"S02-1","joint":"J4","joint_id":"E_V3_B","depth_mm":10.0,"corner":"LEFT","radius_mm":3.2,"local_center":[247.26274169979695,7.737258300203048],"operation":"UNION_WITH_PARENT_POCKET","machining_face":"A"}
  0
LWPOLYLINE
  5
5E
330
17
100
AcDbEntity
  8
DOGBONE
100
AcDbPolyline
 90
2
 70
1
 10
275.93725830020304
 20
131.73725830020305
 42
1.0
 10
269.53725830020306
 20
131.73725830020305
 42
1.0
1001
HANOK_A3
1000
{"kind":"dogbone","part_id":"S02-1","joint":"J4","joint_id":"E_V3_B","depth_mm":10.0,"corner":"RIGHT","radius_mm":3.2,"local_center":[252.73725830020305,7.737258300203048],"operation":"UNION_WITH_PARENT_POCKET","machining_face":"A"}
  0
LWPOLYLINE
  5
5F
330
17
100
AcDbEntity
  8
POCKET_10MM
100
AcDbPolyline
 90
4
 70
1
 10
340.0
 20
124.0
 10
350.0
 20
124.0
 10
350.0
 20
134.0
 10
340.0
 20
134.0
1001
HANOK_A3
1000
{"kind":"pocket","part_id":"S02-1","joint":"J4","joint_id":"E_V4_B","depth_mm":10.0,"local_rect":[320.0,0,10,10],"open_edges":["V_MIN"],"machining_face":"A"}
  0
LWPOLYLINE
  5
60
330
17
100
AcDbEntity
  8
DOGBONE
100
AcDbPolyline
 90
2
 70
1
 10
345.46274169979694
 20
131.73725830020305
 42
1.0
 10
339.06274169979696
 20
131.73725830020305
 42
1.0
1001
HANOK_A3
1000
{"kind":"dogbone","part_id":"S02-1","joint":"J4","joint_id":"E_V4_B","depth_mm":10.0,"corner":"LEFT","radius_mm":3.2,"local_center":[322.26274169979695,7.737258300203048],"operation":"UNION_WITH_PARENT_POCKET","machining_face":"A"}
  0
LWPOLYLINE
  5
61
330
17
100
AcDbEntity
  8
DOGBONE
100
AcDbPolyline
 90
2
 70
1
 10
350.93725830020304
 20
131.73725830020305
 42
1.0
 10
344.53725830020306
 20
131.73725830020305
 42
1.0
1001
HANOK_A3
1000
{"kind":"dogbone","part_id":"S02-1","joint":"J4","joint_id":"E_V4_B","depth_mm":10.0,"corner":"RIGHT","radius_mm":3.2,"local_center":[327.73725830020305,7.737258300203048],"operation":"UNION_WITH_PARENT_POCKET","machining_face":"A"}
  0
LWPOLYLINE
  5
62
330
17
100
AcDbEntity
  8
POCKET_10MM
100
AcDbPolyline
 90
4
 70
1
 10
415.0
 20
124.0
 10
425.0
 20
124.0
 10
425.0
 20
134.0
 10
415.0
 20
134.0
1001
HANOK_A3
1000
{"kind":"pocket","part_id":"S02-1","joint":"J4","joint_id":"E_V5_B","depth_mm":10.0,"local_rect":[395.0,0,10,10],"open_edges":["V_MIN"],"machining_face":"A"}
  0
LWPOLYLINE
  5
63
330
17
100
AcDbEntity
  8
DOGBONE
100
AcDbPolyline
 90
2
 70
1
 10
420.46274169979694
 20
131.73725830020305
 42
1.0
 10
414.06274169979696
 20
131.73725830020305
 42
1.0
1001
HANOK_A3
1000
{"kind":"dogbone","part_id":"S02-1","joint":"J4","joint_id":"E_V5_B","depth_mm":10.0,"corner":"LEFT","radius_mm":3.2,"local_center":[397.26274169979695,7.737258300203048],"operation":"UNION_WITH_PARENT_POCKET","machining_face":"A"}
  0
LWPOLYLINE
  5
64
330
17
100
AcDbEntity
  8
DOGBONE
100
AcDbPolyline
 90
2
 70
1
 10
425.93725830020304
 20
131.73725830020305
 42
1.0
 10
419.53725830020306
 20
131.73725830020305
 42
1.0
1001
HANOK_A3
1000
{"kind":"dogbone","part_id":"S02-1","joint":"J4","joint_id":"E_V5_B","depth_mm":10.0,"corner":"RIGHT","radius_mm":3.2,"local_center":[402.73725830020305,7.737258300203048],"operation":"UNION_WITH_PARENT_POCKET","machining_face":"A"}
  0
LWPOLYLINE
  5
65
330
17
100
AcDbEntity
  8
CUT_THROUGH
100
AcDbPolyline
 90
4
 70
1
 10
532.0
 20
124.0
 10
909.0
 20
124.0
 10
909.0
 20
154.0
 10
532.0
 20
154.0
1001
HANOK_A3
1000
{"kind":"part","part_id":"S01-1","family":"S01","length_mm":377,"width_mm":30,"thickness_mm":20,"depth_mm":20,"nesting_origin":[532,124],"assembly_map":[0,-1,1,0,73,43],"assembly_face_A":"FRONT","grain_axis":"X","machining_face":"A"}
  0
TEXT
  5
66
330
17
100
AcDbEntity
  8
PART_ID
100
AcDbText
 10
588.0
 20
139.0
 30
0.0
 40
4.5
  1
S01-1
 11
588.0
 21
139.0
 31
0.0
100
AcDbText
 73
2
1001
HANOK_A3
1000
{"text_align":"left","kind":"part_id","part_id":"S01-1"}
  0
TEXT
  5
67
330
17
100
AcDbEntity
  8
NOTES
100
AcDbText
 10
647.0
 20
139.0
 30
0.0
 40
3.2
  1
377 x 30  |  A -> FRONT
 11
647.0
 21
139.0
 31
0.0
100
AcDbText
 73
2
1001
HANOK_A3
1000
{"text_align":"left","kind":"part_note","part_id":"S01-1"}
  0
LWPOLYLINE
  5
68
330
17
100
AcDbEntity
  8
POCKET_10MM
100
AcDbPolyline
 90
4
 70
1
 10
532.0
 20
124.0
 10
562.0
 20
124.0
 10
562.0
 20
154.0
 10
532.0
 20
154.0
1001
HANOK_A3
1000
{"kind":"pocket","part_id":"S01-1","joint":"J2","joint_id":"S_BL","depth_mm":10.0,"local_rect":[0,0,30,30],"open_edges":["U_MIN","V_MIN","V_MAX"],"machining_face":"A"}
  0
LWPOLYLINE
  5
69
330
17
100
AcDbEntity
  8
POCKET_10MM
100
AcDbPolyline
 90
4
 70
1
 10
879.0
 20
124.0
 10
909.0
 20
124.0
 10
909.0
 20
154.0
 10
879.0
 20
154.0
1001
HANOK_A3
1000
{"kind":"pocket","part_id":"S01-1","joint":"J2","joint_id":"S_TL","depth_mm":10.0,"local_rect":[347,0,30,30],"open_edges":["U_MAX","V_MIN","V_MAX"],"machining_face":"A"}
  0
LWPOLYLINE
  5
6A
330
17
100
AcDbEntity
  8
POCKET_10MM
100
AcDbPolyline
 90
4
 70
1
 10
617.4
 20
124.0
 10
627.4
 20
124.0
 10
627.4
 20
134.0
 10
617.4
 20
134.0
1001
HANOK_A3
1000
{"kind":"pocket","part_id":"S01-1","joint":"J4","joint_id":"E_H1_L","depth_mm":10.0,"local_rect":[85.4,0,10,10],"open_edges":["V_MIN"],"machining_face":"A"}
  0
LWPOLYLINE
  5
6B
330
17
100
AcDbEntity
  8
DOGBONE
100
AcDbPolyline
 90
2
 70
1
 10
622.862741699797
 20
131.73725830020305
 42
1.0
 10
616.4627416997969
 20
131.73725830020305
 42
1.0
1001
HANOK_A3
1000
{"kind":"dogbone","part_id":"S01-1","joint":"J4","joint_id":"E_H1_L","depth_mm":10.0,"corner":"LEFT","radius_mm":3.2,"local_center":[87.66274169979695,7.737258300203048],"operation":"UNION_WITH_PARENT_POCKET","machining_face":"A"}
  0
LWPOLYLINE
  5
6C
330
17
100
AcDbEntity
  8
DOGBONE
100
AcDbPolyline
 90
2
 70
1
 10
628.3372583002031
 20
131.73725830020305
 42
1.0
 10
621.937258300203
 20
131.73725830020305
 42
1.0
1001
HANOK_A3
1000
{"kind":"dogbone","part_id":"S01-1","joint":"J4","joint_id":"E_H1_L","depth_mm":10.0,"corner":"RIGHT","radius_mm":3.2,"local_center":[93.13725830020306,7.737258300203048],"operation":"UNION_WITH_PARENT_POCKET","machining_face":"A"}
  0
LWPOLYLINE
  5
6D
330
17
100
AcDbEntity
  8
POCKET_10MM
100
AcDbPolyline
 90
4
 70
1
 10
682.8
 20
124.0
 10
692.8
 20
124.0
 10
692.8
 20
134.0
 10
682.8
 20
134.0
1001
HANOK_A3
1000
{"kind":"pocket","part_id":"S01-1","joint":"J4","joint_id":"E_H2_L","depth_mm":10.0,"local_rect":[150.8,0,10,10],"open_edges":["V_MIN"],"machining_face":"A"}
  0
LWPOLYLINE
  5
6E
330
17
100
AcDbEntity
  8
DOGBONE
100
AcDbPolyline
 90
2
 70
1
 10
688.2627416997971
 20
131.73725830020305
 42
1.0
 10
681.862741699797
 20
131.73725830020305
 42
1.0
1001
HANOK_A3
1000
{"kind":"dogbone","part_id":"S01-1","joint":"J4","joint_id":"E_H2_L","depth_mm":10.0,"corner":"LEFT","radius_mm":3.2,"local_center":[153.06274169979696,7.737258300203048],"operation":"UNION_WITH_PARENT_POCKET","machining_face":"A"}
  0
LWPOLYLINE
  5
6F
330
17
100
AcDbEntity
  8
DOGBONE
100
AcDbPolyline
 90
2
 70
1
 10
693.7372583002032
 20
131.73725830020305
 42
1.0
 10
687.3372583002031
 20
131.73725830020305
 42
1.0
1001
HANOK_A3
1000
{"kind":"dogbone","part_id":"S01-1","joint":"J4","joint_id":"E_H2_L","depth_mm":10.0,"corner":"RIGHT","radius_mm":3.2,"local_center":[158.53725830020306,7.737258300203048],"operation":"UNION_WITH_PARENT_POCKET","machining_face":"A"}
  0
LWPOLYLINE
  5
70
330
17
100
AcDbEntity
  8
POCKET_10MM
100
AcDbPolyline
 90
4
 70
1
 10
748.2
 20
124.0
 10
758.2
 20
124.0
 10
758.2
 20
134.0
 10
748.2
 20
134.0
1001
HANOK_A3
1000
{"kind":"pocket","part_id":"S01-1","joint":"J4","joint_id":"E_H3_L","depth_mm":10.0,"local_rect":[216.20000000000005,0,10,10],"open_edges":["V_MIN"],"machining_face":"A"}
  0
LWPOLYLINE
  5
71
330
17
100
AcDbEntity
  8
DOGBONE
100
AcDbPolyline
 90
2
 70
1
 10
753.662741699797
 20
131.73725830020305
 42
1.0
 10
747.262741699797
 20
131.73725830020305
 42
1.0
1001
HANOK_A3
1000
{"kind":"dogbone","part_id":"S01-1","joint":"J4","joint_id":"E_H3_L","depth_mm":10.0,"corner":"LEFT","radius_mm":3.2,"local_center":[218.462741699797,7.737258300203048],"operation":"UNION_WITH_PARENT_POCKET","machining_face":"A"}
  0
LWPOLYLINE
  5
72
330
17
100
AcDbEntity
  8
DOGBONE
100
AcDbPolyline
 90
2
 70
1
 10
759.1372583002031
 20
131.73725830020305
 42
1.0
 10
752.737258300203
 20
131.73725830020305
 42
1.0
1001
HANOK_A3
1000
{"kind":"dogbone","part_id":"S01-1","joint":"J4","joint_id":"E_H3_L","depth_mm":10.0,"corner":"RIGHT","radius_mm":3.2,"local_center":[223.9372583002031,7.737258300203048],"operation":"UNION_WITH_PARENT_POCKET","machining_face":"A"}
  0
LWPOLYLINE
  5
73
330
17
100
AcDbEntity
  8
POCKET_10MM
100
AcDbPolyline
 90
4
 70
1
 10
813.6
 20
124.0
 10
823.6
 20
124.0
 10
823.6
 20
134.0
 10
813.6
 20
134.0
1001
HANOK_A3
1000
{"kind":"pocket","part_id":"S01-1","joint":"J4","joint_id":"E_H4_L","depth_mm":10.0,"local_rect":[281.6,0,10,10],"open_edges":["V_MIN"],"machining_face":"A"}
  0
LWPOLYLINE
  5
74
330
17
100
AcDbEntity
  8
DOGBONE
100
AcDbPolyline
 90
2
 70
1
 10
819.062741699797
 20
131.73725830020305
 42
1.0
 10
812.6627416997969
 20
131.73725830020305
 42
1.0
1001
HANOK_A3
1000
{"kind":"dogbone","part_id":"S01-1","joint":"J4","joint_id":"E_H4_L","depth_mm":10.0,"corner":"LEFT","radius_mm":3.2,"local_center":[283.86274169979697,7.737258300203048],"operation":"UNION_WITH_PARENT_POCKET","machining_face":"A"}
  0
LWPOLYLINE
  5
75
330
17
100
AcDbEntity
  8
DOGBONE
100
AcDbPolyline
 90
2
 70
1
 10
824.5372583002031
 20
131.73725830020305
 42
1.0
 10
818.137258300203
 20
131.73725830020305
 42
1.0
1001
HANOK_A3
1000
{"kind":"dogbone","part_id":"S01-1","joint":"J4","joint_id":"E_H4_L","depth_mm":10.0,"corner":"RIGHT","radius_mm":3.2,"local_center":[289.3372583002031,7.737258300203048],"operation":"UNION_WITH_PARENT_POCKET","machining_face":"A"}
  0
LWPOLYLINE
  5
76
330
17
100
AcDbEntity
  8
CUT_THROUGH
100
AcDbPolyline
 90
4
 70
1
 10
20.0
 20
166.0
 10
520.0
 20
166.0
 10
520.0
 20
196.0
 10
20.0
 20
196.0
1001
HANOK_A3
1000
{"kind":"part","part_id":"S02-2","family":"S02","length_mm":500,"width_mm":30,"thickness_mm":20,"depth_mm":20,"nesting_origin":[20,166],"assembly_map":[1,0,0,-1,43,420],"assembly_face_A":"BACK","grain_axis":"X","machining_face":"A"}
  0
TEXT
  5
77
330
17
100
AcDbEntity
  8
PART_ID
100
AcDbText
 10
76.0
 20
181.0
 30
0.0
 40
4.5
  1
S02-2
 11
76.0
 21
181.0
 31
0.0
100
AcDbText
 73
2
1001
HANOK_A3
1000
{"text_align":"left","kind":"part_id","part_id":"S02-2"}
  0
TEXT
  5
78
330
17
100
AcDbEntity
  8
NOTES
100
AcDbText
 10
135.0
 20
181.0
 30
0.0
 40
3.2
  1
500 x 30  |  A -> BACK
 11
135.0
 21
181.0
 31
0.0
100
AcDbText
 73
2
1001
HANOK_A3
1000
{"text_align":"left","kind":"part_note","part_id":"S02-2"}
  0
LWPOLYLINE
  5
79
330
17
100
AcDbEntity
  8
POCKET_10MM
100
AcDbPolyline
 90
4
 70
1
 10
20.0
 20
166.0
 10
50.0
 20
166.0
 10
50.0
 20
196.0
 10
20.0
 20
196.0
1001
HANOK_A3
1000
{"kind":"pocket","part_id":"S02-2","joint":"J2","joint_id":"S_TL","depth_mm":10.0,"local_rect":[0,0,30,30],"open_edges":["U_MIN","V_MIN","V_MAX"],"machining_face":"A"}
  0
LWPOLYLINE
  5
7A
330
17
100
AcDbEntity
  8
POCKET_10MM
100
AcDbPolyline
 90
4
 70
1
 10
490.0
 20
166.0
 10
520.0
 20
166.0
 10
520.0
 20
196.0
 10
490.0
 20
196.0
1001
HANOK_A3
1000
{"kind":"pocket","part_id":"S02-2","joint":"J2","joint_id":"S_TR","depth_mm":10.0,"local_rect":[470,0,30,30],"open_edges":["U_MAX","V_MIN","V_MAX"],"machining_face":"A"}
  0
LWPOLYLINE
  5
7B
330
17
100
AcDbEntity
  8
POCKET_10MM
100
AcDbPolyline
 90
4
 70
1
 10
115.0
 20
186.0
 10
125.0
 20
186.0
 10
125.0
 20
196.0
 10
115.0
 20
196.0
1001
HANOK_A3
1000
{"kind":"pocket","part_id":"S02-2","joint":"J4","joint_id":"E_V1_T","depth_mm":10.0,"local_rect":[95.0,20,10,10],"open_edges":["V_MAX"],"machining_face":"A"}
  0
LWPOLYLINE
  5
7C
330
17
100
AcDbEntity
  8
DOGBONE
100
AcDbPolyline
 90
2
 70
1
 10
120.46274169979695
 20
188.26274169979695
 42
1.0
 10
114.06274169979694
 20
188.26274169979695
 42
1.0
1001
HANOK_A3
1000
{"kind":"dogbone","part_id":"S02-2","joint":"J4","joint_id":"E_V1_T","depth_mm":10.0,"corner":"LEFT","radius_mm":3.2,"local_center":[97.26274169979695,22.26274169979695],"operation":"UNION_WITH_PARENT_POCKET","machining_face":"A"}
  0
LWPOLYLINE
  5
7D
330
17
100
AcDbEntity
  8
DOGBONE
100
AcDbPolyline
 90
2
 70
1
 10
125.93725830020306
 20
188.26274169979695
 42
1.0
 10
119.53725830020305
 20
188.26274169979695
 42
1.0
1001
HANOK_A3
1000
{"kind":"dogbone","part_id":"S02-2","joint":"J4","joint_id":"E_V1_T","depth_mm":10.0,"corner":"RIGHT","radius_mm":3.2,"local_center":[102.73725830020305,22.26274169979695],"operation":"UNION_WITH_PARENT_POCKET","machining_face":"A"}
  0
LWPOLYLINE
  5
7E
330
17
100
AcDbEntity
  8
POCKET_10MM
100
AcDbPolyline
 90
4
 70
1
 10
190.0
 20
186.0
 10
200.0
 20
186.0
 10
200.0
 20
196.0
 10
190.0
 20
196.0
1001
HANOK_A3
1000
{"kind":"pocket","part_id":"S02-2","joint":"J4","joint_id":"E_V2_T","depth_mm":10.0,"local_rect":[170.0,20,10,10],"open_edges":["V_MAX"],"machining_face":"A"}
  0
LWPOLYLINE
  5
7F
330
17
100
AcDbEntity
  8
DOGBONE
100
AcDbPolyline
 90
2
 70
1
 10
195.46274169979694
 20
188.26274169979695
 42
1.0
 10
189.06274169979696
 20
188.26274169979695
 42
1.0
1001
HANOK_A3
1000
{"kind":"dogbone","part_id":"S02-2","joint":"J4","joint_id":"E_V2_T","depth_mm":10.0,"corner":"LEFT","radius_mm":3.2,"local_center":[172.26274169979695,22.26274169979695],"operation":"UNION_WITH_PARENT_POCKET","machining_face":"A"}
  0
LWPOLYLINE
  5
80
330
17
100
AcDbEntity
  8
DOGBONE
100
AcDbPolyline
 90
2
 70
1
 10
200.93725830020304
 20
188.26274169979695
 42
1.0
 10
194.53725830020306
 20
188.26274169979695
 42
1.0
1001
HANOK_A3
1000
{"kind":"dogbone","part_id":"S02-2","joint":"J4","joint_id":"E_V2_T","depth_mm":10.0,"corner":"RIGHT","radius_mm":3.2,"local_center":[177.73725830020305,22.26274169979695],"operation":"UNION_WITH_PARENT_POCKET","machining_face":"A"}
  0
LWPOLYLINE
  5
81
330
17
100
AcDbEntity
  8
POCKET_10MM
100
AcDbPolyline
 90
4
 70
1
 10
265.0
 20
186.0
 10
275.0
 20
186.0
 10
275.0
 20
196.0
 10
265.0
 20
196.0
1001
HANOK_A3
1000
{"kind":"pocket","part_id":"S02-2","joint":"J4","joint_id":"E_V3_T","depth_mm":10.0,"local_rect":[245.0,20,10,10],"open_edges":["V_MAX"],"machining_face":"A"}
  0
LWPOLYLINE
  5
82
330
17
100
AcDbEntity
  8
DOGBONE
100
AcDbPolyline
 90
2
 70
1
 10
270.46274169979694
 20
188.26274169979695
 42
1.0
 10
264.06274169979696
 20
188.26274169979695
 42
1.0
1001
HANOK_A3
1000
{"kind":"dogbone","part_id":"S02-2","joint":"J4","joint_id":"E_V3_T","depth_mm":10.0,"corner":"LEFT","radius_mm":3.2,"local_center":[247.26274169979695,22.26274169979695],"operation":"UNION_WITH_PARENT_POCKET","machining_face":"A"}
  0
LWPOLYLINE
  5
83
330
17
100
AcDbEntity
  8
DOGBONE
100
AcDbPolyline
 90
2
 70
1
 10
275.93725830020304
 20
188.26274169979695
 42
1.0
 10
269.53725830020306
 20
188.26274169979695
 42
1.0
1001
HANOK_A3
1000
{"kind":"dogbone","part_id":"S02-2","joint":"J4","joint_id":"E_V3_T","depth_mm":10.0,"corner":"RIGHT","radius_mm":3.2,"local_center":[252.73725830020305,22.26274169979695],"operation":"UNION_WITH_PARENT_POCKET","machining_face":"A"}
  0
LWPOLYLINE
  5
84
330
17
100
AcDbEntity
  8
POCKET_10MM
100
AcDbPolyline
 90
4
 70
1
 10
340.0
 20
186.0
 10
350.0
 20
186.0
 10
350.0
 20
196.0
 10
340.0
 20
196.0
1001
HANOK_A3
1000
{"kind":"pocket","part_id":"S02-2","joint":"J4","joint_id":"E_V4_T","depth_mm":10.0,"local_rect":[320.0,20,10,10],"open_edges":["V_MAX"],"machining_face":"A"}
  0
LWPOLYLINE
  5
85
330
17
100
AcDbEntity
  8
DOGBONE
100
AcDbPolyline
 90
2
 70
1
 10
345.46274169979694
 20
188.26274169979695
 42
1.0
 10
339.06274169979696
 20
188.26274169979695
 42
1.0
1001
HANOK_A3
1000
{"kind":"dogbone","part_id":"S02-2","joint":"J4","joint_id":"E_V4_T","depth_mm":10.0,"corner":"LEFT","radius_mm":3.2,"local_center":[322.26274169979695,22.26274169979695],"operation":"UNION_WITH_PARENT_POCKET","machining_face":"A"}
  0
LWPOLYLINE
  5
86
330
17
100
AcDbEntity
  8
DOGBONE
100
AcDbPolyline
 90
2
 70
1
 10
350.93725830020304
 20
188.26274169979695
 42
1.0
 10
344.53725830020306
 20
188.26274169979695
 42
1.0
1001
HANOK_A3
1000
{"kind":"dogbone","part_id":"S02-2","joint":"J4","joint_id":"E_V4_T","depth_mm":10.0,"corner":"RIGHT","radius_mm":3.2,"local_center":[327.73725830020305,22.26274169979695],"operation":"UNION_WITH_PARENT_POCKET","machining_face":"A"}
  0
LWPOLYLINE
  5
87
330
17
100
AcDbEntity
  8
POCKET_10MM
100
AcDbPolyline
 90
4
 70
1
 10
415.0
 20
186.0
 10
425.0
 20
186.0
 10
425.0
 20
196.0
 10
415.0
 20
196.0
1001
HANOK_A3
1000
{"kind":"pocket","part_id":"S02-2","joint":"J4","joint_id":"E_V5_T","depth_mm":10.0,"local_rect":[395.0,20,10,10],"open_edges":["V_MAX"],"machining_face":"A"}
  0
LWPOLYLINE
  5
88
330
17
100
AcDbEntity
  8
DOGBONE
100
AcDbPolyline
 90
2
 70
1
 10
420.46274169979694
 20
188.26274169979695
 42
1.0
 10
414.06274169979696
 20
188.26274169979695
 42
1.0
1001
HANOK_A3
1000
{"kind":"dogbone","part_id":"S02-2","joint":"J4","joint_id":"E_V5_T","depth_mm":10.0,"corner":"LEFT","radius_mm":3.2,"local_center":[397.26274169979695,22.26274169979695],"operation":"UNION_WITH_PARENT_POCKET","machining_face":"A"}
  0
LWPOLYLINE
  5
89
330
17
100
AcDbEntity
  8
DOGBONE
100
AcDbPolyline
 90
2
 70
1
 10
425.93725830020304
 20
188.26274169979695
 42
1.0
 10
419.53725830020306
 20
188.26274169979695
 42
1.0
1001
HANOK_A3
1000
{"kind":"dogbone","part_id":"S02-2","joint":"J4","joint_id":"E_V5_T","depth_mm":10.0,"corner":"RIGHT","radius_mm":3.2,"local_center":[402.73725830020305,22.26274169979695],"operation":"UNION_WITH_PARENT_POCKET","machining_face":"A"}
  0
LWPOLYLINE
  5
8A
330
17
100
AcDbEntity
  8
CUT_THROUGH
100
AcDbPolyline
 90
4
 70
1
 10
532.0
 20
166.0
 10
909.0
 20
166.0
 10
909.0
 20
196.0
 10
532.0
 20
196.0
1001
HANOK_A3
1000
{"kind":"part","part_id":"S01-2","family":"S01","length_mm":377,"width_mm":30,"thickness_mm":20,"depth_mm":20,"nesting_origin":[532,166],"assembly_map":[0,-1,1,0,543,43],"assembly_face_A":"FRONT","grain_axis":"X","machining_face":"A"}
  0
TEXT
  5
8B
330
17
100
AcDbEntity
  8
PART_ID
100
AcDbText
 10
588.0
 20
181.0
 30
0.0
 40
4.5
  1
S01-2
 11
588.0
 21
181.0
 31
0.0
100
AcDbText
 73
2
1001
HANOK_A3
1000
{"text_align":"left","kind":"part_id","part_id":"S01-2"}
  0
TEXT
  5
8C
330
17
100
AcDbEntity
  8
NOTES
100
AcDbText
 10
647.0
 20
181.0
 30
0.0
 40
3.2
  1
377 x 30  |  A -> FRONT
 11
647.0
 21
181.0
 31
0.0
100
AcDbText
 73
2
1001
HANOK_A3
1000
{"text_align":"left","kind":"part_note","part_id":"S01-2"}
  0
LWPOLYLINE
  5
8D
330
17
100
AcDbEntity
  8
POCKET_10MM
100
AcDbPolyline
 90
4
 70
1
 10
532.0
 20
166.0
 10
562.0
 20
166.0
 10
562.0
 20
196.0
 10
532.0
 20
196.0
1001
HANOK_A3
1000
{"kind":"pocket","part_id":"S01-2","joint":"J2","joint_id":"S_BR","depth_mm":10.0,"local_rect":[0,0,30,30],"open_edges":["U_MIN","V_MIN","V_MAX"],"machining_face":"A"}
  0
LWPOLYLINE
  5
8E
330
17
100
AcDbEntity
  8
POCKET_10MM
100
AcDbPolyline
 90
4
 70
1
 10
879.0
 20
166.0
 10
909.0
 20
166.0
 10
909.0
 20
196.0
 10
879.0
 20
196.0
1001
HANOK_A3
1000
{"kind":"pocket","part_id":"S01-2","joint":"J2","joint_id":"S_TR","depth_mm":10.0,"local_rect":[347,0,30,30],"open_edges":["U_MAX","V_MIN","V_MAX"],"machining_face":"A"}
  0
LWPOLYLINE
  5
8F
330
17
100
AcDbEntity
  8
POCKET_10MM
100
AcDbPolyline
 90
4
 70
1
 10
617.4
 20
186.0
 10
627.4
 20
186.0
 10
627.4
 20
196.0
 10
617.4
 20
196.0
1001
HANOK_A3
1000
{"kind":"pocket","part_id":"S01-2","joint":"J4","joint_id":"E_H1_R","depth_mm":10.0,"local_rect":[85.4,20,10,10],"open_edges":["V_MAX"],"machining_face":"A"}
  0
LWPOLYLINE
  5
90
330
17
100
AcDbEntity
  8
DOGBONE
100
AcDbPolyline
 90
2
 70
1
 10
622.862741699797
 20
188.26274169979695
 42
1.0
 10
616.4627416997969
 20
188.26274169979695
 42
1.0
1001
HANOK_A3
1000
{"kind":"dogbone","part_id":"S01-2","joint":"J4","joint_id":"E_H1_R","depth_mm":10.0,"corner":"LEFT","radius_mm":3.2,"local_center":[87.66274169979695,22.26274169979695],"operation":"UNION_WITH_PARENT_POCKET","machining_face":"A"}
  0
LWPOLYLINE
  5
91
330
17
100
AcDbEntity
  8
DOGBONE
100
AcDbPolyline
 90
2
 70
1
 10
628.3372583002031
 20
188.26274169979695
 42
1.0
 10
621.937258300203
 20
188.26274169979695
 42
1.0
1001
HANOK_A3
1000
{"kind":"dogbone","part_id":"S01-2","joint":"J4","joint_id":"E_H1_R","depth_mm":10.0,"corner":"RIGHT","radius_mm":3.2,"local_center":[93.13725830020306,22.26274169979695],"operation":"UNION_WITH_PARENT_POCKET","machining_face":"A"}
  0
LWPOLYLINE
  5
92
330
17
100
AcDbEntity
  8
POCKET_10MM
100
AcDbPolyline
 90
4
 70
1
 10
682.8
 20
186.0
 10
692.8
 20
186.0
 10
692.8
 20
196.0
 10
682.8
 20
196.0
1001
HANOK_A3
1000
{"kind":"pocket","part_id":"S01-2","joint":"J4","joint_id":"E_H2_R","depth_mm":10.0,"local_rect":[150.8,20,10,10],"open_edges":["V_MAX"],"machining_face":"A"}
  0
LWPOLYLINE
  5
93
330
17
100
AcDbEntity
  8
DOGBONE
100
AcDbPolyline
 90
2
 70
1
 10
688.2627416997971
 20
188.26274169979695
 42
1.0
 10
681.862741699797
 20
188.26274169979695
 42
1.0
1001
HANOK_A3
1000
{"kind":"dogbone","part_id":"S01-2","joint":"J4","joint_id":"E_H2_R","depth_mm":10.0,"corner":"LEFT","radius_mm":3.2,"local_center":[153.06274169979696,22.26274169979695],"operation":"UNION_WITH_PARENT_POCKET","machining_face":"A"}
  0
LWPOLYLINE
  5
94
330
17
100
AcDbEntity
  8
DOGBONE
100
AcDbPolyline
 90
2
 70
1
 10
693.7372583002032
 20
188.26274169979695
 42
1.0
 10
687.3372583002031
 20
188.26274169979695
 42
1.0
1001
HANOK_A3
1000
{"kind":"dogbone","part_id":"S01-2","joint":"J4","joint_id":"E_H2_R","depth_mm":10.0,"corner":"RIGHT","radius_mm":3.2,"local_center":[158.53725830020306,22.26274169979695],"operation":"UNION_WITH_PARENT_POCKET","machining_face":"A"}
  0
LWPOLYLINE
  5
95
330
17
100
AcDbEntity
  8
POCKET_10MM
100
AcDbPolyline
 90
4
 70
1
 10
748.2
 20
186.0
 10
758.2
 20
186.0
 10
758.2
 20
196.0
 10
748.2
 20
196.0
1001
HANOK_A3
1000
{"kind":"pocket","part_id":"S01-2","joint":"J4","joint_id":"E_H3_R","depth_mm":10.0,"local_rect":[216.20000000000005,20,10,10],"open_edges":["V_MAX"],"machining_face":"A"}
  0
LWPOLYLINE
  5
96
330
17
100
AcDbEntity
  8
DOGBONE
100
AcDbPolyline
 90
2
 70
1
 10
753.662741699797
 20
188.26274169979695
 42
1.0
 10
747.262741699797
 20
188.26274169979695
 42
1.0
1001
HANOK_A3
1000
{"kind":"dogbone","part_id":"S01-2","joint":"J4","joint_id":"E_H3_R","depth_mm":10.0,"corner":"LEFT","radius_mm":3.2,"local_center":[218.462741699797,22.26274169979695],"operation":"UNION_WITH_PARENT_POCKET","machining_face":"A"}
  0
LWPOLYLINE
  5
97
330
17
100
AcDbEntity
  8
DOGBONE
100
AcDbPolyline
 90
2
 70
1
 10
759.1372583002031
 20
188.26274169979695
 42
1.0
 10
752.737258300203
 20
188.26274169979695
 42
1.0
1001
HANOK_A3
1000
{"kind":"dogbone","part_id":"S01-2","joint":"J4","joint_id":"E_H3_R","depth_mm":10.0,"corner":"RIGHT","radius_mm":3.2,"local_center":[223.9372583002031,22.26274169979695],"operation":"UNION_WITH_PARENT_POCKET","machining_face":"A"}
  0
LWPOLYLINE
  5
98
330
17
100
AcDbEntity
  8
POCKET_10MM
100
AcDbPolyline
 90
4
 70
1
 10
813.6
 20
186.0
 10
823.6
 20
186.0
 10
823.6
 20
196.0
 10
813.6
 20
196.0
1001
HANOK_A3
1000
{"kind":"pocket","part_id":"S01-2","joint":"J4","joint_id":"E_H4_R","depth_mm":10.0,"local_rect":[281.6,20,10,10],"open_edges":["V_MAX"],"machining_face":"A"}
  0
LWPOLYLINE
  5
99
330
17
100
AcDbEntity
  8
DOGBONE
100
AcDbPolyline
 90
2
 70
1
 10
819.062741699797
 20
188.26274169979695
 42
1.0
 10
812.6627416997969
 20
188.26274169979695
 42
1.0
1001
HANOK_A3
1000
{"kind":"dogbone","part_id":"S01-2","joint":"J4","joint_id":"E_H4_R","depth_mm":10.0,"corner":"LEFT","radius_mm":3.2,"local_center":[283.86274169979697,22.26274169979695],"operation":"UNION_WITH_PARENT_POCKET","machining_face":"A"}
  0
LWPOLYLINE
  5
9A
330
17
100
AcDbEntity
  8
DOGBONE
100
AcDbPolyline
 90
2
 70
1
 10
824.5372583002031
 20
188.26274169979695
 42
1.0
 10
818.137258300203
 20
188.26274169979695
 42
1.0
1001
HANOK_A3
1000
{"kind":"dogbone","part_id":"S01-2","joint":"J4","joint_id":"E_H4_R","depth_mm":10.0,"corner":"RIGHT","radius_mm":3.2,"local_center":[289.3372583002031,22.26274169979695],"operation":"UNION_WITH_PARENT_POCKET","machining_face":"A"}
  0
LWPOLYLINE
  5
9B
330
17
100
AcDbEntity
  8
CUT_THROUGH
100
AcDbPolyline
 90
4
 70
1
 10
20.0
 20
208.0
 10
480.0
 20
208.0
 10
480.0
 20
218.0
 10
20.0
 20
218.0
1001
HANOK_A3
1000
{"kind":"part","part_id":"L02-1","family":"L02","length_mm":460,"width_mm":10,"thickness_mm":20,"depth_mm":20,"nesting_origin":[20,208],"assembly_map":[1,0,0,-1,63,138.4],"assembly_face_A":"BACK","grain_axis":"X","machining_face":"A"}
  0
TEXT
  5
9C
330
17
100
AcDbEntity
  8
PART_ID
100
AcDbText
 10
36.0
 20
213.0
 30
0.0
 40
3.2
  1
L02-1
 11
36.0
 21
213.0
 31
0.0
100
AcDbText
 73
2
1001
HANOK_A3
1000
{"text_align":"left","kind":"part_id","part_id":"L02-1"}
  0
LWPOLYLINE
  5
9D
330
17
100
AcDbEntity
  8
POCKET_10MM
100
AcDbPolyline
 90
4
 70
1
 10
20.0
 20
208.0
 10
30.0
 20
208.0
 10
30.0
 20
218.0
 10
20.0
 20
218.0
1001
HANOK_A3
1000
{"kind":"pocket","part_id":"L02-1","joint":"J4","joint_id":"E_H1_L","depth_mm":10.0,"local_rect":[0,0,10,10],"open_edges":["U_MIN","V_MIN","V_MAX"],"machining_face":"A"}
  0
LWPOLYLINE
  5
9E
330
17
100
AcDbEntity
  8
POCKET_10MM
100
AcDbPolyline
 90
4
 70
1
 10
470.0
 20
208.0
 10
480.0
 20
208.0
 10
480.0
 20
218.0
 10
470.0
 20
218.0
1001
HANOK_A3
1000
{"kind":"pocket","part_id":"L02-1","joint":"J4","joint_id":"E_H1_R","depth_mm":10.0,"local_rect":[450,0,10,10],"open_edges":["U_MAX","V_MIN","V_MAX"],"machining_face":"A"}
  0
LWPOLYLINE
  5
9F
330
17
100
AcDbEntity
  8
POCKET_10MM
100
AcDbPolyline
 90
4
 70
1
 10
95.0
 20
208.0
 10
105.0
 20
208.0
 10
105.0
 20
218.0
 10
95.0
 20
218.0
1001
HANOK_A3
1000
{"kind":"pocket","part_id":"L02-1","joint":"J3","joint_id":"X_1_1","depth_mm":10.0,"local_rect":[75.0,0,10,10],"open_edges":["V_MIN","V_MAX"],"machining_face":"A"}
  0
LWPOLYLINE
  5
A0
330
17
100
AcDbEntity
  8
POCKET_10MM
100
AcDbPolyline
 90
4
 70
1
 10
170.0
 20
208.0
 10
180.0
 20
208.0
 10
180.0
 20
218.0
 10
170.0
 20
218.0
1001
HANOK_A3
1000
{"kind":"pocket","part_id":"L02-1","joint":"J3","joint_id":"X_2_1","depth_mm":10.0,"local_rect":[150.0,0,10,10],"open_edges":["V_MIN","V_MAX"],"machining_face":"A"}
  0
LWPOLYLINE
  5
A1
330
17
100
AcDbEntity
  8
POCKET_10MM
100
AcDbPolyline
 90
4
 70
1
 10
245.0
 20
208.0
 10
255.0
 20
208.0
 10
255.0
 20
218.0
 10
245.0
 20
218.0
1001
HANOK_A3
1000
{"kind":"pocket","part_id":"L02-1","joint":"J3","joint_id":"X_3_1","depth_mm":10.0,"local_rect":[225.0,0,10,10],"open_edges":["V_MIN","V_MAX"],"machining_face":"A"}
  0
LWPOLYLINE
  5
A2
330
17
100
AcDbEntity
  8
POCKET_10MM
100
AcDbPolyline
 90
4
 70
1
 10
320.0
 20
208.0
 10
330.0
 20
208.0
 10
330.0
 20
218.0
 10
320.0
 20
218.0
1001
HANOK_A3
1000
{"kind":"pocket","part_id":"L02-1","joint":"J3","joint_id":"X_4_1","depth_mm":10.0,"local_rect":[300.0,0,10,10],"open_edges":["V_MIN","V_MAX"],"machining_face":"A"}
  0
LWPOLYLINE
  5
A3
330
17
100
AcDbEntity
  8
POCKET_10MM
100
AcDbPolyline
 90
4
 70
1
 10
395.0
 20
208.0
 10
405.0
 20
208.0
 10
405.0
 20
218.0
 10
395.0
 20
218.0
1001
HANOK_A3
1000
{"kind":"pocket","part_id":"L02-1","joint":"J3","joint_id":"X_5_1","depth_mm":10.0,"local_rect":[375.0,0,10,10],"open_edges":["V_MIN","V_MAX"],"machining_face":"A"}
  0
LWPOLYLINE
  5
A4
330
17
100
AcDbEntity
  8
CUT_THROUGH
100
AcDbPolyline
 90
4
 70
1
 10
492.0
 20
208.0
 10
829.0
 20
208.0
 10
829.0
 20
218.0
 10
492.0
 20
218.0
1001
HANOK_A3
1000
{"kind":"part","part_id":"L01-1","family":"L01","length_mm":337,"width_mm":10,"thickness_mm":20,"depth_mm":20,"nesting_origin":[492,208],"assembly_map":[0,-1,1,0,148.0,63],"assembly_face_A":"FRONT","grain_axis":"X","machining_face":"A"}
  0
TEXT
  5
A5
330
17
100
AcDbEntity
  8
PART_ID
100
AcDbText
 10
508.0
 20
213.0
 30
0.0
 40
3.2
  1
L01-1
 11
508.0
 21
213.0
 31
0.0
100
AcDbText
 73
2
1001
HANOK_A3
1000
{"text_align":"left","kind":"part_id","part_id":"L01-1"}
  0
LWPOLYLINE
  5
A6
330
17
100
AcDbEntity
  8
POCKET_10MM
100
AcDbPolyline
 90
4
 70
1
 10
492.0
 20
208.0
 10
502.0
 20
208.0
 10
502.0
 20
218.0
 10
492.0
 20
218.0
1001
HANOK_A3
1000
{"kind":"pocket","part_id":"L01-1","joint":"J4","joint_id":"E_V1_B","depth_mm":10.0,"local_rect":[0,0,10,10],"open_edges":["U_MIN","V_MIN","V_MAX"],"machining_face":"A"}
  0
LWPOLYLINE
  5
A7
330
17
100
AcDbEntity
  8
POCKET_10MM
100
AcDbPolyline
 90
4
 70
1
 10
819.0
 20
208.0
 10
829.0
 20
208.0
 10
829.0
 20
218.0
 10
819.0
 20
218.0
1001
HANOK_A3
1000
{"kind":"pocket","part_id":"L01-1","joint":"J4","joint_id":"E_V1_T","depth_mm":10.0,"local_rect":[327,0,10,10],"open_edges":["U_MAX","V_MIN","V_MAX"],"machining_face":"A"}
  0
LWPOLYLINE
  5
A8
330
17
100
AcDbEntity
  8
POCKET_10MM
100
AcDbPolyline
 90
4
 70
1
 10
557.4
 20
208.0
 10
567.4
 20
208.0
 10
567.4
 20
218.0
 10
557.4
 20
218.0
1001
HANOK_A3
1000
{"kind":"pocket","part_id":"L01-1","joint":"J3","joint_id":"X_1_1","depth_mm":10.0,"local_rect":[65.4,0,10,10],"open_edges":["V_MIN","V_MAX"],"machining_face":"A"}
  0
LWPOLYLINE
  5
A9
330
17
100
AcDbEntity
  8
POCKET_10MM
100
AcDbPolyline
 90
4
 70
1
 10
622.8
 20
208.0
 10
632.8
 20
208.0
 10
632.8
 20
218.0
 10
622.8
 20
218.0
1001
HANOK_A3
1000
{"kind":"pocket","part_id":"L01-1","joint":"J3","joint_id":"X_1_2","depth_mm":10.0,"local_rect":[130.8,0,10,10],"open_edges":["V_MIN","V_MAX"],"machining_face":"A"}
  0
LWPOLYLINE
  5
AA
330
17
100
AcDbEntity
  8
POCKET_10MM
100
AcDbPolyline
 90
4
 70
1
 10
688.2
 20
208.0
 10
698.2
 20
208.0
 10
698.2
 20
218.0
 10
688.2
 20
218.0
1001
HANOK_A3
1000
{"kind":"pocket","part_id":"L01-1","joint":"J3","joint_id":"X_1_3","depth_mm":10.0,"local_rect":[196.20000000000005,0,10,10],"open_edges":["V_MIN","V_MAX"],"machining_face":"A"}
  0
LWPOLYLINE
  5
AB
330
17
100
AcDbEntity
  8
POCKET_10MM
100
AcDbPolyline
 90
4
 70
1
 10
753.6
 20
208.0
 10
763.6
 20
208.0
 10
763.6
 20
218.0
 10
753.6
 20
218.0
1001
HANOK_A3
1000
{"kind":"pocket","part_id":"L01-1","joint":"J3","joint_id":"X_1_4","depth_mm":10.0,"local_rect":[261.6,0,10,10],"open_edges":["V_MIN","V_MAX"],"machining_face":"A"}
  0
LWPOLYLINE
  5
AC
330
17
100
AcDbEntity
  8
CUT_THROUGH
100
AcDbPolyline
 90
4
 70
1
 10
20.0
 20
230.0
 10
480.0
 20
230.0
 10
480.0
 20
240.0
 10
20.0
 20
240.0
1001
HANOK_A3
1000
{"kind":"part","part_id":"L02-2","family":"L02","length_mm":460,"width_mm":10,"thickness_mm":20,"depth_mm":20,"nesting_origin":[20,230],"assembly_map":[1,0,0,-1,63,203.8],"assembly_face_A":"BACK","grain_axis":"X","machining_face":"A"}
  0
TEXT
  5
AD
330
17
100
AcDbEntity
  8
PART_ID
100
AcDbText
 10
36.0
 20
235.0
 30
0.0
 40
3.2
  1
L02-2
 11
36.0
 21
235.0
 31
0.0
100
AcDbText
 73
2
1001
HANOK_A3
1000
{"text_align":"left","kind":"part_id","part_id":"L02-2"}
  0
LWPOLYLINE
  5
AE
330
17
100
AcDbEntity
  8
POCKET_10MM
100
AcDbPolyline
 90
4
 70
1
 10
20.0
 20
230.0
 10
30.0
 20
230.0
 10
30.0
 20
240.0
 10
20.0
 20
240.0
1001
HANOK_A3
1000
{"kind":"pocket","part_id":"L02-2","joint":"J4","joint_id":"E_H2_L","depth_mm":10.0,"local_rect":[0,0,10,10],"open_edges":["U_MIN","V_MIN","V_MAX"],"machining_face":"A"}
  0
LWPOLYLINE
  5
AF
330
17
100
AcDbEntity
  8
POCKET_10MM
100
AcDbPolyline
 90
4
 70
1
 10
470.0
 20
230.0
 10
480.0
 20
230.0
 10
480.0
 20
240.0
 10
470.0
 20
240.0
1001
HANOK_A3
1000
{"kind":"pocket","part_id":"L02-2","joint":"J4","joint_id":"E_H2_R","depth_mm":10.0,"local_rect":[450,0,10,10],"open_edges":["U_MAX","V_MIN","V_MAX"],"machining_face":"A"}
  0
LWPOLYLINE
  5
B0
330
17
100
AcDbEntity
  8
POCKET_10MM
100
AcDbPolyline
 90
4
 70
1
 10
95.0
 20
230.0
 10
105.0
 20
230.0
 10
105.0
 20
240.0
 10
95.0
 20
240.0
1001
HANOK_A3
1000
{"kind":"pocket","part_id":"L02-2","joint":"J3","joint_id":"X_1_2","depth_mm":10.0,"local_rect":[75.0,0,10,10],"open_edges":["V_MIN","V_MAX"],"machining_face":"A"}
  0
LWPOLYLINE
  5
B1
330
17
100
AcDbEntity
  8
POCKET_10MM
100
AcDbPolyline
 90
4
 70
1
 10
170.0
 20
230.0
 10
180.0
 20
230.0
 10
180.0
 20
240.0
 10
170.0
 20
240.0
1001
HANOK_A3
1000
{"kind":"pocket","part_id":"L02-2","joint":"J3","joint_id":"X_2_2","depth_mm":10.0,"local_rect":[150.0,0,10,10],"open_edges":["V_MIN","V_MAX"],"machining_face":"A"}
  0
LWPOLYLINE
  5
B2
330
17
100
AcDbEntity
  8
POCKET_10MM
100
AcDbPolyline
 90
4
 70
1
 10
245.0
 20
230.0
 10
255.0
 20
230.0
 10
255.0
 20
240.0
 10
245.0
 20
240.0
1001
HANOK_A3
1000
{"kind":"pocket","part_id":"L02-2","joint":"J3","joint_id":"X_3_2","depth_mm":10.0,"local_rect":[225.0,0,10,10],"open_edges":["V_MIN","V_MAX"],"machining_face":"A"}
  0
LWPOLYLINE
  5
B3
330
17
100
AcDbEntity
  8
POCKET_10MM
100
AcDbPolyline
 90
4
 70
1
 10
320.0
 20
230.0
 10
330.0
 20
230.0
 10
330.0
 20
240.0
 10
320.0
 20
240.0
1001
HANOK_A3
1000
{"kind":"pocket","part_id":"L02-2","joint":"J3","joint_id":"X_4_2","depth_mm":10.0,"local_rect":[300.0,0,10,10],"open_edges":["V_MIN","V_MAX"],"machining_face":"A"}
  0
LWPOLYLINE
  5
B4
330
17
100
AcDbEntity
  8
POCKET_10MM
100
AcDbPolyline
 90
4
 70
1
 10
395.0
 20
230.0
 10
405.0
 20
230.0
 10
405.0
 20
240.0
 10
395.0
 20
240.0
1001
HANOK_A3
1000
{"kind":"pocket","part_id":"L02-2","joint":"J3","joint_id":"X_5_2","depth_mm":10.0,"local_rect":[375.0,0,10,10],"open_edges":["V_MIN","V_MAX"],"machining_face":"A"}
  0
LWPOLYLINE
  5
B5
330
17
100
AcDbEntity
  8
CUT_THROUGH
100
AcDbPolyline
 90
4
 70
1
 10
492.0
 20
230.0
 10
829.0
 20
230.0
 10
829.0
 20
240.0
 10
492.0
 20
240.0
1001
HANOK_A3
1000
{"kind":"part","part_id":"L01-2","family":"L01","length_mm":337,"width_mm":10,"thickness_mm":20,"depth_mm":20,"nesting_origin":[492,230],"assembly_map":[0,-1,1,0,223.0,63],"assembly_face_A":"FRONT","grain_axis":"X","machining_face":"A"}
  0
TEXT
  5
B6
330
17
100
AcDbEntity
  8
PART_ID
100
AcDbText
 10
508.0
 20
235.0
 30
0.0
 40
3.2
  1
L01-2
 11
508.0
 21
235.0
 31
0.0
100
AcDbText
 73
2
1001
HANOK_A3
1000
{"text_align":"left","kind":"part_id","part_id":"L01-2"}
  0
LWPOLYLINE
  5
B7
330
17
100
AcDbEntity
  8
POCKET_10MM
100
AcDbPolyline
 90
4
 70
1
 10
492.0
 20
230.0
 10
502.0
 20
230.0
 10
502.0
 20
240.0
 10
492.0
 20
240.0
1001
HANOK_A3
1000
{"kind":"pocket","part_id":"L01-2","joint":"J4","joint_id":"E_V2_B","depth_mm":10.0,"local_rect":[0,0,10,10],"open_edges":["U_MIN","V_MIN","V_MAX"],"machining_face":"A"}
  0
LWPOLYLINE
  5
B8
330
17
100
AcDbEntity
  8
POCKET_10MM
100
AcDbPolyline
 90
4
 70
1
 10
819.0
 20
230.0
 10
829.0
 20
230.0
 10
829.0
 20
240.0
 10
819.0
 20
240.0
1001
HANOK_A3
1000
{"kind":"pocket","part_id":"L01-2","joint":"J4","joint_id":"E_V2_T","depth_mm":10.0,"local_rect":[327,0,10,10],"open_edges":["U_MAX","V_MIN","V_MAX"],"machining_face":"A"}
  0
LWPOLYLINE
  5
B9
330
17
100
AcDbEntity
  8
POCKET_10MM
100
AcDbPolyline
 90
4
 70
1
 10
557.4
 20
230.0
 10
567.4
 20
230.0
 10
567.4
 20
240.0
 10
557.4
 20
240.0
1001
HANOK_A3
1000
{"kind":"pocket","part_id":"L01-2","joint":"J3","joint_id":"X_2_1","depth_mm":10.0,"local_rect":[65.4,0,10,10],"open_edges":["V_MIN","V_MAX"],"machining_face":"A"}
  0
LWPOLYLINE
  5
BA
330
17
100
AcDbEntity
  8
POCKET_10MM
100
AcDbPolyline
 90
4
 70
1
 10
622.8
 20
230.0
 10
632.8
 20
230.0
 10
632.8
 20
240.0
 10
622.8
 20
240.0
1001
HANOK_A3
1000
{"kind":"pocket","part_id":"L01-2","joint":"J3","joint_id":"X_2_2","depth_mm":10.0,"local_rect":[130.8,0,10,10],"open_edges":["V_MIN","V_MAX"],"machining_face":"A"}
  0
LWPOLYLINE
  5
BB
330
17
100
AcDbEntity
  8
POCKET_10MM
100
AcDbPolyline
 90
4
 70
1
 10
688.2
 20
230.0
 10
698.2
 20
230.0
 10
698.2
 20
240.0
 10
688.2
 20
240.0
1001
HANOK_A3
1000
{"kind":"pocket","part_id":"L01-2","joint":"J3","joint_id":"X_2_3","depth_mm":10.0,"local_rect":[196.20000000000005,0,10,10],"open_edges":["V_MIN","V_MAX"],"machining_face":"A"}
  0
LWPOLYLINE
  5
BC
330
17
100
AcDbEntity
  8
POCKET_10MM
100
AcDbPolyline
 90
4
 70
1
 10
753.6
 20
230.0
 10
763.6
 20
230.0
 10
763.6
 20
240.0
 10
753.6
 20
240.0
1001
HANOK_A3
1000
{"kind":"pocket","part_id":"L01-2","joint":"J3","joint_id":"X_2_4","depth_mm":10.0,"local_rect":[261.6,0,10,10],"open_edges":["V_MIN","V_MAX"],"machining_face":"A"}
  0
LWPOLYLINE
  5
BD
330
17
100
AcDbEntity
  8
CUT_THROUGH
100
AcDbPolyline
 90
4
 70
1
 10
20.0
 20
252.0
 10
480.0
 20
252.0
 10
480.0
 20
262.0
 10
20.0
 20
262.0
1001
HANOK_A3
1000
{"kind":"part","part_id":"L02-3","family":"L02","length_mm":460,"width_mm":10,"thickness_mm":20,"depth_mm":20,"nesting_origin":[20,252],"assembly_map":[1,0,0,-1,63,269.20000000000005],"assembly_face_A":"BACK","grain_axis":"X","machining_fac
1000
e":"A"}
  0
TEXT
  5
BE
330
17
100
AcDbEntity
  8
PART_ID
100
AcDbText
 10
36.0
 20
257.0
 30
0.0
 40
3.2
  1
L02-3
 11
36.0
 21
257.0
 31
0.0
100
AcDbText
 73
2
1001
HANOK_A3
1000
{"text_align":"left","kind":"part_id","part_id":"L02-3"}
  0
LWPOLYLINE
  5
BF
330
17
100
AcDbEntity
  8
POCKET_10MM
100
AcDbPolyline
 90
4
 70
1
 10
20.0
 20
252.0
 10
30.0
 20
252.0
 10
30.0
 20
262.0
 10
20.0
 20
262.0
1001
HANOK_A3
1000
{"kind":"pocket","part_id":"L02-3","joint":"J4","joint_id":"E_H3_L","depth_mm":10.0,"local_rect":[0,0,10,10],"open_edges":["U_MIN","V_MIN","V_MAX"],"machining_face":"A"}
  0
LWPOLYLINE
  5
C0
330
17
100
AcDbEntity
  8
POCKET_10MM
100
AcDbPolyline
 90
4
 70
1
 10
470.0
 20
252.0
 10
480.0
 20
252.0
 10
480.0
 20
262.0
 10
470.0
 20
262.0
1001
HANOK_A3
1000
{"kind":"pocket","part_id":"L02-3","joint":"J4","joint_id":"E_H3_R","depth_mm":10.0,"local_rect":[450,0,10,10],"open_edges":["U_MAX","V_MIN","V_MAX"],"machining_face":"A"}
  0
LWPOLYLINE
  5
C1
330
17
100
AcDbEntity
  8
POCKET_10MM
100
AcDbPolyline
 90
4
 70
1
 10
95.0
 20
252.0
 10
105.0
 20
252.0
 10
105.0
 20
262.0
 10
95.0
 20
262.0
1001
HANOK_A3
1000
{"kind":"pocket","part_id":"L02-3","joint":"J3","joint_id":"X_1_3","depth_mm":10.0,"local_rect":[75.0,0,10,10],"open_edges":["V_MIN","V_MAX"],"machining_face":"A"}
  0
LWPOLYLINE
  5
C2
330
17
100
AcDbEntity
  8
POCKET_10MM
100
AcDbPolyline
 90
4
 70
1
 10
170.0
 20
252.0
 10
180.0
 20
252.0
 10
180.0
 20
262.0
 10
170.0
 20
262.0
1001
HANOK_A3
1000
{"kind":"pocket","part_id":"L02-3","joint":"J3","joint_id":"X_2_3","depth_mm":10.0,"local_rect":[150.0,0,10,10],"open_edges":["V_MIN","V_MAX"],"machining_face":"A"}
  0
LWPOLYLINE
  5
C3
330
17
100
AcDbEntity
  8
POCKET_10MM
100
AcDbPolyline
 90
4
 70
1
 10
245.0
 20
252.0
 10
255.0
 20
252.0
 10
255.0
 20
262.0
 10
245.0
 20
262.0
1001
HANOK_A3
1000
{"kind":"pocket","part_id":"L02-3","joint":"J3","joint_id":"X_3_3","depth_mm":10.0,"local_rect":[225.0,0,10,10],"open_edges":["V_MIN","V_MAX"],"machining_face":"A"}
  0
LWPOLYLINE
  5
C4
330
17
100
AcDbEntity
  8
POCKET_10MM
100
AcDbPolyline
 90
4
 70
1
 10
320.0
 20
252.0
 10
330.0
 20
252.0
 10
330.0
 20
262.0
 10
320.0
 20
262.0
1001
HANOK_A3
1000
{"kind":"pocket","part_id":"L02-3","joint":"J3","joint_id":"X_4_3","depth_mm":10.0,"local_rect":[300.0,0,10,10],"open_edges":["V_MIN","V_MAX"],"machining_face":"A"}
  0
LWPOLYLINE
  5
C5
330
17
100
AcDbEntity
  8
POCKET_10MM
100
AcDbPolyline
 90
4
 70
1
 10
395.0
 20
252.0
 10
405.0
 20
252.0
 10
405.0
 20
262.0
 10
395.0
 20
262.0
1001
HANOK_A3
1000
{"kind":"pocket","part_id":"L02-3","joint":"J3","joint_id":"X_5_3","depth_mm":10.0,"local_rect":[375.0,0,10,10],"open_edges":["V_MIN","V_MAX"],"machining_face":"A"}
  0
LWPOLYLINE
  5
C6
330
17
100
AcDbEntity
  8
CUT_THROUGH
100
AcDbPolyline
 90
4
 70
1
 10
492.0
 20
252.0
 10
829.0
 20
252.0
 10
829.0
 20
262.0
 10
492.0
 20
262.0
1001
HANOK_A3
1000
{"kind":"part","part_id":"L01-3","family":"L01","length_mm":337,"width_mm":10,"thickness_mm":20,"depth_mm":20,"nesting_origin":[492,252],"assembly_map":[0,-1,1,0,298.0,63],"assembly_face_A":"FRONT","grain_axis":"X","machining_face":"A"}
  0
TEXT
  5
C7
330
17
100
AcDbEntity
  8
PART_ID
100
AcDbText
 10
508.0
 20
257.0
 30
0.0
 40
3.2
  1
L01-3
 11
508.0
 21
257.0
 31
0.0
100
AcDbText
 73
2
1001
HANOK_A3
1000
{"text_align":"left","kind":"part_id","part_id":"L01-3"}
  0
LWPOLYLINE
  5
C8
330
17
100
AcDbEntity
  8
POCKET_10MM
100
AcDbPolyline
 90
4
 70
1
 10
492.0
 20
252.0
 10
502.0
 20
252.0
 10
502.0
 20
262.0
 10
492.0
 20
262.0
1001
HANOK_A3
1000
{"kind":"pocket","part_id":"L01-3","joint":"J4","joint_id":"E_V3_B","depth_mm":10.0,"local_rect":[0,0,10,10],"open_edges":["U_MIN","V_MIN","V_MAX"],"machining_face":"A"}
  0
LWPOLYLINE
  5
C9
330
17
100
AcDbEntity
  8
POCKET_10MM
100
AcDbPolyline
 90
4
 70
1
 10
819.0
 20
252.0
 10
829.0
 20
252.0
 10
829.0
 20
262.0
 10
819.0
 20
262.0
1001
HANOK_A3
1000
{"kind":"pocket","part_id":"L01-3","joint":"J4","joint_id":"E_V3_T","depth_mm":10.0,"local_rect":[327,0,10,10],"open_edges":["U_MAX","V_MIN","V_MAX"],"machining_face":"A"}
  0
LWPOLYLINE
  5
CA
330
17
100
AcDbEntity
  8
POCKET_10MM
100
AcDbPolyline
 90
4
 70
1
 10
557.4
 20
252.0
 10
567.4
 20
252.0
 10
567.4
 20
262.0
 10
557.4
 20
262.0
1001
HANOK_A3
1000
{"kind":"pocket","part_id":"L01-3","joint":"J3","joint_id":"X_3_1","depth_mm":10.0,"local_rect":[65.4,0,10,10],"open_edges":["V_MIN","V_MAX"],"machining_face":"A"}
  0
LWPOLYLINE
  5
CB
330
17
100
AcDbEntity
  8
POCKET_10MM
100
AcDbPolyline
 90
4
 70
1
 10
622.8
 20
252.0
 10
632.8
 20
252.0
 10
632.8
 20
262.0
 10
622.8
 20
262.0
1001
HANOK_A3
1000
{"kind":"pocket","part_id":"L01-3","joint":"J3","joint_id":"X_3_2","depth_mm":10.0,"local_rect":[130.8,0,10,10],"open_edges":["V_MIN","V_MAX"],"machining_face":"A"}
  0
LWPOLYLINE
  5
CC
330
17
100
AcDbEntity
  8
POCKET_10MM
100
AcDbPolyline
 90
4
 70
1
 10
688.2
 20
252.0
 10
698.2
 20
252.0
 10
698.2
 20
262.0
 10
688.2
 20
262.0
1001
HANOK_A3
1000
{"kind":"pocket","part_id":"L01-3","joint":"J3","joint_id":"X_3_3","depth_mm":10.0,"local_rect":[196.20000000000005,0,10,10],"open_edges":["V_MIN","V_MAX"],"machining_face":"A"}
  0
LWPOLYLINE
  5
CD
330
17
100
AcDbEntity
  8
POCKET_10MM
100
AcDbPolyline
 90
4
 70
1
 10
753.6
 20
252.0
 10
763.6
 20
252.0
 10
763.6
 20
262.0
 10
753.6
 20
262.0
1001
HANOK_A3
1000
{"kind":"pocket","part_id":"L01-3","joint":"J3","joint_id":"X_3_4","depth_mm":10.0,"local_rect":[261.6,0,10,10],"open_edges":["V_MIN","V_MAX"],"machining_face":"A"}
  0
LWPOLYLINE
  5
CE
330
17
100
AcDbEntity
  8
CUT_THROUGH
100
AcDbPolyline
 90
4
 70
1
 10
20.0
 20
274.0
 10
480.0
 20
274.0
 10
480.0
 20
284.0
 10
20.0
 20
284.0
1001
HANOK_A3
1000
{"kind":"part","part_id":"L02-4","family":"L02","length_mm":460,"width_mm":10,"thickness_mm":20,"depth_mm":20,"nesting_origin":[20,274],"assembly_map":[1,0,0,-1,63,334.6],"assembly_face_A":"BACK","grain_axis":"X","machining_face":"A"}
  0
TEXT
  5
CF
330
17
100
AcDbEntity
  8
PART_ID
100
AcDbText
 10
36.0
 20
279.0
 30
0.0
 40
3.2
  1
L02-4
 11
36.0
 21
279.0
 31
0.0
100
AcDbText
 73
2
1001
HANOK_A3
1000
{"text_align":"left","kind":"part_id","part_id":"L02-4"}
  0
LWPOLYLINE
  5
D0
330
17
100
AcDbEntity
  8
POCKET_10MM
100
AcDbPolyline
 90
4
 70
1
 10
20.0
 20
274.0
 10
30.0
 20
274.0
 10
30.0
 20
284.0
 10
20.0
 20
284.0
1001
HANOK_A3
1000
{"kind":"pocket","part_id":"L02-4","joint":"J4","joint_id":"E_H4_L","depth_mm":10.0,"local_rect":[0,0,10,10],"open_edges":["U_MIN","V_MIN","V_MAX"],"machining_face":"A"}
  0
LWPOLYLINE
  5
D1
330
17
100
AcDbEntity
  8
POCKET_10MM
100
AcDbPolyline
 90
4
 70
1
 10
470.0
 20
274.0
 10
480.0
 20
274.0
 10
480.0
 20
284.0
 10
470.0
 20
284.0
1001
HANOK_A3
1000
{"kind":"pocket","part_id":"L02-4","joint":"J4","joint_id":"E_H4_R","depth_mm":10.0,"local_rect":[450,0,10,10],"open_edges":["U_MAX","V_MIN","V_MAX"],"machining_face":"A"}
  0
LWPOLYLINE
  5
D2
330
17
100
AcDbEntity
  8
POCKET_10MM
100
AcDbPolyline
 90
4
 70
1
 10
95.0
 20
274.0
 10
105.0
 20
274.0
 10
105.0
 20
284.0
 10
95.0
 20
284.0
1001
HANOK_A3
1000
{"kind":"pocket","part_id":"L02-4","joint":"J3","joint_id":"X_1_4","depth_mm":10.0,"local_rect":[75.0,0,10,10],"open_edges":["V_MIN","V_MAX"],"machining_face":"A"}
  0
LWPOLYLINE
  5
D3
330
17
100
AcDbEntity
  8
POCKET_10MM
100
AcDbPolyline
 90
4
 70
1
 10
170.0
 20
274.0
 10
180.0
 20
274.0
 10
180.0
 20
284.0
 10
170.0
 20
284.0
1001
HANOK_A3
1000
{"kind":"pocket","part_id":"L02-4","joint":"J3","joint_id":"X_2_4","depth_mm":10.0,"local_rect":[150.0,0,10,10],"open_edges":["V_MIN","V_MAX"],"machining_face":"A"}
  0
LWPOLYLINE
  5
D4
330
17
100
AcDbEntity
  8
POCKET_10MM
100
AcDbPolyline
 90
4
 70
1
 10
245.0
 20
274.0
 10
255.0
 20
274.0
 10
255.0
 20
284.0
 10
245.0
 20
284.0
1001
HANOK_A3
1000
{"kind":"pocket","part_id":"L02-4","joint":"J3","joint_id":"X_3_4","depth_mm":10.0,"local_rect":[225.0,0,10,10],"open_edges":["V_MIN","V_MAX"],"machining_face":"A"}
  0
LWPOLYLINE
  5
D5
330
17
100
AcDbEntity
  8
POCKET_10MM
100
AcDbPolyline
 90
4
 70
1
 10
320.0
 20
274.0
 10
330.0
 20
274.0
 10
330.0
 20
284.0
 10
320.0
 20
284.0
1001
HANOK_A3
1000
{"kind":"pocket","part_id":"L02-4","joint":"J3","joint_id":"X_4_4","depth_mm":10.0,"local_rect":[300.0,0,10,10],"open_edges":["V_MIN","V_MAX"],"machining_face":"A"}
  0
LWPOLYLINE
  5
D6
330
17
100
AcDbEntity
  8
POCKET_10MM
100
AcDbPolyline
 90
4
 70
1
 10
395.0
 20
274.0
 10
405.0
 20
274.0
 10
405.0
 20
284.0
 10
395.0
 20
284.0
1001
HANOK_A3
1000
{"kind":"pocket","part_id":"L02-4","joint":"J3","joint_id":"X_5_4","depth_mm":10.0,"local_rect":[375.0,0,10,10],"open_edges":["V_MIN","V_MAX"],"machining_face":"A"}
  0
LWPOLYLINE
  5
D7
330
17
100
AcDbEntity
  8
CUT_THROUGH
100
AcDbPolyline
 90
4
 70
1
 10
492.0
 20
274.0
 10
829.0
 20
274.0
 10
829.0
 20
284.0
 10
492.0
 20
284.0
1001
HANOK_A3
1000
{"kind":"part","part_id":"L01-4","family":"L01","length_mm":337,"width_mm":10,"thickness_mm":20,"depth_mm":20,"nesting_origin":[492,274],"assembly_map":[0,-1,1,0,373.0,63],"assembly_face_A":"FRONT","grain_axis":"X","machining_face":"A"}
  0
TEXT
  5
D8
330
17
100
AcDbEntity
  8
PART_ID
100
AcDbText
 10
508.0
 20
279.0
 30
0.0
 40
3.2
  1
L01-4
 11
508.0
 21
279.0
 31
0.0
100
AcDbText
 73
2
1001
HANOK_A3
1000
{"text_align":"left","kind":"part_id","part_id":"L01-4"}
  0
LWPOLYLINE
  5
D9
330
17
100
AcDbEntity
  8
POCKET_10MM
100
AcDbPolyline
 90
4
 70
1
 10
492.0
 20
274.0
 10
502.0
 20
274.0
 10
502.0
 20
284.0
 10
492.0
 20
284.0
1001
HANOK_A3
1000
{"kind":"pocket","part_id":"L01-4","joint":"J4","joint_id":"E_V4_B","depth_mm":10.0,"local_rect":[0,0,10,10],"open_edges":["U_MIN","V_MIN","V_MAX"],"machining_face":"A"}
  0
LWPOLYLINE
  5
DA
330
17
100
AcDbEntity
  8
POCKET_10MM
100
AcDbPolyline
 90
4
 70
1
 10
819.0
 20
274.0
 10
829.0
 20
274.0
 10
829.0
 20
284.0
 10
819.0
 20
284.0
1001
HANOK_A3
1000
{"kind":"pocket","part_id":"L01-4","joint":"J4","joint_id":"E_V4_T","depth_mm":10.0,"local_rect":[327,0,10,10],"open_edges":["U_MAX","V_MIN","V_MAX"],"machining_face":"A"}
  0
LWPOLYLINE
  5
DB
330
17
100
AcDbEntity
  8
POCKET_10MM
100
AcDbPolyline
 90
4
 70
1
 10
557.4
 20
274.0
 10
567.4
 20
274.0
 10
567.4
 20
284.0
 10
557.4
 20
284.0
1001
HANOK_A3
1000
{"kind":"pocket","part_id":"L01-4","joint":"J3","joint_id":"X_4_1","depth_mm":10.0,"local_rect":[65.4,0,10,10],"open_edges":["V_MIN","V_MAX"],"machining_face":"A"}
  0
LWPOLYLINE
  5
DC
330
17
100
AcDbEntity
  8
POCKET_10MM
100
AcDbPolyline
 90
4
 70
1
 10
622.8
 20
274.0
 10
632.8
 20
274.0
 10
632.8
 20
284.0
 10
622.8
 20
284.0
1001
HANOK_A3
1000
{"kind":"pocket","part_id":"L01-4","joint":"J3","joint_id":"X_4_2","depth_mm":10.0,"local_rect":[130.8,0,10,10],"open_edges":["V_MIN","V_MAX"],"machining_face":"A"}
  0
LWPOLYLINE
  5
DD
330
17
100
AcDbEntity
  8
POCKET_10MM
100
AcDbPolyline
 90
4
 70
1
 10
688.2
 20
274.0
 10
698.2
 20
274.0
 10
698.2
 20
284.0
 10
688.2
 20
284.0
1001
HANOK_A3
1000
{"kind":"pocket","part_id":"L01-4","joint":"J3","joint_id":"X_4_3","depth_mm":10.0,"local_rect":[196.20000000000005,0,10,10],"open_edges":["V_MIN","V_MAX"],"machining_face":"A"}
  0
LWPOLYLINE
  5
DE
330
17
100
AcDbEntity
  8
POCKET_10MM
100
AcDbPolyline
 90
4
 70
1
 10
753.6
 20
274.0
 10
763.6
 20
274.0
 10
763.6
 20
284.0
 10
753.6
 20
284.0
1001
HANOK_A3
1000
{"kind":"pocket","part_id":"L01-4","joint":"J3","joint_id":"X_4_4","depth_mm":10.0,"local_rect":[261.6,0,10,10],"open_edges":["V_MIN","V_MAX"],"machining_face":"A"}
  0
LWPOLYLINE
  5
DF
330
17
100
AcDbEntity
  8
CUT_THROUGH
100
AcDbPolyline
 90
4
 70
1
 10
841.0
 20
208.0
 10
1178.0
 20
208.0
 10
1178.0
 20
218.0
 10
841.0
 20
218.0
1001
HANOK_A3
1000
{"kind":"part","part_id":"L01-5","family":"L01","length_mm":337,"width_mm":10,"thickness_mm":20,"depth_mm":20,"nesting_origin":[841,208],"assembly_map":[0,-1,1,0,448.0,63],"assembly_face_A":"FRONT","grain_axis":"X","machining_face":"A"}
  0
TEXT
  5
E0
330
17
100
AcDbEntity
  8
PART_ID
100
AcDbText
 10
857.0
 20
213.0
 30
0.0
 40
3.2
  1
L01-5
 11
857.0
 21
213.0
 31
0.0
100
AcDbText
 73
2
1001
HANOK_A3
1000
{"text_align":"left","kind":"part_id","part_id":"L01-5"}
  0
LWPOLYLINE
  5
E1
330
17
100
AcDbEntity
  8
POCKET_10MM
100
AcDbPolyline
 90
4
 70
1
 10
841.0
 20
208.0
 10
851.0
 20
208.0
 10
851.0
 20
218.0
 10
841.0
 20
218.0
1001
HANOK_A3
1000
{"kind":"pocket","part_id":"L01-5","joint":"J4","joint_id":"E_V5_B","depth_mm":10.0,"local_rect":[0,0,10,10],"open_edges":["U_MIN","V_MIN","V_MAX"],"machining_face":"A"}
  0
LWPOLYLINE
  5
E2
330
17
100
AcDbEntity
  8
POCKET_10MM
100
AcDbPolyline
 90
4
 70
1
 10
1168.0
 20
208.0
 10
1178.0
 20
208.0
 10
1178.0
 20
218.0
 10
1168.0
 20
218.0
1001
HANOK_A3
1000
{"kind":"pocket","part_id":"L01-5","joint":"J4","joint_id":"E_V5_T","depth_mm":10.0,"local_rect":[327,0,10,10],"open_edges":["U_MAX","V_MIN","V_MAX"],"machining_face":"A"}
  0
LWPOLYLINE
  5
E3
330
17
100
AcDbEntity
  8
POCKET_10MM
100
AcDbPolyline
 90
4
 70
1
 10
906.4
 20
208.0
 10
916.4
 20
208.0
 10
916.4
 20
218.0
 10
906.4
 20
218.0
1001
HANOK_A3
1000
{"kind":"pocket","part_id":"L01-5","joint":"J3","joint_id":"X_5_1","depth_mm":10.0,"local_rect":[65.4,0,10,10],"open_edges":["V_MIN","V_MAX"],"machining_face":"A"}
  0
LWPOLYLINE
  5
E4
330
17
100
AcDbEntity
  8
POCKET_10MM
100
AcDbPolyline
 90
4
 70
1
 10
971.8
 20
208.0
 10
981.8
 20
208.0
 10
981.8
 20
218.0
 10
971.8
 20
218.0
1001
HANOK_A3
1000
{"kind":"pocket","part_id":"L01-5","joint":"J3","joint_id":"X_5_2","depth_mm":10.0,"local_rect":[130.8,0,10,10],"open_edges":["V_MIN","V_MAX"],"machining_face":"A"}
  0
LWPOLYLINE
  5
E5
330
17
100
AcDbEntity
  8
POCKET_10MM
100
AcDbPolyline
 90
4
 70
1
 10
1037.2
 20
208.0
 10
1047.2
 20
208.0
 10
1047.2
 20
218.0
 10
1037.2
 20
218.0
1001
HANOK_A3
1000
{"kind":"pocket","part_id":"L01-5","joint":"J3","joint_id":"X_5_3","depth_mm":10.0,"local_rect":[196.20000000000005,0,10,10],"open_edges":["V_MIN","V_MAX"],"machining_face":"A"}
  0
LWPOLYLINE
  5
E6
330
17
100
AcDbEntity
  8
POCKET_10MM
100
AcDbPolyline
 90
4
 70
1
 10
1102.6
 20
208.0
 10
1112.6
 20
208.0
 10
1112.6
 20
218.0
 10
1102.6
 20
218.0
1001
HANOK_A3
1000
{"kind":"pocket","part_id":"L01-5","joint":"J3","joint_id":"X_5_4","depth_mm":10.0,"local_rect":[261.6,0,10,10],"open_edges":["V_MIN","V_MAX"],"machining_face":"A"}
  0
LWPOLYLINE
  5
E7
330
17
100
AcDbEntity
  8
HINGE_REF
100
AcDbPolyline
 90
4
 70
1
 10
711.0
 20
22.0
 10
751.0
 20
22.0
 10
751.0
 20
37.0
 10
711.0
 20
37.0
1001
HANOK_A3
1000
{"kind":"hinge_ref","part_id":"F01-1","reference_only":true,"length_ref_mm":40,"depth_ref_mm":2,"face":"A_FRONT","center_assembly_y":113}
  0
LWPOLYLINE
  5
E8
330
17
100
AcDbEntity
  8
HINGE_REF
100
AcDbPolyline
 90
4
 70
1
 10
582.0
 20
137.0
 10
622.0
 20
137.0
 10
622.0
 20
152.0
 10
582.0
 20
152.0
1001
HANOK_A3
1000
{"kind":"hinge_ref","part_id":"S01-1","reference_only":true,"length_ref_mm":40,"depth_ref_mm":2,"face":"A_FRONT","center_assembly_y":113}
  0
LWPOLYLINE
  5
E9
330
17
100
AcDbEntity
  8
HINGE_REF
100
AcDbPolyline
 90
4
 70
1
 10
948.0
 20
22.0
 10
988.0
 20
22.0
 10
988.0
 20
37.0
 10
948.0
 20
37.0
1001
HANOK_A3
1000
{"kind":"hinge_ref","part_id":"F01-1","reference_only":true,"length_ref_mm":40,"depth_ref_mm":2,"face":"A_FRONT","center_assembly_y":350}
  0
LWPOLYLINE
  5
EA
330
17
100
AcDbEntity
  8
HINGE_REF
100
AcDbPolyline
 90
4
 70
1
 10
819.0
 20
137.0
 10
859.0
 20
137.0
 10
859.0
 20
152.0
 10
819.0
 20
152.0
1001
HANOK_A3
1000
{"kind":"hinge_ref","part_id":"S01-1","reference_only":true,"length_ref_mm":40,"depth_ref_mm":2,"face":"A_FRONT","center_assembly_y":350}
  0
LWPOLYLINE
  5
EB
330
17
100
AcDbEntity
  8
LATCH_REF
100
AcDbPolyline
 90
4
 70
1
 10
710.5
 20
173.0
 10
730.5
 20
173.0
 10
730.5
 20
189.0
 10
710.5
 20
189.0
1001
HANOK_A3
1000
{"kind":"latch_ref","part_id":"S01-2","reference_only":true,"depth_ref_mm":null}
  0
LWPOLYLINE
  5
EC
330
17
100
AcDbEntity
  8
LATCH_REF
100
AcDbPolyline
 90
4
 70
1
 10
839.5
 20
88.0
 10
859.5
 20
88.0
 10
859.5
 20
104.0
 10
839.5
 20
104.0
1001
HANOK_A3
1000
{"kind":"latch_ref","part_id":"F01-2","reference_only":true,"depth_ref_mm":null}
  0
LWPOLYLINE
  5
ED
330
17
100
AcDbEntity
  8
BOARD_BOUNDARY
100
AcDbPolyline
 90
4
 70
1
 10
0.0
 20
0.0
 10
1220.0
 20
0.0
 10
1220.0
 20
900.0
 10
0.0
 20
900.0
1001
HANOK_A3
1000
{"kind":"board","size_mm":[1220,900,20]}
  0
TEXT
  5
EE
330
17
100
AcDbEntity
  8
NOTES
100
AcDbText
 10
0.0
 20
952.0
 30
0.0
 40
14.0
  1
A3 HANOK WINDOW / ONE-BOARD CNC
 11
0.0
 21
952.0
 31
0.0
100
AcDbText
 73
2
1001
HANOK_A3
1000
{"text_align":"left","kind":"title"}
  0
TEXT
  5
EF
330
17
100
AcDbEntity
  8
NOTES
100
AcDbText
 10
0.0
 20
928.0
 30
0.0
 40
5.6
  1
REV 1  |  mm  |  MODEL SPACE 1:1  |  17 PARTS  |  92 HALF-LAP POCKETS  |  36 RELIEFS
 11
0.0
 21
928.0
 31
0.0
100
AcDbText
 73
2
1001
HANOK_A3
1000
{"text_align":"left","kind":"subtitle"}
  0
LINE
  5
F0
330
17
100
AcDbEntity
  8
DIMENSIONS
100
AcDbLine
 10
0.0
 20
900.0
 30
0.0
 11
0.0
 21
912.0
 31
0.0
1001
HANOK_A3
1000
{"kind":"dim","detail":null,"view":"nest"}
  0
LINE
  5
F1
330
17
100
AcDbEntity
  8
DIMENSIONS
100
AcDbLine
 10
1220.0
 20
900.0
 30
0.0
 11
1220.0
 21
912.0
 31
0.0
1001
HANOK_A3
1000
{"kind":"dim","detail":null,"view":"nest"}
  0
LINE
  5
F2
330
17
100
AcDbEntity
  8
DIMENSIONS
100
AcDbLine
 10
0.0
 20
910.0
 30
0.0
 11
1220.0
 21
910.0
 31
0.0
1001
HANOK_A3
1000
{"kind":"dim","detail":null,"view":"nest"}
  0
LINE
  5
F3
330
17
100
AcDbEntity
  8
DIMENSIONS
100
AcDbLine
 10
0.0
 20
910.0
 30
0.0
 11
3.0
 21
911.5
 31
0.0
1001
HANOK_A3
1000
{"kind":"dim","detail":null,"view":"nest"}
  0
LINE
  5
F4
330
17
100
AcDbEntity
  8
DIMENSIONS
100
AcDbLine
 10
0.0
 20
910.0
 30
0.0
 11
3.0
 21
908.5
 31
0.0
1001
HANOK_A3
1000
{"kind":"dim","detail":null,"view":"nest"}
  0
LINE
  5
F5
330
17
100
AcDbEntity
  8
DIMENSIONS
100
AcDbLine
 10
1220.0
 20
910.0
 30
0.0
 11
1217.0
 21
911.5
 31
0.0
1001
HANOK_A3
1000
{"kind":"dim","detail":null,"view":"nest"}
  0
LINE
  5
F6
330
17
100
AcDbEntity
  8
DIMENSIONS
100
AcDbLine
 10
1220.0
 20
910.0
 30
0.0
 11
1217.0
 21
908.5
 31
0.0
1001
HANOK_A3
1000
{"kind":"dim","detail":null,"view":"nest"}
  0
TEXT
  5
F7
330
17
100
AcDbEntity
  8
DIMENSIONS
100
AcDbText
 10
610.0
 20
914.0
 30
0.0
 40
3.6
  1
1220
 72
1
 11
610.0
 21
914.0
 31
0.0
100
AcDbText
 73
2
1001
HANOK_A3
1000
{"text_align":"center","kind":"dim","detail":null,"view":"nest"}
  0
LINE
  5
F8
330
17
100
AcDbEntity
  8
DIMENSIONS
100
AcDbLine
 10
0.0
 20
0.0
 30
0.0
 11
-26.0
 21
0.0
 31
0.0
1001
HANOK_A3
1000
{"kind":"dim","detail":null,"view":"nest"}
  0
LINE
  5
F9
330
17
100
AcDbEntity
  8
DIMENSIONS
100
AcDbLine
 10
0.0
 20
900.0
 30
0.0
 11
-26.0
 21
900.0
 31
0.0
1001
HANOK_A3
1000
{"kind":"dim","detail":null,"view":"nest"}
  0
LINE
  5
FA
330
17
100
AcDbEntity
  8
DIMENSIONS
100
AcDbLine
 10
-24.0
 20
0.0
 30
0.0
 11
-24.0
 21
900.0
 31
0.0
1001
HANOK_A3
1000
{"kind":"dim","detail":null,"view":"nest"}
  0
LINE
  5
FB
330
17
100
AcDbEntity
  8
DIMENSIONS
100
AcDbLine
 10
-24.0
 20
0.0
 30
0.0
 11
-25.5
 21
3.0
 31
0.0
1001
HANOK_A3
1000
{"kind":"dim","detail":null,"view":"nest"}
  0
LINE
  5
FC
330
17
100
AcDbEntity
  8
DIMENSIONS
100
AcDbLine
 10
-24.0
 20
0.0
 30
0.0
 11
-22.5
 21
3.0
 31
0.0
1001
HANOK_A3
1000
{"kind":"dim","detail":null,"view":"nest"}
  0
LINE
  5
FD
330
17
100
AcDbEntity
  8
DIMENSIONS
100
AcDbLine
 10
-24.0
 20
900.0
 30
0.0
 11
-25.5
 21
897.0
 31
0.0
1001
HANOK_A3
1000
{"kind":"dim","detail":null,"view":"nest"}
  0
LINE
  5
FE
330
17
100
AcDbEntity
  8
DIMENSIONS
100
AcDbLine
 10
-24.0
 20
900.0
 30
0.0
 11
-22.5
 21
897.0
 31
0.0
1001
HANOK_A3
1000
{"kind":"dim","detail":null,"view":"nest"}
  0
TEXT
  5
FF
330
17
100
AcDbEntity
  8
DIMENSIONS
100
AcDbText
 10
-20.0
 20
450.0
 30
0.0
 40
3.6
  1
900
 50
90.0
 72
1
 11
-20.0
 21
450.0
 31
0.0
100
AcDbText
 73
2
1001
HANOK_A3
1000
{"text_align":"center","kind":"dim","detail":null,"view":"nest"}
  0
LINE
  5
100
330
17
100
AcDbEntity
  8
GRAIN_DIRECTION
100
AcDbLine
 10
130.0
 20
505.0
 30
0.0
 11
1090.0
 21
505.0
 31
0.0
1001
HANOK_A3
1000
{"kind":"grain"}
  0
LINE
  5
101
330
17
100
AcDbEntity
  8
GRAIN_DIRECTION
100
AcDbLine
 10
1090.0
 20
505.0
 30
0.0
 11
1045.0
 21
526.0
 31
0.0
1001
HANOK_A3
1000
{"kind":"grain"}
  0
LINE
  5
102
330
17
100
AcDbEntity
  8
GRAIN_DIRECTION
100
AcDbLine
 10
1090.0
 20
505.0
 30
0.0
 11
1045.0
 21
484.0
 31
0.0
1001
HANOK_A3
1000
{"kind":"grain"}
  0
TEXT
  5
103
330
17
100
AcDbEntity
  8
GRAIN_DIRECTION
100
AcDbText
 10
610.0
 20
544.0
 30
0.0
 40
20.0
  1
GRAIN DIRECTION  +X
 72
1
 11
610.0
 21
544.0
 31
0.0
100
AcDbText
 73
2
1001
HANOK_A3
1000
{"text_align":"center","kind":"grain"}
  0
TEXT
  5
104
330
17
100
AcDbEntity
  8
NOTES
100
AcDbText
 10
610.0
 20
690.0
 30
0.0
 40
15.0
  1
RESERVED OFFCUT - NOT ADDITIONAL PARTS
 72
1
 11
610.0
 21
690.0
 31
0.0
100
AcDbText
 73
2
1001
HANOK_A3
1000
{"text_align":"center","kind":"offcut"}
  0
TEXT
  5
105
330
17
100
AcDbEntity
  8
NOTES
100
AcDbText
 10
610.0
 20
658.0
 30
0.0
 40
9.0
  1
All 17 parts are nested below. All long axes are parallel to grain.
 72
1
 11
610.0
 21
658.0
 31
0.0
100
AcDbText
 73
2
1001
HANOK_A3
1000
{"text_align":"center","kind":"offcut"}
  0
TEXT
  5
106
330
17
100
AcDbEntity
  8
NOTES
100
AcDbText
 10
30.0
 20
844.0
 30
0.0
 40
7.0
  1
ONE BOARD / 1220 x 900 x 20 / ALL MACHINING FROM COMMON FACE A
 11
30.0
 21
844.0
 31
0.0
100
AcDbText
 73
2
1001
HANOK_A3
1000
{"text_align":"left","kind":"board_note"}
  0
TEXT
  5
107
330
17
100
AcDbEntity
  8
NOTES
100
AcDbText
 10
30.0
 20
826.0
 30
0.0
 40
7.0
  1
ASSEMBLY: F01 + S01 + L01: A FACES FRONT. F02 + S02 + L02: FLIP A TO BACK.
 11
30.0
 21
826.0
 31
0.0
100
AcDbText
 73
2
1001
HANOK_A3
1000
{"text_align":"left","kind":"board_note"}
  0
TEXT
  5
108
330
17
100
AcDbEntity
  8
NOTES
100
AcDbText
 10
30.0
 20
808.0
 30
0.0
 40
7.0
  1
POCKET_10MM + DOGBONE: ADDITIVE REMOVAL, SAME 10 mm DEPTH. UNION IN CAM.
 11
30.0
 21
808.0
 31
0.0
100
AcDbText
 73
2
1001
HANOK_A3
1000
{"text_align":"left","kind":"board_note"}
  0
TEXT
  5
109
330
17
100
AcDbEntity
  8
NOTES
100
AcDbText
 10
30.0
 20
790.0
 30
0.0
 40
7.0
  1
EDGE-OPEN LAPS: ALLOW CUTTER OVERRUN INTO WASTE; DO NOT ROUND THE OPEN SHOULDERS.
 11
30.0
 21
790.0
 31
0.0
100
AcDbText
 73
2
1001
HANOK_A3
1000
{"text_align":"left","kind":"board_note"}
  0
TEXT
  5
10A
330
17
100
AcDbEntity
  8
NOTES
100
AcDbText
 10
30.0
 20
772.0
 30
0.0
 40
7.0
  1
HINGE_REF / LATCH_REF ARE NOT PRODUCTION OPERATIONS. HARDWARE NOT SELECTED.
 11
30.0
 21
772.0
 31
0.0
100
AcDbText
 73
2
1001
HANOK_A3
1000
{"text_align":"left","kind":"board_note"}
  0
TEXT
  5
10B
330
17
100
AcDbEntity
  8
NOTES
100
AcDbText
 10
0.0
 20
-35.0
 30
0.0
 40
5.2
  1
CUT_THROUGH = 20 mm nominal stock profile. No tabs, feeds, speeds or toolpaths are generated.
 11
0.0
 21
-35.0
 31
0.0
100
AcDbText
 73
2
1001
HANOK_A3
1000
{"text_align":"left","kind":"footer_note"}
  0
TEXT
  5
10C
330
17
100
AcDbEntity
  8
NOTES
100
AcDbText
 10
0.0
 20
-48.0
 30
0.0
 40
5.2
  1
Nominal fit only: 10.00 / 10.00. Measure stock, test fit, and approve CAM compensation before production.
 11
0.0
 21
-48.0
 31
0.0
100
AcDbText
 73
2
1001
HANOK_A3
1000
{"text_align":"left","kind":"footer_note"}
  0
TEXT
  5
10D
330
17
100
AcDbEntity
  8
NOTES
100
AcDbText
 10
0.0
 20
-61.0
 30
0.0
 40
5.2
  1
Small 10 mm lattice strips need an approved hold-down / tabs / onion-skin strategy; pocket first, release last.
 11
0.0
 21
-61.0
 31
0.0
100
AcDbText
 73
2
1001
HANOK_A3
1000
{"text_align":"left","kind":"footer_note"}
  0
TEXT
  5
10E
330
17
100
AcDbEntity
  8
NOTES
100
AcDbText
 10
0.0
 20
-74.0
 30
0.0
 40
5.2
  1
Picture support, hinges, handle, catch and wall fixing are purchased non-wood components; not nested.
 11
0.0
 21
-74.0
 31
0.0
100
AcDbText
 73
2
1001
HANOK_A3
1000
{"text_align":"left","kind":"footer_note"}
  0
TEXT
  5
10F
330
17
100
AcDbEntity
  8
NOTES
100
AcDbText
 10
0.0
 20
-87.0
 30
0.0
 40
5.2
  1
No weather seal, glazing rebate or exterior structural/window certification is included.
 11
0.0
 21
-87.0
 31
0.0
100
AcDbText
 73
2
1001
HANOK_A3
1000
{"text_align":"left","kind":"footer_note"}
  0
TEXT
  5
110
330
17
100
AcDbEntity
  8
NOTES
100
AcDbText
 10
1370.0
 20
880.0
 30
0.0
 40
11.0
  1
ASSEMBLY REFERENCE / FRONT
 11
1370.0
 21
880.0
 31
0.0
100
AcDbText
 73
2
1001
HANOK_A3
1000
{"text_align":"left","view":"assembly","kind":"title"}
  0
TEXT
  5
111
330
17
100
AcDbEntity
  8
NOTES
100
AcDbText
 10
1370.0
 20
860.0
 30
0.0
 40
5.0
  1
REFERENCE ONLY - never select for CAM
 11
1370.0
 21
860.0
 31
0.0
100
AcDbText
 73
2
1001
HANOK_A3
1000
{"text_align":"left","view":"assembly"}
  0
LWPOLYLINE
  5
112
330
17
100
AcDbEntity
  8
ASSEMBLY_REFERENCE
  6
A3_DASHDOT
100
AcDbPolyline
 90
4
 70
1
 10
1453.0
 20
443.0
 10
1873.0
 20
443.0
 10
1873.0
 20
740.0
 10
1453.0
 20
740.0
1001
HANOK_A3
1000
{"kind":"assembly","role":"picture","view":"assembly","nominal_size":[420,297]}
  0
LWPOLYLINE
  5
113
330
17
100
AcDbEntity
  8
ASSEMBLY_REFERENCE
100
AcDbPolyline
 90
4
 70
1
 10
1410.0
 20
823.0
 10
1370.0
 20
823.0
 10
1370.0
 20
360.0
 10
1410.0
 20
360.0
1001
HANOK_A3
1000
{"kind":"assembly","role":"body","part_id":"F01-1","view":"assembly","family":"F01"}
  0
LWPOLYLINE
  5
114
330
17
100
AcDbEntity
  8
ASSEMBLY_REFERENCE
100
AcDbPolyline
 90
4
 70
1
 10
1956.0
 20
823.0
 10
1916.0
 20
823.0
 10
1916.0
 20
360.0
 10
1956.0
 20
360.0
1001
HANOK_A3
1000
{"kind":"assembly","role":"body","part_id":"F01-2","view":"assembly","family":"F01"}
  0
LWPOLYLINE
  5
115
330
17
100
AcDbEntity
  8
ASSEMBLY_REFERENCE
100
AcDbPolyline
 90
4
 70
1
 10
1518.0
 20
760.0
 10
1508.0
 20
760.0
 10
1508.0
 20
423.0
 10
1518.0
 20
423.0
1001
HANOK_A3
1000
{"kind":"assembly","role":"body","part_id":"L01-1","view":"assembly","family":"L01"}
  0
LWPOLYLINE
  5
116
330
17
100
AcDbEntity
  8
ASSEMBLY_REFERENCE
100
AcDbPolyline
 90
4
 70
1
 10
1593.0
 20
760.0
 10
1583.0
 20
760.0
 10
1583.0
 20
423.0
 10
1593.0
 20
423.0
1001
HANOK_A3
1000
{"kind":"assembly","role":"body","part_id":"L01-2","view":"assembly","family":"L01"}
  0
LWPOLYLINE
  5
117
330
17
100
AcDbEntity
  8
ASSEMBLY_REFERENCE
100
AcDbPolyline
 90
4
 70
1
 10
1668.0
 20
760.0
 10
1658.0
 20
760.0
 10
1658.0
 20
423.0
 10
1668.0
 20
423.0
1001
HANOK_A3
1000
{"kind":"assembly","role":"body","part_id":"L01-3","view":"assembly","family":"L01"}
  0
LWPOLYLINE
  5
118
330
17
100
AcDbEntity
  8
ASSEMBLY_REFERENCE
100
AcDbPolyline
 90
4
 70
1
 10
1743.0
 20
760.0
 10
1733.0
 20
760.0
 10
1733.0
 20
423.0
 10
1743.0
 20
423.0
1001
HANOK_A3
1000
{"kind":"assembly","role":"body","part_id":"L01-4","view":"assembly","family":"L01"}
  0
LWPOLYLINE
  5
119
330
17
100
AcDbEntity
  8
ASSEMBLY_REFERENCE
100
AcDbPolyline
 90
4
 70
1
 10
1818.0
 20
760.0
 10
1808.0
 20
760.0
 10
1808.0
 20
423.0
 10
1818.0
 20
423.0
1001
HANOK_A3
1000
{"kind":"assembly","role":"body","part_id":"L01-5","view":"assembly","family":"L01"}
  0
LWPOLYLINE
  5
11A
330
17
100
AcDbEntity
  8
ASSEMBLY_REFERENCE
100
AcDbPolyline
 90
4
 70
1
 10
1443.0
 20
780.0
 10
1413.0
 20
780.0
 10
1413.0
 20
403.0
 10
1443.0
 20
403.0
1001
HANOK_A3
1000
{"kind":"assembly","role":"body","part_id":"S01-1","view":"assembly","family":"S01"}
  0
LWPOLYLINE
  5
11B
330
17
100
AcDbEntity
  8
ASSEMBLY_REFERENCE
100
AcDbPolyline
 90
4
 70
1
 10
1913.0
 20
780.0
 10
1883.0
 20
780.0
 10
1883.0
 20
403.0
 10
1913.0
 20
403.0
1001
HANOK_A3
1000
{"kind":"assembly","role":"body","part_id":"S01-2","view":"assembly","family":"S01"}
  0
LWPOLYLINE
  5
11C
330
17
100
AcDbEntity
  8
ASSEMBLY_REFERENCE
100
AcDbPolyline
 90
4
 70
1
 10
1956.0
 20
400.0
 10
1956.0
 20
360.0
 10
1370.0
 20
360.0
 10
1370.0
 20
400.0
1001
HANOK_A3
1000
{"kind":"assembly","role":"body","part_id":"F02-1","view":"assembly","family":"F02"}
  0
LWPOLYLINE
  5
11D
330
17
100
AcDbEntity
  8
ASSEMBLY_REFERENCE
100
AcDbPolyline
 90
4
 70
1
 10
1956.0
 20
823.0
 10
1956.0
 20
783.0
 10
1370.0
 20
783.0
 10
1370.0
 20
823.0
1001
HANOK_A3
1000
{"kind":"assembly","role":"body","part_id":"F02-2","view":"assembly","family":"F02"}
  0
LWPOLYLINE
  5
11E
330
17
100
AcDbEntity
  8
ASSEMBLY_REFERENCE
100
AcDbPolyline
 90
4
 70
1
 10
1893.0
 20
498.4
 10
1893.0
 20
488.4
 10
1433.0
 20
488.4
 10
1433.0
 20
498.4
1001
HANOK_A3
1000
{"kind":"assembly","role":"body","part_id":"L02-1","view":"assembly","family":"L02"}
  0
LWPOLYLINE
  5
11F
330
17
100
AcDbEntity
  8
ASSEMBLY_REFERENCE
100
AcDbPolyline
 90
4
 70
1
 10
1893.0
 20
563.8
 10
1893.0
 20
553.8
 10
1433.0
 20
553.8
 10
1433.0
 20
563.8
1001
HANOK_A3
1000
{"kind":"assembly","role":"body","part_id":"L02-2","view":"assembly","family":"L02"}
  0
LWPOLYLINE
  5
120
330
17
100
AcDbEntity
  8
ASSEMBLY_REFERENCE
100
AcDbPolyline
 90
4
 70
1
 10
1893.0
 20
629.2
 10
1893.0
 20
619.2
 10
1433.0
 20
619.2
 10
1433.0
 20
629.2
1001
HANOK_A3
1000
{"kind":"assembly","role":"body","part_id":"L02-3","view":"assembly","family":"L02"}
  0
LWPOLYLINE
  5
121
330
17
100
AcDbEntity
  8
ASSEMBLY_REFERENCE
100
AcDbPolyline
 90
4
 70
1
 10
1893.0
 20
694.6
 10
1893.0
 20
684.6
 10
1433.0
 20
684.6
 10
1433.0
 20
694.6
1001
HANOK_A3
1000
{"kind":"assembly","role":"body","part_id":"L02-4","view":"assembly","family":"L02"}
  0
LWPOLYLINE
  5
122
330
17
100
AcDbEntity
  8
ASSEMBLY_REFERENCE
100
AcDbPolyline
 90
4
 70
1
 10
1913.0
 20
433.0
 10
1913.0
 20
403.0
 10
1413.0
 20
403.0
 10
1413.0
 20
433.0
1001
HANOK_A3
1000
{"kind":"assembly","role":"body","part_id":"S02-1","view":"assembly","family":"S02"}
  0
LWPOLYLINE
  5
123
330
17
100
AcDbEntity
  8
ASSEMBLY_REFERENCE
100
AcDbPolyline
 90
4
 70
1
 10
1913.0
 20
780.0
 10
1913.0
 20
750.0
 10
1413.0
 20
750.0
 10
1413.0
 20
780.0
1001
HANOK_A3
1000
{"kind":"assembly","role":"body","part_id":"S02-2","view":"assembly","family":"S02"}
  0
LWPOLYLINE
  5
124
330
17
100
AcDbEntity
  8
ASSEMBLY_REFERENCE
  6
REF_DASH
100
AcDbPolyline
 90
4
 70
1
 10
1443.0
 20
433.0
 10
1883.0
 20
433.0
 10
1883.0
 20
750.0
 10
1443.0
 20
750.0
1001
HANOK_A3
1000
{"kind":"assembly","role":"opening","view":"assembly","nominal_size":[440,317]}
  0
LWPOLYLINE
  5
125
330
17
100
AcDbEntity
  8
HINGE_REF
100
AcDbPolyline
 90
4
 70
1
 10
1393.0
 20
453.0
 10
1408.0
 20
453.0
 10
1408.0
 20
493.0
 10
1393.0
 20
493.0
1001
HANOK_A3
1000
{"kind":"assembly_hinge","view":"assembly","reference_only":true,"depth_ref_mm":2}
  0
LWPOLYLINE
  5
126
330
17
100
AcDbEntity
  8
HINGE_REF
100
AcDbPolyline
 90
4
 70
1
 10
1415.0
 20
453.0
 10
1430.0
 20
453.0
 10
1430.0
 20
493.0
 10
1415.0
 20
493.0
1001
HANOK_A3
1000
{"kind":"assembly_hinge","view":"assembly","reference_only":true,"depth_ref_mm":2}
  0
LINE
  5
127
330
17
100
AcDbEntity
  8
HINGE_REF
100
AcDbLine
 10
1411.5
 20
449.0
 30
0.0
 11
1411.5
 21
497.0
 31
0.0
1001
HANOK_A3
1000
{"kind":"hinge_axis_ref","view":"assembly","reference_only":true}
  0
LWPOLYLINE
  5
128
330
17
100
AcDbEntity
  8
HINGE_REF
100
AcDbPolyline
 90
4
 70
1
 10
1393.0
 20
690.0
 10
1408.0
 20
690.0
 10
1408.0
 20
730.0
 10
1393.0
 20
730.0
1001
HANOK_A3
1000
{"kind":"assembly_hinge","view":"assembly","reference_only":true,"depth_ref_mm":2}
  0
LWPOLYLINE
  5
129
330
17
100
AcDbEntity
  8
HINGE_REF
100
AcDbPolyline
 90
4
 70
1
 10
1415.0
 20
690.0
 10
1430.0
 20
690.0
 10
1430.0
 20
730.0
 10
1415.0
 20
730.0
1001
HANOK_A3
1000
{"kind":"assembly_hinge","view":"assembly","reference_only":true,"depth_ref_mm":2}
  0
LINE
  5
12A
330
17
100
AcDbEntity
  8
HINGE_REF
100
AcDbLine
 10
1411.5
 20
686.0
 30
0.0
 11
1411.5
 21
734.0
 31
0.0
1001
HANOK_A3
1000
{"kind":"hinge_axis_ref","view":"assembly","reference_only":true}
  0
LWPOLYLINE
  5
12B
330
17
100
AcDbEntity
  8
LATCH_REF
100
AcDbPolyline
 90
4
 70
1
 10
1890.0
 20
581.5
 10
1906.0
 20
581.5
 10
1906.0
 20
601.5
 10
1890.0
 20
601.5
1001
HANOK_A3
1000
{"kind":"assembly_catch","view":"assembly","reference_only":true}
  0
LWPOLYLINE
  5
12C
330
17
100
AcDbEntity
  8
LATCH_REF
100
AcDbPolyline
 90
4
 70
1
 10
1924.0
 20
581.5
 10
1940.0
 20
581.5
 10
1940.0
 20
601.5
 10
1924.0
 20
601.5
1001
HANOK_A3
1000
{"kind":"assembly_catch","view":"assembly","reference_only":true}
  0
LINE
  5
12D
330
17
100
AcDbEntity
  8
DIMENSIONS
100
AcDbLine
 10
1370.0
 20
823.0
 30
0.0
 11
1370.0
 21
844.0
 31
0.0
1001
HANOK_A3
1000
{"kind":"dim","detail":null,"view":"assembly"}
  0
LINE
  5
12E
330
17
100
AcDbEntity
  8
DIMENSIONS
100
AcDbLine
 10
1956.0
 20
823.0
 30
0.0
 11
1956.0
 21
844.0
 31
0.0
1001
HANOK_A3
1000
{"kind":"dim","detail":null,"view":"assembly"}
  0
LINE
  5
12F
330
17
100
AcDbEntity
  8
DIMENSIONS
100
AcDbLine
 10
1370.0
 20
842.0
 30
0.0
 11
1956.0
 21
842.0
 31
0.0
1001
HANOK_A3
1000
{"kind":"dim","detail":null,"view":"assembly"}
  0
LINE
  5
130
330
17
100
AcDbEntity
  8
DIMENSIONS
100
AcDbLine
 10
1370.0
 20
842.0
 30
0.0
 11
1373.0
 21
843.5
 31
0.0
1001
HANOK_A3
1000
{"kind":"dim","detail":null,"view":"assembly"}
  0
LINE
  5
131
330
17
100
AcDbEntity
  8
DIMENSIONS
100
AcDbLine
 10
1370.0
 20
842.0
 30
0.0
 11
1373.0
 21
840.5
 31
0.0
1001
HANOK_A3
1000
{"kind":"dim","detail":null,"view":"assembly"}
  0
LINE
  5
132
330
17
100
AcDbEntity
  8
DIMENSIONS
100
AcDbLine
 10
1956.0
 20
842.0
 30
0.0
 11
1953.0
 21
843.5
 31
0.0
1001
HANOK_A3
1000
{"kind":"dim","detail":null,"view":"assembly"}
  0
LINE
  5
133
330
17
100
AcDbEntity
  8
DIMENSIONS
100
AcDbLine
 10
1956.0
 20
842.0
 30
0.0
 11
1953.0
 21
840.5
 31
0.0
1001
HANOK_A3
1000
{"kind":"dim","detail":null,"view":"assembly"}
  0
TEXT
  5
134
330
17
100
AcDbEntity
  8
DIMENSIONS
100
AcDbText
 10
1663.0
 20
846.0
 30
0.0
 40
3.6
  1
586
 72
1
 11
1663.0
 21
846.0
 31
0.0
100
AcDbText
 73
2
1001
HANOK_A3
1000
{"text_align":"center","kind":"dim","detail":null,"view":"assembly"}
  0
LINE
  5
135
330
17
100
AcDbEntity
  8
DIMENSIONS
100
AcDbLine
 10
1956.0
 20
360.0
 30
0.0
 11
1984.0
 21
360.0
 31
0.0
1001
HANOK_A3
1000
{"kind":"dim","detail":null,"view":"assembly"}
  0
LINE
  5
136
330
17
100
AcDbEntity
  8
DIMENSIONS
100
AcDbLine
 10
1956.0
 20
823.0
 30
0.0
 11
1984.0
 21
823.0
 31
0.0
1001
HANOK_A3
1000
{"kind":"dim","detail":null,"view":"assembly"}
  0
LINE
  5
137
330
17
100
AcDbEntity
  8
DIMENSIONS
100
AcDbLine
 10
1982.0
 20
360.0
 30
0.0
 11
1982.0
 21
823.0
 31
0.0
1001
HANOK_A3
1000
{"kind":"dim","detail":null,"view":"assembly"}
  0
LINE
  5
138
330
17
100
AcDbEntity
  8
DIMENSIONS
100
AcDbLine
 10
1982.0
 20
360.0
 30
0.0
 11
1980.5
 21
363.0
 31
0.0
1001
HANOK_A3
1000
{"kind":"dim","detail":null,"view":"assembly"}
  0
LINE
  5
139
330
17
100
AcDbEntity
  8
DIMENSIONS
100
AcDbLine
 10
1982.0
 20
360.0
 30
0.0
 11
1983.5
 21
363.0
 31
0.0
1001
HANOK_A3
1000
{"kind":"dim","detail":null,"view":"assembly"}
  0
LINE
  5
13A
330
17
100
AcDbEntity
  8
DIMENSIONS
100
AcDbLine
 10
1982.0
 20
823.0
 30
0.0
 11
1980.5
 21
820.0
 31
0.0
1001
HANOK_A3
1000
{"kind":"dim","detail":null,"view":"assembly"}
  0
LINE
  5
13B
330
17
100
AcDbEntity
  8
DIMENSIONS
100
AcDbLine
 10
1982.0
 20
823.0
 30
0.0
 11
1983.5
 21
820.0
 31
0.0
1001
HANOK_A3
1000
{"kind":"dim","detail":null,"view":"assembly"}
  0
TEXT
  5
13C
330
17
100
AcDbEntity
  8
DIMENSIONS
100
AcDbText
 10
1986.0
 20
591.5
 30
0.0
 40
3.6
  1
463
 50
90.0
 72
1
 11
1986.0
 21
591.5
 31
0.0
100
AcDbText
 73
2
1001
HANOK_A3
1000
{"text_align":"center","kind":"dim","detail":null,"view":"assembly"}
  0
LINE
  5
13D
330
17
100
AcDbEntity
  8
DIMENSIONS
100
AcDbLine
 10
1413.0
 20
403.0
 30
0.0
 11
1413.0
 21
340.0
 31
0.0
1001
HANOK_A3
1000
{"kind":"dim","detail":null,"view":"assembly"}
  0
LINE
  5
13E
330
17
100
AcDbEntity
  8
DIMENSIONS
100
AcDbLine
 10
1913.0
 20
403.0
 30
0.0
 11
1913.0
 21
340.0
 31
0.0
1001
HANOK_A3
1000
{"kind":"dim","detail":null,"view":"assembly"}
  0
LINE
  5
13F
330
17
100
AcDbEntity
  8
DIMENSIONS
100
AcDbLine
 10
1413.0
 20
342.0
 30
0.0
 11
1913.0
 21
342.0
 31
0.0
1001
HANOK_A3
1000
{"kind":"dim","detail":null,"view":"assembly"}
  0
LINE
  5
140
330
17
100
AcDbEntity
  8
DIMENSIONS
100
AcDbLine
 10
1413.0
 20
342.0
 30
0.0
 11
1416.0
 21
343.5
 31
0.0
1001
HANOK_A3
1000
{"kind":"dim","detail":null,"view":"assembly"}
  0
LINE
  5
141
330
17
100
AcDbEntity
  8
DIMENSIONS
100
AcDbLine
 10
1413.0
 20
342.0
 30
0.0
 11
1416.0
 21
340.5
 31
0.0
1001
HANOK_A3
1000
{"kind":"dim","detail":null,"view":"assembly"}
  0
LINE
  5
142
330
17
100
AcDbEntity
  8
DIMENSIONS
100
AcDbLine
 10
1913.0
 20
342.0
 30
0.0
 11
1910.0
 21
343.5
 31
0.0
1001
HANOK_A3
1000
{"kind":"dim","detail":null,"view":"assembly"}
  0
LINE
  5
143
330
17
100
AcDbEntity
  8
DIMENSIONS
100
AcDbLine
 10
1913.0
 20
342.0
 30
0.0
 11
1910.0
 21
340.5
 31
0.0
1001
HANOK_A3
1000
{"kind":"dim","detail":null,"view":"assembly"}
  0
TEXT
  5
144
330
17
100
AcDbEntity
  8
DIMENSIONS
100
AcDbText
 10
1663.0
 20
346.0
 30
0.0
 40
3.6
  1
500 SASH
 72
1
 11
1663.0
 21
346.0
 31
0.0
100
AcDbText
 73
2
1001
HANOK_A3
1000
{"text_align":"center","kind":"dim","detail":null,"view":"assembly"}
  0
LINE
  5
145
330
17
100
AcDbEntity
  8
DIMENSIONS
100
AcDbLine
 10
1370.0
 20
403.0
 30
0.0
 11
1340.0
 21
403.0
 31
0.0
1001
HANOK_A3
1000
{"kind":"dim","detail":null,"view":"assembly"}
  0
LINE
  5
146
330
17
100
AcDbEntity
  8
DIMENSIONS
100
AcDbLine
 10
1370.0
 20
780.0
 30
0.0
 11
1340.0
 21
780.0
 31
0.0
1001
HANOK_A3
1000
{"kind":"dim","detail":null,"view":"assembly"}
  0
LINE
  5
147
330
17
100
AcDbEntity
  8
DIMENSIONS
100
AcDbLine
 10
1342.0
 20
403.0
 30
0.0
 11
1342.0
 21
780.0
 31
0.0
1001
HANOK_A3
1000
{"kind":"dim","detail":null,"view":"assembly"}
  0
LINE
  5
148
330
17
100
AcDbEntity
  8
DIMENSIONS
100
AcDbLine
 10
1342.0
 20
403.0
 30
0.0
 11
1340.5
 21
406.0
 31
0.0
1001
HANOK_A3
1000
{"kind":"dim","detail":null,"view":"assembly"}
  0
LINE
  5
149
330
17
100
AcDbEntity
  8
DIMENSIONS
100
AcDbLine
 10
1342.0
 20
403.0
 30
0.0
 11
1343.5
 21
406.0
 31
0.0
1001
HANOK_A3
1000
{"kind":"dim","detail":null,"view":"assembly"}
  0
LINE
  5
14A
330
17
100
AcDbEntity
  8
DIMENSIONS
100
AcDbLine
 10
1342.0
 20
780.0
 30
0.0
 11
1340.5
 21
777.0
 31
0.0
1001
HANOK_A3
1000
{"kind":"dim","detail":null,"view":"assembly"}
  0
LINE
  5
14B
330
17
100
AcDbEntity
  8
DIMENSIONS
100
AcDbLine
 10
1342.0
 20
780.0
 30
0.0
 11
1343.5
 21
777.0
 31
0.0
1001
HANOK_A3
1000
{"kind":"dim","detail":null,"view":"assembly"}
  0
TEXT
  5
14C
330
17
100
AcDbEntity
  8
DIMENSIONS
100
AcDbText
 10
1346.0
 20
591.5
 30
0.0
 40
3.6
  1
377 SASH
 50
90.0
 72
1
 11
1346.0
 21
591.5
 31
0.0
100
AcDbText
 73
2
1001
HANOK_A3
1000
{"text_align":"center","kind":"dim","detail":null,"view":"assembly"}
  0
LINE
  5
14D
330
17
100
AcDbEntity
  8
DIMENSIONS
100
AcDbLine
 10
1443.0
 20
750.0
 30
0.0
 11
1443.0
 21
805.0
 31
0.0
1001
HANOK_A3
1000
{"kind":"dim","detail":null,"view":"assembly"}
  0
LINE
  5
14E
330
17
100
AcDbEntity
  8
DIMENSIONS
100
AcDbLine
 10
1883.0
 20
750.0
 30
0.0
 11
1883.0
 21
805.0
 31
0.0
1001
HANOK_A3
1000
{"kind":"dim","detail":null,"view":"assembly"}
  0
LINE
  5
14F
330
17
100
AcDbEntity
  8
DIMENSIONS
100
AcDbLine
 10
1443.0
 20
803.0
 30
0.0
 11
1883.0
 21
803.0
 31
0.0
1001
HANOK_A3
1000
{"kind":"dim","detail":null,"view":"assembly"}
  0
LINE
  5
150
330
17
100
AcDbEntity
  8
DIMENSIONS
100
AcDbLine
 10
1443.0
 20
803.0
 30
0.0
 11
1446.0
 21
804.5
 31
0.0
1001
HANOK_A3
1000
{"kind":"dim","detail":null,"view":"assembly"}
  0
LINE
  5
151
330
17
100
AcDbEntity
  8
DIMENSIONS
100
AcDbLine
 10
1443.0
 20
803.0
 30
0.0
 11
1446.0
 21
801.5
 31
0.0
1001
HANOK_A3
1000
{"kind":"dim","detail":null,"view":"assembly"}
  0
LINE
  5
152
330
17
100
AcDbEntity
  8
DIMENSIONS
100
AcDbLine
 10
1883.0
 20
803.0
 30
0.0
 11
1880.0
 21
804.5
 31
0.0
1001
HANOK_A3
1000
{"kind":"dim","detail":null,"view":"assembly"}
  0
LINE
  5
153
330
17
100
AcDbEntity
  8
DIMENSIONS
100
AcDbLine
 10
1883.0
 20
803.0
 30
0.0
 11
1880.0
 21
801.5
 31
0.0
1001
HANOK_A3
1000
{"kind":"dim","detail":null,"view":"assembly"}
  0
TEXT
  5
154
330
17
100
AcDbEntity
  8
DIMENSIONS
100
AcDbText
 10
1663.0
 20
807.0
 30
0.0
 40
3.6
  1
440 OPENING
 72
1
 11
1663.0
 21
807.0
 31
0.0
100
AcDbText
 73
2
1001
HANOK_A3
1000
{"text_align":"center","kind":"dim","detail":null,"view":"assembly"}
  0
LINE
  5
155
330
17
100
AcDbEntity
  8
DIMENSIONS
100
AcDbLine
 10
1883.0
 20
433.0
 30
0.0
 11
1940.0
 21
433.0
 31
0.0
1001
HANOK_A3
1000
{"kind":"dim","detail":null,"view":"assembly"}
  0
LINE
  5
156
330
17
100
AcDbEntity
  8
DIMENSIONS
100
AcDbLine
 10
1883.0
 20
750.0
 30
0.0
 11
1940.0
 21
750.0
 31
0.0
1001
HANOK_A3
1000
{"kind":"dim","detail":null,"view":"assembly"}
  0
LINE
  5
157
330
17
100
AcDbEntity
  8
DIMENSIONS
100
AcDbLine
 10
1938.0
 20
433.0
 30
0.0
 11
1938.0
 21
750.0
 31
0.0
1001
HANOK_A3
1000
{"kind":"dim","detail":null,"view":"assembly"}
  0
LINE
  5
158
330
17
100
AcDbEntity
  8
DIMENSIONS
100
AcDbLine
 10
1938.0
 20
433.0
 30
0.0
 11
1936.5
 21
436.0
 31
0.0
1001
HANOK_A3
1000
{"kind":"dim","detail":null,"view":"assembly"}
  0
LINE
  5
159
330
17
100
AcDbEntity
  8
DIMENSIONS
100
AcDbLine
 10
1938.0
 20
433.0
 30
0.0
 11
1939.5
 21
436.0
 31
0.0
1001
HANOK_A3
1000
{"kind":"dim","detail":null,"view":"assembly"}
  0
LINE
  5
15A
330
17
100
AcDbEntity
  8
DIMENSIONS
100
AcDbLine
 10
1938.0
 20
750.0
 30
0.0
 11
1936.5
 21
747.0
 31
0.0
1001
HANOK_A3
1000
{"kind":"dim","detail":null,"view":"assembly"}
  0
LINE
  5
15B
330
17
100
AcDbEntity
  8
DIMENSIONS
100
AcDbLine
 10
1938.0
 20
750.0
 30
0.0
 11
1939.5
 21
747.0
 31
0.0
1001
HANOK_A3
1000
{"kind":"dim","detail":null,"view":"assembly"}
  0
TEXT
  5
15C
330
17
100
AcDbEntity
  8
DIMENSIONS
100
AcDbText
 10
1942.0
 20
591.5
 30
0.0
 40
3.6
  1
317 OPENING
 50
90.0
 72
1
 11
1942.0
 21
591.5
 31
0.0
100
AcDbText
 73
2
1001
HANOK_A3
1000
{"text_align":"center","kind":"dim","detail":null,"view":"assembly"}
  0
TEXT
  5
15D
330
17
100
AcDbEntity
  8
ASSEMBLY_REFERENCE
100
AcDbText
 10
1663.0
 20
461.0
 30
0.0
 40
6.0
  1
A3 420 x 297
 72
1
 11
1663.0
 21
461.0
 31
0.0
100
AcDbText
 73
2
1001
HANOK_A3
1000
{"text_align":"center","kind":"assembly_label","role":"picture_label","view":"assembly"}
  0
TEXT
  5
15E
330
17
100
AcDbEntity
  8
ASSEMBLY_REFERENCE
100
AcDbText
 10
1663.0
 20
812.0
 30
0.0
 40
4.2
  1
F02-2
 72
1
 11
1663.0
 21
812.0
 31
0.0
100
AcDbText
 73
2
1001
HANOK_A3
1000
{"text_align":"center","view":"assembly"}
  0
TEXT
  5
15F
330
17
100
AcDbEntity
  8
ASSEMBLY_REFERENCE
100
AcDbText
 10
1663.0
 20
374.0
 30
0.0
 40
4.2
  1
F02-1
 72
1
 11
1663.0
 21
374.0
 31
0.0
100
AcDbText
 73
2
1001
HANOK_A3
1000
{"text_align":"center","view":"assembly"}
  0
TEXT
  5
160
330
17
100
AcDbEntity
  8
ASSEMBLY_REFERENCE
100
AcDbText
 10
1663.0
 20
765.0
 30
0.0
 40
4.2
  1
S02-2
 72
1
 11
1663.0
 21
765.0
 31
0.0
100
AcDbText
 73
2
1001
HANOK_A3
1000
{"text_align":"center","view":"assembly"}
  0
TEXT
  5
161
330
17
100
AcDbEntity
  8
ASSEMBLY_REFERENCE
100
AcDbText
 10
1663.0
 20
418.0
 30
0.0
 40
4.2
  1
S02-1
 72
1
 11
1663.0
 21
418.0
 31
0.0
100
AcDbText
 73
2
1001
HANOK_A3
1000
{"text_align":"center","view":"assembly"}
  0
TEXT
  5
162
330
17
100
AcDbEntity
  8
NOTES
100
AcDbText
 10
1663.0
 20
322.0
 30
0.0
 40
5.0
  1
3 mm clearance on all four sides
 72
1
 11
1663.0
 21
322.0
 31
0.0
100
AcDbText
 73
2
1001
HANOK_A3
1000
{"text_align":"center","view":"assembly"}
  0
TEXT
  5
163
330
17
100
AcDbEntity
  8
NOTES
100
AcDbText
 10
1663.0
 20
307.0
 30
0.0
 40
4.2
  1
5 vertical + 4 horizontal bars / 20 crossings / 30 equal clear cells: 65 x 55.4
 72
1
 11
1663.0
 21
307.0
 31
0.0
100
AcDbText
 73
2
1001
HANOK_A3
1000
{"text_align":"center","view":"assembly"}
  0
LWPOLYLINE
  5
164
330
17
100
AcDbEntity
  8
NOTES
100
AcDbPolyline
 90
4
 70
1
 10
1320.0
 20
100.0
 10
1560.0
 20
100.0
 10
1560.0
 20
290.0
 10
1320.0
 20
290.0
1001
HANOK_A3
1000
{"kind":"detail_border","detail":"J1","view":"detail"}
  0
TEXT
  5
165
330
17
100
AcDbEntity
  8
NOTES
100
AcDbText
 10
1330.0
 20
278.0
 30
0.0
 40
7.0
  1
J1  FIXED FRAME HALF-LAP
 11
1330.0
 21
278.0
 31
0.0
100
AcDbText
 73
2
1001
HANOK_A3
1000
{"text_align":"left","detail":"J1","view":"detail"}
  0
TEXT
  5
166
330
17
100
AcDbEntity
  8
NOTES
100
AcDbText
 10
1330.0
 20
264.0
 30
0.0
 40
4.7
  1
40 x 40 pocket / depth 10 / stock 20
 11
1330.0
 21
264.0
 31
0.0
100
AcDbText
 73
2
1001
HANOK_A3
1000
{"text_align":"left","detail":"J1","view":"detail"}
  0
TEXT
  5
167
330
17
100
AcDbEntity
  8
NOTES
100
AcDbText
 10
1335.0
 20
248.0
 30
0.0
 40
4.0
  1
F01 / A -> FRONT
 11
1335.0
 21
248.0
 31
0.0
100
AcDbText
 73
2
1001
HANOK_A3
1000
{"text_align":"left","detail":"J1","view":"detail"}
  0
TEXT
  5
168
330
17
100
AcDbEntity
  8
NOTES
100
AcDbText
 10
1455.0
 20
248.0
 30
0.0
 40
3.6
  1
F02 / A -> BACK (flip)
 11
1455.0
 21
248.0
 31
0.0
100
AcDbText
 73
2
1001
HANOK_A3
1000
{"text_align":"left","detail":"J1","view":"detail"}
  0
LWPOLYLINE
  5
169
330
17
100
AcDbEntity
  8
ASSEMBLY_REFERENCE
100
AcDbPolyline
 90
4
 70
1
 10
1335.0
 20
197.0
 10
1415.0
 20
197.0
 10
1415.0
 20
237.0
 10
1335.0
 20
237.0
1001
HANOK_A3
1000
{"role":"body","detail":"J1","view":"detail"}
  0
LWPOLYLINE
  5
16A
330
17
100
AcDbEntity
  8
ASSEMBLY_REFERENCE
100
AcDbPolyline
 90
4
 70
1
 10
1455.0
 20
197.0
 10
1535.0
 20
197.0
 10
1535.0
 20
237.0
 10
1455.0
 20
237.0
1001
HANOK_A3
1000
{"role":"body","detail":"J1","view":"detail"}
  0
LWPOLYLINE
  5
16B
330
17
100
AcDbEntity
  8
ASSEMBLY_REFERENCE
100
AcDbPolyline
 90
4
 70
1
 10
1335.0
 20
197.0
 10
1375.0
 20
197.0
 10
1375.0
 20
237.0
 10
1335.0
 20
237.0
1001
HANOK_A3
1000
{"role":"pocket","detail":"J1","view":"detail"}
  0
LWPOLYLINE
  5
16C
330
17
100
AcDbEntity
  8
ASSEMBLY_REFERENCE
100
AcDbPolyline
 90
4
 70
1
 10
1455.0
 20
197.0
 10
1495.0
 20
197.0
 10
1495.0
 20
237.0
 10
1455.0
 20
237.0
1001
HANOK_A3
1000
{"role":"pocket","detail":"J1","view":"detail"}
  0
LINE
  5
16D
330
17
100
AcDbEntity
  8
DIMENSIONS
100
AcDbLine
 10
1335.0
 20
197.0
 30
0.0
 11
1335.0
 21
186.0
 31
0.0
1001
HANOK_A3
1000
{"kind":"dim","detail":"J1","view":null}
  0
LINE
  5
16E
330
17
100
AcDbEntity
  8
DIMENSIONS
100
AcDbLine
 10
1375.0
 20
197.0
 30
0.0
 11
1375.0
 21
186.0
 31
0.0
1001
HANOK_A3
1000
{"kind":"dim","detail":"J1","view":null}
  0
LINE
  5
16F
330
17
100
AcDbEntity
  8
DIMENSIONS
100
AcDbLine
 10
1335.0
 20
188.0
 30
0.0
 11
1375.0
 21
188.0
 31
0.0
1001
HANOK_A3
1000
{"kind":"dim","detail":"J1","view":null}
  0
LINE
  5
170
330
17
100
AcDbEntity
  8
DIMENSIONS
100
AcDbLine
 10
1335.0
 20
188.0
 30
0.0
 11
1338.0
 21
189.5
 31
0.0
1001
HANOK_A3
1000
{"kind":"dim","detail":"J1","view":null}
  0
LINE
  5
171
330
17
100
AcDbEntity
  8
DIMENSIONS
100
AcDbLine
 10
1335.0
 20
188.0
 30
0.0
 11
1338.0
 21
186.5
 31
0.0
1001
HANOK_A3
1000
{"kind":"dim","detail":"J1","view":null}
  0
LINE
  5
172
330
17
100
AcDbEntity
  8
DIMENSIONS
100
AcDbLine
 10
1375.0
 20
188.0
 30
0.0
 11
1372.0
 21
189.5
 31
0.0
1001
HANOK_A3
1000
{"kind":"dim","detail":"J1","view":null}
  0
LINE
  5
173
330
17
100
AcDbEntity
  8
DIMENSIONS
100
AcDbLine
 10
1375.0
 20
188.0
 30
0.0
 11
1372.0
 21
186.5
 31
0.0
1001
HANOK_A3
1000
{"kind":"dim","detail":"J1","view":null}
  0
TEXT
  5
174
330
17
100
AcDbEntity
  8
DIMENSIONS
100
AcDbText
 10
1355.0
 20
192.0
 30
0.0
 40
3.6
  1
40
 72
1
 11
1355.0
 21
192.0
 31
0.0
100
AcDbText
 73
2
1001
HANOK_A3
1000
{"text_align":"center","kind":"dim","detail":"J1","view":null}
  0
LINE
  5
175
330
17
100
AcDbEntity
  8
DIMENSIONS
100
AcDbLine
 10
1415.0
 20
197.0
 30
0.0
 11
1426.0
 21
197.0
 31
0.0
1001
HANOK_A3
1000
{"kind":"dim","detail":"J1","view":null}
  0
LINE
  5
176
330
17
100
AcDbEntity
  8
DIMENSIONS
100
AcDbLine
 10
1415.0
 20
237.0
 30
0.0
 11
1426.0
 21
237.0
 31
0.0
1001
HANOK_A3
1000
{"kind":"dim","detail":"J1","view":null}
  0
LINE
  5
177
330
17
100
AcDbEntity
  8
DIMENSIONS
100
AcDbLine
 10
1424.0
 20
197.0
 30
0.0
 11
1424.0
 21
237.0
 31
0.0
1001
HANOK_A3
1000
{"kind":"dim","detail":"J1","view":null}
  0
LINE
  5
178
330
17
100
AcDbEntity
  8
DIMENSIONS
100
AcDbLine
 10
1424.0
 20
197.0
 30
0.0
 11
1422.5
 21
200.0
 31
0.0
1001
HANOK_A3
1000
{"kind":"dim","detail":"J1","view":null}
  0
LINE
  5
179
330
17
100
AcDbEntity
  8
DIMENSIONS
100
AcDbLine
 10
1424.0
 20
197.0
 30
0.0
 11
1425.5
 21
200.0
 31
0.0
1001
HANOK_A3
1000
{"kind":"dim","detail":"J1","view":null}
  0
LINE
  5
17A
330
17
100
AcDbEntity
  8
DIMENSIONS
100
AcDbLine
 10
1424.0
 20
237.0
 30
0.0
 11
1422.5
 21
234.0
 31
0.0
1001
HANOK_A3
1000
{"kind":"dim","detail":"J1","view":null}
  0
LINE
  5
17B
330
17
100
AcDbEntity
  8
DIMENSIONS
100
AcDbLine
 10
1424.0
 20
237.0
 30
0.0
 11
1425.5
 21
234.0
 31
0.0
1001
HANOK_A3
1000
{"kind":"dim","detail":"J1","view":null}
  0
TEXT
  5
17C
330
17
100
AcDbEntity
  8
DIMENSIONS
100
AcDbText
 10
1428.0
 20
217.0
 30
0.0
 40
3.6
  1
40
 50
90.0
 72
1
 11
1428.0
 21
217.0
 31
0.0
100
AcDbText
 73
2
1001
HANOK_A3
1000
{"text_align":"center","kind":"dim","detail":"J1","view":null}
  0
LINE
  5
17D
330
17
100
AcDbEntity
  8
DIMENSIONS
100
AcDbLine
 10
1455.0
 20
197.0
 30
0.0
 11
1455.0
 21
186.0
 31
0.0
1001
HANOK_A3
1000
{"kind":"dim","detail":"J1","view":null}
  0
LINE
  5
17E
330
17
100
AcDbEntity
  8
DIMENSIONS
100
AcDbLine
 10
1495.0
 20
197.0
 30
0.0
 11
1495.0
 21
186.0
 31
0.0
1001
HANOK_A3
1000
{"kind":"dim","detail":"J1","view":null}
  0
LINE
  5
17F
330
17
100
AcDbEntity
  8
DIMENSIONS
100
AcDbLine
 10
1455.0
 20
188.0
 30
0.0
 11
1495.0
 21
188.0
 31
0.0
1001
HANOK_A3
1000
{"kind":"dim","detail":"J1","view":null}
  0
LINE
  5
180
330
17
100
AcDbEntity
  8
DIMENSIONS
100
AcDbLine
 10
1455.0
 20
188.0
 30
0.0
 11
1458.0
 21
189.5
 31
0.0
1001
HANOK_A3
1000
{"kind":"dim","detail":"J1","view":null}
  0
LINE
  5
181
330
17
100
AcDbEntity
  8
DIMENSIONS
100
AcDbLine
 10
1455.0
 20
188.0
 30
0.0
 11
1458.0
 21
186.5
 31
0.0
1001
HANOK_A3
1000
{"kind":"dim","detail":"J1","view":null}
  0
LINE
  5
182
330
17
100
AcDbEntity
  8
DIMENSIONS
100
AcDbLine
 10
1495.0
 20
188.0
 30
0.0
 11
1492.0
 21
189.5
 31
0.0
1001
HANOK_A3
1000
{"kind":"dim","detail":"J1","view":null}
  0
LINE
  5
183
330
17
100
AcDbEntity
  8
DIMENSIONS
100
AcDbLine
 10
1495.0
 20
188.0
 30
0.0
 11
1492.0
 21
186.5
 31
0.0
1001
HANOK_A3
1000
{"kind":"dim","detail":"J1","view":null}
  0
TEXT
  5
184
330
17
100
AcDbEntity
  8
DIMENSIONS
100
AcDbText
 10
1475.0
 20
192.0
 30
0.0
 40
3.6
  1
40
 72
1
 11
1475.0
 21
192.0
 31
0.0
100
AcDbText
 73
2
1001
HANOK_A3
1000
{"text_align":"center","kind":"dim","detail":"J1","view":null}
  0
LWPOLYLINE
  5
185
330
17
100
AcDbEntity
  8
ASSEMBLY_REFERENCE
100
AcDbPolyline
 90
6
 70
1
 10
1390.0
 20
136.0
 10
1450.0
 20
136.0
 10
1450.0
 20
146.0
 10
1410.0
 20
146.0
 10
1410.0
 20
156.0
 10
1390.0
 20
156.0
1001
HANOK_A3
1000
{"role":"section_back","detail":"J1","view":"detail"}
  0
LWPOLYLINE
  5
186
330
17
100
AcDbEntity
  8
ASSEMBLY_REFERENCE
100
AcDbPolyline
 90
6
 70
1
 10
1410.0
 20
146.0
 10
1450.0
 20
146.0
 10
1450.0
 20
136.0
 10
1470.0
 20
136.0
 10
1470.0
 20
156.0
 10
1410.0
 20
156.0
1001
HANOK_A3
1000
{"role":"section_front","detail":"J1","view":"detail"}
  0
LINE
  5
187
330
17
100
AcDbEntity
  8
DIMENSIONS
100
AcDbLine
 10
1470.0
 20
136.0
 30
0.0
 11
1482.0
 21
136.0
 31
0.0
1001
HANOK_A3
1000
{"kind":"dim","detail":"J1","view":null}
  0
LINE
  5
188
330
17
100
AcDbEntity
  8
DIMENSIONS
100
AcDbLine
 10
1470.0
 20
156.0
 30
0.0
 11
1482.0
 21
156.0
 31
0.0
1001
HANOK_A3
1000
{"kind":"dim","detail":"J1","view":null}
  0
LINE
  5
189
330
17
100
AcDbEntity
  8
DIMENSIONS
100
AcDbLine
 10
1480.0
 20
136.0
 30
0.0
 11
1480.0
 21
156.0
 31
0.0
1001
HANOK_A3
1000
{"kind":"dim","detail":"J1","view":null}
  0
LINE
  5
18A
330
17
100
AcDbEntity
  8
DIMENSIONS
100
AcDbLine
 10
1480.0
 20
136.0
 30
0.0
 11
1478.5
 21
139.0
 31
0.0
1001
HANOK_A3
1000
{"kind":"dim","detail":"J1","view":null}
  0
LINE
  5
18B
330
17
100
AcDbEntity
  8
DIMENSIONS
100
AcDbLine
 10
1480.0
 20
136.0
 30
0.0
 11
1481.5
 21
139.0
 31
0.0
1001
HANOK_A3
1000
{"kind":"dim","detail":"J1","view":null}
  0
LINE
  5
18C
330
17
100
AcDbEntity
  8
DIMENSIONS
100
AcDbLine
 10
1480.0
 20
156.0
 30
0.0
 11
1478.5
 21
153.0
 31
0.0
1001
HANOK_A3
1000
{"kind":"dim","detail":"J1","view":null}
  0
LINE
  5
18D
330
17
100
AcDbEntity
  8
DIMENSIONS
100
AcDbLine
 10
1480.0
 20
156.0
 30
0.0
 11
1481.5
 21
153.0
 31
0.0
1001
HANOK_A3
1000
{"kind":"dim","detail":"J1","view":null}
  0
TEXT
  5
18E
330
17
100
AcDbEntity
  8
DIMENSIONS
100
AcDbText
 10
1484.0
 20
146.0
 30
0.0
 40
3.6
  1
20
 50
90.0
 72
1
 11
1484.0
 21
146.0
 31
0.0
100
AcDbText
 73
2
1001
HANOK_A3
1000
{"text_align":"center","kind":"dim","detail":"J1","view":null}
  0
LINE
  5
18F
330
17
100
AcDbEntity
  8
DIMENSIONS
100
AcDbLine
 10
1450.0
 20
146.0
 30
0.0
 11
1498.0
 21
146.0
 31
0.0
1001
HANOK_A3
1000
{"kind":"dim","detail":"J1","view":null}
  0
LINE
  5
190
330
17
100
AcDbEntity
  8
DIMENSIONS
100
AcDbLine
 10
1450.0
 20
156.0
 30
0.0
 11
1498.0
 21
156.0
 31
0.0
1001
HANOK_A3
1000
{"kind":"dim","detail":"J1","view":null}
  0
LINE
  5
191
330
17
100
AcDbEntity
  8
DIMENSIONS
100
AcDbLine
 10
1496.0
 20
146.0
 30
0.0
 11
1496.0
 21
156.0
 31
0.0
1001
HANOK_A3
1000
{"kind":"dim","detail":"J1","view":null}
  0
LINE
  5
192
330
17
100
AcDbEntity
  8
DIMENSIONS
100
AcDbLine
 10
1496.0
 20
146.0
 30
0.0
 11
1495.0
 21
148.0
 31
0.0
1001
HANOK_A3
1000
{"kind":"dim","detail":"J1","view":null}
  0
LINE
  5
193
330
17
100
AcDbEntity
  8
DIMENSIONS
100
AcDbLine
 10
1496.0
 20
146.0
 30
0.0
 11
1497.0
 21
148.0
 31
0.0
1001
HANOK_A3
1000
{"kind":"dim","detail":"J1","view":null}
  0
LINE
  5
194
330
17
100
AcDbEntity
  8
DIMENSIONS
100
AcDbLine
 10
1496.0
 20
156.0
 30
0.0
 11
1495.0
 21
154.0
 31
0.0
1001
HANOK_A3
1000
{"kind":"dim","detail":"J1","view":null}
  0
LINE
  5
195
330
17
100
AcDbEntity
  8
DIMENSIONS
100
AcDbLine
 10
1496.0
 20
156.0
 30
0.0
 11
1497.0
 21
154.0
 31
0.0
1001
HANOK_A3
1000
{"kind":"dim","detail":"J1","view":null}
  0
TEXT
  5
196
330
17
100
AcDbEntity
  8
DIMENSIONS
100
AcDbText
 10
1500.0
 20
151.0
 30
0.0
 40
3.6
  1
10 depth
 50
90.0
 72
1
 11
1500.0
 21
151.0
 31
0.0
100
AcDbText
 73
2
1001
HANOK_A3
1000
{"text_align":"center","kind":"dim","detail":"J1","view":null}
  0
TEXT
  5
197
330
17
100
AcDbEntity
  8
NOTES
100
AcDbText
 10
1335.0
 20
169.0
 30
0.0
 40
4.0
  1
ASSEMBLED SECTION - complementary faces
 11
1335.0
 21
169.0
 31
0.0
100
AcDbText
 73
2
1001
HANOK_A3
1000
{"text_align":"left","detail":"J1","view":"detail"}
  0
TEXT
  5
198
330
17
100
AcDbEntity
  8
NOTES
100
AcDbText
 10
1330.0
 20
118.0
 30
0.0
 40
3.3
  1
Local end regions only; open edges need cutter overrun in CAM.
 11
1330.0
 21
118.0
 31
0.0
100
AcDbText
 73
2
1001
HANOK_A3
1000
{"text_align":"left","detail":"J1","view":"detail"}
  0
TEXT
  5
199
330
17
100
AcDbEntity
  8
NOTES
100
AcDbText
 10
1330.0
 20
107.0
 30
0.0
 40
3.2
  1
REFERENCE ONLY / DXF 1:1 / PNG enlarged
 11
1330.0
 21
107.0
 31
0.0
100
AcDbText
 73
2
1001
HANOK_A3
1000
{"text_align":"left","detail":"J1","view":"detail"}
  0
LWPOLYLINE
  5
19A
330
17
100
AcDbEntity
  8
NOTES
100
AcDbPolyline
 90
4
 70
1
 10
1580.0
 20
100.0
 10
1820.0
 20
100.0
 10
1820.0
 20
290.0
 10
1580.0
 20
290.0
1001
HANOK_A3
1000
{"kind":"detail_border","detail":"J2","view":"detail"}
  0
TEXT
  5
19B
330
17
100
AcDbEntity
  8
NOTES
100
AcDbText
 10
1590.0
 20
278.0
 30
0.0
 40
7.0
  1
J2  SASH HALF-LAP
 11
1590.0
 21
278.0
 31
0.0
100
AcDbText
 73
2
1001
HANOK_A3
1000
{"text_align":"left","detail":"J2","view":"detail"}
  0
TEXT
  5
19C
330
17
100
AcDbEntity
  8
NOTES
100
AcDbText
 10
1590.0
 20
264.0
 30
0.0
 40
4.7
  1
30 x 30 pocket / depth 10 / stock 20
 11
1590.0
 21
264.0
 31
0.0
100
AcDbText
 73
2
1001
HANOK_A3
1000
{"text_align":"left","detail":"J2","view":"detail"}
  0
TEXT
  5
19D
330
17
100
AcDbEntity
  8
NOTES
100
AcDbText
 10
1595.0
 20
248.0
 30
0.0
 40
4.0
  1
S01 / A -> FRONT
 11
1595.0
 21
248.0
 31
0.0
100
AcDbText
 73
2
1001
HANOK_A3
1000
{"text_align":"left","detail":"J2","view":"detail"}
  0
TEXT
  5
19E
330
17
100
AcDbEntity
  8
NOTES
100
AcDbText
 10
1715.0
 20
248.0
 30
0.0
 40
3.6
  1
S02 / A -> BACK (flip)
 11
1715.0
 21
248.0
 31
0.0
100
AcDbText
 73
2
1001
HANOK_A3
1000
{"text_align":"left","detail":"J2","view":"detail"}
  0
LWPOLYLINE
  5
19F
330
17
100
AcDbEntity
  8
ASSEMBLY_REFERENCE
100
AcDbPolyline
 90
4
 70
1
 10
1595.0
 20
207.0
 10
1675.0
 20
207.0
 10
1675.0
 20
237.0
 10
1595.0
 20
237.0
1001
HANOK_A3
1000
{"role":"body","detail":"J2","view":"detail"}
  0
LWPOLYLINE
  5
1A0
330
17
100
AcDbEntity
  8
ASSEMBLY_REFERENCE
100
AcDbPolyline
 90
4
 70
1
 10
1715.0
 20
207.0
 10
1795.0
 20
207.0
 10
1795.0
 20
237.0
 10
1715.0
 20
237.0
1001
HANOK_A3
1000
{"role":"body","detail":"J2","view":"detail"}
  0
LWPOLYLINE
  5
1A1
330
17
100
AcDbEntity
  8
ASSEMBLY_REFERENCE
100
AcDbPolyline
 90
4
 70
1
 10
1595.0
 20
207.0
 10
1625.0
 20
207.0
 10
1625.0
 20
237.0
 10
1595.0
 20
237.0
1001
HANOK_A3
1000
{"role":"pocket","detail":"J2","view":"detail"}
  0
LWPOLYLINE
  5
1A2
330
17
100
AcDbEntity
  8
ASSEMBLY_REFERENCE
100
AcDbPolyline
 90
4
 70
1
 10
1715.0
 20
207.0
 10
1745.0
 20
207.0
 10
1745.0
 20
237.0
 10
1715.0
 20
237.0
1001
HANOK_A3
1000
{"role":"pocket","detail":"J2","view":"detail"}
  0
LINE
  5
1A3
330
17
100
AcDbEntity
  8
DIMENSIONS
100
AcDbLine
 10
1595.0
 20
207.0
 30
0.0
 11
1595.0
 21
196.0
 31
0.0
1001
HANOK_A3
1000
{"kind":"dim","detail":"J2","view":null}
  0
LINE
  5
1A4
330
17
100
AcDbEntity
  8
DIMENSIONS
100
AcDbLine
 10
1625.0
 20
207.0
 30
0.0
 11
1625.0
 21
196.0
 31
0.0
1001
HANOK_A3
1000
{"kind":"dim","detail":"J2","view":null}
  0
LINE
  5
1A5
330
17
100
AcDbEntity
  8
DIMENSIONS
100
AcDbLine
 10
1595.0
 20
198.0
 30
0.0
 11
1625.0
 21
198.0
 31
0.0
1001
HANOK_A3
1000
{"kind":"dim","detail":"J2","view":null}
  0
LINE
  5
1A6
330
17
100
AcDbEntity
  8
DIMENSIONS
100
AcDbLine
 10
1595.0
 20
198.0
 30
0.0
 11
1598.0
 21
199.5
 31
0.0
1001
HANOK_A3
1000
{"kind":"dim","detail":"J2","view":null}
  0
LINE
  5
1A7
330
17
100
AcDbEntity
  8
DIMENSIONS
100
AcDbLine
 10
1595.0
 20
198.0
 30
0.0
 11
1598.0
 21
196.5
 31
0.0
1001
HANOK_A3
1000
{"kind":"dim","detail":"J2","view":null}
  0
LINE
  5
1A8
330
17
100
AcDbEntity
  8
DIMENSIONS
100
AcDbLine
 10
1625.0
 20
198.0
 30
0.0
 11
1622.0
 21
199.5
 31
0.0
1001
HANOK_A3
1000
{"kind":"dim","detail":"J2","view":null}
  0
LINE
  5
1A9
330
17
100
AcDbEntity
  8
DIMENSIONS
100
AcDbLine
 10
1625.0
 20
198.0
 30
0.0
 11
1622.0
 21
196.5
 31
0.0
1001
HANOK_A3
1000
{"kind":"dim","detail":"J2","view":null}
  0
TEXT
  5
1AA
330
17
100
AcDbEntity
  8
DIMENSIONS
100
AcDbText
 10
1610.0
 20
202.0
 30
0.0
 40
3.6
  1
30
 72
1
 11
1610.0
 21
202.0
 31
0.0
100
AcDbText
 73
2
1001
HANOK_A3
1000
{"text_align":"center","kind":"dim","detail":"J2","view":null}
  0
LINE
  5
1AB
330
17
100
AcDbEntity
  8
DIMENSIONS
100
AcDbLine
 10
1675.0
 20
207.0
 30
0.0
 11
1686.0
 21
207.0
 31
0.0
1001
HANOK_A3
1000
{"kind":"dim","detail":"J2","view":null}
  0
LINE
  5
1AC
330
17
100
AcDbEntity
  8
DIMENSIONS
100
AcDbLine
 10
1675.0
 20
237.0
 30
0.0
 11
1686.0
 21
237.0
 31
0.0
1001
HANOK_A3
1000
{"kind":"dim","detail":"J2","view":null}
  0
LINE
  5
1AD
330
17
100
AcDbEntity
  8
DIMENSIONS
100
AcDbLine
 10
1684.0
 20
207.0
 30
0.0
 11
1684.0
 21
237.0
 31
0.0
1001
HANOK_A3
1000
{"kind":"dim","detail":"J2","view":null}
  0
LINE
  5
1AE
330
17
100
AcDbEntity
  8
DIMENSIONS
100
AcDbLine
 10
1684.0
 20
207.0
 30
0.0
 11
1682.5
 21
210.0
 31
0.0
1001
HANOK_A3
1000
{"kind":"dim","detail":"J2","view":null}
  0
LINE
  5
1AF
330
17
100
AcDbEntity
  8
DIMENSIONS
100
AcDbLine
 10
1684.0
 20
207.0
 30
0.0
 11
1685.5
 21
210.0
 31
0.0
1001
HANOK_A3
1000
{"kind":"dim","detail":"J2","view":null}
  0
LINE
  5
1B0
330
17
100
AcDbEntity
  8
DIMENSIONS
100
AcDbLine
 10
1684.0
 20
237.0
 30
0.0
 11
1682.5
 21
234.0
 31
0.0
1001
HANOK_A3
1000
{"kind":"dim","detail":"J2","view":null}
  0
LINE
  5
1B1
330
17
100
AcDbEntity
  8
DIMENSIONS
100
AcDbLine
 10
1684.0
 20
237.0
 30
0.0
 11
1685.5
 21
234.0
 31
0.0
1001
HANOK_A3
1000
{"kind":"dim","detail":"J2","view":null}
  0
TEXT
  5
1B2
330
17
100
AcDbEntity
  8
DIMENSIONS
100
AcDbText
 10
1688.0
 20
222.0
 30
0.0
 40
3.6
  1
30
 50
90.0
 72
1
 11
1688.0
 21
222.0
 31
0.0
100
AcDbText
 73
2
1001
HANOK_A3
1000
{"text_align":"center","kind":"dim","detail":"J2","view":null}
  0
LINE
  5
1B3
330
17
100
AcDbEntity
  8
DIMENSIONS
100
AcDbLine
 10
1715.0
 20
207.0
 30
0.0
 11
1715.0
 21
196.0
 31
0.0
1001
HANOK_A3
1000
{"kind":"dim","detail":"J2","view":null}
  0
LINE
  5
1B4
330
17
100
AcDbEntity
  8
DIMENSIONS
100
AcDbLine
 10
1745.0
 20
207.0
 30
0.0
 11
1745.0
 21
196.0
 31
0.0
1001
HANOK_A3
1000
{"kind":"dim","detail":"J2","view":null}
  0
LINE
  5
1B5
330
17
100
AcDbEntity
  8
DIMENSIONS
100
AcDbLine
 10
1715.0
 20
198.0
 30
0.0
 11
1745.0
 21
198.0
 31
0.0
1001
HANOK_A3
1000
{"kind":"dim","detail":"J2","view":null}
  0
LINE
  5
1B6
330
17
100
AcDbEntity
  8
DIMENSIONS
100
AcDbLine
 10
1715.0
 20
198.0
 30
0.0
 11
1718.0
 21
199.5
 31
0.0
1001
HANOK_A3
1000
{"kind":"dim","detail":"J2","view":null}
  0
LINE
  5
1B7
330
17
100
AcDbEntity
  8
DIMENSIONS
100
AcDbLine
 10
1715.0
 20
198.0
 30
0.0
 11
1718.0
 21
196.5
 31
0.0
1001
HANOK_A3
1000
{"kind":"dim","detail":"J2","view":null}
  0
LINE
  5
1B8
330
17
100
AcDbEntity
  8
DIMENSIONS
100
AcDbLine
 10
1745.0
 20
198.0
 30
0.0
 11
1742.0
 21
199.5
 31
0.0
1001
HANOK_A3
1000
{"kind":"dim","detail":"J2","view":null}
  0
LINE
  5
1B9
330
17
100
AcDbEntity
  8
DIMENSIONS
100
AcDbLine
 10
1745.0
 20
198.0
 30
0.0
 11
1742.0
 21
196.5
 31
0.0
1001
HANOK_A3
1000
{"kind":"dim","detail":"J2","view":null}
  0
TEXT
  5
1BA
330
17
100
AcDbEntity
  8
DIMENSIONS
100
AcDbText
 10
1730.0
 20
202.0
 30
0.0
 40
3.6
  1
30
 72
1
 11
1730.0
 21
202.0
 31
0.0
100
AcDbText
 73
2
1001
HANOK_A3
1000
{"text_align":"center","kind":"dim","detail":"J2","view":null}
  0
LWPOLYLINE
  5
1BB
330
17
100
AcDbEntity
  8
ASSEMBLY_REFERENCE
100
AcDbPolyline
 90
6
 70
1
 10
1650.0
 20
136.0
 10
1700.0
 20
136.0
 10
1700.0
 20
146.0
 10
1670.0
 20
146.0
 10
1670.0
 20
156.0
 10
1650.0
 20
156.0
1001
HANOK_A3
1000
{"role":"section_back","detail":"J2","view":"detail"}
  0
LWPOLYLINE
  5
1BC
330
17
100
AcDbEntity
  8
ASSEMBLY_REFERENCE
100
AcDbPolyline
 90
6
 70
1
 10
1670.0
 20
146.0
 10
1700.0
 20
146.0
 10
1700.0
 20
136.0
 10
1720.0
 20
136.0
 10
1720.0
 20
156.0
 10
1670.0
 20
156.0
1001
HANOK_A3
1000
{"role":"section_front","detail":"J2","view":"detail"}
  0
LINE
  5
1BD
330
17
100
AcDbEntity
  8
DIMENSIONS
100
AcDbLine
 10
1720.0
 20
136.0
 30
0.0
 11
1732.0
 21
136.0
 31
0.0
1001
HANOK_A3
1000
{"kind":"dim","detail":"J2","view":null}
  0
LINE
  5
1BE
330
17
100
AcDbEntity
  8
DIMENSIONS
100
AcDbLine
 10
1720.0
 20
156.0
 30
0.0
 11
1732.0
 21
156.0
 31
0.0
1001
HANOK_A3
1000
{"kind":"dim","detail":"J2","view":null}
  0
LINE
  5
1BF
330
17
100
AcDbEntity
  8
DIMENSIONS
100
AcDbLine
 10
1730.0
 20
136.0
 30
0.0
 11
1730.0
 21
156.0
 31
0.0
1001
HANOK_A3
1000
{"kind":"dim","detail":"J2","view":null}
  0
LINE
  5
1C0
330
17
100
AcDbEntity
  8
DIMENSIONS
100
AcDbLine
 10
1730.0
 20
136.0
 30
0.0
 11
1728.5
 21
139.0
 31
0.0
1001
HANOK_A3
1000
{"kind":"dim","detail":"J2","view":null}
  0
LINE
  5
1C1
330
17
100
AcDbEntity
  8
DIMENSIONS
100
AcDbLine
 10
1730.0
 20
136.0
 30
0.0
 11
1731.5
 21
139.0
 31
0.0
1001
HANOK_A3
1000
{"kind":"dim","detail":"J2","view":null}
  0
LINE
  5
1C2
330
17
100
AcDbEntity
  8
DIMENSIONS
100
AcDbLine
 10
1730.0
 20
156.0
 30
0.0
 11
1728.5
 21
153.0
 31
0.0
1001
HANOK_A3
1000
{"kind":"dim","detail":"J2","view":null}
  0
LINE
  5
1C3
330
17
100
AcDbEntity
  8
DIMENSIONS
100
AcDbLine
 10
1730.0
 20
156.0
 30
0.0
 11
1731.5
 21
153.0
 31
0.0
1001
HANOK_A3
1000
{"kind":"dim","detail":"J2","view":null}
  0
TEXT
  5
1C4
330
17
100
AcDbEntity
  8
DIMENSIONS
100
AcDbText
 10
1734.0
 20
146.0
 30
0.0
 40
3.6
  1
20
 50
90.0
 72
1
 11
1734.0
 21
146.0
 31
0.0
100
AcDbText
 73
2
1001
HANOK_A3
1000
{"text_align":"center","kind":"dim","detail":"J2","view":null}
  0
LINE
  5
1C5
330
17
100
AcDbEntity
  8
DIMENSIONS
100
AcDbLine
 10
1700.0
 20
146.0
 30
0.0
 11
1748.0
 21
146.0
 31
0.0
1001
HANOK_A3
1000
{"kind":"dim","detail":"J2","view":null}
  0
LINE
  5
1C6
330
17
100
AcDbEntity
  8
DIMENSIONS
100
AcDbLine
 10
1700.0
 20
156.0
 30
0.0
 11
1748.0
 21
156.0
 31
0.0
1001
HANOK_A3
1000
{"kind":"dim","detail":"J2","view":null}
  0
LINE
  5
1C7
330
17
100
AcDbEntity
  8
DIMENSIONS
100
AcDbLine
 10
1746.0
 20
146.0
 30
0.0
 11
1746.0
 21
156.0
 31
0.0
1001
HANOK_A3
1000
{"kind":"dim","detail":"J2","view":null}
  0
LINE
  5
1C8
330
17
100
AcDbEntity
  8
DIMENSIONS
100
AcDbLine
 10
1746.0
 20
146.0
 30
0.0
 11
1745.0
 21
148.0
 31
0.0
1001
HANOK_A3
1000
{"kind":"dim","detail":"J2","view":null}
  0
LINE
  5
1C9
330
17
100
AcDbEntity
  8
DIMENSIONS
100
AcDbLine
 10
1746.0
 20
146.0
 30
0.0
 11
1747.0
 21
148.0
 31
0.0
1001
HANOK_A3
1000
{"kind":"dim","detail":"J2","view":null}
  0
LINE
  5
1CA
330
17
100
AcDbEntity
  8
DIMENSIONS
100
AcDbLine
 10
1746.0
 20
156.0
 30
0.0
 11
1745.0
 21
154.0
 31
0.0
1001
HANOK_A3
1000
{"kind":"dim","detail":"J2","view":null}
  0
LINE
  5
1CB
330
17
100
AcDbEntity
  8
DIMENSIONS
100
AcDbLine
 10
1746.0
 20
156.0
 30
0.0
 11
1747.0
 21
154.0
 31
0.0
1001
HANOK_A3
1000
{"kind":"dim","detail":"J2","view":null}
  0
TEXT
  5
1CC
330
17
100
AcDbEntity
  8
DIMENSIONS
100
AcDbText
 10
1750.0
 20
151.0
 30
0.0
 40
3.6
  1
10 depth
 50
90.0
 72
1
 11
1750.0
 21
151.0
 31
0.0
100
AcDbText
 73
2
1001
HANOK_A3
1000
{"text_align":"center","kind":"dim","detail":"J2","view":null}
  0
TEXT
  5
1CD
330
17
100
AcDbEntity
  8
NOTES
100
AcDbText
 10
1595.0
 20
169.0
 30
0.0
 40
4.0
  1
ASSEMBLED SECTION - complementary faces
 11
1595.0
 21
169.0
 31
0.0
100
AcDbText
 73
2
1001
HANOK_A3
1000
{"text_align":"left","detail":"J2","view":"detail"}
  0
TEXT
  5
1CE
330
17
100
AcDbEntity
  8
NOTES
100
AcDbText
 10
1590.0
 20
118.0
 30
0.0
 40
3.3
  1
Local end regions only; open edges need cutter overrun in CAM.
 11
1590.0
 21
118.0
 31
0.0
100
AcDbText
 73
2
1001
HANOK_A3
1000
{"text_align":"left","detail":"J2","view":"detail"}
  0
TEXT
  5
1CF
330
17
100
AcDbEntity
  8
NOTES
100
AcDbText
 10
1590.0
 20
107.0
 30
0.0
 40
3.2
  1
REFERENCE ONLY / DXF 1:1 / PNG enlarged
 11
1590.0
 21
107.0
 31
0.0
100
AcDbText
 73
2
1001
HANOK_A3
1000
{"text_align":"left","detail":"J2","view":"detail"}
  0
LWPOLYLINE
  5
1D0
330
17
100
AcDbEntity
  8
NOTES
100
AcDbPolyline
 90
4
 70
1
 10
1320.0
 20
-110.0
 10
1560.0
 20
-110.0
 10
1560.0
 20
80.0
 10
1320.0
 20
80.0
1001
HANOK_A3
1000
{"kind":"detail_border","detail":"J3","view":"detail"}
  0
TEXT
  5
1D1
330
17
100
AcDbEntity
  8
NOTES
100
AcDbText
 10
1330.0
 20
68.0
 30
0.0
 40
7.0
  1
J3  LATTICE CROSSING HALF-LAP
 11
1330.0
 21
68.0
 31
0.0
100
AcDbText
 73
2
1001
HANOK_A3
1000
{"text_align":"left","detail":"J3","view":"detail"}
  0
TEXT
  5
1D2
330
17
100
AcDbEntity
  8
NOTES
100
AcDbText
 10
1330.0
 20
54.0
 30
0.0
 40
4.7
  1
10 x 10 pocket / depth 10 / stock 20
 11
1330.0
 21
54.0
 31
0.0
100
AcDbText
 73
2
1001
HANOK_A3
1000
{"text_align":"left","detail":"J3","view":"detail"}
  0
TEXT
  5
1D3
330
17
100
AcDbEntity
  8
NOTES
100
AcDbText
 10
1335.0
 20
38.0
 30
0.0
 40
4.0
  1
L01 / A -> FRONT
 11
1335.0
 21
38.0
 31
0.0
100
AcDbText
 73
2
1001
HANOK_A3
1000
{"text_align":"left","detail":"J3","view":"detail"}
  0
TEXT
  5
1D4
330
17
100
AcDbEntity
  8
NOTES
100
AcDbText
 10
1455.0
 20
38.0
 30
0.0
 40
3.7
  1
L02 / A -> BACK (flip)
 11
1455.0
 21
38.0
 31
0.0
100
AcDbText
 73
2
1001
HANOK_A3
1000
{"text_align":"left","detail":"J3","view":"detail"}
  0
LWPOLYLINE
  5
1D5
330
17
100
AcDbEntity
  8
ASSEMBLY_REFERENCE
100
AcDbPolyline
 90
4
 70
1
 10
1335.0
 20
15.0
 10
1415.0
 20
15.0
 10
1415.0
 20
25.0
 10
1335.0
 20
25.0
1001
HANOK_A3
1000
{"role":"body","detail":"J3","view":"detail"}
  0
LWPOLYLINE
  5
1D6
330
17
100
AcDbEntity
  8
ASSEMBLY_REFERENCE
100
AcDbPolyline
 90
4
 70
1
 10
1455.0
 20
15.0
 10
1535.0
 20
15.0
 10
1535.0
 20
25.0
 10
1455.0
 20
25.0
1001
HANOK_A3
1000
{"role":"body","detail":"J3","view":"detail"}
  0
LWPOLYLINE
  5
1D7
330
17
100
AcDbEntity
  8
ASSEMBLY_REFERENCE
100
AcDbPolyline
 90
4
 70
1
 10
1370.0
 20
15.0
 10
1380.0
 20
15.0
 10
1380.0
 20
25.0
 10
1370.0
 20
25.0
1001
HANOK_A3
1000
{"role":"pocket","detail":"J3","view":"detail"}
  0
LWPOLYLINE
  5
1D8
330
17
100
AcDbEntity
  8
ASSEMBLY_REFERENCE
100
AcDbPolyline
 90
4
 70
1
 10
1490.0
 20
15.0
 10
1500.0
 20
15.0
 10
1500.0
 20
25.0
 10
1490.0
 20
25.0
1001
HANOK_A3
1000
{"role":"pocket","detail":"J3","view":"detail"}
  0
LINE
  5
1D9
330
17
100
AcDbEntity
  8
DIMENSIONS
100
AcDbLine
 10
1370.0
 20
15.0
 30
0.0
 11
1370.0
 21
0.0
 31
0.0
1001
HANOK_A3
1000
{"kind":"dim","detail":"J3","view":null}
  0
LINE
  5
1DA
330
17
100
AcDbEntity
  8
DIMENSIONS
100
AcDbLine
 10
1380.0
 20
15.0
 30
0.0
 11
1380.0
 21
0.0
 31
0.0
1001
HANOK_A3
1000
{"kind":"dim","detail":"J3","view":null}
  0
LINE
  5
1DB
330
17
100
AcDbEntity
  8
DIMENSIONS
100
AcDbLine
 10
1370.0
 20
2.0
 30
0.0
 11
1380.0
 21
2.0
 31
0.0
1001
HANOK_A3
1000
{"kind":"dim","detail":"J3","view":null}
  0
LINE
  5
1DC
330
17
100
AcDbEntity
  8
DIMENSIONS
100
AcDbLine
 10
1370.0
 20
2.0
 30
0.0
 11
1372.0
 21
3.0
 31
0.0
1001
HANOK_A3
1000
{"kind":"dim","detail":"J3","view":null}
  0
LINE
  5
1DD
330
17
100
AcDbEntity
  8
DIMENSIONS
100
AcDbLine
 10
1370.0
 20
2.0
 30
0.0
 11
1372.0
 21
1.0
 31
0.0
1001
HANOK_A3
1000
{"kind":"dim","detail":"J3","view":null}
  0
LINE
  5
1DE
330
17
100
AcDbEntity
  8
DIMENSIONS
100
AcDbLine
 10
1380.0
 20
2.0
 30
0.0
 11
1378.0
 21
3.0
 31
0.0
1001
HANOK_A3
1000
{"kind":"dim","detail":"J3","view":null}
  0
LINE
  5
1DF
330
17
100
AcDbEntity
  8
DIMENSIONS
100
AcDbLine
 10
1380.0
 20
2.0
 30
0.0
 11
1378.0
 21
1.0
 31
0.0
1001
HANOK_A3
1000
{"kind":"dim","detail":"J3","view":null}
  0
TEXT
  5
1E0
330
17
100
AcDbEntity
  8
DIMENSIONS
100
AcDbText
 10
1375.0
 20
6.0
 30
0.0
 40
3.6
  1
10
 72
1
 11
1375.0
 21
6.0
 31
0.0
100
AcDbText
 73
2
1001
HANOK_A3
1000
{"text_align":"center","kind":"dim","detail":"J3","view":null}
  0
LINE
  5
1E1
330
17
100
AcDbEntity
  8
DIMENSIONS
100
AcDbLine
 10
1415.0
 20
15.0
 30
0.0
 11
1427.0
 21
15.0
 31
0.0
1001
HANOK_A3
1000
{"kind":"dim","detail":"J3","view":null}
  0
LINE
  5
1E2
330
17
100
AcDbEntity
  8
DIMENSIONS
100
AcDbLine
 10
1415.0
 20
25.0
 30
0.0
 11
1427.0
 21
25.0
 31
0.0
1001
HANOK_A3
1000
{"kind":"dim","detail":"J3","view":null}
  0
LINE
  5
1E3
330
17
100
AcDbEntity
  8
DIMENSIONS
100
AcDbLine
 10
1425.0
 20
15.0
 30
0.0
 11
1425.0
 21
25.0
 31
0.0
1001
HANOK_A3
1000
{"kind":"dim","detail":"J3","view":null}
  0
LINE
  5
1E4
330
17
100
AcDbEntity
  8
DIMENSIONS
100
AcDbLine
 10
1425.0
 20
15.0
 30
0.0
 11
1424.0
 21
17.0
 31
0.0
1001
HANOK_A3
1000
{"kind":"dim","detail":"J3","view":null}
  0
LINE
  5
1E5
330
17
100
AcDbEntity
  8
DIMENSIONS
100
AcDbLine
 10
1425.0
 20
15.0
 30
0.0
 11
1426.0
 21
17.0
 31
0.0
1001
HANOK_A3
1000
{"kind":"dim","detail":"J3","view":null}
  0
LINE
  5
1E6
330
17
100
AcDbEntity
  8
DIMENSIONS
100
AcDbLine
 10
1425.0
 20
25.0
 30
0.0
 11
1424.0
 21
23.0
 31
0.0
1001
HANOK_A3
1000
{"kind":"dim","detail":"J3","view":null}
  0
LINE
  5
1E7
330
17
100
AcDbEntity
  8
DIMENSIONS
100
AcDbLine
 10
1425.0
 20
25.0
 30
0.0
 11
1426.0
 21
23.0
 31
0.0
1001
HANOK_A3
1000
{"kind":"dim","detail":"J3","view":null}
  0
TEXT
  5
1E8
330
17
100
AcDbEntity
  8
DIMENSIONS
100
AcDbText
 10
1429.0
 20
20.0
 30
0.0
 40
3.6
  1
10
 50
90.0
 72
1
 11
1429.0
 21
20.0
 31
0.0
100
AcDbText
 73
2
1001
HANOK_A3
1000
{"text_align":"center","kind":"dim","detail":"J3","view":null}
  0
LINE
  5
1E9
330
17
100
AcDbEntity
  8
DIMENSIONS
100
AcDbLine
 10
1490.0
 20
15.0
 30
0.0
 11
1490.0
 21
0.0
 31
0.0
1001
HANOK_A3
1000
{"kind":"dim","detail":"J3","view":null}
  0
LINE
  5
1EA
330
17
100
AcDbEntity
  8
DIMENSIONS
100
AcDbLine
 10
1500.0
 20
15.0
 30
0.0
 11
1500.0
 21
0.0
 31
0.0
1001
HANOK_A3
1000
{"kind":"dim","detail":"J3","view":null}
  0
LINE
  5
1EB
330
17
100
AcDbEntity
  8
DIMENSIONS
100
AcDbLine
 10
1490.0
 20
2.0
 30
0.0
 11
1500.0
 21
2.0
 31
0.0
1001
HANOK_A3
1000
{"kind":"dim","detail":"J3","view":null}
  0
LINE
  5
1EC
330
17
100
AcDbEntity
  8
DIMENSIONS
100
AcDbLine
 10
1490.0
 20
2.0
 30
0.0
 11
1492.0
 21
3.0
 31
0.0
1001
HANOK_A3
1000
{"kind":"dim","detail":"J3","view":null}
  0
LINE
  5
1ED
330
17
100
AcDbEntity
  8
DIMENSIONS
100
AcDbLine
 10
1490.0
 20
2.0
 30
0.0
 11
1492.0
 21
1.0
 31
0.0
1001
HANOK_A3
1000
{"kind":"dim","detail":"J3","view":null}
  0
LINE
  5
1EE
330
17
100
AcDbEntity
  8
DIMENSIONS
100
AcDbLine
 10
1500.0
 20
2.0
 30
0.0
 11
1498.0
 21
3.0
 31
0.0
1001
HANOK_A3
1000
{"kind":"dim","detail":"J3","view":null}
  0
LINE
  5
1EF
330
17
100
AcDbEntity
  8
DIMENSIONS
100
AcDbLine
 10
1500.0
 20
2.0
 30
0.0
 11
1498.0
 21
1.0
 31
0.0
1001
HANOK_A3
1000
{"kind":"dim","detail":"J3","view":null}
  0
TEXT
  5
1F0
330
17
100
AcDbEntity
  8
DIMENSIONS
100
AcDbText
 10
1495.0
 20
6.0
 30
0.0
 40
3.6
  1
10
 72
1
 11
1495.0
 21
6.0
 31
0.0
100
AcDbText
 73
2
1001
HANOK_A3
1000
{"text_align":"center","kind":"dim","detail":"J3","view":null}
  0
TEXT
  5
1F1
330
17
100
AcDbEntity
  8
NOTES
100
AcDbText
 10
1335.0
 20
-15.0
 30
0.0
 40
4.2
  1
20 crossings x 2 matching pockets = 40 pockets
 11
1335.0
 21
-15.0
 31
0.0
100
AcDbText
 73
2
1001
HANOK_A3
1000
{"text_align":"left","detail":"J3","view":"detail"}
  0
LWPOLYLINE
  5
1F2
330
17
100
AcDbEntity
  8
ASSEMBLY_REFERENCE
100
AcDbPolyline
 90
4
 70
1
 10
1425.0
 20
-70.0
 10
1435.0
 20
-70.0
 10
1435.0
 20
-60.0
 10
1425.0
 20
-60.0
1001
HANOK_A3
1000
{"role":"section_back","detail":"J3","view":"detail"}
  0
LWPOLYLINE
  5
1F3
330
17
100
AcDbEntity
  8
ASSEMBLY_REFERENCE
100
AcDbPolyline
 90
8
 70
1
 10
1405.0
 20
-70.0
 10
1425.0
 20
-70.0
 10
1425.0
 20
-60.0
 10
1435.0
 20
-60.0
 10
1435.0
 20
-70.0
 10
1455.0
 20
-70.0
 10
1455.0
 20
-50.0
 10
1405.0
 20
-50.0
1001
HANOK_A3
1000
{"role":"section_front","detail":"J3","view":"detail"}
  0
LINE
  5
1F4
330
17
100
AcDbEntity
  8
DIMENSIONS
100
AcDbLine
 10
1455.0
 20
-70.0
 30
0.0
 11
1467.0
 21
-70.0
 31
0.0
1001
HANOK_A3
1000
{"kind":"dim","detail":"J3","view":null}
  0
LINE
  5
1F5
330
17
100
AcDbEntity
  8
DIMENSIONS
100
AcDbLine
 10
1455.0
 20
-50.0
 30
0.0
 11
1467.0
 21
-50.0
 31
0.0
1001
HANOK_A3
1000
{"kind":"dim","detail":"J3","view":null}
  0
LINE
  5
1F6
330
17
100
AcDbEntity
  8
DIMENSIONS
100
AcDbLine
 10
1465.0
 20
-70.0
 30
0.0
 11
1465.0
 21
-50.0
 31
0.0
1001
HANOK_A3
1000
{"kind":"dim","detail":"J3","view":null}
  0
LINE
  5
1F7
330
17
100
AcDbEntity
  8
DIMENSIONS
100
AcDbLine
 10
1465.0
 20
-70.0
 30
0.0
 11
1463.5
 21
-67.0
 31
0.0
1001
HANOK_A3
1000
{"kind":"dim","detail":"J3","view":null}
  0
LINE
  5
1F8
330
17
100
AcDbEntity
  8
DIMENSIONS
100
AcDbLine
 10
1465.0
 20
-70.0
 30
0.0
 11
1466.5
 21
-67.0
 31
0.0
1001
HANOK_A3
1000
{"kind":"dim","detail":"J3","view":null}
  0
LINE
  5
1F9
330
17
100
AcDbEntity
  8
DIMENSIONS
100
AcDbLine
 10
1465.0
 20
-50.0
 30
0.0
 11
1463.5
 21
-53.0
 31
0.0
1001
HANOK_A3
1000
{"kind":"dim","detail":"J3","view":null}
  0
LINE
  5
1FA
330
17
100
AcDbEntity
  8
DIMENSIONS
100
AcDbLine
 10
1465.0
 20
-50.0
 30
0.0
 11
1466.5
 21
-53.0
 31
0.0
1001
HANOK_A3
1000
{"kind":"dim","detail":"J3","view":null}
  0
TEXT
  5
1FB
330
17
100
AcDbEntity
  8
DIMENSIONS
100
AcDbText
 10
1469.0
 20
-60.0
 30
0.0
 40
3.6
  1
20
 50
90.0
 72
1
 11
1469.0
 21
-60.0
 31
0.0
100
AcDbText
 73
2
1001
HANOK_A3
1000
{"text_align":"center","kind":"dim","detail":"J3","view":null}
  0
LINE
  5
1FC
330
17
100
AcDbEntity
  8
DIMENSIONS
100
AcDbLine
 10
1435.0
 20
-60.0
 30
0.0
 11
1483.0
 21
-60.0
 31
0.0
1001
HANOK_A3
1000
{"kind":"dim","detail":"J3","view":null}
  0
LINE
  5
1FD
330
17
100
AcDbEntity
  8
DIMENSIONS
100
AcDbLine
 10
1435.0
 20
-50.0
 30
0.0
 11
1483.0
 21
-50.0
 31
0.0
1001
HANOK_A3
1000
{"kind":"dim","detail":"J3","view":null}
  0
LINE
  5
1FE
330
17
100
AcDbEntity
  8
DIMENSIONS
100
AcDbLine
 10
1481.0
 20
-60.0
 30
0.0
 11
1481.0
 21
-50.0
 31
0.0
1001
HANOK_A3
1000
{"kind":"dim","detail":"J3","view":null}
  0
LINE
  5
1FF
330
17
100
AcDbEntity
  8
DIMENSIONS
100
AcDbLine
 10
1481.0
 20
-60.0
 30
0.0
 11
1480.0
 21
-58.0
 31
0.0
1001
HANOK_A3
1000
{"kind":"dim","detail":"J3","view":null}
  0
LINE
  5
200
330
17
100
AcDbEntity
  8
DIMENSIONS
100
AcDbLine
 10
1481.0
 20
-60.0
 30
0.0
 11
1482.0
 21
-58.0
 31
0.0
1001
HANOK_A3
1000
{"kind":"dim","detail":"J3","view":null}
  0
LINE
  5
201
330
17
100
AcDbEntity
  8
DIMENSIONS
100
AcDbLine
 10
1481.0
 20
-50.0
 30
0.0
 11
1480.0
 21
-52.0
 31
0.0
1001
HANOK_A3
1000
{"kind":"dim","detail":"J3","view":null}
  0
LINE
  5
202
330
17
100
AcDbEntity
  8
DIMENSIONS
100
AcDbLine
 10
1481.0
 20
-50.0
 30
0.0
 11
1482.0
 21
-52.0
 31
0.0
1001
HANOK_A3
1000
{"kind":"dim","detail":"J3","view":null}
  0
TEXT
  5
203
330
17
100
AcDbEntity
  8
DIMENSIONS
100
AcDbText
 10
1485.0
 20
-55.0
 30
0.0
 40
3.6
  1
10 depth
 50
90.0
 72
1
 11
1485.0
 21
-55.0
 31
0.0
100
AcDbText
 73
2
1001
HANOK_A3
1000
{"text_align":"center","kind":"dim","detail":"J3","view":null}
  0
TEXT
  5
204
330
17
100
AcDbEntity
  8
NOTES
100
AcDbText
 10
1335.0
 20
-35.0
 30
0.0
 40
4.0
  1
ASSEMBLED SECTION - front and back remain flush
 11
1335.0
 21
-35.0
 31
0.0
100
AcDbText
 73
2
1001
HANOK_A3
1000
{"text_align":"left","detail":"J3","view":"detail"}
  0
TEXT
  5
205
330
17
100
AcDbEntity
  8
NOTES
100
AcDbText
 10
1330.0
 20
-92.0
 30
0.0
 40
3.3
  1
Slots span the entire 10 mm bar width. No closed-side dogbones.
 11
1330.0
 21
-92.0
 31
0.0
100
AcDbText
 73
2
1001
HANOK_A3
1000
{"text_align":"left","detail":"J3","view":"detail"}
  0
TEXT
  5
206
330
17
100
AcDbEntity
  8
NOTES
100
AcDbText
 10
1330.0
 20
-103.0
 30
0.0
 40
3.2
  1
REFERENCE ONLY / DXF 1:1 / PNG enlarged
 11
1330.0
 21
-103.0
 31
0.0
100
AcDbText
 73
2
1001
HANOK_A3
1000
{"text_align":"left","detail":"J3","view":"detail"}
  0
LWPOLYLINE
  5
207
330
17
100
AcDbEntity
  8
NOTES
100
AcDbPolyline
 90
4
 70
1
 10
1580.0
 20
-110.0
 10
1820.0
 20
-110.0
 10
1820.0
 20
80.0
 10
1580.0
 20
80.0
1001
HANOK_A3
1000
{"kind":"detail_border","detail":"J4","view":"detail"}
  0
TEXT
  5
208
330
17
100
AcDbEntity
  8
NOTES
100
AcDbText
 10
1590.0
 20
68.0
 30
0.0
 40
7.0
  1
J4  LATTICE-TO-SASH SEAT
 11
1590.0
 21
68.0
 31
0.0
100
AcDbText
 73
2
1001
HANOK_A3
1000
{"text_align":"left","detail":"J4","view":"detail"}
  0
TEXT
  5
209
330
17
100
AcDbEntity
  8
NOTES
100
AcDbText
 10
1590.0
 20
54.0
 30
0.0
 40
4.7
  1
10 x 10 pocket / depth 10 / stock 20
 11
1590.0
 21
54.0
 31
0.0
100
AcDbText
 73
2
1001
HANOK_A3
1000
{"text_align":"left","detail":"J4","view":"detail"}
  0
TEXT
  5
20A
330
17
100
AcDbEntity
  8
NOTES
100
AcDbText
 10
1595.0
 20
38.0
 30
0.0
 40
3.9
  1
S02 receiver / A -> BACK
 11
1595.0
 21
38.0
 31
0.0
100
AcDbText
 73
2
1001
HANOK_A3
1000
{"text_align":"left","detail":"J4","view":"detail"}
  0
TEXT
  5
20B
330
17
100
AcDbEntity
  8
NOTES
100
AcDbText
 10
1715.0
 20
38.0
 30
0.0
 40
3.9
  1
L01 end / A -> FRONT
 11
1715.0
 21
38.0
 31
0.0
100
AcDbText
 73
2
1001
HANOK_A3
1000
{"text_align":"left","detail":"J4","view":"detail"}
  0
LWPOLYLINE
  5
20C
330
17
100
AcDbEntity
  8
ASSEMBLY_REFERENCE
100
AcDbPolyline
 90
4
 70
1
 10
1595.0
 20
-3.0
 10
1675.0
 20
-3.0
 10
1675.0
 20
27.0
 10
1595.0
 20
27.0
1001
HANOK_A3
1000
{"role":"body","detail":"J4","view":"detail"}
  0
LWPOLYLINE
  5
20D
330
17
100
AcDbEntity
  8
ASSEMBLY_REFERENCE
100
AcDbPolyline
 90
4
 70
1
 10
1715.0
 20
7.0
 10
1785.0
 20
7.0
 10
1785.0
 20
17.0
 10
1715.0
 20
17.0
1001
HANOK_A3
1000
{"role":"body","detail":"J4","view":"detail"}
  0
LWPOLYLINE
  5
20E
330
17
100
AcDbEntity
  8
ASSEMBLY_REFERENCE
100
AcDbPolyline
 90
4
 70
1
 10
1625.0
 20
-3.0
 10
1635.0
 20
-3.0
 10
1635.0
 20
7.0
 10
1625.0
 20
7.0
1001
HANOK_A3
1000
{"role":"pocket","detail":"J4","view":"detail"}
  0
LWPOLYLINE
  5
20F
330
17
100
AcDbEntity
  8
ASSEMBLY_REFERENCE
100
AcDbPolyline
 90
4
 70
1
 10
1715.0
 20
7.0
 10
1725.0
 20
7.0
 10
1725.0
 20
17.0
 10
1715.0
 20
17.0
1001
HANOK_A3
1000
{"role":"pocket","detail":"J4","view":"detail"}
  0
LWPOLYLINE
  5
210
330
17
100
AcDbEntity
  8
ASSEMBLY_REFERENCE
100
AcDbPolyline
 90
2
 70
1
 10
1630.462741699797
 20
4.737258300203048
 42
1.0
 10
1624.062741699797
 20
4.737258300203048
 42
1.0
1001
HANOK_A3
1000
{"role":"dogbone","detail":"J4","view":"detail","radius_mm":3.2}
  0
LWPOLYLINE
  5
211
330
17
100
AcDbEntity
  8
ASSEMBLY_REFERENCE
100
AcDbPolyline
 90
2
 70
1
 10
1635.937258300203
 20
4.737258300203048
 42
1.0
 10
1629.537258300203
 20
4.737258300203048
 42
1.0
1001
HANOK_A3
1000
{"role":"dogbone","detail":"J4","view":"detail","radius_mm":3.2}
  0
LINE
  5
212
330
17
100
AcDbEntity
  8
DIMENSIONS
100
AcDbLine
 10
1625.0
 20
-3.0
 30
0.0
 11
1625.0
 21
-18.0
 31
0.0
1001
HANOK_A3
1000
{"kind":"dim","detail":"J4","view":null}
  0
LINE
  5
213
330
17
100
AcDbEntity
  8
DIMENSIONS
100
AcDbLine
 10
1635.0
 20
-3.0
 30
0.0
 11
1635.0
 21
-18.0
 31
0.0
1001
HANOK_A3
1000
{"kind":"dim","detail":"J4","view":null}
  0
LINE
  5
214
330
17
100
AcDbEntity
  8
DIMENSIONS
100
AcDbLine
 10
1625.0
 20
-16.0
 30
0.0
 11
1635.0
 21
-16.0
 31
0.0
1001
HANOK_A3
1000
{"kind":"dim","detail":"J4","view":null}
  0
LINE
  5
215
330
17
100
AcDbEntity
  8
DIMENSIONS
100
AcDbLine
 10
1625.0
 20
-16.0
 30
0.0
 11
1627.0
 21
-15.0
 31
0.0
1001
HANOK_A3
1000
{"kind":"dim","detail":"J4","view":null}
  0
LINE
  5
216
330
17
100
AcDbEntity
  8
DIMENSIONS
100
AcDbLine
 10
1625.0
 20
-16.0
 30
0.0
 11
1627.0
 21
-17.0
 31
0.0
1001
HANOK_A3
1000
{"kind":"dim","detail":"J4","view":null}
  0
LINE
  5
217
330
17
100
AcDbEntity
  8
DIMENSIONS
100
AcDbLine
 10
1635.0
 20
-16.0
 30
0.0
 11
1633.0
 21
-15.0
 31
0.0
1001
HANOK_A3
1000
{"kind":"dim","detail":"J4","view":null}
  0
LINE
  5
218
330
17
100
AcDbEntity
  8
DIMENSIONS
100
AcDbLine
 10
1635.0
 20
-16.0
 30
0.0
 11
1633.0
 21
-17.0
 31
0.0
1001
HANOK_A3
1000
{"kind":"dim","detail":"J4","view":null}
  0
TEXT
  5
219
330
17
100
AcDbEntity
  8
DIMENSIONS
100
AcDbText
 10
1630.0
 20
-12.0
 30
0.0
 40
3.6
  1
10
 72
1
 11
1630.0
 21
-12.0
 31
0.0
100
AcDbText
 73
2
1001
HANOK_A3
1000
{"text_align":"center","kind":"dim","detail":"J4","view":null}
  0
LINE
  5
21A
330
17
100
AcDbEntity
  8
DIMENSIONS
100
AcDbLine
 10
1635.0
 20
-3.0
 30
0.0
 11
1651.0
 21
-3.0
 31
0.0
1001
HANOK_A3
1000
{"kind":"dim","detail":"J4","view":null}
  0
LINE
  5
21B
330
17
100
AcDbEntity
  8
DIMENSIONS
100
AcDbLine
 10
1635.0
 20
7.0
 30
0.0
 11
1651.0
 21
7.0
 31
0.0
1001
HANOK_A3
1000
{"kind":"dim","detail":"J4","view":null}
  0
LINE
  5
21C
330
17
100
AcDbEntity
  8
DIMENSIONS
100
AcDbLine
 10
1649.0
 20
-3.0
 30
0.0
 11
1649.0
 21
7.0
 31
0.0
1001
HANOK_A3
1000
{"kind":"dim","detail":"J4","view":null}
  0
LINE
  5
21D
330
17
100
AcDbEntity
  8
DIMENSIONS
100
AcDbLine
 10
1649.0
 20
-3.0
 30
0.0
 11
1648.0
 21
-1.0
 31
0.0
1001
HANOK_A3
1000
{"kind":"dim","detail":"J4","view":null}
  0
LINE
  5
21E
330
17
100
AcDbEntity
  8
DIMENSIONS
100
AcDbLine
 10
1649.0
 20
-3.0
 30
0.0
 11
1650.0
 21
-1.0
 31
0.0
1001
HANOK_A3
1000
{"kind":"dim","detail":"J4","view":null}
  0
LINE
  5
21F
330
17
100
AcDbEntity
  8
DIMENSIONS
100
AcDbLine
 10
1649.0
 20
7.0
 30
0.0
 11
1648.0
 21
5.0
 31
0.0
1001
HANOK_A3
1000
{"kind":"dim","detail":"J4","view":null}
  0
LINE
  5
220
330
17
100
AcDbEntity
  8
DIMENSIONS
100
AcDbLine
 10
1649.0
 20
7.0
 30
0.0
 11
1650.0
 21
5.0
 31
0.0
1001
HANOK_A3
1000
{"kind":"dim","detail":"J4","view":null}
  0
TEXT
  5
221
330
17
100
AcDbEntity
  8
DIMENSIONS
100
AcDbText
 10
1653.0
 20
2.0
 30
0.0
 40
3.6
  1
10
 50
90.0
 72
1
 11
1653.0
 21
2.0
 31
0.0
100
AcDbText
 73
2
1001
HANOK_A3
1000
{"text_align":"center","kind":"dim","detail":"J4","view":null}
  0
LINE
  5
222
330
17
100
AcDbEntity
  8
DIMENSIONS
100
AcDbLine
 10
1715.0
 20
7.0
 30
0.0
 11
1715.0
 21
-7.0
 31
0.0
1001
HANOK_A3
1000
{"kind":"dim","detail":"J4","view":null}
  0
LINE
  5
223
330
17
100
AcDbEntity
  8
DIMENSIONS
100
AcDbLine
 10
1725.0
 20
7.0
 30
0.0
 11
1725.0
 21
-7.0
 31
0.0
1001
HANOK_A3
1000
{"kind":"dim","detail":"J4","view":null}
  0
LINE
  5
224
330
17
100
AcDbEntity
  8
DIMENSIONS
100
AcDbLine
 10
1715.0
 20
-5.0
 30
0.0
 11
1725.0
 21
-5.0
 31
0.0
1001
HANOK_A3
1000
{"kind":"dim","detail":"J4","view":null}
  0
LINE
  5
225
330
17
100
AcDbEntity
  8
DIMENSIONS
100
AcDbLine
 10
1715.0
 20
-5.0
 30
0.0
 11
1717.0
 21
-4.0
 31
0.0
1001
HANOK_A3
1000
{"kind":"dim","detail":"J4","view":null}
  0
LINE
  5
226
330
17
100
AcDbEntity
  8
DIMENSIONS
100
AcDbLine
 10
1715.0
 20
-5.0
 30
0.0
 11
1717.0
 21
-6.0
 31
0.0
1001
HANOK_A3
1000
{"kind":"dim","detail":"J4","view":null}
  0
LINE
  5
227
330
17
100
AcDbEntity
  8
DIMENSIONS
100
AcDbLine
 10
1725.0
 20
-5.0
 30
0.0
 11
1723.0
 21
-4.0
 31
0.0
1001
HANOK_A3
1000
{"kind":"dim","detail":"J4","view":null}
  0
LINE
  5
228
330
17
100
AcDbEntity
  8
DIMENSIONS
100
AcDbLine
 10
1725.0
 20
-5.0
 30
0.0
 11
1723.0
 21
-6.0
 31
0.0
1001
HANOK_A3
1000
{"kind":"dim","detail":"J4","view":null}
  0
TEXT
  5
229
330
17
100
AcDbEntity
  8
DIMENSIONS
100
AcDbText
 10
1720.0
 20
-1.0
 30
0.0
 40
3.6
  1
10
 72
1
 11
1720.0
 21
-1.0
 31
0.0
100
AcDbText
 73
2
1001
HANOK_A3
1000
{"text_align":"center","kind":"dim","detail":"J4","view":null}
  0
TEXT
  5
22A
330
17
100
AcDbEntity
  8
NOTES
100
AcDbText
 10
1595.0
 20
-28.0
 30
0.0
 40
3.7
  1
2 x R3.2 at closed corners; union with nominal pocket
 11
1595.0
 21
-28.0
 31
0.0
100
AcDbText
 73
2
1001
HANOK_A3
1000
{"text_align":"left","detail":"J4","view":"detail"}
  0
LWPOLYLINE
  5
22B
330
17
100
AcDbEntity
  8
ASSEMBLY_REFERENCE
100
AcDbPolyline
 90
6
 70
1
 10
1663.0
 20
-75.0
 10
1683.0
 20
-75.0
 10
1683.0
 20
-65.0
 10
1693.0
 20
-65.0
 10
1693.0
 20
-55.0
 10
1663.0
 20
-55.0
1001
HANOK_A3
1000
{"role":"section_front","detail":"J4","view":"detail"}
  0
LWPOLYLINE
  5
22C
330
17
100
AcDbEntity
  8
ASSEMBLY_REFERENCE
100
AcDbPolyline
 90
6
 70
1
 10
1683.0
 20
-75.0
 10
1718.0
 20
-75.0
 10
1718.0
 20
-55.0
 10
1693.0
 20
-55.0
 10
1693.0
 20
-65.0
 10
1683.0
 20
-65.0
1001
HANOK_A3
1000
{"role":"section_back","detail":"J4","view":"detail"}
  0
LINE
  5
22D
330
17
100
AcDbEntity
  8
DIMENSIONS
100
AcDbLine
 10
1718.0
 20
-75.0
 30
0.0
 11
1730.0
 21
-75.0
 31
0.0
1001
HANOK_A3
1000
{"kind":"dim","detail":"J4","view":null}
  0
LINE
  5
22E
330
17
100
AcDbEntity
  8
DIMENSIONS
100
AcDbLine
 10
1718.0
 20
-55.0
 30
0.0
 11
1730.0
 21
-55.0
 31
0.0
1001
HANOK_A3
1000
{"kind":"dim","detail":"J4","view":null}
  0
LINE
  5
22F
330
17
100
AcDbEntity
  8
DIMENSIONS
100
AcDbLine
 10
1728.0
 20
-75.0
 30
0.0
 11
1728.0
 21
-55.0
 31
0.0
1001
HANOK_A3
1000
{"kind":"dim","detail":"J4","view":null}
  0
LINE
  5
230
330
17
100
AcDbEntity
  8
DIMENSIONS
100
AcDbLine
 10
1728.0
 20
-75.0
 30
0.0
 11
1726.5
 21
-72.0
 31
0.0
1001
HANOK_A3
1000
{"kind":"dim","detail":"J4","view":null}
  0
LINE
  5
231
330
17
100
AcDbEntity
  8
DIMENSIONS
100
AcDbLine
 10
1728.0
 20
-75.0
 30
0.0
 11
1729.5
 21
-72.0
 31
0.0
1001
HANOK_A3
1000
{"kind":"dim","detail":"J4","view":null}
  0
LINE
  5
232
330
17
100
AcDbEntity
  8
DIMENSIONS
100
AcDbLine
 10
1728.0
 20
-55.0
 30
0.0
 11
1726.5
 21
-58.0
 31
0.0
1001
HANOK_A3
1000
{"kind":"dim","detail":"J4","view":null}
  0
LINE
  5
233
330
17
100
AcDbEntity
  8
DIMENSIONS
100
AcDbLine
 10
1728.0
 20
-55.0
 30
0.0
 11
1729.5
 21
-58.0
 31
0.0
1001
HANOK_A3
1000
{"kind":"dim","detail":"J4","view":null}
  0
TEXT
  5
234
330
17
100
AcDbEntity
  8
DIMENSIONS
100
AcDbText
 10
1732.0
 20
-65.0
 30
0.0
 40
3.6
  1
20
 50
90.0
 72
1
 11
1732.0
 21
-65.0
 31
0.0
100
AcDbText
 73
2
1001
HANOK_A3
1000
{"text_align":"center","kind":"dim","detail":"J4","view":null}
  0
LINE
  5
235
330
17
100
AcDbEntity
  8
DIMENSIONS
100
AcDbLine
 10
1693.0
 20
-65.0
 30
0.0
 11
1746.0
 21
-65.0
 31
0.0
1001
HANOK_A3
1000
{"kind":"dim","detail":"J4","view":null}
  0
LINE
  5
236
330
17
100
AcDbEntity
  8
DIMENSIONS
100
AcDbLine
 10
1693.0
 20
-55.0
 30
0.0
 11
1746.0
 21
-55.0
 31
0.0
1001
HANOK_A3
1000
{"kind":"dim","detail":"J4","view":null}
  0
LINE
  5
237
330
17
100
AcDbEntity
  8
DIMENSIONS
100
AcDbLine
 10
1744.0
 20
-65.0
 30
0.0
 11
1744.0
 21
-55.0
 31
0.0
1001
HANOK_A3
1000
{"kind":"dim","detail":"J4","view":null}
  0
LINE
  5
238
330
17
100
AcDbEntity
  8
DIMENSIONS
100
AcDbLine
 10
1744.0
 20
-65.0
 30
0.0
 11
1743.0
 21
-63.0
 31
0.0
1001
HANOK_A3
1000
{"kind":"dim","detail":"J4","view":null}
  0
LINE
  5
239
330
17
100
AcDbEntity
  8
DIMENSIONS
100
AcDbLine
 10
1744.0
 20
-65.0
 30
0.0
 11
1745.0
 21
-63.0
 31
0.0
1001
HANOK_A3
1000
{"kind":"dim","detail":"J4","view":null}
  0
LINE
  5
23A
330
17
100
AcDbEntity
  8
DIMENSIONS
100
AcDbLine
 10
1744.0
 20
-55.0
 30
0.0
 11
1743.0
 21
-57.0
 31
0.0
1001
HANOK_A3
1000
{"kind":"dim","detail":"J4","view":null}
  0
LINE
  5
23B
330
17
100
AcDbEntity
  8
DIMENSIONS
100
AcDbLine
 10
1744.0
 20
-55.0
 30
0.0
 11
1745.0
 21
-57.0
 31
0.0
1001
HANOK_A3
1000
{"kind":"dim","detail":"J4","view":null}
  0
TEXT
  5
23C
330
17
100
AcDbEntity
  8
DIMENSIONS
100
AcDbText
 10
1748.0
 20
-60.0
 30
0.0
 40
3.6
  1
10 depth
 50
90.0
 72
1
 11
1748.0
 21
-60.0
 31
0.0
100
AcDbText
 73
2
1001
HANOK_A3
1000
{"text_align":"center","kind":"dim","detail":"J4","view":null}
  0
TEXT
  5
23D
330
17
100
AcDbEntity
  8
NOTES
100
AcDbText
 10
1595.0
 20
-43.0
 30
0.0
 40
4.0
  1
ASSEMBLED SECTION / 10 mm engagement
 11
1595.0
 21
-43.0
 31
0.0
100
AcDbText
 73
2
1001
HANOK_A3
1000
{"text_align":"left","detail":"J4","view":"detail"}
  0
TEXT
  5
23E
330
17
100
AcDbEntity
  8
NOTES
100
AcDbText
 10
1590.0
 20
-92.0
 30
0.0
 40
3.4
  1
S01 + L02 is the face-reversed equivalent. 18 end joints total.
 11
1590.0
 21
-92.0
 31
0.0
100
AcDbText
 73
2
1001
HANOK_A3
1000
{"text_align":"left","detail":"J4","view":"detail"}
  0
TEXT
  5
23F
330
17
100
AcDbEntity
  8
NOTES
100
AcDbText
 10
1590.0
 20
-103.0
 30
0.0
 40
3.2
  1
REFERENCE ONLY / DXF 1:1 / PNG enlarged
 11
1590.0
 21
-103.0
 31
0.0
100
AcDbText
 73
2
1001
HANOK_A3
1000
{"text_align":"left","detail":"J4","view":"detail"}
  0
ENDSEC
  0
SECTION
  2
OBJECTS
  0
DICTIONARY
  5
A
330
0
100
AcDbDictionary
281
1
  3
ACAD_COLOR
350
B
  3
ACAD_GROUP
350
C
  3
ACAD_LAYOUT
350
D
  3
ACAD_MATERIAL
350
E
  3
ACAD_MLEADERSTYLE
350
F
  3
ACAD_MLINESTYLE
350
10
  3
ACAD_PLOTSETTINGS
350
11
  3
ACAD_PLOTSTYLENAME
350
12
  3
ACAD_SCALELIST
350
14
  3
ACAD_TABLESTYLE
350
15
  3
ACAD_VISUALSTYLE
350
16
  3
EZDXF_META
350
2D
  0
DICTIONARY
  5
B
330
A
100
AcDbDictionary
281
1
  0
DICTIONARY
  5
C
330
A
100
AcDbDictionary
281
1
  0
DICTIONARY
  5
D
330
A
100
AcDbDictionary
281
1
  3
Model
350
1A
  3
Layout1
350
1E
  0
DICTIONARY
  5
E
330
A
100
AcDbDictionary
281
1
  3
ByBlock
350
1F
  3
ByLayer
350
20
  3
Global
350
21
  0
DICTIONARY
  5
F
330
A
100
AcDbDictionary
281
1
  3
Standard
350
2C
  0
DICTIONARY
  5
10
330
A
100
AcDbDictionary
281
1
  3
Standard
350
22
  0
DICTIONARY
  5
11
330
A
100
AcDbDictionary
281
1
  0
ACDBDICTIONARYWDFLT
  5
12
330
A
100
AcDbDictionary
281
1
  3
Normal
350
13
100
AcDbDictionaryWithDefault
340
13
  0
ACDBPLACEHOLDER
  5
13
330
12
  0
DICTIONARY
  5
14
330
A
100
AcDbDictionary
281
1
  0
DICTIONARY
  5
15
330
A
100
AcDbDictionary
281
1
  0
DICTIONARY
  5
16
330
A
100
AcDbDictionary
281
1
  0
LAYOUT
  5
1A
330
D
100
AcDbPlotSettings
  1

  4
A3
  6

 40
7.5
 41
20.0
 42
7.5
 43
20.0
 44
420.0
 45
297.0
 46
0.0
 47
0.0
 48
0.0
 49
0.0
140
0.0
141
0.0
142
1.0
143
1.0
 70
1024
 72
1
 73
0
 74
5
  7

 75
16
 76
0
 77
2
 78
300
147
1.0
148
0.0
149
0.0
100
AcDbLayout
  1
Model
 70
1
 71
0
 10
0.0
 20
0.0
 11
420.0
 21
297.0
 12
0.0
 22
0.0
 32
0.0
 14
1e+20
 24
1e+20
 34
1e+20
 15
-1e+20
 25
-1e+20
 35
-1e+20
146
0.0
 13
0.0
 23
0.0
 33
0.0
 16
1.0
 26
0.0
 36
0.0
 17
0.0
 27
1.0
 37
0.0
 76
1
330
17
  0
LAYOUT
  5
1E
330
D
100
AcDbPlotSettings
  1

  4
A3
  6

 40
7.5
 41
20.0
 42
7.5
 43
20.0
 44
420.0
 45
297.0
 46
0.0
 47
0.0
 48
0.0
 49
0.0
140
0.0
141
0.0
142
1.0
143
1.0
 70
0
 72
1
 73
0
 74
5
  7

 75
16
 76
0
 77
2
 78
300
147
1.0
148
0.0
149
0.0
100
AcDbLayout
  1
Layout1
 70
1
 71
1
 10
0.0
 20
0.0
 11
420.0
 21
297.0
 12
0.0
 22
0.0
 32
0.0
 14
1e+20
 24
1e+20
 34
1e+20
 15
-1e+20
 25
-1e+20
 35
-1e+20
146
0.0
 13
0.0
 23
0.0
 33
0.0
 16
1.0
 26
0.0
 36
0.0
 17
0.0
 27
1.0
 37
0.0
 76
1
330
1B
  0
MATERIAL
  5
1F
102
{ACAD_REACTORS
330
E
102
}
330
E
100
AcDbMaterial
  1
ByBlock
  2

 70
0
 40
1.0
 71
1
 41
1.0
 91
-1023410177
 42
1.0
 72
1
  3

 73
1
 74
1
 75
1
 44
0.5
 73
0
 45
1.0
 46
1.0
 77
1
  4

 78
1
 79
1
170
1
 48
1.0
171
1
  6

172
1
173
1
174
1
140
1.0
141
1.0
175
1
  7

176
1
177
1
178
1
143
1.0
179
1
  8

270
1
271
1
272
1
145
1.0
146
1.0
273
1
  9

274
1
275
1
276
1
 42
1.0
 72
1
  3

 73
1
 74
1
 75
1
 94
63
  0
MATERIAL
  5
20
102
{ACAD_REACTORS
330
E
102
}
330
E
100
AcDbMaterial
  1
ByLayer
  2

 70
0
 40
1.0
 71
1
 41
1.0
 91
-1023410177
 42
1.0
 72
1
  3

 73
1
 74
1
 75
1
 44
0.5
 73
0
 45
1.0
 46
1.0
 77
1
  4

 78
1
 79
1
170
1
 48
1.0
171
1
  6

172
1
173
1
174
1
140
1.0
141
1.0
175
1
  7

176
1
177
1
178
1
143
1.0
179
1
  8

270
1
271
1
272
1
145
1.0
146
1.0
273
1
  9

274
1
275
1
276
1
 42
1.0
 72
1
  3

 73
1
 74
1
 75
1
 94
63
  0
MATERIAL
  5
21
102
{ACAD_REACTORS
330
E
102
}
330
E
100
AcDbMaterial
  1
Global
  2

 70
0
 40
1.0
 71
1
 41
1.0
 91
-1023410177
 42
1.0
 72
1
  3

 73
1
 74
1
 75
1
 44
0.5
 73
0
 45
1.0
 46
1.0
 77
1
  4

 78
1
 79
1
170
1
 48
1.0
171
1
  6

172
1
173
1
174
1
140
1.0
141
1.0
175
1
  7

176
1
177
1
178
1
143
1.0
179
1
  8

270
1
271
1
272
1
145
1.0
146
1.0
273
1
  9

274
1
275
1
276
1
 42
1.0
 72
1
  3

 73
1
 74
1
 75
1
 94
63
  0
MLINESTYLE
  5
22
102
{ACAD_REACTORS
330
10
102
}
330
10
100
AcDbMlineStyle
  2
Standard
 70
0
  3

 62
256
 51
90.0
 52
90.0
 71
2
 49
0.5
 62
256
  6
BYLAYER
 49
-0.5
 62
256
  6
BYLAYER
  0
MLEADERSTYLE
  5
2C
102
{ACAD_REACTORS
330
F
102
}
330
F
100
AcDbMLeaderStyle
179
2
170
2
171
1
172
0
 90
2
 40
0.0
 41
0.0
173
1
 91
-1056964608
 92
-2
290
1
 42
2.0
291
1
 43
8.0
  3
Standard
 44
4.0
300

342
29
174
1
175
1
176
0
178
1
 93
-1056964608
 45
4.0
292
0
297
0
 46
4.0
 94
-1056964608
 47
1.0
 49
1.0
140
1.0
294
1
141
0.0
177
0
142
1.0
295
0
296
0
143
3.75
271
0
272
9
273
9
  0
DICTIONARY
  5
2D
330
A
100
AcDbDictionary
280
1
281
1
  3
CREATED_BY_EZDXF
350
2E
  3
WRITTEN_BY_EZDXF
350
243
  0
DICTIONARYVAR
  5
2E
330
2D
100
DictionaryVariables
280
0
  1
1.4.4 @ 2026-09-10T11:44:22.312157+00:00
  0
DICTIONARYVAR
  5
243
330
2D
100
DictionaryVariables
280
0
  1
1.4.4 @ 2026-09-10T11:44:22.828529+00:00
  0
ENDSEC
  0
EOF
