  0
SECTION
  2
HEADER
  9
$ACADVER
  1
AC1024
  9
$ACADMAINTVER
 70
6
  9
$DWGCODEPAGE
  3
ANSI_1252
  9
$LASTSAVEDBY
  1
ezdxf
  9
$INSBASE
 10
0.0
 20
0.0
 30
0.0
  9
$EXTMIN
 10
1e+20
 20
1e+20
 30
1e+20
  9
$EXTMAX
 10
-1e+20
 20
-1e+20
 30
-1e+20
  9
$LIMMIN
 10
0.0
 20
0.0
  9
$LIMMAX
 10
420.0
 20
297.0
  9
$ORTHOMODE
 70
0
  9
$REGENMODE
 70
1
  9
$FILLMODE
 70
1
  9
$QTEXTMODE
 70
0
  9
$MIRRTEXT
 70
1
  9
$LTSCALE
 40
1.0
  9
$ATTMODE
 70
1
  9
$TEXTSIZE
 40
2.5
  9
$TRACEWID
 40
1.0
  9
$TEXTSTYLE
  7
OpenSans
  9
$CLAYER
  8
0
  9
$CELTYPE
  6
ByLayer
  9
$CECOLOR
 62
256
  9
$CELTSCALE
 40
1.0
  9
$DISPSILH
 70
0
  9
$DIMSCALE
 40
1.0
  9
$DIMASZ
 40
0.175
  9
$DIMEXO
 40
0.125
  9
$DIMDLI
 40
3.75
  9
$DIMRND
 40
0.0
  9
$DIMDLE
 40
0.0
  9
$DIMEXE
 40
0.375
  9
$DIMTP
 40
0.0
  9
$DIMTM
 40
0.0
  9
$DIMTXT
 40
0.25
  9
$DIMCEN
 40
2.5
  9
$DIMTSZ
 40
0.0
  9
$DIMTOL
 70
0
  9
$DIMLIM
 70
0
  9
$DIMTIH
 70
0
  9
$DIMTOH
 70
0
  9
$DIMSE1
 70
0
  9
$DIMSE2
 70
0
  9
$DIMTAD
 70
1
  9
$DIMZIN
 70
12
  9
$DIMBLK
  1
ARCHTICK
  9
$DIMASO
 70
1
  9
$DIMSHO
 70
1
  9
$DIMPOST
  1

  9
$DIMAPOST
  1

  9
$DIMALT
 70
0
  9
$DIMALTD
 70
3
  9
$DIMALTF
 40
0.03937007874
  9
$DIMLFAC
 40
100.0
  9
$DIMTOFL
 70
1
  9
$DIMTVP
 40
0.0
  9
$DIMTIX
 70
0
  9
$DIMSOXD
 70
0
  9
$DIMSAH
 70
0
  9
$DIMBLK1
  1

  9
$DIMBLK2
  1

  9
$DIMSTYLE
  2
EZDXF
  9
$DIMCLRD
 70
0
  9
$DIMCLRE
 70
0
  9
$DIMCLRT
 70
0
  9
$DIMTFAC
 40
0.5
  9
$DIMGAP
 40
0.1
  9
$DIMJUST
 70
0
  9
$DIMSD1
 70
0
  9
$DIMSD2
 70
0
  9
$DIMTOLJ
 70
0
  9
$DIMTZIN
 70
8
  9
$DIMALTZ
 70
0
  9
$DIMALTTZ
 70
0
  9
$DIMUPT
 70
1
  9
$DIMDEC
 70
2
  9
$DIMTDEC
 70
2
  9
$DIMALTU
 70
2
  9
$DIMALTTD
 70
3
  9
$DIMTXSTY
  7
OpenSansCondensed-Light
  9
$DIMAUNIT
 70
0
  9
$DIMADEC
 70
2
  9
$DIMALTRND
 40
0.0
  9
$DIMAZIN
 70
3
  9
$DIMDSEP
 70
46
  9
$DIMATFIT
 70
3
  9
$DIMFRAC
 70
0
  9
$DIMLDRBLK
  1

  9
$DIMLUNIT
 70
2
  9
$DIMLWD
 70
-2
  9
$DIMLWE
 70
-2
  9
$DIMTMOVE
 70
2
  9
$DIMFXL
 40
1.0
  9
$DIMFXLON
 70
0
  9
$DIMJOGANG
 40
0.785398163397
  9
$DIMTFILL
 70
0
  9
$DIMTFILLCLR
 70
0
  9
$DIMARCSYM
 70
0
  9
$DIMLTYPE
  6

  9
$DIMLTEX1
  6

  9
$DIMLTEX2
  6

  9
$DIMTXTDIRECTION
 70
0
  9
$LUNITS
 70
2
  9
$LUPREC
 70
4
  9
$SKETCHINC
 40
1.0
  9
$FILLETRAD
 40
10.0
  9
$AUNITS
 70
0
  9
$AUPREC
 70
2
  9
$MENU
  1
.
  9
$ELEVATION
 40
0.0
  9
$PELEVATION
 40
0.0
  9
$THICKNESS
 40
0.0
  9
$LIMCHECK
 70
0
  9
$CHAMFERA
 40
0.0
  9
$CHAMFERB
 40
0.0
  9
$CHAMFERC
 40
0.0
  9
$CHAMFERD
 40
0.0
  9
$SKPOLY
 70
0
  9
$TDCREATE
 40
2461294.5021412037
  9
$TDUCREATE
 40
2458532.153996898
  9
$TDUPDATE
 40
2461294.5021412037
  9
$TDUUPDATE
 40
2458532.1544311
  9
$TDINDWG
 40
0.0
  9
$TDUSRTIMER
 40
0.0
  9
$USRTIMER
 70
1
  9
$ANGBASE
 50
0.0
  9
$ANGDIR
 70
0
  9
$PDMODE
 70
0
  9
$PDSIZE
 40
0.0
  9
$PLINEWID
 40
0.0
  9
$SPLFRAME
 70
0
  9
$SPLINETYPE
 70
6
  9
$SPLINESEGS
 70
8
  9
$HANDSEED
  5
2A8
  9
$SURFTAB1
 70
6
  9
$SURFTAB2
 70
6
  9
$SURFTYPE
 70
6
  9
$SURFU
 70
6
  9
$SURFV
 70
6
  9
$UCSBASE
  2

  9
$UCSNAME
  2

  9
$UCSORG
 10
0.0
 20
0.0
 30
0.0
  9
$UCSXDIR
 10
1.0
 20
0.0
 30
0.0
  9
$UCSYDIR
 10
0.0
 20
1.0
 30
0.0
  9
$UCSORTHOREF
  2

  9
$UCSORTHOVIEW
 70
0
  9
$UCSORGTOP
 10
0.0
 20
0.0
 30
0.0
  9
$UCSORGBOTTOM
 10
0.0
 20
0.0
 30
0.0
  9
$UCSORGLEFT
 10
0.0
 20
0.0
 30
0.0
  9
$UCSORGRIGHT
 10
0.0
 20
0.0
 30
0.0
  9
$UCSORGFRONT
 10
0.0
 20
0.0
 30
0.0
  9
$UCSORGBACK
 10
0.0
 20
0.0
 30
0.0
  9
$PUCSBASE
  2

  9
$PUCSNAME
  2

  9
$PUCSORG
 10
0.0
 20
0.0
 30
0.0
  9
$PUCSXDIR
 10
1.0
 20
0.0
 30
0.0
  9
$PUCSYDIR
 10
0.0
 20
1.0
 30
0.0
  9
$PUCSORTHOREF
  2

  9
$PUCSORTHOVIEW
 70
0
  9
$PUCSORGTOP
 10
0.0
 20
0.0
 30
0.0
  9
$PUCSORGBOTTOM
 10
0.0
 20
0.0
 30
0.0
  9
$PUCSORGLEFT
 10
0.0
 20
0.0
 30
0.0
  9
$PUCSORGRIGHT
 10
0.0
 20
0.0
 30
0.0
  9
$PUCSORGFRONT
 10
0.0
 20
0.0
 30
0.0
  9
$PUCSORGBACK
 10
0.0
 20
0.0
 30
0.0
  9
$USERI1
 70
0
  9
$USERI2
 70
0
  9
$USERI3
 70
0
  9
$USERI4
 70
0
  9
$USERI5
 70
0
  9
$USERR1
 40
0.0
  9
$USERR2
 40
0.0
  9
$USERR3
 40
0.0
  9
$USERR4
 40
0.0
  9
$USERR5
 40
0.0
  9
$WORLDVIEW
 70
1
  9
$SHADEDGE
 70
3
  9
$SHADEDIF
 70
70
  9
$TILEMODE
 70
1
  9
$MAXACTVP
 70
64
  9
$PINSBASE
 10
0.0
 20
0.0
 30
0.0
  9
$PLIMCHECK
 70
0
  9
$PEXTMIN
 10
1e+20
 20
1e+20
 30
1e+20
  9
$PEXTMAX
 10
-1e+20
 20
-1e+20
 30
-1e+20
  9
$PLIMMIN
 10
0.0
 20
0.0
  9
$PLIMMAX
 10
420.0
 20
297.0
  9
$UNITMODE
 70
0
  9
$VISRETAIN
 70
1
  9
$PLINEGEN
 70
0
  9
$PSLTSCALE
 70
1
  9
$TREEDEPTH
 70
3020
  9
$CMLSTYLE
  2
Standard
  9
$CMLJUST
 70
0
  9
$CMLSCALE
 40
20.0
  9
$PROXYGRAPHICS
 70
1
  9
$MEASUREMENT
 70
1
  9
$CELWEIGHT
370
-1
  9
$ENDCAPS
280
0
  9
$JOINSTYLE
280
0
  9
$LWDISPLAY
290
0
  9
$INSUNITS
 70
4
  9
$HYPERLINKBASE
  1

  9
$STYLESHEET
  1

  9
$XEDIT
290
1
  9
$CEPSNTYPE
380
0
  9
$PSTYLEMODE
290
1
  9
$FINGERPRINTGUID
  2
{5378047C-6004-4449-B99C-D62F9B0CC2E2}
  9
$VERSIONGUID
  2
{EA9482A7-1E27-4CC8-B26F-86D69D12F8F6}
  9
$EXTNAMES
290
1
  9
$PSVPSCALE
 40
0.0
  9
$OLESTARTUP
290
0
  9
$SORTENTS
280
127
  9
$INDEXCTL
280
0
  9
$HIDETEXT
280
1
  9
$XCLIPFRAME
280
1
  9
$HALOGAP
280
0
  9
$OBSCOLOR
 70
257
  9
$OBSLTYPE
280
0
  9
$INTERSECTIONDISPLAY
280
0
  9
$INTERSECTIONCOLOR
 70
257
  9
$DIMASSOC
280
2
  9
$PROJECTNAME
  1

  9
$CAMERADISPLAY
290
0
  9
$LENSLENGTH
 40
50.0
  9
$CAMERAHEIGHT
 40
0.0
  9
$STEPSPERSEC
 40
24.0
  9
$STEPSIZE
 40
100.0
  9
$3DDWFPREC
 40
2.0
  9
$PSOLWIDTH
 40
0.005
  9
$PSOLHEIGHT
 40
0.08
  9
$LOFTANG1
 40
1.570796326795
  9
$LOFTANG2
 40
1.570796326795
  9
$LOFTMAG1
 40
0.0
  9
$LOFTMAG2
 40
0.0
  9
$LOFTPARAM
 70
7
  9
$LOFTNORMALS
280
1
  9
$LATITUDE
 40
37.795
  9
$LONGITUDE
 40
-122.394
  9
$NORTHDIRECTION
 40
0.0
  9
$TIMEZONE
 70
-8000
  9
$LIGHTGLYPHDISPLAY
280
1
  9
$TILEMODELIGHTSYNCH
280
1
  9
$CMATERIAL
347
20
  9
$SOLIDHIST
280
0
  9
$SHOWHIST
280
1
  9
$DWFFRAME
280
2
  9
$DGNFRAME
280
2
  9
$REALWORLDSCALE
290
1
  9
$INTERFERECOLOR
 62
256
  9
$CSHADOW
280
0
  9
$SHADOWPLANELOCATION
 40
0.0
  0
ENDSEC
  0
SECTION
  2
CLASSES
  0
CLASS
  1
ACDBDICTIONARYWDFLT
  2
AcDbDictionaryWithDefault
  3
ObjectDBX Classes
 90
0
 91
0
280
0
281
0
  0
CLASS
  1
SUN
  2
AcDbSun
  3
SCENEOE
 90
1153
 91
0
280
0
281
0
  0
CLASS
  1
VISUALSTYLE
  2
AcDbVisualStyle
  3
ObjectDBX Classes
 90
4095
 91
0
280
0
281
0
  0
CLASS
  1
MATERIAL
  2
AcDbMaterial
  3
ObjectDBX Classes
 90
1153
 91
0
280
0
281
0
  0
CLASS
  1
SCALE
  2
AcDbScale
  3
ObjectDBX Classes
 90
1153
 91
0
280
0
281
0
  0
CLASS
  1
TABLESTYLE
  2
AcDbTableStyle
  3
ObjectDBX Classes
 90
4095
 91
0
280
0
281
0
  0
CLASS
  1
MLEADERSTYLE
  2
AcDbMLeaderStyle
  3
ACDB_MLEADERSTYLE_CLASS
 90
4095
 91
0
280
0
281
0
  0
CLASS
  1
DICTIONARYVAR
  2
AcDbDictionaryVar
  3
ObjectDBX Classes
 90
0
 91
0
280
0
281
0
  0
CLASS
  1
CELLSTYLEMAP
  2
AcDbCellStyleMap
  3
ObjectDBX Classes
 90
1152
 91
0
280
0
281
0
  0
CLASS
  1
MENTALRAYRENDERSETTINGS
  2
AcDbMentalRayRenderSettings
  3
SCENEOE
 90
1024
 91
0
280
0
281
0
  0
CLASS
  1
ACDBDETAILVIEWSTYLE
  2
AcDbDetailViewStyle
  3
ObjectDBX Classes
 90
1025
 91
0
280
0
281
0
  0
CLASS
  1
ACDBSECTIONVIEWSTYLE
  2
AcDbSectionViewStyle
  3
ObjectDBX Classes
 90
1025
 91
0
280
0
281
0
  0
CLASS
  1
RASTERVARIABLES
  2
AcDbRasterVariables
  3
ISM
 90
0
 91
0
280
0
281
0
  0
CLASS
  1
ACDBPLACEHOLDER
  2
AcDbPlaceHolder
  3
ObjectDBX Classes
 90
0
 91
0
280
0
281
0
  0
CLASS
  1
LAYOUT
  2
AcDbLayout
  3
ObjectDBX Classes
 90
0
 91
0
280
0
281
0
  0
ENDSEC
  0
SECTION
  2
TABLES
  0
TABLE
  2
VPORT
  5
8
330
0
100
AcDbSymbolTable
 70
1
  0
VPORT
  5
23
330
8
100
AcDbSymbolTableRecord
100
AcDbViewportTableRecord
  2
*Active
 70
0
 10
0.0
 20
0.0
 11
1.0
 21
1.0
 12
0.0
 22
0.0
 13
0.0
 23
0.0
 14
0.5
 24
0.5
 15
0.5
 25
0.5
 16
0.0
 26
0.0
 36
1.0
 17
0.0
 27
0.0
 37
0.0
 40
1000.0
 41
1.34
 42
50.0
 43
0.0
 44
0.0
 50
0.0
 51
0.0
 71
0
 72
1000
 73
1
 74
3
 75
0
 76
0
 77
0
 78
0
281
0
 65
0
146
0.0
  0
ENDTAB
  0
TABLE
  2
LTYPE
  5
2
330
0
100
AcDbSymbolTable
 70
21
  0
LTYPE
  5
24
330
2
100
AcDbSymbolTableRecord
100
AcDbLinetypeTableRecord
  2
ByBlock
 70
0
  3

 72
65
 73
0
 40
0.0
  0
LTYPE
  5
25
330
2
100
AcDbSymbolTableRecord
100
AcDbLinetypeTableRecord
  2
ByLayer
 70
0
  3

 72
65
 73
0
 40
0.0
  0
LTYPE
  5
26
330
2
100
AcDbSymbolTableRecord
100
AcDbLinetypeTableRecord
  2
Continuous
 70
0
  3

 72
65
 73
0
 40
0.0
  0
LTYPE
  5
2F
330
2
100
AcDbSymbolTableRecord
100
AcDbLinetypeTableRecord
  2
CENTER
 70
0
  3
Center ____ _ ____ _ ____ _ ____ _ ____ _ ____
 72
65
 73
4
 40
5.08
 49
3.175
 74
0
 49
-0.635
 74
0
 49
0.635
 74
0
 49
-0.635
 74
0
  0
LTYPE
  5
30
330
2
100
AcDbSymbolTableRecord
100
AcDbLinetypeTableRecord
  2
CENTERX2
 70
0
  3
Center (2x) ________  __  ________  __  ________
 72
65
 73
4
 40
8.89
 49
6.35
 74
0
 49
-0.635
 74
0
 49
1.27
 74
0
 49
-0.635
 74
0
  0
LTYPE
  5
31
330
2
100
AcDbSymbolTableRecord
100
AcDbLinetypeTableRecord
  2
CENTER2
 70
0
  3
Center (.5x) ____ _ ____ _ ____ _ ____ _ ____
 72
65
 73
4
 40
2.54
 49
1.587
 74
0
 49
-0.318
 74
0
 49
0.318
 74
0
 49
-0.318
 74
0
  0
LTYPE
  5
32
330
2
100
AcDbSymbolTableRecord
100
AcDbLinetypeTableRecord
  2
DASHED
 70
0
  3
Dashed __ __ __ __ __ __ __ __ __ __ __ __ __ _
 72
65
 73
2
 40
1.524
 49
1.27
 74
0
 49
-0.254
 74
0
  0
LTYPE
  5
33
330
2
100
AcDbSymbolTableRecord
100
AcDbLinetypeTableRecord
  2
DASHEDX2
 70
0
  3
Dashed (2x) ____  ____  ____  ____  ____  ____
 72
65
 73
2
 40
3.048
 49
2.54
 74
0
 49
-0.508
 74
0
  0
LTYPE
  5
34
330
2
100
AcDbSymbolTableRecord
100
AcDbLinetypeTableRecord
  2
DASHED2
 70
0
  3
Dashed (.5x) _ _ _ _ _ _ _ _ _ _ _ _ _ _
 72
65
 73
2
 40
0.762
 49
0.635
 74
0
 49
-0.127
 74
0
  0
LTYPE
  5
35
330
2
100
AcDbSymbolTableRecord
100
AcDbLinetypeTableRecord
  2
PHANTOM
 70
0
  3
Phantom ______  __  __  ______  __  __  ______
 72
65
 73
6
 40
6.35
 49
3.175
 74
0
 49
-0.635
 74
0
 49
0.635
 74
0
 49
-0.635
 74
0
 49
0.635
 74
0
 49
-0.635
 74
0
  0
LTYPE
  5
36
330
2
100
AcDbSymbolTableRecord
100
AcDbLinetypeTableRecord
  2
PHANTOMX2
 70
0
  3
Phantom (2x)____________    ____    ____    ____________
 72
65
 73
6
 40
10.795
 49
6.35
 74
0
 49
-0.635
 74
0
 49
1.27
 74
0
 49
-0.635
 74
0
 49
1.27
 74
0
 49
-0.635
 74
0
  0
LTYPE
  5
37
330
2
100
AcDbSymbolTableRecord
100
AcDbLinetypeTableRecord
  2
PHANTOM2
 70
0
  3
Phantom (.5x) ___ _ _ ___ _ _ ___ _ _ ___ _ _ ___
 72
65
 73
6
 40
3.175
 49
1.587
 74
0
 49
-0.318
 74
0
 49
0.318
 74
0
 49
-0.318
 74
0
 49
0.318
 74
0
 49
-0.318
 74
0
  0
LTYPE
  5
38
330
2
100
AcDbSymbolTableRecord
100
AcDbLinetypeTableRecord
  2
DASHDOT
 70
0
  3
Dash dot __ . __ . __ . __ . __ . __ . __ . __
 72
65
 73
4
 40
3.556
 49
2.54
 74
0
 49
-0.508
 74
0
 49
0.0
 74
0
 49
-0.508
 74
0
  0
LTYPE
  5
39
330
2
100
AcDbSymbolTableRecord
100
AcDbLinetypeTableRecord
  2
DASHDOTX2
 70
0
  3
Dash dot (2x) ____  .  ____  .  ____  .  ____
 72
65
 73
4
 40
6.096
 49
5.08
 74
0
 49
-0.508
 74
0
 49
0.0
 74
0
 49
-0.508
 74
0
  0
LTYPE
  5
3A
330
2
100
AcDbSymbolTableRecord
100
AcDbLinetypeTableRecord
  2
DASHDOT2
 70
0
  3
Dash dot (.5x) _ . _ . _ . _ . _ . _ . _ . _
 72
65
 73
4
 40
1.778
 49
1.27
 74
0
 49
-0.254
 74
0
 49
0.0
 74
0
 49
-0.254
 74
0
  0
LTYPE
  5
3B
330
2
100
AcDbSymbolTableRecord
100
AcDbLinetypeTableRecord
  2
DOT
 70
0
  3
Dot .  .  .  .  .  .  .  .  .  .  .  .  .  .  .  .
 72
65
 73
2
 40
0.508
 49
0.0
 74
0
 49
-0.508
 74
0
  0
LTYPE
  5
3C
330
2
100
AcDbSymbolTableRecord
100
AcDbLinetypeTableRecord
  2
DOTX2
 70
0
  3
Dot (2x) .    .    .    .    .    .    .    . 
 72
65
 73
2
 40
1.016
 49
0.0
 74
0
 49
-1.016
 74
0
  0
LTYPE
  5
3D
330
2
100
AcDbSymbolTableRecord
100
AcDbLinetypeTableRecord
  2
DOT2
 70
0
  3
Dot (.5) . . . . . . . . . . . . . . . . . . . 
 72
65
 73
2
 40
0.254
 49
0.0
 74
0
 49
-0.254
 74
0
  0
LTYPE
  5
3E
330
2
100
AcDbSymbolTableRecord
100
AcDbLinetypeTableRecord
  2
DIVIDE
 70
0
  3
Divide __ . . __ . . __ . . __ . . __ . . __
 72
65
 73
6
 40
4.064
 49
2.54
 74
0
 49
-0.508
 74
0
 49
0.0
 74
0
 49
-0.508
 74
0
 49
0.0
 74
0
 49
-0.508
 74
0
  0
LTYPE
  5
3F
330
2
100
AcDbSymbolTableRecord
100
AcDbLinetypeTableRecord
  2
DIVIDEX2
 70
0
  3
Divide (2x) ____  . .  ____  . .  ____  . .  ____
 72
65
 73
6
 40
6.604
 49
5.08
 74
0
 49
-0.508
 74
0
 49
0.0
 74
0
 49
-0.508
 74
0
 49
0.0
 74
0
 49
-0.508
 74
0
  0
LTYPE
  5
40
330
2
100
AcDbSymbolTableRecord
100
AcDbLinetypeTableRecord
  2
DIVIDE2
 70
0
  3
Divide(.5x) _ . _ . _ . _ . _ . _ . _ . _
 72
65
 73
6
 40
2.032
 49
1.27
 74
0
 49
-0.254
 74
0
 49
0.0
 74
0
 49
-0.254
 74
0
 49
0.0
 74
0
 49
-0.254
 74
0
  0
ENDTAB
  0
TABLE
  2
LAYER
  5
1
330
0
100
AcDbSymbolTable
 70
15
  0
LAYER
  5
27
330
1
100
AcDbSymbolTableRecord
100
AcDbLayerTableRecord
  2
0
 70
0
 62
7
  6
Continuous
370
-3
390
13
347
21
  0
LAYER
  5
28
330
1
100
AcDbSymbolTableRecord
100
AcDbLayerTableRecord
  2
Defpoints
 70
0
 62
7
  6
Continuous
290
0
370
-3
390
13
347
21
  0
LAYER
  5
8A
330
1
100
AcDbSymbolTableRecord
100
AcDbLayerTableRecord
  2
BOARD_BOUNDARY
 70
0
 62
8
  6
CONTINUOUS
370
-3
390
13
347
21
  0
LAYER
  5
8B
330
1
100
AcDbSymbolTableRecord
100
AcDbLayerTableRecord
  2
CUT_THROUGH
 70
0
 62
1
  6
CONTINUOUS
370
-3
390
13
347
21
  0
LAYER
  5
8C
330
1
100
AcDbSymbolTableRecord
100
AcDbLayerTableRecord
  2
POCKET_10MM
 70
0
 62
3
  6
CONTINUOUS
370
-3
390
13
347
21
  0
LAYER
  5
8D
330
1
100
AcDbSymbolTableRecord
100
AcDbLayerTableRecord
  2
DOGBONE
 70
0
 62
4
  6
CONTINUOUS
370
-3
390
13
347
21
  0
LAYER
  5
8E
330
1
100
AcDbSymbolTableRecord
100
AcDbLayerTableRecord
  2
HINGE_REF
 70
0
 62
5
  6
DASHED
370
-3
390
13
347
21
  0
LAYER
  5
8F
330
1
100
AcDbSymbolTableRecord
100
AcDbLayerTableRecord
  2
LATCH_REF
 70
0
 62
6
  6
DASHED
370
-3
390
13
347
21
  0
LAYER
  5
90
330
1
100
AcDbSymbolTableRecord
100
AcDbLayerTableRecord
  2
PART_ID
 70
0
 62
7
  6
CONTINUOUS
370
-3
390
13
347
21
  0
LAYER
  5
91
330
1
100
AcDbSymbolTableRecord
100
AcDbLayerTableRecord
  2
DIMENSIONS
 70
0
 62
2
  6
CONTINUOUS
370
-3
390
13
347
21
  0
LAYER
  5
92
330
1
100
AcDbSymbolTableRecord
100
AcDbLayerTableRecord
  2
GRAIN_DIRECTION
 70
0
 62
30
  6
CONTINUOUS
370
-3
390
13
347
21
  0
LAYER
  5
93
330
1
100
AcDbSymbolTableRecord
100
AcDbLayerTableRecord
  2
ASSEMBLY_REFERENCE
 70
0
 62
140
  6
CONTINUOUS
370
-3
390
13
347
21
  0
LAYER
  5
94
330
1
100
AcDbSymbolTableRecord
100
AcDbLayerTableRecord
  2
ASSEMBLY_A3
 70
0
 62
211
  6
DASHED
370
-3
390
13
347
21
  0
LAYER
  5
95
330
1
100
AcDbSymbolTableRecord
100
AcDbLayerTableRecord
  2
SWING_REF
 70
0
 62
253
  6
DASHED
370
-3
390
13
347
21
  0
LAYER
  5
96
330
1
100
AcDbSymbolTableRecord
100
AcDbLayerTableRecord
  2
NOTES
 70
0
 62
7
  6
CONTINUOUS
370
-3
390
13
347
21
  0
ENDTAB
  0
TABLE
  2
STYLE
  5
5
330
0
100
AcDbSymbolTable
 70
26
  0
STYLE
  5
29
330
5
100
AcDbSymbolTableRecord
100
AcDbTextStyleTableRecord
  2
Standard
 70
0
 40
0.0
 41
1.0
 50
0.0
 71
0
 42
2.5
  3
txt
  4

  0
STYLE
  5
41
330
5
100
AcDbSymbolTableRecord
100
AcDbTextStyleTableRecord
  2
OpenSans-Light
 70
0
 40
0.0
 41
1.0
 50
0.0
 71
0
 42
2.5
  3
OpenSans-Light.ttf
  4

  0
STYLE
  5
42
330
5
100
AcDbSymbolTableRecord
100
AcDbTextStyleTableRecord
  2
OpenSans-Light-Italic
 70
0
 40
0.0
 41
1.0
 50
0.0
 71
0
 42
2.5
  3
OpenSans-LightItalic.ttf
  4

  0
STYLE
  5
43
330
5
100
AcDbSymbolTableRecord
100
AcDbTextStyleTableRecord
  2
OpenSans
 70
0
 40
0.0
 41
1.0
 50
0.0
 71
0
 42
2.5
  3
OpenSans-Regular.ttf
  4

  0
STYLE
  5
44
330
5
100
AcDbSymbolTableRecord
100
AcDbTextStyleTableRecord
  2
OpenSans-Italic
 70
0
 40
0.0
 41
1.0
 50
0.0
 71
0
 42
2.5
  3
OpenSans-Italic.ttf
  4

  0
STYLE
  5
45
330
5
100
AcDbSymbolTableRecord
100
AcDbTextStyleTableRecord
  2
OpenSans-SemiBold
 70
0
 40
0.0
 41
1.0
 50
0.0
 71
0
 42
2.5
  3
OpenSans-SemiBold.ttf
  4

  0
STYLE
  5
46
330
5
100
AcDbSymbolTableRecord
100
AcDbTextStyleTableRecord
  2
OpenSans-SemiBoldItalic
 70
0
 40
0.0
 41
1.0
 50
0.0
 71
0
 42
2.5
  3
OpenSans-SemiBoldItalic.ttf
  4

  0
STYLE
  5
47
330
5
100
AcDbSymbolTableRecord
100
AcDbTextStyleTableRecord
  2
OpenSans-Bold
 70
0
 40
0.0
 41
1.0
 50
0.0
 71
0
 42
2.5
  3
OpenSans-Bold.ttf
  4

  0
STYLE
  5
48
330
5
100
AcDbSymbolTableRecord
100
AcDbTextStyleTableRecord
  2
OpenSans-BoldItalic
 70
0
 40
0.0
 41
1.0
 50
0.0
 71
0
 42
2.5
  3
OpenSans-BoldItalic.ttf
  4

  0
STYLE
  5
49
330
5
100
AcDbSymbolTableRecord
100
AcDbTextStyleTableRecord
  2
OpenSans-ExtraBold
 70
0
 40
0.0
 41
1.0
 50
0.0
 71
0
 42
2.5
  3
OpenSans-ExtraBold.ttf
  4

  0
STYLE
  5
4A
330
5
100
AcDbSymbolTableRecord
100
AcDbTextStyleTableRecord
  2
OpenSans-ExtraBoldItalic
 70
0
 40
0.0
 41
1.0
 50
0.0
 71
0
 42
2.5
  3
OpenSans-ExtraBoldItalic.ttf
  4

  0
STYLE
  5
4B
330
5
100
AcDbSymbolTableRecord
100
AcDbTextStyleTableRecord
  2
OpenSansCondensed-Bold
 70
0
 40
0.0
 41
1.0
 50
0.0
 71
0
 42
2.5
  3
OpenSansCondensed-Bold.ttf
  4

  0
STYLE
  5
4C
330
5
100
AcDbSymbolTableRecord
100
AcDbTextStyleTableRecord
  2
OpenSansCondensed-Light
 70
0
 40
0.0
 41
1.0
 50
0.0
 71
0
 42
2.5
  3
OpenSansCondensed-Light.ttf
  4

  0
STYLE
  5
4D
330
5
100
AcDbSymbolTableRecord
100
AcDbTextStyleTableRecord
  2
OpenSansCondensed-Italic
 70
0
 40
0.0
 41
1.0
 50
0.0
 71
0
 42
2.5
  3
OpenSansCondensed-LightItalic.ttf
  4

  0
STYLE
  5
4E
330
5
100
AcDbSymbolTableRecord
100
AcDbTextStyleTableRecord
  2
LiberationSans
 70
0
 40
0.0
 41
1.0
 50
0.0
 71
0
 42
2.5
  3
LiberationSans-Regular.ttf
  4

  0
STYLE
  5
4F
330
5
100
AcDbSymbolTableRecord
100
AcDbTextStyleTableRecord
  2
LiberationSans-Bold
 70
0
 40
0.0
 41
1.0
 50
0.0
 71
0
 42
2.5
  3
LiberationSans-Bold.ttf
  4

  0
STYLE
  5
50
330
5
100
AcDbSymbolTableRecord
100
AcDbTextStyleTableRecord
  2
LiberationSans-BoldItalic
 70
0
 40
0.0
 41
1.0
 50
0.0
 71
0
 42
2.5
  3
LiberationSans-BoldItalic.ttf
  4

  0
STYLE
  5
51
330
5
100
AcDbSymbolTableRecord
100
AcDbTextStyleTableRecord
  2
LiberationSans-Italic
 70
0
 40
0.0
 41
1.0
 50
0.0
 71
0
 42
2.5
  3
LiberationSans-Italic.ttf
  4

  0
STYLE
  5
52
330
5
100
AcDbSymbolTableRecord
100
AcDbTextStyleTableRecord
  2
LiberationSerif
 70
0
 40
0.0
 41
1.0
 50
0.0
 71
0
 42
2.5
  3
LiberationSerif-Regular.ttf
  4

  0
STYLE
  5
53
330
5
100
AcDbSymbolTableRecord
100
AcDbTextStyleTableRecord
  2
LiberationSerif-Bold
 70
0
 40
0.0
 41
1.0
 50
0.0
 71
0
 42
2.5
  3
LiberationSerif-Bold.ttf
  4

  0
STYLE
  5
54
330
5
100
AcDbSymbolTableRecord
100
AcDbTextStyleTableRecord
  2
LiberationSerif-BoldItalic
 70
0
 40
0.0
 41
1.0
 50
0.0
 71
0
 42
2.5
  3
LiberationSerif-BoldItalic.ttf
  4

  0
STYLE
  5
55
330
5
100
AcDbSymbolTableRecord
100
AcDbTextStyleTableRecord
  2
LiberationSerif-Italic
 70
0
 40
0.0
 41
1.0
 50
0.0
 71
0
 42
2.5
  3
LiberationSerif-Italic.ttf
  4

  0
STYLE
  5
56
330
5
100
AcDbSymbolTableRecord
100
AcDbTextStyleTableRecord
  2
LiberationMono
 70
0
 40
0.0
 41
1.0
 50
0.0
 71
0
 42
2.5
  3
LiberationMono-Regular.ttf
  4

  0
STYLE
  5
57
330
5
100
AcDbSymbolTableRecord
100
AcDbTextStyleTableRecord
  2
LiberationMono-Bold
 70
0
 40
0.0
 41
1.0
 50
0.0
 71
0
 42
2.5
  3
LiberationMono-Bold.ttf
  4

  0
STYLE
  5
58
330
5
100
AcDbSymbolTableRecord
100
AcDbTextStyleTableRecord
  2
LiberationMono-BoldItalic
 70
0
 40
0.0
 41
1.0
 50
0.0
 71
0
 42
2.5
  3
LiberationMono-BoldItalic.ttf
  4

  0
STYLE
  5
59
330
5
100
AcDbSymbolTableRecord
100
AcDbTextStyleTableRecord
  2
LiberationMono-Italic
 70
0
 40
0.0
 41
1.0
 50
0.0
 71
0
 42
2.5
  3
LiberationMono-Italic.ttf
  4

  0
ENDTAB
  0
TABLE
  2
VIEW
  5
7
330
0
100
AcDbSymbolTable
 70
0
  0
ENDTAB
  0
TABLE
  2
UCS
  5
6
330
0
100
AcDbSymbolTable
 70
0
  0
ENDTAB
  0
TABLE
  2
APPID
  5
3
330
0
100
AcDbSymbolTable
 70
3
  0
APPID
  5
2A
330
3
100
AcDbSymbolTableRecord
100
AcDbRegAppTableRecord
  2
ACAD
 70
0
  0
APPID
  5
2A5
330
3
100
AcDbSymbolTableRecord
100
AcDbRegAppTableRecord
  2
HATCHBACKGROUNDCOLOR
 70
0
  0
APPID
  5
2A6
330
3
100
AcDbSymbolTableRecord
100
AcDbRegAppTableRecord
  2
EZDXF
 70
0
  0
ENDTAB
  0
TABLE
  2
DIMSTYLE
  5
4
330
0
100
AcDbSymbolTable
 70
12
100
AcDbDimStyleTable
  0
DIMSTYLE
105
2B
330
4
100
AcDbSymbolTableRecord
100
AcDbDimStyleTableRecord
  2
Standard
 70
0
 40
1.0
 41
2.5
 42
0.625
 43
3.75
 44
1.25
 45
0.0
 46
0.0
 47
0.0
 48
0.0
 49
2.5
140
2.5
141
2.5
142
0.0
143
0.03937007874
144
1.0
145
0.0
146
1.0
147
0.625
148
0.0
 69
0
 70
0
 71
0
 72
0
 73
0
 74
0
 75
0
 76
0
 77
1
 78
8
 79
3
170
0
171
3
172
1
173
0
174
0
175
0
176
0
177
0
178
0
179
2
271
2
272
2
273
2
274
3
275
0
276
0
277
2
278
44
279
0
280
0
281
0
282
0
283
0
284
8
285
0
286
0
288
0
289
3
290
0
371
-2
372
-2
  0
DIMSTYLE
105
73
330
4
100
AcDbSymbolTableRecord
100
AcDbDimStyleTableRecord
  2
EZDXF
 70
0
 40
1.0
 41
0.175
 42
0.125
 43
3.75
 44
0.375
 45
0.0
 46
0.0
 47
0.0
 48
0.0
 49
2.5
140
0.25
141
2.5
142
0.0
143
0.03937007874
144
100.0
145
0.0
146
0.5
147
0.1
148
0.0
 69
0
 70
0
 71
0
 72
0
 73
0
 74
0
 75
0
 76
0
 77
1
 78
12
 79
3
170
0
171
3
172
1
173
0
174
0
175
0
176
0
177
0
178
0
179
2
271
2
272
2
273
2
274
3
275
0
276
0
277
2
278
46
279
2
280
0
281
0
282
0
283
0
284
8
285
0
286
0
288
1
289
3
290
0
340
4C
342
74
371
-2
372
-2
  0
DIMSTYLE
105
7C
330
4
100
AcDbSymbolTableRecord
100
AcDbDimStyleTableRecord
  2
EZ_M_100_H25_CM
 70
0
 40
1.0
 41
0.25
 42
0.125
 43
3.75
 44
0.375
 45
0.0
 46
0.0
 47
0.0
 48
0.0
 49
2.5
140
0.25
141
2.5
142
0.125
143
0.03937007874
144
100.0
145
0.0
146
0.5
147
0.1
148
0.0
 69
0
 70
0
 71
0
 72
0
 73
0
 74
0
 75
0
 76
0
 77
1
 78
12
 79
3
170
0
171
3
172
1
173
0
174
0
175
0
176
0
177
0
178
0
179
2
271
2
272
2
273
2
274
3
275
0
276
0
277
2
278
46
279
2
280
0
281
0
282
0
283
0
284
8
285
0
286
0
288
1
289
3
290
0
340
4C
371
-2
372
-2
  0
DIMSTYLE
105
7D
330
4
100
AcDbSymbolTableRecord
100
AcDbDimStyleTableRecord
  2
EZ_M_50_H25_CM
 70
0
 40
1.0
 41
0.125
 42
0.0625
 43
3.75
 44
0.1875
 45
0.0
 46
0.0
 47
0.0
 48
0.0
 49
2.5
140
0.125
141
2.5
142
0.0625
143
0.03937007874
144
100.0
145
0.0
146
0.5
147
0.05
148
0.0
 69
0
 70
0
 71
0
 72
0
 73
0
 74
0
 75
0
 76
0
 77
1
 78
12
 79
3
170
0
171
3
172
1
173
0
174
0
175
0
176
0
177
0
178
0
179
2
271
2
272
2
273
2
274
3
275
0
276
0
277
2
278
46
279
2
280
0
281
0
282
0
283
0
284
8
285
0
286
0
288
1
289
3
290
0
340
4C
371
-2
372
-2
  0
DIMSTYLE
105
7E
330
4
100
AcDbSymbolTableRecord
100
AcDbDimStyleTableRecord
  2
EZ_M_25_H25_CM
 70
0
 40
1.0
 41
0.0625
 42
0.03125
 43
3.75
 44
0.09375
 45
0.0
 46
0.0
 47
0.0
 48
0.0
 49
2.5
140
0.0625
141
2.5
142
0.03125
143
0.03937007874
144
100.0
145
0.0
146
0.5
147
0.025
148
0.0
 69
0
 70
0
 71
0
 72
0
 73
0
 74
0
 75
0
 76
0
 77
1
 78
12
 79
3
170
0
171
3
172
1
173
0
174
0
175
0
176
0
177
0
178
0
179
2
271
2
272
2
273
2
274
3
275
0
276
0
277
2
278
46
279
2
280
0
281
0
282
0
283
0
284
8
285
0
286
0
288
1
289
3
290
0
340
4C
371
-2
372
-2
  0
DIMSTYLE
105
7F
330
4
100
AcDbSymbolTableRecord
100
AcDbDimStyleTableRecord
  2
EZ_M_20_H25_CM
 70
0
 40
1.0
 41
0.05
 42
0.025
 43
3.75
 44
0.07500000000000001
 45
0.0
 46
0.0
 47
0.0
 48
0.0
 49
2.5
140
0.05
141
2.5
142
0.025
143
0.03937007874
144
100.0
145
0.0
146
0.5
147
0.020000000000000004
148
0.0
 69
0
 70
0
 71
0
 72
0
 73
0
 74
0
 75
0
 76
0
 77
1
 78
12
 79
3
170
0
171
3
172
1
173
0
174
0
175
0
176
0
177
0
178
0
179
2
271
2
272
2
273
2
274
3
275
0
276
0
277
2
278
46
279
2
280
0
281
0
282
0
283
0
284
8
285
0
286
0
288
1
289
3
290
0
340
4C
371
-2
372
-2
  0
DIMSTYLE
105
80
330
4
100
AcDbSymbolTableRecord
100
AcDbDimStyleTableRecord
  2
EZ_M_10_H25_CM
 70
0
 40
1.0
 41
0.025
 42
0.0125
 43
3.75
 44
0.037500000000000006
 45
0.0
 46
0.0
 47
0.0
 48
0.0
 49
2.5
140
0.025
141
2.5
142
0.0125
143
0.03937007874
144
100.0
145
0.0
146
0.5
147
0.010000000000000002
148
0.0
 69
0
 70
0
 71
0
 72
0
 73
0
 74
0
 75
0
 76
0
 77
1
 78
12
 79
3
170
0
171
3
172
1
173
0
174
0
175
0
176
0
177
0
178
0
179
2
271
2
272
2
273
2
274
3
275
0
276
0
277
2
278
46
279
2
280
0
281
0
282
0
283
0
284
8
285
0
286
0
288
1
289
3
290
0
340
4C
371
-2
372
-2
  0
DIMSTYLE
105
81
330
4
100
AcDbSymbolTableRecord
100
AcDbDimStyleTableRecord
  2
EZ_M_5_H25_CM
 70
0
 40
1.0
 41
0.0125
 42
0.00625
 43
3.75
 44
0.018750000000000003
 45
0.0
 46
0.0
 47
0.0
 48
0.0
 49
2.5
140
0.0125
141
2.5
142
0.00625
143
0.03937007874
144
100.0
145
0.0
146
0.5
147
0.005000000000000001
148
0.0
 69
0
 70
0
 71
0
 72
0
 73
0
 74
0
 75
0
 76
0
 77
1
 78
12
 79
3
170
0
171
3
172
1
173
0
174
0
175
0
176
0
177
0
178
0
179
2
271
2
272
2
273
2
274
3
275
0
276
0
277
2
278
46
279
2
280
0
281
0
282
0
283
0
284
8
285
0
286
0
288
1
289
3
290
0
340
4C
371
-2
372
-2
  0
DIMSTYLE
105
82
330
4
100
AcDbSymbolTableRecord
100
AcDbDimStyleTableRecord
  2
EZ_M_1_H25_CM
 70
0
 40
1.0
 41
0.0025
 42
0.00125
 43
3.75
 44
0.00375
 45
0.0
 46
0.0
 47
0.0
 48
0.0
 49
2.5
140
0.0025
141
2.5
142
0.00125
143
0.03937007874
144
100.0
145
0.0
146
0.5
147
0.001
148
0.0
 69
0
 70
0
 71
0
 72
0
 73
0
 74
0
 75
0
 76
0
 77
1
 78
12
 79
3
170
0
171
3
172
1
173
0
174
0
175
0
176
0
177
0
178
0
179
2
271
2
272
2
273
2
274
3
275
0
276
0
277
2
278
46
279
2
280
0
281
0
282
0
283
0
284
8
285
0
286
0
288
1
289
3
290
0
340
4C
371
-2
372
-2
  0
DIMSTYLE
105
83
330
4
100
AcDbSymbolTableRecord
100
AcDbDimStyleTableRecord
  2
EZ_RADIUS
 70
0
 40
1.0
 41
0.25
 42
0.125
 43
3.75
 44
0.375
 45
0.0
 46
0.0
 47
0.0
 48
0.0
 49
2.5
140
0.25
141
0.0
142
0.0
143
0.03937007874
144
100.0
145
0.0
146
0.5
147
0.1
148
0.0
 69
0
 70
0
 71
0
 72
0
 73
0
 74
0
 75
0
 76
0
 77
1
 78
12
 79
3
170
0
171
3
172
0
173
0
174
0
175
0
176
0
177
0
178
0
179
2
271
2
272
2
273
2
274
3
275
0
276
0
277
2
278
46
279
1
280
0
281
0
282
0
283
0
284
8
285
0
286
0
288
1
289
3
290
0
340
4C
342
84
371
-2
372
-2
  0
DIMSTYLE
105
88
330
4
100
AcDbSymbolTableRecord
100
AcDbDimStyleTableRecord
  2
EZ_RADIUS_INSIDE
 70
0
 40
1.0
 41
0.25
 42
0.125
 43
3.75
 44
0.375
 45
0.0
 46
0.0
 47
0.0
 48
0.0
 49
2.5
140
0.25
141
0.0
142
0.0
143
0.03937007874
144
100.0
145
0.0
146
0.5
147
0.1
148
0.0
 69
0
 70
0
 71
0
 72
0
 73
0
 74
0
 75
0
 76
0
 77
0
 78
12
 79
3
170
0
171
3
172
0
173
0
174
1
175
0
176
0
177
0
178
0
179
2
271
2
272
2
273
2
274
3
275
0
276
0
277
2
278
46
279
0
280
0
281
0
282
0
283
0
284
8
285
0
286
0
288
1
289
0
290
0
340
4C
342
84
371
-2
372
-2
  0
DIMSTYLE
105
89
330
4
100
AcDbSymbolTableRecord
100
AcDbDimStyleTableRecord
  2
EZ_CURVED
 70
0
 40
1.0
 41
0.25
 42
0.125
 43
3.75
 44
0.375
 45
0.0
 46
0.0
 47
0.0
 48
0.0
 49
2.5
140
0.25
141
2.5
142
0.0
143
0.03937007874
144
100.0
145
0.0
146
0.5
147
0.1
148
0.0
 69
0
 70
0
 71
0
 72
0
 73
0
 74
0
 75
0
 76
0
 77
1
 78
12
 79
2
 90
2
170
0
171
3
172
1
173
0
174
0
175
0
176
0
177
0
178
0
179
2
271
2
272
2
273
2
274
3
275
0
276
0
277
2
278
46
279
2
280
0
281
0
282
0
283
0
284
8
285
0
286
0
288
1
289
3
290
0
340
4C
371
-2
372
-2
  0
ENDTAB
  0
TABLE
  2
BLOCK_RECORD
  5
9
330
0
100
AcDbSymbolTable
 70
5
  0
BLOCK_RECORD
  5
17
330
9
100
AcDbSymbolTableRecord
100
AcDbBlockTableRecord
  2
*Model_Space
340
1A
 70
0
280
1
281
0
  0
BLOCK_RECORD
  5
1B
330
9
100
AcDbSymbolTableRecord
100
AcDbBlockTableRecord
  2
*Paper_Space
340
1E
 70
0
280
1
281
0
  0
BLOCK_RECORD
  5
74
330
9
100
AcDbSymbolTableRecord
100
AcDbBlockTableRecord
  2
_ARCHTICK
340
0
 70
0
280
1
281
0
  0
BLOCK_RECORD
  5
78
330
9
100
AcDbSymbolTableRecord
100
AcDbBlockTableRecord
  2
_CLOSEDFILLED
340
0
 70
0
280
1
281
0
  0
BLOCK_RECORD
  5
84
330
9
100
AcDbSymbolTableRecord
100
AcDbBlockTableRecord
  2
_CLOSEDBLANK
340
0
 70
0
280
1
281
0
  0
ENDTAB
  0
ENDSEC
  0
SECTION
  2
BLOCKS
  0
BLOCK
  5
18
330
17
100
AcDbEntity
  8
0
100
AcDbBlockBegin
  2
*Model_Space
 70
0
 10
0.0
 20
0.0
 30
0.0
  3
*Model_Space
  1

  0
ENDBLK
  5
19
330
17
100
AcDbEntity
  8
0
100
AcDbBlockEnd
  0
BLOCK
  5
1C
330
1B
100
AcDbEntity
  8
0
100
AcDbBlockBegin
  2
*Paper_Space
 70
0
 10
0.0
 20
0.0
 30
0.0
  3
*Paper_Space
  1

  0
ENDBLK
  5
1D
330
1B
100
AcDbEntity
  8
0
100
AcDbBlockEnd
  0
BLOCK
  5
75
330
74
100
AcDbEntity
  8
0
100
AcDbBlockBegin
  2
_ARCHTICK
 70
0
 10
0.0
 20
0.0
 30
0.0
  3
_ARCHTICK
  1

  0
LWPOLYLINE
  5
77
330
74
100
AcDbEntity
  8
0
  6
BYBLOCK
 62
0
100
AcDbPolyline
 90
2
 70
0
 43
0.15
 10
-0.5
 20
-0.5
 10
0.5
 20
0.5
  0
ENDBLK
  5
76
330
74
100
AcDbEntity
  8
0
100
AcDbBlockEnd
  0
BLOCK
  5
79
330
78
100
AcDbEntity
  8
0
100
AcDbBlockBegin
  2
_CLOSEDFILLED
 70
0
 10
0.0
 20
0.0
 30
0.0
  3
_CLOSEDFILLED
  1

  0
SOLID
  5
7B
330
78
100
AcDbEntity
  8
0
  6
BYBLOCK
 62
0
100
AcDbTrace
 10
-1.0
 20
0.16439898372402537
 30
0.0
 11
0.0
 21
0.0
 31
0.0
 12
-1.0
 22
-0.16439898372402537
 32
0.0
 13
-1.0
 23
-0.16439898372402537
 33
0.0
  0
ENDBLK
  5
7A
330
78
100
AcDbEntity
  8
0
100
AcDbBlockEnd
  0
BLOCK
  5
85
330
84
100
AcDbEntity
  8
0
100
AcDbBlockBegin
  2
_CLOSEDBLANK
 70
0
 10
0.0
 20
0.0
 30
0.0
  3
_CLOSEDBLANK
  1

  0
LWPOLYLINE
  5
87
330
84
100
AcDbEntity
  8
0
  6
BYBLOCK
 62
0
100
AcDbPolyline
 90
3
 70
1
 10
-1.0
 20
0.16439898372402537
 10
0.0
 20
0.0
 10
-1.0
 20
-0.16439898372402537
  0
ENDBLK
  5
86
330
84
100
AcDbEntity
  8
0
100
AcDbBlockEnd
  0
ENDSEC
  0
SECTION
  2
ENTITIES
  0
LWPOLYLINE
  5
97
330
17
100
AcDbEntity
  8
BOARD_BOUNDARY
100
AcDbPolyline
 90
4
 70
1
 10
0.0
 20
0.0
 10
1220.0
 20
0.0
 10
1220.0
 20
900.0
 10
0.0
 20
900.0
  0
TEXT
  5
98
330
17
100
AcDbEntity
  8
NOTES
100
AcDbText
 10
610.0
 20
922.0
 30
0.0
 40
14.0
  1
ONE BOARD  1220 x 900 x 20  (SOLID TIMBER)  -  24 PARTS
 72
1
 11
610.0
 21
922.0
 31
0.0
100
AcDbText
 73
2
  0
LINE
  5
99
330
17
100
AcDbEntity
  8
DIMENSIONS
100
AcDbLine
 10
0.0
 20
-30.0
 30
0.0
 11
1220.0
 21
-30.0
 31
0.0
  0
LINE
  5
9A
330
17
100
AcDbEntity
  8
DIMENSIONS
100
AcDbLine
 10
0.0
 20
-33.6
 30
0.0
 11
0.0
 21
-26.4
 31
0.0
  0
LINE
  5
9B
330
17
100
AcDbEntity
  8
DIMENSIONS
100
AcDbLine
 10
1220.0
 20
-33.6
 30
0.0
 11
1220.0
 21
-26.4
 31
0.0
  0
TEXT
  5
9C
330
17
100
AcDbEntity
  8
DIMENSIONS
100
AcDbText
 10
610.0
 20
-22.8
 30
0.0
 40
9.0
  1
1220
 72
1
 11
610.0
 21
-22.8
 31
0.0
100
AcDbText
 73
2
  0
LINE
  5
9D
330
17
100
AcDbEntity
  8
DIMENSIONS
100
AcDbLine
 10
-35.0
 20
0.0
 30
0.0
 11
-35.0
 21
900.0
 31
0.0
  0
LINE
  5
9E
330
17
100
AcDbEntity
  8
DIMENSIONS
100
AcDbLine
 10
-38.6
 20
0.0
 30
0.0
 11
-31.4
 21
0.0
 31
0.0
  0
LINE
  5
9F
330
17
100
AcDbEntity
  8
DIMENSIONS
100
AcDbLine
 10
-38.6
 20
900.0
 30
0.0
 11
-31.4
 21
900.0
 31
0.0
  0
TEXT
  5
A0
330
17
100
AcDbEntity
  8
DIMENSIONS
100
AcDbText
 10
-26.9
 20
450.0
 30
0.0
 40
9.0
  1
900
 50
90.0
 72
1
 11
-26.9
 21
450.0
 31
0.0
100
AcDbText
 73
2
  0
LWPOLYLINE
  5
A1
330
17
100
AcDbEntity
  8
CUT_THROUGH
100
AcDbPolyline
 90
4
 70
1
 10
20.0
 20
20.0
 10
606.0
 20
20.0
 10
606.0
 20
60.0
 10
20.0
 20
60.0
  0
LWPOLYLINE
  5
A2
330
17
100
AcDbEntity
  8
POCKET_10MM
100
AcDbPolyline
 90
4
 70
1
 10
20.0
 20
20.0
 10
60.0
 20
20.0
 10
60.0
 20
60.0
 10
20.0
 20
60.0
  0
LWPOLYLINE
  5
A3
330
17
100
AcDbEntity
  8
POCKET_10MM
100
AcDbPolyline
 90
4
 70
1
 10
566.0
 20
20.0
 10
606.0
 20
20.0
 10
606.0
 20
60.0
 10
566.0
 20
60.0
  0
LWPOLYLINE
  5
A4
330
17
100
AcDbEntity
  8
HINGE_REF
100
AcDbPolyline
 90
4
 70
1
 10
143.0
 20
40.0
 10
183.0
 20
40.0
 10
183.0
 20
60.0
 10
143.0
 20
60.0
  0
LWPOLYLINE
  5
A5
330
17
100
AcDbEntity
  8
HINGE_REF
100
AcDbPolyline
 90
4
 70
1
 10
443.0
 20
40.0
 10
483.0
 20
40.0
 10
483.0
 20
60.0
 10
443.0
 20
60.0
  0
TEXT
  5
A6
330
17
100
AcDbEntity
  8
PART_ID
100
AcDbText
 10
313.0
 20
40.0
 30
0.0
 40
9.0
  1
F01-1
 72
1
 11
313.0
 21
40.0
 31
0.0
100
AcDbText
 73
2
  0
TEXT
  5
A7
330
17
100
AcDbEntity
  8
NOTES
100
AcDbText
 10
313.0
 20
65.5
 30
0.0
 40
5.0
  1
FIXED FRAME STILE  586x40x20  FACE A  [FRAME L]
 72
1
 11
313.0
 21
65.5
 31
0.0
100
AcDbText
 73
2
  0
LWPOLYLINE
  5
A8
330
17
100
AcDbEntity
  8
CUT_THROUGH
100
AcDbPolyline
 90
4
 70
1
 10
618.0
 20
20.0
 10
1081.0
 20
20.0
 10
1081.0
 20
60.0
 10
618.0
 20
60.0
  0
LWPOLYLINE
  5
A9
330
17
100
AcDbEntity
  8
POCKET_10MM
100
AcDbPolyline
 90
4
 70
1
 10
618.0
 20
20.0
 10
658.0
 20
20.0
 10
658.0
 20
60.0
 10
618.0
 20
60.0
  0
LWPOLYLINE
  5
AA
330
17
100
AcDbEntity
  8
POCKET_10MM
100
AcDbPolyline
 90
4
 70
1
 10
1041.0
 20
20.0
 10
1081.0
 20
20.0
 10
1081.0
 20
60.0
 10
1041.0
 20
60.0
  0
LWPOLYLINE
  5
AB
330
17
100
AcDbEntity
  8
LATCH_REF
100
AcDbPolyline
 90
4
 70
1
 10
823.0
 20
40.0
 10
843.0
 20
40.0
 10
843.0
 20
60.0
 10
823.0
 20
60.0
  0
TEXT
  5
AC
330
17
100
AcDbEntity
  8
PART_ID
100
AcDbText
 10
849.5
 20
40.0
 30
0.0
 40
9.0
  1
F02-1
 72
1
 11
849.5
 21
40.0
 31
0.0
100
AcDbText
 73
2
  0
TEXT
  5
AD
330
17
100
AcDbEntity
  8
NOTES
100
AcDbText
 10
849.5
 20
65.5
 30
0.0
 40
5.0
  1
FIXED FRAME RAIL  463x40x20  FACE B  [FRAME B]
 72
1
 11
849.5
 21
65.5
 31
0.0
100
AcDbText
 73
2
  0
LWPOLYLINE
  5
AE
330
17
100
AcDbEntity
  8
CUT_THROUGH
100
AcDbPolyline
 90
4
 70
1
 10
20.0
 20
72.0
 10
606.0
 20
72.0
 10
606.0
 20
112.0
 10
20.0
 20
112.0
  0
LWPOLYLINE
  5
AF
330
17
100
AcDbEntity
  8
POCKET_10MM
100
AcDbPolyline
 90
4
 70
1
 10
20.0
 20
72.0
 10
60.0
 20
72.0
 10
60.0
 20
112.0
 10
20.0
 20
112.0
  0
LWPOLYLINE
  5
B0
330
17
100
AcDbEntity
  8
POCKET_10MM
100
AcDbPolyline
 90
4
 70
1
 10
566.0
 20
72.0
 10
606.0
 20
72.0
 10
606.0
 20
112.0
 10
566.0
 20
112.0
  0
LWPOLYLINE
  5
B1
330
17
100
AcDbEntity
  8
HINGE_REF
100
AcDbPolyline
 90
4
 70
1
 10
143.0
 20
92.0
 10
183.0
 20
92.0
 10
183.0
 20
112.0
 10
143.0
 20
112.0
  0
LWPOLYLINE
  5
B2
330
17
100
AcDbEntity
  8
HINGE_REF
100
AcDbPolyline
 90
4
 70
1
 10
443.0
 20
92.0
 10
483.0
 20
92.0
 10
483.0
 20
112.0
 10
443.0
 20
112.0
  0
TEXT
  5
B3
330
17
100
AcDbEntity
  8
PART_ID
100
AcDbText
 10
313.0
 20
92.0
 30
0.0
 40
9.0
  1
F01-2
 72
1
 11
313.0
 21
92.0
 31
0.0
100
AcDbText
 73
2
  0
TEXT
  5
B4
330
17
100
AcDbEntity
  8
NOTES
100
AcDbText
 10
313.0
 20
117.5
 30
0.0
 40
5.0
  1
FIXED FRAME STILE  586x40x20  FACE A  [FRAME R]
 72
1
 11
313.0
 21
117.5
 31
0.0
100
AcDbText
 73
2
  0
LWPOLYLINE
  5
B5
330
17
100
AcDbEntity
  8
CUT_THROUGH
100
AcDbPolyline
 90
4
 70
1
 10
618.0
 20
72.0
 10
1081.0
 20
72.0
 10
1081.0
 20
112.0
 10
618.0
 20
112.0
  0
LWPOLYLINE
  5
B6
330
17
100
AcDbEntity
  8
POCKET_10MM
100
AcDbPolyline
 90
4
 70
1
 10
618.0
 20
72.0
 10
658.0
 20
72.0
 10
658.0
 20
112.0
 10
618.0
 20
112.0
  0
LWPOLYLINE
  5
B7
330
17
100
AcDbEntity
  8
POCKET_10MM
100
AcDbPolyline
 90
4
 70
1
 10
1041.0
 20
72.0
 10
1081.0
 20
72.0
 10
1081.0
 20
112.0
 10
1041.0
 20
112.0
  0
LWPOLYLINE
  5
B8
330
17
100
AcDbEntity
  8
LATCH_REF
100
AcDbPolyline
 90
4
 70
1
 10
823.0
 20
92.0
 10
843.0
 20
92.0
 10
843.0
 20
112.0
 10
823.0
 20
112.0
  0
TEXT
  5
B9
330
17
100
AcDbEntity
  8
PART_ID
100
AcDbText
 10
849.5
 20
92.0
 30
0.0
 40
9.0
  1
F02-2
 72
1
 11
849.5
 21
92.0
 31
0.0
100
AcDbText
 73
2
  0
TEXT
  5
BA
330
17
100
AcDbEntity
  8
NOTES
100
AcDbText
 10
849.5
 20
117.5
 30
0.0
 40
5.0
  1
FIXED FRAME RAIL  463x40x20  FACE B  [FRAME T]
 72
1
 11
849.5
 21
117.5
 31
0.0
100
AcDbText
 73
2
  0
LWPOLYLINE
  5
BB
330
17
100
AcDbEntity
  8
CUT_THROUGH
100
AcDbPolyline
 90
4
 70
1
 10
20.0
 20
124.0
 10
520.0
 20
124.0
 10
520.0
 20
154.0
 10
20.0
 20
154.0
  0
LWPOLYLINE
  5
BC
330
17
100
AcDbEntity
  8
POCKET_10MM
100
AcDbPolyline
 90
4
 70
1
 10
20.0
 20
124.0
 10
50.0
 20
124.0
 10
50.0
 20
154.0
 10
20.0
 20
154.0
  0
LWPOLYLINE
  5
BD
330
17
100
AcDbEntity
  8
POCKET_10MM
100
AcDbPolyline
 90
4
 70
1
 10
490.0
 20
124.0
 10
520.0
 20
124.0
 10
520.0
 20
154.0
 10
490.0
 20
154.0
  0
LWPOLYLINE
  5
BE
330
17
100
AcDbEntity
  8
POCKET_10MM
100
AcDbPolyline
 90
4
 70
1
 10
115.0
 20
144.0
 10
125.0
 20
144.0
 10
125.0
 20
154.0
 10
115.0
 20
154.0
  0
LWPOLYLINE
  5
BF
330
17
100
AcDbEntity
  8
POCKET_10MM
100
AcDbPolyline
 90
4
 70
1
 10
190.0
 20
144.0
 10
200.0
 20
144.0
 10
200.0
 20
154.0
 10
190.0
 20
154.0
  0
LWPOLYLINE
  5
C0
330
17
100
AcDbEntity
  8
POCKET_10MM
100
AcDbPolyline
 90
4
 70
1
 10
265.0
 20
144.0
 10
275.0
 20
144.0
 10
275.0
 20
154.0
 10
265.0
 20
154.0
  0
LWPOLYLINE
  5
C1
330
17
100
AcDbEntity
  8
POCKET_10MM
100
AcDbPolyline
 90
4
 70
1
 10
340.0
 20
144.0
 10
350.0
 20
144.0
 10
350.0
 20
154.0
 10
340.0
 20
154.0
  0
LWPOLYLINE
  5
C2
330
17
100
AcDbEntity
  8
POCKET_10MM
100
AcDbPolyline
 90
4
 70
1
 10
415.0
 20
144.0
 10
425.0
 20
144.0
 10
425.0
 20
154.0
 10
415.0
 20
154.0
  0
CIRCLE
  5
C3
330
17
100
AcDbEntity
  8
DOGBONE
100
AcDbCircle
 10
117.26274169979695
 20
146.26274169979695
 30
0.0
 40
3.2
  0
CIRCLE
  5
C4
330
17
100
AcDbEntity
  8
DOGBONE
100
AcDbCircle
 10
122.73725830020305
 20
146.26274169979695
 30
0.0
 40
3.2
  0
CIRCLE
  5
C5
330
17
100
AcDbEntity
  8
DOGBONE
100
AcDbCircle
 10
192.26274169979695
 20
146.26274169979695
 30
0.0
 40
3.2
  0
CIRCLE
  5
C6
330
17
100
AcDbEntity
  8
DOGBONE
100
AcDbCircle
 10
197.73725830020305
 20
146.26274169979695
 30
0.0
 40
3.2
  0
CIRCLE
  5
C7
330
17
100
AcDbEntity
  8
DOGBONE
100
AcDbCircle
 10
267.26274169979695
 20
146.26274169979695
 30
0.0
 40
3.2
  0
CIRCLE
  5
C8
330
17
100
AcDbEntity
  8
DOGBONE
100
AcDbCircle
 10
272.73725830020305
 20
146.26274169979695
 30
0.0
 40
3.2
  0
CIRCLE
  5
C9
330
17
100
AcDbEntity
  8
DOGBONE
100
AcDbCircle
 10
342.26274169979695
 20
146.26274169979695
 30
0.0
 40
3.2
  0
CIRCLE
  5
CA
330
17
100
AcDbEntity
  8
DOGBONE
100
AcDbCircle
 10
347.73725830020305
 20
146.26274169979695
 30
0.0
 40
3.2
  0
CIRCLE
  5
CB
330
17
100
AcDbEntity
  8
DOGBONE
100
AcDbCircle
 10
417.26274169979695
 20
146.26274169979695
 30
0.0
 40
3.2
  0
CIRCLE
  5
CC
330
17
100
AcDbEntity
  8
DOGBONE
100
AcDbCircle
 10
422.73725830020305
 20
146.26274169979695
 30
0.0
 40
3.2
  0
LWPOLYLINE
  5
CD
330
17
100
AcDbEntity
  8
HINGE_REF
100
AcDbPolyline
 90
4
 70
1
 10
100.0
 20
124.0
 10
140.0
 20
124.0
 10
140.0
 20
144.0
 10
100.0
 20
144.0
  0
LWPOLYLINE
  5
CE
330
17
100
AcDbEntity
  8
HINGE_REF
100
AcDbPolyline
 90
4
 70
1
 10
400.0
 20
124.0
 10
440.0
 20
124.0
 10
440.0
 20
144.0
 10
400.0
 20
144.0
  0
TEXT
  5
CF
330
17
100
AcDbEntity
  8
PART_ID
100
AcDbText
 10
270.0
 20
139.0
 30
0.0
 40
9.0
  1
S01-1
 72
1
 11
270.0
 21
139.0
 31
0.0
100
AcDbText
 73
2
  0
TEXT
  5
D0
330
17
100
AcDbEntity
  8
NOTES
100
AcDbText
 10
270.0
 20
159.5
 30
0.0
 40
5.0
  1
SASH STILE  500x30x20  FACE B  [LEFT]
 72
1
 11
270.0
 21
159.5
 31
0.0
100
AcDbText
 73
2
  0
LWPOLYLINE
  5
D1
330
17
100
AcDbEntity
  8
CUT_THROUGH
100
AcDbPolyline
 90
4
 70
1
 10
532.0
 20
124.0
 10
1032.0
 20
124.0
 10
1032.0
 20
154.0
 10
532.0
 20
154.0
  0
LWPOLYLINE
  5
D2
330
17
100
AcDbEntity
  8
POCKET_10MM
100
AcDbPolyline
 90
4
 70
1
 10
532.0
 20
124.0
 10
562.0
 20
124.0
 10
562.0
 20
154.0
 10
532.0
 20
154.0
  0
LWPOLYLINE
  5
D3
330
17
100
AcDbEntity
  8
POCKET_10MM
100
AcDbPolyline
 90
4
 70
1
 10
1002.0
 20
124.0
 10
1032.0
 20
124.0
 10
1032.0
 20
154.0
 10
1002.0
 20
154.0
  0
LWPOLYLINE
  5
D4
330
17
100
AcDbEntity
  8
POCKET_10MM
100
AcDbPolyline
 90
4
 70
1
 10
627.0
 20
144.0
 10
637.0
 20
144.0
 10
637.0
 20
154.0
 10
627.0
 20
154.0
  0
LWPOLYLINE
  5
D5
330
17
100
AcDbEntity
  8
POCKET_10MM
100
AcDbPolyline
 90
4
 70
1
 10
702.0
 20
144.0
 10
712.0
 20
144.0
 10
712.0
 20
154.0
 10
702.0
 20
154.0
  0
LWPOLYLINE
  5
D6
330
17
100
AcDbEntity
  8
POCKET_10MM
100
AcDbPolyline
 90
4
 70
1
 10
777.0
 20
144.0
 10
787.0
 20
144.0
 10
787.0
 20
154.0
 10
777.0
 20
154.0
  0
LWPOLYLINE
  5
D7
330
17
100
AcDbEntity
  8
POCKET_10MM
100
AcDbPolyline
 90
4
 70
1
 10
852.0
 20
144.0
 10
862.0
 20
144.0
 10
862.0
 20
154.0
 10
852.0
 20
154.0
  0
LWPOLYLINE
  5
D8
330
17
100
AcDbEntity
  8
POCKET_10MM
100
AcDbPolyline
 90
4
 70
1
 10
927.0
 20
144.0
 10
937.0
 20
144.0
 10
937.0
 20
154.0
 10
927.0
 20
154.0
  0
CIRCLE
  5
D9
330
17
100
AcDbEntity
  8
DOGBONE
100
AcDbCircle
 10
629.262741699797
 20
146.26274169979695
 30
0.0
 40
3.2
  0
CIRCLE
  5
DA
330
17
100
AcDbEntity
  8
DOGBONE
100
AcDbCircle
 10
634.737258300203
 20
146.26274169979695
 30
0.0
 40
3.2
  0
CIRCLE
  5
DB
330
17
100
AcDbEntity
  8
DOGBONE
100
AcDbCircle
 10
704.262741699797
 20
146.26274169979695
 30
0.0
 40
3.2
  0
CIRCLE
  5
DC
330
17
100
AcDbEntity
  8
DOGBONE
100
AcDbCircle
 10
709.737258300203
 20
146.26274169979695
 30
0.0
 40
3.2
  0
CIRCLE
  5
DD
330
17
100
AcDbEntity
  8
DOGBONE
100
AcDbCircle
 10
779.262741699797
 20
146.26274169979695
 30
0.0
 40
3.2
  0
CIRCLE
  5
DE
330
17
100
AcDbEntity
  8
DOGBONE
100
AcDbCircle
 10
784.737258300203
 20
146.26274169979695
 30
0.0
 40
3.2
  0
CIRCLE
  5
DF
330
17
100
AcDbEntity
  8
DOGBONE
100
AcDbCircle
 10
854.262741699797
 20
146.26274169979695
 30
0.0
 40
3.2
  0
CIRCLE
  5
E0
330
17
100
AcDbEntity
  8
DOGBONE
100
AcDbCircle
 10
859.737258300203
 20
146.26274169979695
 30
0.0
 40
3.2
  0
CIRCLE
  5
E1
330
17
100
AcDbEntity
  8
DOGBONE
100
AcDbCircle
 10
929.262741699797
 20
146.26274169979695
 30
0.0
 40
3.2
  0
CIRCLE
  5
E2
330
17
100
AcDbEntity
  8
DOGBONE
100
AcDbCircle
 10
934.737258300203
 20
146.26274169979695
 30
0.0
 40
3.2
  0
LWPOLYLINE
  5
E3
330
17
100
AcDbEntity
  8
LATCH_REF
100
AcDbPolyline
 90
4
 70
1
 10
572.0
 20
124.0
 10
612.0
 20
124.0
 10
612.0
 20
144.0
 10
572.0
 20
144.0
  0
LWPOLYLINE
  5
E4
330
17
100
AcDbEntity
  8
LATCH_REF
100
AcDbPolyline
 90
4
 70
1
 10
952.0
 20
124.0
 10
992.0
 20
124.0
 10
992.0
 20
144.0
 10
952.0
 20
144.0
  0
LWPOLYLINE
  5
E5
330
17
100
AcDbEntity
  8
LATCH_REF
100
AcDbPolyline
 90
4
 70
1
 10
762.0
 20
124.0
 10
802.0
 20
124.0
 10
802.0
 20
144.0
 10
762.0
 20
144.0
  0
TEXT
  5
E6
330
17
100
AcDbEntity
  8
PART_ID
100
AcDbText
 10
782.0
 20
139.0
 30
0.0
 40
9.0
  1
S01-2
 72
1
 11
782.0
 21
139.0
 31
0.0
100
AcDbText
 73
2
  0
TEXT
  5
E7
330
17
100
AcDbEntity
  8
NOTES
100
AcDbText
 10
782.0
 20
159.5
 30
0.0
 40
5.0
  1
SASH STILE  500x30x20  FACE B  [LEFT]
 72
1
 11
782.0
 21
159.5
 31
0.0
100
AcDbText
 73
2
  0
LWPOLYLINE
  5
E8
330
17
100
AcDbEntity
  8
CUT_THROUGH
100
AcDbPolyline
 90
4
 70
1
 10
20.0
 20
166.0
 10
520.0
 20
166.0
 10
520.0
 20
196.0
 10
20.0
 20
196.0
  0
LWPOLYLINE
  5
E9
330
17
100
AcDbEntity
  8
POCKET_10MM
100
AcDbPolyline
 90
4
 70
1
 10
20.0
 20
166.0
 10
50.0
 20
166.0
 10
50.0
 20
196.0
 10
20.0
 20
196.0
  0
LWPOLYLINE
  5
EA
330
17
100
AcDbEntity
  8
POCKET_10MM
100
AcDbPolyline
 90
4
 70
1
 10
490.0
 20
166.0
 10
520.0
 20
166.0
 10
520.0
 20
196.0
 10
490.0
 20
196.0
  0
LWPOLYLINE
  5
EB
330
17
100
AcDbEntity
  8
POCKET_10MM
100
AcDbPolyline
 90
4
 70
1
 10
115.0
 20
186.0
 10
125.0
 20
186.0
 10
125.0
 20
196.0
 10
115.0
 20
196.0
  0
LWPOLYLINE
  5
EC
330
17
100
AcDbEntity
  8
POCKET_10MM
100
AcDbPolyline
 90
4
 70
1
 10
190.0
 20
186.0
 10
200.0
 20
186.0
 10
200.0
 20
196.0
 10
190.0
 20
196.0
  0
LWPOLYLINE
  5
ED
330
17
100
AcDbEntity
  8
POCKET_10MM
100
AcDbPolyline
 90
4
 70
1
 10
265.0
 20
186.0
 10
275.0
 20
186.0
 10
275.0
 20
196.0
 10
265.0
 20
196.0
  0
LWPOLYLINE
  5
EE
330
17
100
AcDbEntity
  8
POCKET_10MM
100
AcDbPolyline
 90
4
 70
1
 10
340.0
 20
186.0
 10
350.0
 20
186.0
 10
350.0
 20
196.0
 10
340.0
 20
196.0
  0
LWPOLYLINE
  5
EF
330
17
100
AcDbEntity
  8
POCKET_10MM
100
AcDbPolyline
 90
4
 70
1
 10
415.0
 20
186.0
 10
425.0
 20
186.0
 10
425.0
 20
196.0
 10
415.0
 20
196.0
  0
CIRCLE
  5
F0
330
17
100
AcDbEntity
  8
DOGBONE
100
AcDbCircle
 10
117.26274169979695
 20
188.26274169979695
 30
0.0
 40
3.2
  0
CIRCLE
  5
F1
330
17
100
AcDbEntity
  8
DOGBONE
100
AcDbCircle
 10
122.73725830020305
 20
188.26274169979695
 30
0.0
 40
3.2
  0
CIRCLE
  5
F2
330
17
100
AcDbEntity
  8
DOGBONE
100
AcDbCircle
 10
192.26274169979695
 20
188.26274169979695
 30
0.0
 40
3.2
  0
CIRCLE
  5
F3
330
17
100
AcDbEntity
  8
DOGBONE
100
AcDbCircle
 10
197.73725830020305
 20
188.26274169979695
 30
0.0
 40
3.2
  0
CIRCLE
  5
F4
330
17
100
AcDbEntity
  8
DOGBONE
100
AcDbCircle
 10
267.26274169979695
 20
188.26274169979695
 30
0.0
 40
3.2
  0
CIRCLE
  5
F5
330
17
100
AcDbEntity
  8
DOGBONE
100
AcDbCircle
 10
272.73725830020305
 20
188.26274169979695
 30
0.0
 40
3.2
  0
CIRCLE
  5
F6
330
17
100
AcDbEntity
  8
DOGBONE
100
AcDbCircle
 10
342.26274169979695
 20
188.26274169979695
 30
0.0
 40
3.2
  0
CIRCLE
  5
F7
330
17
100
AcDbEntity
  8
DOGBONE
100
AcDbCircle
 10
347.73725830020305
 20
188.26274169979695
 30
0.0
 40
3.2
  0
CIRCLE
  5
F8
330
17
100
AcDbEntity
  8
DOGBONE
100
AcDbCircle
 10
417.26274169979695
 20
188.26274169979695
 30
0.0
 40
3.2
  0
CIRCLE
  5
F9
330
17
100
AcDbEntity
  8
DOGBONE
100
AcDbCircle
 10
422.73725830020305
 20
188.26274169979695
 30
0.0
 40
3.2
  0
LWPOLYLINE
  5
FA
330
17
100
AcDbEntity
  8
HINGE_REF
100
AcDbPolyline
 90
4
 70
1
 10
100.0
 20
166.0
 10
140.0
 20
166.0
 10
140.0
 20
186.0
 10
100.0
 20
186.0
  0
LWPOLYLINE
  5
FB
330
17
100
AcDbEntity
  8
HINGE_REF
100
AcDbPolyline
 90
4
 70
1
 10
400.0
 20
166.0
 10
440.0
 20
166.0
 10
440.0
 20
186.0
 10
400.0
 20
186.0
  0
TEXT
  5
FC
330
17
100
AcDbEntity
  8
PART_ID
100
AcDbText
 10
270.0
 20
181.0
 30
0.0
 40
9.0
  1
S01-3
 72
1
 11
270.0
 21
181.0
 31
0.0
100
AcDbText
 73
2
  0
TEXT
  5
FD
330
17
100
AcDbEntity
  8
NOTES
100
AcDbText
 10
270.0
 20
201.5
 30
0.0
 40
5.0
  1
SASH STILE  500x30x20  FACE B  [RIGHT]
 72
1
 11
270.0
 21
201.5
 31
0.0
100
AcDbText
 73
2
  0
LWPOLYLINE
  5
FE
330
17
100
AcDbEntity
  8
CUT_THROUGH
100
AcDbPolyline
 90
4
 70
1
 10
532.0
 20
166.0
 10
1032.0
 20
166.0
 10
1032.0
 20
196.0
 10
532.0
 20
196.0
  0
LWPOLYLINE
  5
FF
330
17
100
AcDbEntity
  8
POCKET_10MM
100
AcDbPolyline
 90
4
 70
1
 10
532.0
 20
166.0
 10
562.0
 20
166.0
 10
562.0
 20
196.0
 10
532.0
 20
196.0
  0
LWPOLYLINE
  5
100
330
17
100
AcDbEntity
  8
POCKET_10MM
100
AcDbPolyline
 90
4
 70
1
 10
1002.0
 20
166.0
 10
1032.0
 20
166.0
 10
1032.0
 20
196.0
 10
1002.0
 20
196.0
  0
LWPOLYLINE
  5
101
330
17
100
AcDbEntity
  8
POCKET_10MM
100
AcDbPolyline
 90
4
 70
1
 10
627.0
 20
186.0
 10
637.0
 20
186.0
 10
637.0
 20
196.0
 10
627.0
 20
196.0
  0
LWPOLYLINE
  5
102
330
17
100
AcDbEntity
  8
POCKET_10MM
100
AcDbPolyline
 90
4
 70
1
 10
702.0
 20
186.0
 10
712.0
 20
186.0
 10
712.0
 20
196.0
 10
702.0
 20
196.0
  0
LWPOLYLINE
  5
103
330
17
100
AcDbEntity
  8
POCKET_10MM
100
AcDbPolyline
 90
4
 70
1
 10
777.0
 20
186.0
 10
787.0
 20
186.0
 10
787.0
 20
196.0
 10
777.0
 20
196.0
  0
LWPOLYLINE
  5
104
330
17
100
AcDbEntity
  8
POCKET_10MM
100
AcDbPolyline
 90
4
 70
1
 10
852.0
 20
186.0
 10
862.0
 20
186.0
 10
862.0
 20
196.0
 10
852.0
 20
196.0
  0
LWPOLYLINE
  5
105
330
17
100
AcDbEntity
  8
POCKET_10MM
100
AcDbPolyline
 90
4
 70
1
 10
927.0
 20
186.0
 10
937.0
 20
186.0
 10
937.0
 20
196.0
 10
927.0
 20
196.0
  0
CIRCLE
  5
106
330
17
100
AcDbEntity
  8
DOGBONE
100
AcDbCircle
 10
629.262741699797
 20
188.26274169979695
 30
0.0
 40
3.2
  0
CIRCLE
  5
107
330
17
100
AcDbEntity
  8
DOGBONE
100
AcDbCircle
 10
634.737258300203
 20
188.26274169979695
 30
0.0
 40
3.2
  0
CIRCLE
  5
108
330
17
100
AcDbEntity
  8
DOGBONE
100
AcDbCircle
 10
704.262741699797
 20
188.26274169979695
 30
0.0
 40
3.2
  0
CIRCLE
  5
109
330
17
100
AcDbEntity
  8
DOGBONE
100
AcDbCircle
 10
709.737258300203
 20
188.26274169979695
 30
0.0
 40
3.2
  0
CIRCLE
  5
10A
330
17
100
AcDbEntity
  8
DOGBONE
100
AcDbCircle
 10
779.262741699797
 20
188.26274169979695
 30
0.0
 40
3.2
  0
CIRCLE
  5
10B
330
17
100
AcDbEntity
  8
DOGBONE
100
AcDbCircle
 10
784.737258300203
 20
188.26274169979695
 30
0.0
 40
3.2
  0
CIRCLE
  5
10C
330
17
100
AcDbEntity
  8
DOGBONE
100
AcDbCircle
 10
854.262741699797
 20
188.26274169979695
 30
0.0
 40
3.2
  0
CIRCLE
  5
10D
330
17
100
AcDbEntity
  8
DOGBONE
100
AcDbCircle
 10
859.737258300203
 20
188.26274169979695
 30
0.0
 40
3.2
  0
CIRCLE
  5
10E
330
17
100
AcDbEntity
  8
DOGBONE
100
AcDbCircle
 10
929.262741699797
 20
188.26274169979695
 30
0.0
 40
3.2
  0
CIRCLE
  5
10F
330
17
100
AcDbEntity
  8
DOGBONE
100
AcDbCircle
 10
934.737258300203
 20
188.26274169979695
 30
0.0
 40
3.2
  0
LWPOLYLINE
  5
110
330
17
100
AcDbEntity
  8
LATCH_REF
100
AcDbPolyline
 90
4
 70
1
 10
762.0
 20
166.0
 10
802.0
 20
166.0
 10
802.0
 20
186.0
 10
762.0
 20
186.0
  0
CIRCLE
  5
111
330
17
100
AcDbEntity
  8
LATCH_REF
100
AcDbCircle
 10
782.0
 20
176.0
 30
0.0
 40
10.0
  0
TEXT
  5
112
330
17
100
AcDbEntity
  8
PART_ID
100
AcDbText
 10
782.0
 20
181.0
 30
0.0
 40
9.0
  1
S01-4
 72
1
 11
782.0
 21
181.0
 31
0.0
100
AcDbText
 73
2
  0
TEXT
  5
113
330
17
100
AcDbEntity
  8
NOTES
100
AcDbText
 10
782.0
 20
201.5
 30
0.0
 40
5.0
  1
SASH STILE  500x30x20  FACE B  [RIGHT]
 72
1
 11
782.0
 21
201.5
 31
0.0
100
AcDbText
 73
2
  0
LWPOLYLINE
  5
114
330
17
100
AcDbEntity
  8
CUT_THROUGH
100
AcDbPolyline
 90
4
 70
1
 10
20.0
 20
208.0
 10
207.0
 20
208.0
 10
207.0
 20
238.0
 10
20.0
 20
238.0
  0
LWPOLYLINE
  5
115
330
17
100
AcDbEntity
  8
POCKET_10MM
100
AcDbPolyline
 90
4
 70
1
 10
20.0
 20
208.0
 10
50.0
 20
208.0
 10
50.0
 20
238.0
 10
20.0
 20
238.0
  0
LWPOLYLINE
  5
116
330
17
100
AcDbEntity
  8
POCKET_10MM
100
AcDbPolyline
 90
4
 70
1
 10
177.0
 20
208.0
 10
207.0
 20
208.0
 10
207.0
 20
238.0
 10
177.0
 20
238.0
  0
LWPOLYLINE
  5
117
330
17
100
AcDbEntity
  8
POCKET_10MM
100
AcDbPolyline
 90
4
 70
1
 10
108.5
 20
228.0
 10
118.5
 20
228.0
 10
118.5
 20
238.0
 10
108.5
 20
238.0
  0
CIRCLE
  5
118
330
17
100
AcDbEntity
  8
DOGBONE
100
AcDbCircle
 10
110.76274169979695
 20
230.26274169979695
 30
0.0
 40
3.2
  0
CIRCLE
  5
119
330
17
100
AcDbEntity
  8
DOGBONE
100
AcDbCircle
 10
116.23725830020305
 20
230.26274169979695
 30
0.0
 40
3.2
  0
TEXT
  5
11A
330
17
100
AcDbEntity
  8
PART_ID
100
AcDbText
 10
113.5
 20
223.0
 30
0.0
 40
9.0
  1
S02-1
 72
1
 11
113.5
 21
223.0
 31
0.0
100
AcDbText
 73
2
  0
TEXT
  5
11B
330
17
100
AcDbEntity
  8
NOTES
100
AcDbText
 10
113.5
 20
243.5
 30
0.0
 40
5.0
  1
SASH RAIL  187x30x20  FACE A  [LEFT]
 72
1
 11
113.5
 21
243.5
 31
0.0
100
AcDbText
 73
2
  0
LWPOLYLINE
  5
11C
330
17
100
AcDbEntity
  8
CUT_THROUGH
100
AcDbPolyline
 90
4
 70
1
 10
219.0
 20
208.0
 10
406.0
 20
208.0
 10
406.0
 20
238.0
 10
219.0
 20
238.0
  0
LWPOLYLINE
  5
11D
330
17
100
AcDbEntity
  8
POCKET_10MM
100
AcDbPolyline
 90
4
 70
1
 10
219.0
 20
208.0
 10
249.0
 20
208.0
 10
249.0
 20
238.0
 10
219.0
 20
238.0
  0
LWPOLYLINE
  5
11E
330
17
100
AcDbEntity
  8
POCKET_10MM
100
AcDbPolyline
 90
4
 70
1
 10
376.0
 20
208.0
 10
406.0
 20
208.0
 10
406.0
 20
238.0
 10
376.0
 20
238.0
  0
LWPOLYLINE
  5
11F
330
17
100
AcDbEntity
  8
POCKET_10MM
100
AcDbPolyline
 90
4
 70
1
 10
307.5
 20
228.0
 10
317.5
 20
228.0
 10
317.5
 20
238.0
 10
307.5
 20
238.0
  0
CIRCLE
  5
120
330
17
100
AcDbEntity
  8
DOGBONE
100
AcDbCircle
 10
309.76274169979695
 20
230.26274169979695
 30
0.0
 40
3.2
  0
CIRCLE
  5
121
330
17
100
AcDbEntity
  8
DOGBONE
100
AcDbCircle
 10
315.23725830020305
 20
230.26274169979695
 30
0.0
 40
3.2
  0
TEXT
  5
122
330
17
100
AcDbEntity
  8
PART_ID
100
AcDbText
 10
312.5
 20
223.0
 30
0.0
 40
9.0
  1
S02-2
 72
1
 11
312.5
 21
223.0
 31
0.0
100
AcDbText
 73
2
  0
TEXT
  5
123
330
17
100
AcDbEntity
  8
NOTES
100
AcDbText
 10
312.5
 20
243.5
 30
0.0
 40
5.0
  1
SASH RAIL  187x30x20  FACE A  [LEFT]
 72
1
 11
312.5
 21
243.5
 31
0.0
100
AcDbText
 73
2
  0
LWPOLYLINE
  5
124
330
17
100
AcDbEntity
  8
CUT_THROUGH
100
AcDbPolyline
 90
4
 70
1
 10
418.0
 20
208.0
 10
605.0
 20
208.0
 10
605.0
 20
238.0
 10
418.0
 20
238.0
  0
LWPOLYLINE
  5
125
330
17
100
AcDbEntity
  8
POCKET_10MM
100
AcDbPolyline
 90
4
 70
1
 10
418.0
 20
208.0
 10
448.0
 20
208.0
 10
448.0
 20
238.0
 10
418.0
 20
238.0
  0
LWPOLYLINE
  5
126
330
17
100
AcDbEntity
  8
POCKET_10MM
100
AcDbPolyline
 90
4
 70
1
 10
575.0
 20
208.0
 10
605.0
 20
208.0
 10
605.0
 20
238.0
 10
575.0
 20
238.0
  0
LWPOLYLINE
  5
127
330
17
100
AcDbEntity
  8
POCKET_10MM
100
AcDbPolyline
 90
4
 70
1
 10
506.5
 20
228.0
 10
516.5
 20
228.0
 10
516.5
 20
238.0
 10
506.5
 20
238.0
  0
CIRCLE
  5
128
330
17
100
AcDbEntity
  8
DOGBONE
100
AcDbCircle
 10
508.76274169979695
 20
230.26274169979695
 30
0.0
 40
3.2
  0
CIRCLE
  5
129
330
17
100
AcDbEntity
  8
DOGBONE
100
AcDbCircle
 10
514.237258300203
 20
230.26274169979695
 30
0.0
 40
3.2
  0
TEXT
  5
12A
330
17
100
AcDbEntity
  8
PART_ID
100
AcDbText
 10
511.5
 20
223.0
 30
0.0
 40
9.0
  1
S02-3
 72
1
 11
511.5
 21
223.0
 31
0.0
100
AcDbText
 73
2
  0
TEXT
  5
12B
330
17
100
AcDbEntity
  8
NOTES
100
AcDbText
 10
511.5
 20
243.5
 30
0.0
 40
5.0
  1
SASH RAIL  187x30x20  FACE A  [RIGHT]
 72
1
 11
511.5
 21
243.5
 31
0.0
100
AcDbText
 73
2
  0
LWPOLYLINE
  5
12C
330
17
100
AcDbEntity
  8
CUT_THROUGH
100
AcDbPolyline
 90
4
 70
1
 10
617.0
 20
208.0
 10
804.0
 20
208.0
 10
804.0
 20
238.0
 10
617.0
 20
238.0
  0
LWPOLYLINE
  5
12D
330
17
100
AcDbEntity
  8
POCKET_10MM
100
AcDbPolyline
 90
4
 70
1
 10
617.0
 20
208.0
 10
647.0
 20
208.0
 10
647.0
 20
238.0
 10
617.0
 20
238.0
  0
LWPOLYLINE
  5
12E
330
17
100
AcDbEntity
  8
POCKET_10MM
100
AcDbPolyline
 90
4
 70
1
 10
774.0
 20
208.0
 10
804.0
 20
208.0
 10
804.0
 20
238.0
 10
774.0
 20
238.0
  0
LWPOLYLINE
  5
12F
330
17
100
AcDbEntity
  8
POCKET_10MM
100
AcDbPolyline
 90
4
 70
1
 10
705.5
 20
228.0
 10
715.5
 20
228.0
 10
715.5
 20
238.0
 10
705.5
 20
238.0
  0
CIRCLE
  5
130
330
17
100
AcDbEntity
  8
DOGBONE
100
AcDbCircle
 10
707.762741699797
 20
230.26274169979695
 30
0.0
 40
3.2
  0
CIRCLE
  5
131
330
17
100
AcDbEntity
  8
DOGBONE
100
AcDbCircle
 10
713.237258300203
 20
230.26274169979695
 30
0.0
 40
3.2
  0
TEXT
  5
132
330
17
100
AcDbEntity
  8
PART_ID
100
AcDbText
 10
710.5
 20
223.0
 30
0.0
 40
9.0
  1
S02-4
 72
1
 11
710.5
 21
223.0
 31
0.0
100
AcDbText
 73
2
  0
TEXT
  5
133
330
17
100
AcDbEntity
  8
NOTES
100
AcDbText
 10
710.5
 20
243.5
 30
0.0
 40
5.0
  1
SASH RAIL  187x30x20  FACE A  [RIGHT]
 72
1
 11
710.5
 21
243.5
 31
0.0
100
AcDbText
 73
2
  0
LWPOLYLINE
  5
134
330
17
100
AcDbEntity
  8
CUT_THROUGH
100
AcDbPolyline
 90
4
 70
1
 10
20.0
 20
250.0
 10
480.0
 20
250.0
 10
480.0
 20
260.0
 10
20.0
 20
260.0
  0
LWPOLYLINE
  5
135
330
17
100
AcDbEntity
  8
POCKET_10MM
100
AcDbPolyline
 90
4
 70
1
 10
20.0
 20
250.0
 10
30.0
 20
250.0
 10
30.0
 20
260.0
 10
20.0
 20
260.0
  0
LWPOLYLINE
  5
136
330
17
100
AcDbEntity
  8
POCKET_10MM
100
AcDbPolyline
 90
4
 70
1
 10
470.0
 20
250.0
 10
480.0
 20
250.0
 10
480.0
 20
260.0
 10
470.0
 20
260.0
  0
LWPOLYLINE
  5
137
330
17
100
AcDbEntity
  8
POCKET_10MM
100
AcDbPolyline
 90
4
 70
1
 10
95.0
 20
250.0
 10
105.0
 20
250.0
 10
105.0
 20
260.0
 10
95.0
 20
260.0
  0
LWPOLYLINE
  5
138
330
17
100
AcDbEntity
  8
POCKET_10MM
100
AcDbPolyline
 90
4
 70
1
 10
170.0
 20
250.0
 10
180.0
 20
250.0
 10
180.0
 20
260.0
 10
170.0
 20
260.0
  0
LWPOLYLINE
  5
139
330
17
100
AcDbEntity
  8
POCKET_10MM
100
AcDbPolyline
 90
4
 70
1
 10
245.0
 20
250.0
 10
255.0
 20
250.0
 10
255.0
 20
260.0
 10
245.0
 20
260.0
  0
LWPOLYLINE
  5
13A
330
17
100
AcDbEntity
  8
POCKET_10MM
100
AcDbPolyline
 90
4
 70
1
 10
320.0
 20
250.0
 10
330.0
 20
250.0
 10
330.0
 20
260.0
 10
320.0
 20
260.0
  0
LWPOLYLINE
  5
13B
330
17
100
AcDbEntity
  8
POCKET_10MM
100
AcDbPolyline
 90
4
 70
1
 10
395.0
 20
250.0
 10
405.0
 20
250.0
 10
405.0
 20
260.0
 10
395.0
 20
260.0
  0
TEXT
  5
13C
330
17
100
AcDbEntity
  8
PART_ID
100
AcDbText
 10
250.0
 20
255.0
 30
0.0
 40
6.0
  1
L01-1
 72
1
 11
250.0
 21
255.0
 31
0.0
100
AcDbText
 73
2
  0
TEXT
  5
13D
330
17
100
AcDbEntity
  8
NOTES
100
AcDbText
 10
250.0
 20
265.5
 30
0.0
 40
5.0
  1
VERTICAL LATTICE  460x10x20  FACE B  [LEFT]
 72
1
 11
250.0
 21
265.5
 31
0.0
100
AcDbText
 73
2
  0
LWPOLYLINE
  5
13E
330
17
100
AcDbEntity
  8
CUT_THROUGH
100
AcDbPolyline
 90
4
 70
1
 10
492.0
 20
250.0
 10
952.0
 20
250.0
 10
952.0
 20
260.0
 10
492.0
 20
260.0
  0
LWPOLYLINE
  5
13F
330
17
100
AcDbEntity
  8
POCKET_10MM
100
AcDbPolyline
 90
4
 70
1
 10
492.0
 20
250.0
 10
502.0
 20
250.0
 10
502.0
 20
260.0
 10
492.0
 20
260.0
  0
LWPOLYLINE
  5
140
330
17
100
AcDbEntity
  8
POCKET_10MM
100
AcDbPolyline
 90
4
 70
1
 10
942.0
 20
250.0
 10
952.0
 20
250.0
 10
952.0
 20
260.0
 10
942.0
 20
260.0
  0
LWPOLYLINE
  5
141
330
17
100
AcDbEntity
  8
POCKET_10MM
100
AcDbPolyline
 90
4
 70
1
 10
567.0
 20
250.0
 10
577.0
 20
250.0
 10
577.0
 20
260.0
 10
567.0
 20
260.0
  0
LWPOLYLINE
  5
142
330
17
100
AcDbEntity
  8
POCKET_10MM
100
AcDbPolyline
 90
4
 70
1
 10
642.0
 20
250.0
 10
652.0
 20
250.0
 10
652.0
 20
260.0
 10
642.0
 20
260.0
  0
LWPOLYLINE
  5
143
330
17
100
AcDbEntity
  8
POCKET_10MM
100
AcDbPolyline
 90
4
 70
1
 10
717.0
 20
250.0
 10
727.0
 20
250.0
 10
727.0
 20
260.0
 10
717.0
 20
260.0
  0
LWPOLYLINE
  5
144
330
17
100
AcDbEntity
  8
POCKET_10MM
100
AcDbPolyline
 90
4
 70
1
 10
792.0
 20
250.0
 10
802.0
 20
250.0
 10
802.0
 20
260.0
 10
792.0
 20
260.0
  0
LWPOLYLINE
  5
145
330
17
100
AcDbEntity
  8
POCKET_10MM
100
AcDbPolyline
 90
4
 70
1
 10
867.0
 20
250.0
 10
877.0
 20
250.0
 10
877.0
 20
260.0
 10
867.0
 20
260.0
  0
TEXT
  5
146
330
17
100
AcDbEntity
  8
PART_ID
100
AcDbText
 10
722.0
 20
255.0
 30
0.0
 40
6.0
  1
L01-2
 72
1
 11
722.0
 21
255.0
 31
0.0
100
AcDbText
 73
2
  0
TEXT
  5
147
330
17
100
AcDbEntity
  8
NOTES
100
AcDbText
 10
722.0
 20
265.5
 30
0.0
 40
5.0
  1
VERTICAL LATTICE  460x10x20  FACE B  [RIGHT]
 72
1
 11
722.0
 21
265.5
 31
0.0
100
AcDbText
 73
2
  0
LWPOLYLINE
  5
148
330
17
100
AcDbEntity
  8
CUT_THROUGH
100
AcDbPolyline
 90
4
 70
1
 10
20.0
 20
272.0
 10
167.0
 20
272.0
 10
167.0
 20
282.0
 10
20.0
 20
282.0
  0
LWPOLYLINE
  5
149
330
17
100
AcDbEntity
  8
POCKET_10MM
100
AcDbPolyline
 90
4
 70
1
 10
20.0
 20
272.0
 10
30.0
 20
272.0
 10
30.0
 20
282.0
 10
20.0
 20
282.0
  0
LWPOLYLINE
  5
14A
330
17
100
AcDbEntity
  8
POCKET_10MM
100
AcDbPolyline
 90
4
 70
1
 10
157.0
 20
272.0
 10
167.0
 20
272.0
 10
167.0
 20
282.0
 10
157.0
 20
282.0
  0
LWPOLYLINE
  5
14B
330
17
100
AcDbEntity
  8
POCKET_10MM
100
AcDbPolyline
 90
4
 70
1
 10
88.5
 20
272.0
 10
98.5
 20
272.0
 10
98.5
 20
282.0
 10
88.5
 20
282.0
  0
TEXT
  5
14C
330
17
100
AcDbEntity
  8
PART_ID
100
AcDbText
 10
93.5
 20
277.0
 30
0.0
 40
6.0
  1
L02-1
 72
1
 11
93.5
 21
277.0
 31
0.0
100
AcDbText
 73
2
  0
TEXT
  5
14D
330
17
100
AcDbEntity
  8
NOTES
100
AcDbText
 10
93.5
 20
287.5
 30
0.0
 40
5.0
  1
HORIZONTAL LATTICE  147x10x20  FACE A  [LEFT]
 72
1
 11
93.5
 21
287.5
 31
0.0
100
AcDbText
 73
2
  0
LWPOLYLINE
  5
14E
330
17
100
AcDbEntity
  8
CUT_THROUGH
100
AcDbPolyline
 90
4
 70
1
 10
179.0
 20
272.0
 10
326.0
 20
272.0
 10
326.0
 20
282.0
 10
179.0
 20
282.0
  0
LWPOLYLINE
  5
14F
330
17
100
AcDbEntity
  8
POCKET_10MM
100
AcDbPolyline
 90
4
 70
1
 10
179.0
 20
272.0
 10
189.0
 20
272.0
 10
189.0
 20
282.0
 10
179.0
 20
282.0
  0
LWPOLYLINE
  5
150
330
17
100
AcDbEntity
  8
POCKET_10MM
100
AcDbPolyline
 90
4
 70
1
 10
316.0
 20
272.0
 10
326.0
 20
272.0
 10
326.0
 20
282.0
 10
316.0
 20
282.0
  0
LWPOLYLINE
  5
151
330
17
100
AcDbEntity
  8
POCKET_10MM
100
AcDbPolyline
 90
4
 70
1
 10
247.5
 20
272.0
 10
257.5
 20
272.0
 10
257.5
 20
282.0
 10
247.5
 20
282.0
  0
TEXT
  5
152
330
17
100
AcDbEntity
  8
PART_ID
100
AcDbText
 10
252.5
 20
277.0
 30
0.0
 40
6.0
  1
L02-2
 72
1
 11
252.5
 21
277.0
 31
0.0
100
AcDbText
 73
2
  0
TEXT
  5
153
330
17
100
AcDbEntity
  8
NOTES
100
AcDbText
 10
252.5
 20
287.5
 30
0.0
 40
5.0
  1
HORIZONTAL LATTICE  147x10x20  FACE A  [LEFT]
 72
1
 11
252.5
 21
287.5
 31
0.0
100
AcDbText
 73
2
  0
LWPOLYLINE
  5
154
330
17
100
AcDbEntity
  8
CUT_THROUGH
100
AcDbPolyline
 90
4
 70
1
 10
338.0
 20
272.0
 10
485.0
 20
272.0
 10
485.0
 20
282.0
 10
338.0
 20
282.0
  0
LWPOLYLINE
  5
155
330
17
100
AcDbEntity
  8
POCKET_10MM
100
AcDbPolyline
 90
4
 70
1
 10
338.0
 20
272.0
 10
348.0
 20
272.0
 10
348.0
 20
282.0
 10
338.0
 20
282.0
  0
LWPOLYLINE
  5
156
330
17
100
AcDbEntity
  8
POCKET_10MM
100
AcDbPolyline
 90
4
 70
1
 10
475.0
 20
272.0
 10
485.0
 20
272.0
 10
485.0
 20
282.0
 10
475.0
 20
282.0
  0
LWPOLYLINE
  5
157
330
17
100
AcDbEntity
  8
POCKET_10MM
100
AcDbPolyline
 90
4
 70
1
 10
406.5
 20
272.0
 10
416.5
 20
272.0
 10
416.5
 20
282.0
 10
406.5
 20
282.0
  0
TEXT
  5
158
330
17
100
AcDbEntity
  8
PART_ID
100
AcDbText
 10
411.5
 20
277.0
 30
0.0
 40
6.0
  1
L02-3
 72
1
 11
411.5
 21
277.0
 31
0.0
100
AcDbText
 73
2
  0
TEXT
  5
159
330
17
100
AcDbEntity
  8
NOTES
100
AcDbText
 10
411.5
 20
287.5
 30
0.0
 40
5.0
  1
HORIZONTAL LATTICE  147x10x20  FACE A  [LEFT]
 72
1
 11
411.5
 21
287.5
 31
0.0
100
AcDbText
 73
2
  0
LWPOLYLINE
  5
15A
330
17
100
AcDbEntity
  8
CUT_THROUGH
100
AcDbPolyline
 90
4
 70
1
 10
497.0
 20
272.0
 10
644.0
 20
272.0
 10
644.0
 20
282.0
 10
497.0
 20
282.0
  0
LWPOLYLINE
  5
15B
330
17
100
AcDbEntity
  8
POCKET_10MM
100
AcDbPolyline
 90
4
 70
1
 10
497.0
 20
272.0
 10
507.0
 20
272.0
 10
507.0
 20
282.0
 10
497.0
 20
282.0
  0
LWPOLYLINE
  5
15C
330
17
100
AcDbEntity
  8
POCKET_10MM
100
AcDbPolyline
 90
4
 70
1
 10
634.0
 20
272.0
 10
644.0
 20
272.0
 10
644.0
 20
282.0
 10
634.0
 20
282.0
  0
LWPOLYLINE
  5
15D
330
17
100
AcDbEntity
  8
POCKET_10MM
100
AcDbPolyline
 90
4
 70
1
 10
565.5
 20
272.0
 10
575.5
 20
272.0
 10
575.5
 20
282.0
 10
565.5
 20
282.0
  0
TEXT
  5
15E
330
17
100
AcDbEntity
  8
PART_ID
100
AcDbText
 10
570.5
 20
277.0
 30
0.0
 40
6.0
  1
L02-4
 72
1
 11
570.5
 21
277.0
 31
0.0
100
AcDbText
 73
2
  0
TEXT
  5
15F
330
17
100
AcDbEntity
  8
NOTES
100
AcDbText
 10
570.5
 20
287.5
 30
0.0
 40
5.0
  1
HORIZONTAL LATTICE  147x10x20  FACE A  [LEFT]
 72
1
 11
570.5
 21
287.5
 31
0.0
100
AcDbText
 73
2
  0
LWPOLYLINE
  5
160
330
17
100
AcDbEntity
  8
CUT_THROUGH
100
AcDbPolyline
 90
4
 70
1
 10
656.0
 20
272.0
 10
803.0
 20
272.0
 10
803.0
 20
282.0
 10
656.0
 20
282.0
  0
LWPOLYLINE
  5
161
330
17
100
AcDbEntity
  8
POCKET_10MM
100
AcDbPolyline
 90
4
 70
1
 10
656.0
 20
272.0
 10
666.0
 20
272.0
 10
666.0
 20
282.0
 10
656.0
 20
282.0
  0
LWPOLYLINE
  5
162
330
17
100
AcDbEntity
  8
POCKET_10MM
100
AcDbPolyline
 90
4
 70
1
 10
793.0
 20
272.0
 10
803.0
 20
272.0
 10
803.0
 20
282.0
 10
793.0
 20
282.0
  0
LWPOLYLINE
  5
163
330
17
100
AcDbEntity
  8
POCKET_10MM
100
AcDbPolyline
 90
4
 70
1
 10
724.5
 20
272.0
 10
734.5
 20
272.0
 10
734.5
 20
282.0
 10
724.5
 20
282.0
  0
TEXT
  5
164
330
17
100
AcDbEntity
  8
PART_ID
100
AcDbText
 10
729.5
 20
277.0
 30
0.0
 40
6.0
  1
L02-5
 72
1
 11
729.5
 21
277.0
 31
0.0
100
AcDbText
 73
2
  0
TEXT
  5
165
330
17
100
AcDbEntity
  8
NOTES
100
AcDbText
 10
729.5
 20
287.5
 30
0.0
 40
5.0
  1
HORIZONTAL LATTICE  147x10x20  FACE A  [LEFT]
 72
1
 11
729.5
 21
287.5
 31
0.0
100
AcDbText
 73
2
  0
LWPOLYLINE
  5
166
330
17
100
AcDbEntity
  8
CUT_THROUGH
100
AcDbPolyline
 90
4
 70
1
 10
815.0
 20
272.0
 10
962.0
 20
272.0
 10
962.0
 20
282.0
 10
815.0
 20
282.0
  0
LWPOLYLINE
  5
167
330
17
100
AcDbEntity
  8
POCKET_10MM
100
AcDbPolyline
 90
4
 70
1
 10
815.0
 20
272.0
 10
825.0
 20
272.0
 10
825.0
 20
282.0
 10
815.0
 20
282.0
  0
LWPOLYLINE
  5
168
330
17
100
AcDbEntity
  8
POCKET_10MM
100
AcDbPolyline
 90
4
 70
1
 10
952.0
 20
272.0
 10
962.0
 20
272.0
 10
962.0
 20
282.0
 10
952.0
 20
282.0
  0
LWPOLYLINE
  5
169
330
17
100
AcDbEntity
  8
POCKET_10MM
100
AcDbPolyline
 90
4
 70
1
 10
883.5
 20
272.0
 10
893.5
 20
272.0
 10
893.5
 20
282.0
 10
883.5
 20
282.0
  0
TEXT
  5
16A
330
17
100
AcDbEntity
  8
PART_ID
100
AcDbText
 10
888.5
 20
277.0
 30
0.0
 40
6.0
  1
L02-6
 72
1
 11
888.5
 21
277.0
 31
0.0
100
AcDbText
 73
2
  0
TEXT
  5
16B
330
17
100
AcDbEntity
  8
NOTES
100
AcDbText
 10
888.5
 20
287.5
 30
0.0
 40
5.0
  1
HORIZONTAL LATTICE  147x10x20  FACE A  [RIGHT]
 72
1
 11
888.5
 21
287.5
 31
0.0
100
AcDbText
 73
2
  0
LWPOLYLINE
  5
16C
330
17
100
AcDbEntity
  8
CUT_THROUGH
100
AcDbPolyline
 90
4
 70
1
 10
974.0
 20
272.0
 10
1121.0
 20
272.0
 10
1121.0
 20
282.0
 10
974.0
 20
282.0
  0
LWPOLYLINE
  5
16D
330
17
100
AcDbEntity
  8
POCKET_10MM
100
AcDbPolyline
 90
4
 70
1
 10
974.0
 20
272.0
 10
984.0
 20
272.0
 10
984.0
 20
282.0
 10
974.0
 20
282.0
  0
LWPOLYLINE
  5
16E
330
17
100
AcDbEntity
  8
POCKET_10MM
100
AcDbPolyline
 90
4
 70
1
 10
1111.0
 20
272.0
 10
1121.0
 20
272.0
 10
1121.0
 20
282.0
 10
1111.0
 20
282.0
  0
LWPOLYLINE
  5
16F
330
17
100
AcDbEntity
  8
POCKET_10MM
100
AcDbPolyline
 90
4
 70
1
 10
1042.5
 20
272.0
 10
1052.5
 20
272.0
 10
1052.5
 20
282.0
 10
1042.5
 20
282.0
  0
TEXT
  5
170
330
17
100
AcDbEntity
  8
PART_ID
100
AcDbText
 10
1047.5
 20
277.0
 30
0.0
 40
6.0
  1
L02-7
 72
1
 11
1047.5
 21
277.0
 31
0.0
100
AcDbText
 73
2
  0
TEXT
  5
171
330
17
100
AcDbEntity
  8
NOTES
100
AcDbText
 10
1047.5
 20
287.5
 30
0.0
 40
5.0
  1
HORIZONTAL LATTICE  147x10x20  FACE A  [RIGHT]
 72
1
 11
1047.5
 21
287.5
 31
0.0
100
AcDbText
 73
2
  0
LWPOLYLINE
  5
172
330
17
100
AcDbEntity
  8
CUT_THROUGH
100
AcDbPolyline
 90
4
 70
1
 10
20.0
 20
294.0
 10
167.0
 20
294.0
 10
167.0
 20
304.0
 10
20.0
 20
304.0
  0
LWPOLYLINE
  5
173
330
17
100
AcDbEntity
  8
POCKET_10MM
100
AcDbPolyline
 90
4
 70
1
 10
20.0
 20
294.0
 10
30.0
 20
294.0
 10
30.0
 20
304.0
 10
20.0
 20
304.0
  0
LWPOLYLINE
  5
174
330
17
100
AcDbEntity
  8
POCKET_10MM
100
AcDbPolyline
 90
4
 70
1
 10
157.0
 20
294.0
 10
167.0
 20
294.0
 10
167.0
 20
304.0
 10
157.0
 20
304.0
  0
LWPOLYLINE
  5
175
330
17
100
AcDbEntity
  8
POCKET_10MM
100
AcDbPolyline
 90
4
 70
1
 10
88.5
 20
294.0
 10
98.5
 20
294.0
 10
98.5
 20
304.0
 10
88.5
 20
304.0
  0
TEXT
  5
176
330
17
100
AcDbEntity
  8
PART_ID
100
AcDbText
 10
93.5
 20
299.0
 30
0.0
 40
6.0
  1
L02-8
 72
1
 11
93.5
 21
299.0
 31
0.0
100
AcDbText
 73
2
  0
TEXT
  5
177
330
17
100
AcDbEntity
  8
NOTES
100
AcDbText
 10
93.5
 20
309.5
 30
0.0
 40
5.0
  1
HORIZONTAL LATTICE  147x10x20  FACE A  [RIGHT]
 72
1
 11
93.5
 21
309.5
 31
0.0
100
AcDbText
 73
2
  0
LWPOLYLINE
  5
178
330
17
100
AcDbEntity
  8
CUT_THROUGH
100
AcDbPolyline
 90
4
 70
1
 10
179.0
 20
294.0
 10
326.0
 20
294.0
 10
326.0
 20
304.0
 10
179.0
 20
304.0
  0
LWPOLYLINE
  5
179
330
17
100
AcDbEntity
  8
POCKET_10MM
100
AcDbPolyline
 90
4
 70
1
 10
179.0
 20
294.0
 10
189.0
 20
294.0
 10
189.0
 20
304.0
 10
179.0
 20
304.0
  0
LWPOLYLINE
  5
17A
330
17
100
AcDbEntity
  8
POCKET_10MM
100
AcDbPolyline
 90
4
 70
1
 10
316.0
 20
294.0
 10
326.0
 20
294.0
 10
326.0
 20
304.0
 10
316.0
 20
304.0
  0
LWPOLYLINE
  5
17B
330
17
100
AcDbEntity
  8
POCKET_10MM
100
AcDbPolyline
 90
4
 70
1
 10
247.5
 20
294.0
 10
257.5
 20
294.0
 10
257.5
 20
304.0
 10
247.5
 20
304.0
  0
TEXT
  5
17C
330
17
100
AcDbEntity
  8
PART_ID
100
AcDbText
 10
252.5
 20
299.0
 30
0.0
 40
6.0
  1
L02-9
 72
1
 11
252.5
 21
299.0
 31
0.0
100
AcDbText
 73
2
  0
TEXT
  5
17D
330
17
100
AcDbEntity
  8
NOTES
100
AcDbText
 10
252.5
 20
309.5
 30
0.0
 40
5.0
  1
HORIZONTAL LATTICE  147x10x20  FACE A  [RIGHT]
 72
1
 11
252.5
 21
309.5
 31
0.0
100
AcDbText
 73
2
  0
LWPOLYLINE
  5
17E
330
17
100
AcDbEntity
  8
CUT_THROUGH
100
AcDbPolyline
 90
4
 70
1
 10
338.0
 20
294.0
 10
485.0
 20
294.0
 10
485.0
 20
304.0
 10
338.0
 20
304.0
  0
LWPOLYLINE
  5
17F
330
17
100
AcDbEntity
  8
POCKET_10MM
100
AcDbPolyline
 90
4
 70
1
 10
338.0
 20
294.0
 10
348.0
 20
294.0
 10
348.0
 20
304.0
 10
338.0
 20
304.0
  0
LWPOLYLINE
  5
180
330
17
100
AcDbEntity
  8
POCKET_10MM
100
AcDbPolyline
 90
4
 70
1
 10
475.0
 20
294.0
 10
485.0
 20
294.0
 10
485.0
 20
304.0
 10
475.0
 20
304.0
  0
LWPOLYLINE
  5
181
330
17
100
AcDbEntity
  8
POCKET_10MM
100
AcDbPolyline
 90
4
 70
1
 10
406.5
 20
294.0
 10
416.5
 20
294.0
 10
416.5
 20
304.0
 10
406.5
 20
304.0
  0
TEXT
  5
182
330
17
100
AcDbEntity
  8
PART_ID
100
AcDbText
 10
411.5
 20
299.0
 30
0.0
 40
6.0
  1
L02-10
 72
1
 11
411.5
 21
299.0
 31
0.0
100
AcDbText
 73
2
  0
TEXT
  5
183
330
17
100
AcDbEntity
  8
NOTES
100
AcDbText
 10
411.5
 20
309.5
 30
0.0
 40
5.0
  1
HORIZONTAL LATTICE  147x10x20  FACE A  [RIGHT]
 72
1
 11
411.5
 21
309.5
 31
0.0
100
AcDbText
 73
2
  0
LINE
  5
184
330
17
100
AcDbEntity
  8
GRAIN_DIRECTION
100
AcDbLine
 10
120.0
 20
760.0
 30
0.0
 11
1100.0
 21
760.0
 31
0.0
  0
LINE
  5
185
330
17
100
AcDbEntity
  8
GRAIN_DIRECTION
100
AcDbLine
 10
1100.0
 20
760.0
 30
0.0
 11
1075.5679918595663
 21
768.8925237264674
 31
0.0
  0
LINE
  5
186
330
17
100
AcDbEntity
  8
GRAIN_DIRECTION
100
AcDbLine
 10
1100.0
 20
760.0
 30
0.0
 11
1075.5679918595663
 21
751.1074762735326
 31
0.0
  0
LINE
  5
187
330
17
100
AcDbEntity
  8
GRAIN_DIRECTION
100
AcDbLine
 10
1100.0
 20
760.0
 30
0.0
 11
120.0
 21
760.0
 31
0.0
  0
LINE
  5
188
330
17
100
AcDbEntity
  8
GRAIN_DIRECTION
100
AcDbLine
 10
120.0
 20
760.0
 30
0.0
 11
144.43200814043362
 21
751.1074762735326
 31
0.0
  0
LINE
  5
189
330
17
100
AcDbEntity
  8
GRAIN_DIRECTION
100
AcDbLine
 10
120.0
 20
760.0
 30
0.0
 11
144.43200814043362
 21
768.8925237264674
 31
0.0
  0
TEXT
  5
18A
330
17
100
AcDbEntity
  8
GRAIN_DIRECTION
100
AcDbText
 10
610.0
 20
786.0
 30
0.0
 40
22.0
  1
GRAIN DIRECTION  (X AXIS, 1220 mm)
 72
1
 11
610.0
 21
786.0
 31
0.0
100
AcDbText
 73
2
  0
TEXT
  5
18B
330
17
100
AcDbEntity
  8
NOTES
100
AcDbText
 10
610.0
 20
726.0
 30
0.0
 40
13.0
  1
ALL 24 PARTS NESTED WITH LENGTH PARALLEL TO GRAIN
 72
1
 11
610.0
 21
726.0
 31
0.0
100
AcDbText
 73
2
  0
TEXT
  5
18C
330
17
100
AcDbEntity
  8
NOTES
100
AcDbText
 10
610.0
 20
350.0
 30
0.0
 40
13.0
  1
REMAINING OFF-CUT AREA  (approx. 1180 x 550)  -  KEEP FOR SPARES
 72
1
 11
610.0
 21
350.0
 31
0.0
100
AcDbText
 73
2
  0
TEXT
  5
18D
330
17
100
AcDbEntity
  8
NOTES
100
AcDbText
 10
120.0
 20
694.0
 30
0.0
 40
15.0
  1
LAYER LEGEND  (TEXT ONLY - NO MACHINING GEOMETRY IN THIS AREA)
 11
120.0
 21
694.0
 31
0.0
100
AcDbText
 73
2
  0
TEXT
  5
18E
330
17
100
AcDbEntity
  8
NOTES
100
AcDbText
 10
120.0
 20
660.0
 30
0.0
 40
11.0
  1
CUT_THROUGH      :  PART PROFILE, THROUGH 20 mm
 11
120.0
 21
660.0
 31
0.0
100
AcDbText
 73
2
  0
TEXT
  5
18F
330
17
100
AcDbEntity
  8
NOTES
100
AcDbText
 10
120.0
 20
634.0
 30
0.0
 40
11.0
  1
POCKET_10MM      :  HALF-LAP / SEAT POCKET, DEPTH 10 mm
 11
120.0
 21
634.0
 31
0.0
100
AcDbText
 73
2
  0
TEXT
  5
190
330
17
100
AcDbEntity
  8
NOTES
100
AcDbText
 10
120.0
 20
608.0
 30
0.0
 40
11.0
  1
DOGBONE          :  R3.2 CORNER RELIEF (CLOSED INSIDE CORNERS ONLY)
 11
120.0
 21
608.0
 31
0.0
100
AcDbText
 73
2
  0
TEXT
  5
191
330
17
100
AcDbEntity
  8
NOTES
100
AcDbText
 10
120.0
 20
582.0
 30
0.0
 40
11.0
  1
HINGE_REF        :  HINGE REFERENCE, DEPTH 2 mm - NOT FINAL
 11
120.0
 21
582.0
 31
0.0
100
AcDbText
 73
2
  0
TEXT
  5
192
330
17
100
AcDbEntity
  8
NOTES
100
AcDbText
 10
120.0
 20
556.0
 30
0.0
 40
11.0
  1
LATCH_REF        :  CATCH / FLUSH BOLT / HANDLE REFERENCE - NOT FINAL
 11
120.0
 21
556.0
 31
0.0
100
AcDbText
 73
2
  0
TEXT
  5
193
330
17
100
AcDbEntity
  8
NOTES
100
AcDbText
 10
120.0
 20
530.0
 30
0.0
 40
11.0
  1
PART_ID          :  PART NUMBER + LEFT/RIGHT LEAF (ANNOTATION ONLY)
 11
120.0
 21
530.0
 31
0.0
100
AcDbText
 73
2
  0
LWPOLYLINE
  5
194
330
17
100
AcDbEntity
  8
ASSEMBLY_REFERENCE
100
AcDbPolyline
 90
4
 70
1
 10
1560.0
 20
200.0
 10
2023.0
 20
200.0
 10
2023.0
 20
786.0
 10
1560.0
 20
786.0
  0
LWPOLYLINE
  5
195
330
17
100
AcDbEntity
  8
ASSEMBLY_REFERENCE
100
AcDbPolyline
 90
4
 70
1
 10
1600.0
 20
240.0
 10
1983.0
 20
240.0
 10
1983.0
 20
746.0
 10
1600.0
 20
746.0
  0
LWPOLYLINE
  5
196
330
17
100
AcDbEntity
  8
ASSEMBLY_REFERENCE
100
AcDbPolyline
 90
4
 70
1
 10
1603.0
 20
243.0
 10
1790.0
 20
243.0
 10
1790.0
 20
743.0
 10
1603.0
 20
743.0
  0
LWPOLYLINE
  5
197
330
17
100
AcDbEntity
  8
ASSEMBLY_REFERENCE
100
AcDbPolyline
 90
4
 70
1
 10
1633.0
 20
273.0
 10
1760.0
 20
273.0
 10
1760.0
 20
713.0
 10
1633.0
 20
713.0
  0
LWPOLYLINE
  5
198
330
17
100
AcDbEntity
  8
ASSEMBLY_REFERENCE
100
AcDbPolyline
 90
4
 70
1
 10
1691.5
 20
263.0
 10
1701.5
 20
263.0
 10
1701.5
 20
723.0
 10
1691.5
 20
723.0
  0
LWPOLYLINE
  5
199
330
17
100
AcDbEntity
  8
ASSEMBLY_REFERENCE
100
AcDbPolyline
 90
4
 70
1
 10
1623.0
 20
338.0
 10
1770.0
 20
338.0
 10
1770.0
 20
348.0
 10
1623.0
 20
348.0
  0
LWPOLYLINE
  5
19A
330
17
100
AcDbEntity
  8
ASSEMBLY_REFERENCE
100
AcDbPolyline
 90
4
 70
1
 10
1623.0
 20
413.0
 10
1770.0
 20
413.0
 10
1770.0
 20
423.0
 10
1623.0
 20
423.0
  0
LWPOLYLINE
  5
19B
330
17
100
AcDbEntity
  8
ASSEMBLY_REFERENCE
100
AcDbPolyline
 90
4
 70
1
 10
1623.0
 20
488.0
 10
1770.0
 20
488.0
 10
1770.0
 20
498.0
 10
1623.0
 20
498.0
  0
LWPOLYLINE
  5
19C
330
17
100
AcDbEntity
  8
ASSEMBLY_REFERENCE
100
AcDbPolyline
 90
4
 70
1
 10
1623.0
 20
563.0
 10
1770.0
 20
563.0
 10
1770.0
 20
573.0
 10
1623.0
 20
573.0
  0
LWPOLYLINE
  5
19D
330
17
100
AcDbEntity
  8
ASSEMBLY_REFERENCE
100
AcDbPolyline
 90
4
 70
1
 10
1623.0
 20
638.0
 10
1770.0
 20
638.0
 10
1770.0
 20
648.0
 10
1623.0
 20
648.0
  0
LWPOLYLINE
  5
19E
330
17
100
AcDbEntity
  8
ASSEMBLY_REFERENCE
100
AcDbPolyline
 90
4
 70
1
 10
1793.0
 20
243.0
 10
1980.0
 20
243.0
 10
1980.0
 20
743.0
 10
1793.0
 20
743.0
  0
LWPOLYLINE
  5
19F
330
17
100
AcDbEntity
  8
ASSEMBLY_REFERENCE
100
AcDbPolyline
 90
4
 70
1
 10
1823.0
 20
273.0
 10
1950.0
 20
273.0
 10
1950.0
 20
713.0
 10
1823.0
 20
713.0
  0
LWPOLYLINE
  5
1A0
330
17
100
AcDbEntity
  8
ASSEMBLY_REFERENCE
100
AcDbPolyline
 90
4
 70
1
 10
1881.5
 20
263.0
 10
1891.5
 20
263.0
 10
1891.5
 20
723.0
 10
1881.5
 20
723.0
  0
LWPOLYLINE
  5
1A1
330
17
100
AcDbEntity
  8
ASSEMBLY_REFERENCE
100
AcDbPolyline
 90
4
 70
1
 10
1813.0
 20
338.0
 10
1960.0
 20
338.0
 10
1960.0
 20
348.0
 10
1813.0
 20
348.0
  0
LWPOLYLINE
  5
1A2
330
17
100
AcDbEntity
  8
ASSEMBLY_REFERENCE
100
AcDbPolyline
 90
4
 70
1
 10
1813.0
 20
413.0
 10
1960.0
 20
413.0
 10
1960.0
 20
423.0
 10
1813.0
 20
423.0
  0
LWPOLYLINE
  5
1A3
330
17
100
AcDbEntity
  8
ASSEMBLY_REFERENCE
100
AcDbPolyline
 90
4
 70
1
 10
1813.0
 20
488.0
 10
1960.0
 20
488.0
 10
1960.0
 20
498.0
 10
1813.0
 20
498.0
  0
LWPOLYLINE
  5
1A4
330
17
100
AcDbEntity
  8
ASSEMBLY_REFERENCE
100
AcDbPolyline
 90
4
 70
1
 10
1813.0
 20
563.0
 10
1960.0
 20
563.0
 10
1960.0
 20
573.0
 10
1813.0
 20
573.0
  0
LWPOLYLINE
  5
1A5
330
17
100
AcDbEntity
  8
ASSEMBLY_REFERENCE
100
AcDbPolyline
 90
4
 70
1
 10
1813.0
 20
638.0
 10
1960.0
 20
638.0
 10
1960.0
 20
648.0
 10
1813.0
 20
648.0
  0
LWPOLYLINE
  5
1A6
330
17
100
AcDbEntity
  8
ASSEMBLY_A3
100
AcDbPolyline
 90
4
 70
1
 10
1643.0
 20
283.0
 10
1940.0
 20
283.0
 10
1940.0
 20
703.0
 10
1643.0
 20
703.0
  0
LINE
  5
1A7
330
17
100
AcDbEntity
  8
SWING_REF
100
AcDbLine
 10
1603.0
 20
493.0
 30
0.0
 11
1790.0
 21
243.0
 31
0.0
  0
LINE
  5
1A8
330
17
100
AcDbEntity
  8
SWING_REF
100
AcDbLine
 10
1603.0
 20
493.0
 30
0.0
 11
1790.0
 21
743.0
 31
0.0
  0
LINE
  5
1A9
330
17
100
AcDbEntity
  8
SWING_REF
100
AcDbLine
 10
1980.0
 20
493.0
 30
0.0
 11
1793.0
 21
243.0
 31
0.0
  0
LINE
  5
1AA
330
17
100
AcDbEntity
  8
SWING_REF
100
AcDbLine
 10
1980.0
 20
493.0
 30
0.0
 11
1793.0
 21
743.0
 31
0.0
  0
TEXT
  5
1AB
330
17
100
AcDbEntity
  8
NOTES
100
AcDbText
 10
1791.5
 20
936.0
 30
0.0
 40
20.0
  1
ASSEMBLY REFERENCE  -  FRONT ELEVATION  (1:1)  PORTRAIT DOUBLE LEAF
 72
1
 11
1791.5
 21
936.0
 31
0.0
100
AcDbText
 73
2
  0
TEXT
  5
1AC
330
17
100
AcDbEntity
  8
NOTES
100
AcDbText
 10
1791.5
 20
912.0
 30
0.0
 40
12.0
  1
REFERENCE GEOMETRY ONLY  -  NOT A CUTTING CONTOUR
 72
1
 11
1791.5
 21
912.0
 31
0.0
100
AcDbText
 73
2
  0
TEXT
  5
1AD
330
17
100
AcDbEntity
  8
NOTES
100
AcDbText
 10
1580.0
 20
493.0
 30
0.0
 40
11.0
  1
HINGE
 50
90.0
 72
1
 11
1580.0
 21
493.0
 31
0.0
100
AcDbText
 73
2
  0
TEXT
  5
1AE
330
17
100
AcDbEntity
  8
NOTES
100
AcDbText
 10
2003.0
 20
493.0
 30
0.0
 40
11.0
  1
HINGE
 50
90.0
 72
1
 11
2003.0
 21
493.0
 31
0.0
100
AcDbText
 73
2
  0
TEXT
  5
1AF
330
17
100
AcDbEntity
  8
NOTES
100
AcDbText
 10
1791.5
 20
768.0
 30
0.0
 40
9.0
  1
MEETING  GAP 3
 72
1
 11
1791.5
 21
768.0
 31
0.0
100
AcDbText
 73
2
  0
LINE
  5
1B0
330
17
100
AcDbEntity
  8
DIMENSIONS
100
AcDbLine
 10
1633.0
 20
110.0
 30
0.0
 11
1950.0
 21
110.0
 31
0.0
  0
LINE
  5
1B1
330
17
100
AcDbEntity
  8
DIMENSIONS
100
AcDbLine
 10
1633.0
 20
106.4
 30
0.0
 11
1633.0
 21
113.6
 31
0.0
  0
LINE
  5
1B2
330
17
100
AcDbEntity
  8
DIMENSIONS
100
AcDbLine
 10
1950.0
 20
106.4
 30
0.0
 11
1950.0
 21
113.6
 31
0.0
  0
TEXT
  5
1B3
330
17
100
AcDbEntity
  8
DIMENSIONS
100
AcDbText
 10
1791.5
 20
117.2
 30
0.0
 40
9.0
  1
317  TOTAL CLEAR OPENING
 72
1
 11
1791.5
 21
117.2
 31
0.0
100
AcDbText
 73
2
  0
TEXT
  5
1B4
330
17
100
AcDbEntity
  8
NOTES
100
AcDbText
 10
1791.5
 20
222.0
 30
0.0
 40
10.0
  1
FIXED FRAME OPENING 383 x 506
 72
1
 11
1791.5
 21
222.0
 31
0.0
100
AcDbText
 73
2
  0
TEXT
  5
1B5
330
17
100
AcDbEntity
  8
NOTES
100
AcDbText
 10
1791.5
 20
76.0
 30
0.0
 40
12.0
  1
SWING SYMBOL: APEX = HINGE SIDE.  IN/OUT OPENING TO BE CONFIRMED
 72
1
 11
1791.5
 21
76.0
 31
0.0
100
AcDbText
 73
2
  0
TEXT
  5
1B6
330
17
100
AcDbEntity
  8
NOTES
100
AcDbText
 10
1791.5
 20
58.0
 30
0.0
 40
12.0
  1
PER LEAF: 1 x L01 VERTICAL / 5 x L02 HORIZONTAL LATTICE  (5 CROSSINGS)
 72
1
 11
1791.5
 21
58.0
 31
0.0
100
AcDbText
 73
2
  0
TEXT
  5
1B7
330
17
100
AcDbEntity
  8
NOTES
100
AcDbText
 10
1791.5
 20
40.0
 30
0.0
 40
12.0
  1
LEFT LEAF = FIXED (FLUSH BOLTS)   RIGHT LEAF = OPERATING (HANDLE)
 72
1
 11
1791.5
 21
40.0
 31
0.0
100
AcDbText
 73
2
  0
LINE
  5
1B8
330
17
100
AcDbEntity
  8
DIMENSIONS
100
AcDbLine
 10
1560.0
 20
880.0
 30
0.0
 11
2023.0
 21
880.0
 31
0.0
  0
LINE
  5
1B9
330
17
100
AcDbEntity
  8
DIMENSIONS
100
AcDbLine
 10
1560.0
 20
876.4
 30
0.0
 11
1560.0
 21
883.6
 31
0.0
  0
LINE
  5
1BA
330
17
100
AcDbEntity
  8
DIMENSIONS
100
AcDbLine
 10
2023.0
 20
876.4
 30
0.0
 11
2023.0
 21
883.6
 31
0.0
  0
TEXT
  5
1BB
330
17
100
AcDbEntity
  8
DIMENSIONS
100
AcDbText
 10
1791.5
 20
887.2
 30
0.0
 40
9.0
  1
463  OVERALL
 72
1
 11
1791.5
 21
887.2
 31
0.0
100
AcDbText
 73
2
  0
LINE
  5
1BC
330
17
100
AcDbEntity
  8
DIMENSIONS
100
AcDbLine
 10
1603.0
 20
850.0
 30
0.0
 11
1980.0
 21
850.0
 31
0.0
  0
LINE
  5
1BD
330
17
100
AcDbEntity
  8
DIMENSIONS
100
AcDbLine
 10
1603.0
 20
846.4
 30
0.0
 11
1603.0
 21
853.6
 31
0.0
  0
LINE
  5
1BE
330
17
100
AcDbEntity
  8
DIMENSIONS
100
AcDbLine
 10
1980.0
 20
846.4
 30
0.0
 11
1980.0
 21
853.6
 31
0.0
  0
TEXT
  5
1BF
330
17
100
AcDbEntity
  8
DIMENSIONS
100
AcDbText
 10
1791.5
 20
857.2
 30
0.0
 40
9.0
  1
377  SASH PAIR
 72
1
 11
1791.5
 21
857.2
 31
0.0
100
AcDbText
 73
2
  0
LINE
  5
1C0
330
17
100
AcDbEntity
  8
DIMENSIONS
100
AcDbLine
 10
1603.0
 20
820.0
 30
0.0
 11
1790.0
 21
820.0
 31
0.0
  0
LINE
  5
1C1
330
17
100
AcDbEntity
  8
DIMENSIONS
100
AcDbLine
 10
1603.0
 20
816.4
 30
0.0
 11
1603.0
 21
823.6
 31
0.0
  0
LINE
  5
1C2
330
17
100
AcDbEntity
  8
DIMENSIONS
100
AcDbLine
 10
1790.0
 20
816.4
 30
0.0
 11
1790.0
 21
823.6
 31
0.0
  0
TEXT
  5
1C3
330
17
100
AcDbEntity
  8
DIMENSIONS
100
AcDbText
 10
1696.5
 20
827.2
 30
0.0
 40
9.0
  1
187  LEAF
 72
1
 11
1696.5
 21
827.2
 31
0.0
100
AcDbText
 73
2
  0
LINE
  5
1C4
330
17
100
AcDbEntity
  8
DIMENSIONS
100
AcDbLine
 10
1793.0
 20
820.0
 30
0.0
 11
1980.0
 21
820.0
 31
0.0
  0
LINE
  5
1C5
330
17
100
AcDbEntity
  8
DIMENSIONS
100
AcDbLine
 10
1793.0
 20
816.4
 30
0.0
 11
1793.0
 21
823.6
 31
0.0
  0
LINE
  5
1C6
330
17
100
AcDbEntity
  8
DIMENSIONS
100
AcDbLine
 10
1980.0
 20
816.4
 30
0.0
 11
1980.0
 21
823.6
 31
0.0
  0
TEXT
  5
1C7
330
17
100
AcDbEntity
  8
DIMENSIONS
100
AcDbText
 10
1886.5
 20
827.2
 30
0.0
 40
9.0
  1
187  LEAF
 72
1
 11
1886.5
 21
827.2
 31
0.0
100
AcDbText
 73
2
  0
LINE
  5
1C8
330
17
100
AcDbEntity
  8
DIMENSIONS
100
AcDbLine
 10
1633.0
 20
166.0
 30
0.0
 11
1760.0
 21
166.0
 31
0.0
  0
LINE
  5
1C9
330
17
100
AcDbEntity
  8
DIMENSIONS
100
AcDbLine
 10
1633.0
 20
162.4
 30
0.0
 11
1633.0
 21
169.6
 31
0.0
  0
LINE
  5
1CA
330
17
100
AcDbEntity
  8
DIMENSIONS
100
AcDbLine
 10
1760.0
 20
162.4
 30
0.0
 11
1760.0
 21
169.6
 31
0.0
  0
TEXT
  5
1CB
330
17
100
AcDbEntity
  8
DIMENSIONS
100
AcDbText
 10
1696.5
 20
173.2
 30
0.0
 40
9.0
  1
127  LEAF OPENING
 72
1
 11
1696.5
 21
173.2
 31
0.0
100
AcDbText
 73
2
  0
LINE
  5
1CC
330
17
100
AcDbEntity
  8
DIMENSIONS
100
AcDbLine
 10
1643.0
 20
138.0
 30
0.0
 11
1940.0
 21
138.0
 31
0.0
  0
LINE
  5
1CD
330
17
100
AcDbEntity
  8
DIMENSIONS
100
AcDbLine
 10
1643.0
 20
134.4
 30
0.0
 11
1643.0
 21
141.6
 31
0.0
  0
LINE
  5
1CE
330
17
100
AcDbEntity
  8
DIMENSIONS
100
AcDbLine
 10
1940.0
 20
134.4
 30
0.0
 11
1940.0
 21
141.6
 31
0.0
  0
TEXT
  5
1CF
330
17
100
AcDbEntity
  8
DIMENSIONS
100
AcDbText
 10
1791.5
 20
145.2
 30
0.0
 40
9.0
  1
297  A3
 72
1
 11
1791.5
 21
145.2
 31
0.0
100
AcDbText
 73
2
  0
LINE
  5
1D0
330
17
100
AcDbEntity
  8
DIMENSIONS
100
AcDbLine
 10
1456.0
 20
200.0
 30
0.0
 11
1456.0
 21
786.0
 31
0.0
  0
LINE
  5
1D1
330
17
100
AcDbEntity
  8
DIMENSIONS
100
AcDbLine
 10
1452.4
 20
200.0
 30
0.0
 11
1459.6
 21
200.0
 31
0.0
  0
LINE
  5
1D2
330
17
100
AcDbEntity
  8
DIMENSIONS
100
AcDbLine
 10
1452.4
 20
786.0
 30
0.0
 11
1459.6
 21
786.0
 31
0.0
  0
TEXT
  5
1D3
330
17
100
AcDbEntity
  8
DIMENSIONS
100
AcDbText
 10
1464.1
 20
493.0
 30
0.0
 40
9.0
  1
586  OVERALL
 50
90.0
 72
1
 11
1464.1
 21
493.0
 31
0.0
100
AcDbText
 73
2
  0
LINE
  5
1D4
330
17
100
AcDbEntity
  8
DIMENSIONS
100
AcDbLine
 10
1498.0
 20
243.0
 30
0.0
 11
1498.0
 21
743.0
 31
0.0
  0
LINE
  5
1D5
330
17
100
AcDbEntity
  8
DIMENSIONS
100
AcDbLine
 10
1494.4
 20
243.0
 30
0.0
 11
1501.6
 21
243.0
 31
0.0
  0
LINE
  5
1D6
330
17
100
AcDbEntity
  8
DIMENSIONS
100
AcDbLine
 10
1494.4
 20
743.0
 30
0.0
 11
1501.6
 21
743.0
 31
0.0
  0
TEXT
  5
1D7
330
17
100
AcDbEntity
  8
DIMENSIONS
100
AcDbText
 10
1506.1
 20
493.0
 30
0.0
 40
9.0
  1
500  LEAF
 50
90.0
 72
1
 11
1506.1
 21
493.0
 31
0.0
100
AcDbText
 73
2
  0
LINE
  5
1D8
330
17
100
AcDbEntity
  8
DIMENSIONS
100
AcDbLine
 10
2043.0
 20
273.0
 30
0.0
 11
2043.0
 21
713.0
 31
0.0
  0
LINE
  5
1D9
330
17
100
AcDbEntity
  8
DIMENSIONS
100
AcDbLine
 10
2039.4
 20
273.0
 30
0.0
 11
2046.6
 21
273.0
 31
0.0
  0
LINE
  5
1DA
330
17
100
AcDbEntity
  8
DIMENSIONS
100
AcDbLine
 10
2039.4
 20
713.0
 30
0.0
 11
2046.6
 21
713.0
 31
0.0
  0
TEXT
  5
1DB
330
17
100
AcDbEntity
  8
DIMENSIONS
100
AcDbText
 10
2051.1
 20
493.0
 30
0.0
 40
9.0
  1
440  OPENING
 50
90.0
 72
1
 11
2051.1
 21
493.0
 31
0.0
100
AcDbText
 73
2
  0
LINE
  5
1DC
330
17
100
AcDbEntity
  8
DIMENSIONS
100
AcDbLine
 10
2089.0
 20
283.0
 30
0.0
 11
2089.0
 21
703.0
 31
0.0
  0
LINE
  5
1DD
330
17
100
AcDbEntity
  8
DIMENSIONS
100
AcDbLine
 10
2085.4
 20
283.0
 30
0.0
 11
2092.6
 21
283.0
 31
0.0
  0
LINE
  5
1DE
330
17
100
AcDbEntity
  8
DIMENSIONS
100
AcDbLine
 10
2085.4
 20
703.0
 30
0.0
 11
2092.6
 21
703.0
 31
0.0
  0
TEXT
  5
1DF
330
17
100
AcDbEntity
  8
DIMENSIONS
100
AcDbText
 10
2097.1
 20
493.0
 30
0.0
 40
9.0
  1
420  A3
 50
90.0
 72
1
 11
2097.1
 21
493.0
 31
0.0
100
AcDbText
 73
2
  0
TEXT
  5
1E0
330
17
100
AcDbEntity
  8
NOTES
100
AcDbText
 10
1520.0
 20
-328.0
 30
0.0
 40
22.0
  1
JOINERY DETAILS  J1 / J2 / J3 / J4 / J5   -   ALL POCKET DEPTHS 10.0 mm IN 20.0 mm STOCK
 72
1
 11
1520.0
 21
-328.0
 31
0.0
100
AcDbText
 73
2
  0
TEXT
  5
1E1
330
17
100
AcDbEntity
  8
NOTES
100
AcDbText
 10
280.0
 20
-420.0
 30
0.0
 40
16.0
  1
J1   FIXED FRAME CORNER HALF-LAP   40 x 40 x d10
 72
1
 11
280.0
 21
-420.0
 31
0.0
100
AcDbText
 73
2
  0
TEXT
  5
1E2
330
17
100
AcDbEntity
  8
NOTES
100
AcDbText
 10
280.0
 20
-442.0
 30
0.0
 40
9.0
  1
SCALE 4:1   REFERENCE DETAIL - NOT A CUTTING CONTOUR
 72
1
 11
280.0
 21
-442.0
 31
0.0
100
AcDbText
 73
2
  0
TEXT
  5
1E3
330
17
100
AcDbEntity
  8
NOTES
100
AcDbText
 10
280.0
 20
-474.0
 30
0.0
 40
11.0
  1
F01 FIXED FRAME STILE  (POCKET ON FACE A)
 72
1
 11
280.0
 21
-474.0
 31
0.0
100
AcDbText
 73
2
  0
LWPOLYLINE
  5
1E4
330
17
100
AcDbEntity
  8
ASSEMBLY_REFERENCE
100
AcDbPolyline
 90
4
 70
1
 10
60.0
 20
-646.0
 10
500.0
 20
-646.0
 10
500.0
 20
-486.0
 10
60.0
 20
-486.0
  0
LWPOLYLINE
  5
1E5
330
17
100
AcDbEntity
  8
ASSEMBLY_REFERENCE
100
AcDbPolyline
 90
4
 70
1
 10
60.0
 20
-646.0
 10
220.0
 20
-646.0
 10
220.0
 20
-486.0
 10
60.0
 20
-486.0
  0
LINE
  5
1E6
330
17
100
AcDbEntity
  8
DIMENSIONS
100
AcDbLine
 10
60.0
 20
-662.0
 30
0.0
 11
220.0
 21
-662.0
 31
0.0
  0
LINE
  5
1E7
330
17
100
AcDbEntity
  8
DIMENSIONS
100
AcDbLine
 10
60.0
 20
-665.2
 30
0.0
 11
60.0
 21
-658.8
 31
0.0
  0
LINE
  5
1E8
330
17
100
AcDbEntity
  8
DIMENSIONS
100
AcDbLine
 10
220.0
 20
-665.2
 30
0.0
 11
220.0
 21
-658.8
 31
0.0
  0
TEXT
  5
1E9
330
17
100
AcDbEntity
  8
DIMENSIONS
100
AcDbText
 10
140.0
 20
-655.6
 30
0.0
 40
8.0
  1
40
 72
1
 11
140.0
 21
-655.6
 31
0.0
100
AcDbText
 73
2
  0
LINE
  5
1EA
330
17
100
AcDbEntity
  8
DIMENSIONS
100
AcDbLine
 10
514.0
 20
-646.0
 30
0.0
 11
514.0
 21
-486.0
 31
0.0
  0
LINE
  5
1EB
330
17
100
AcDbEntity
  8
DIMENSIONS
100
AcDbLine
 10
510.8
 20
-646.0
 30
0.0
 11
517.2
 21
-646.0
 31
0.0
  0
LINE
  5
1EC
330
17
100
AcDbEntity
  8
DIMENSIONS
100
AcDbLine
 10
510.8
 20
-486.0
 30
0.0
 11
517.2
 21
-486.0
 31
0.0
  0
TEXT
  5
1ED
330
17
100
AcDbEntity
  8
DIMENSIONS
100
AcDbText
 10
521.2
 20
-566.0
 30
0.0
 40
8.0
  1
40
 50
90.0
 72
1
 11
521.2
 21
-566.0
 31
0.0
100
AcDbText
 73
2
  0
TEXT
  5
1EE
330
17
100
AcDbEntity
  8
NOTES
100
AcDbText
 10
280.0
 20
-680.0
 30
0.0
 40
9.0
  1
open-sided rebate - no dog-bone needed
 72
1
 11
280.0
 21
-680.0
 31
0.0
100
AcDbText
 73
2
  0
TEXT
  5
1EF
330
17
100
AcDbEntity
  8
NOTES
100
AcDbText
 10
280.0
 20
-696.0
 30
0.0
 40
11.0
  1
F02 FIXED FRAME RAIL  (POCKET ON FACE B)
 72
1
 11
280.0
 21
-696.0
 31
0.0
100
AcDbText
 73
2
  0
LWPOLYLINE
  5
1F0
330
17
100
AcDbEntity
  8
ASSEMBLY_REFERENCE
100
AcDbPolyline
 90
4
 70
1
 10
60.0
 20
-868.0
 10
500.0
 20
-868.0
 10
500.0
 20
-708.0
 10
60.0
 20
-708.0
  0
LWPOLYLINE
  5
1F1
330
17
100
AcDbEntity
  8
ASSEMBLY_REFERENCE
100
AcDbPolyline
 90
4
 70
1
 10
60.0
 20
-868.0
 10
220.0
 20
-868.0
 10
220.0
 20
-708.0
 10
60.0
 20
-708.0
  0
LINE
  5
1F2
330
17
100
AcDbEntity
  8
DIMENSIONS
100
AcDbLine
 10
60.0
 20
-884.0
 30
0.0
 11
220.0
 21
-884.0
 31
0.0
  0
LINE
  5
1F3
330
17
100
AcDbEntity
  8
DIMENSIONS
100
AcDbLine
 10
60.0
 20
-887.2
 30
0.0
 11
60.0
 21
-880.8
 31
0.0
  0
LINE
  5
1F4
330
17
100
AcDbEntity
  8
DIMENSIONS
100
AcDbLine
 10
220.0
 20
-887.2
 30
0.0
 11
220.0
 21
-880.8
 31
0.0
  0
TEXT
  5
1F5
330
17
100
AcDbEntity
  8
DIMENSIONS
100
AcDbText
 10
140.0
 20
-877.6
 30
0.0
 40
8.0
  1
40
 72
1
 11
140.0
 21
-877.6
 31
0.0
100
AcDbText
 73
2
  0
LINE
  5
1F6
330
17
100
AcDbEntity
  8
DIMENSIONS
100
AcDbLine
 10
514.0
 20
-868.0
 30
0.0
 11
514.0
 21
-708.0
 31
0.0
  0
LINE
  5
1F7
330
17
100
AcDbEntity
  8
DIMENSIONS
100
AcDbLine
 10
510.8
 20
-868.0
 30
0.0
 11
517.2
 21
-868.0
 31
0.0
  0
LINE
  5
1F8
330
17
100
AcDbEntity
  8
DIMENSIONS
100
AcDbLine
 10
510.8
 20
-708.0
 30
0.0
 11
517.2
 21
-708.0
 31
0.0
  0
TEXT
  5
1F9
330
17
100
AcDbEntity
  8
DIMENSIONS
100
AcDbText
 10
521.2
 20
-788.0
 30
0.0
 40
8.0
  1
40
 50
90.0
 72
1
 11
521.2
 21
-788.0
 31
0.0
100
AcDbText
 73
2
  0
TEXT
  5
1FA
330
17
100
AcDbEntity
  8
NOTES
100
AcDbText
 10
280.0
 20
-902.0
 30
0.0
 40
9.0
  1
open-sided rebate - no dog-bone needed
 72
1
 11
280.0
 21
-902.0
 31
0.0
100
AcDbText
 73
2
  0
TEXT
  5
1FB
330
17
100
AcDbEntity
  8
NOTES
100
AcDbText
 10
280.0
 20
-936.0
 30
0.0
 40
11.0
  1
ASSEMBLED SECTION  -  STOCK 20 mm
 72
1
 11
280.0
 21
-936.0
 31
0.0
100
AcDbText
 73
2
  0
LWPOLYLINE
  5
1FC
330
17
100
AcDbEntity
  8
ASSEMBLY_REFERENCE
100
AcDbPolyline
 90
6
 70
1
 10
60.0
 20
-1036.0
 10
500.0
 20
-1036.0
 10
500.0
 20
-956.0
 10
220.0
 20
-956.0
 10
220.0
 20
-996.0
 10
60.0
 20
-996.0
  0
LWPOLYLINE
  5
1FD
330
17
100
AcDbEntity
  8
ASSEMBLY_REFERENCE
100
AcDbPolyline
 90
4
 70
1
 10
60.0
 20
-996.0
 10
220.0
 20
-996.0
 10
220.0
 20
-956.0
 10
60.0
 20
-956.0
  0
LINE
  5
1FE
330
17
100
AcDbEntity
  8
DIMENSIONS
100
AcDbLine
 10
34.0
 20
-1036.0
 30
0.0
 11
34.0
 21
-996.0
 31
0.0
  0
LINE
  5
1FF
330
17
100
AcDbEntity
  8
DIMENSIONS
100
AcDbLine
 10
30.8
 20
-1036.0
 30
0.0
 11
37.2
 21
-1036.0
 31
0.0
  0
LINE
  5
200
330
17
100
AcDbEntity
  8
DIMENSIONS
100
AcDbLine
 10
30.8
 20
-996.0
 30
0.0
 11
37.2
 21
-996.0
 31
0.0
  0
TEXT
  5
201
330
17
100
AcDbEntity
  8
DIMENSIONS
100
AcDbText
 10
41.2
 20
-1016.0
 30
0.0
 40
8.0
  1
10
 50
90.0
 72
1
 11
41.2
 21
-1016.0
 31
0.0
100
AcDbText
 73
2
  0
LINE
  5
202
330
17
100
AcDbEntity
  8
DIMENSIONS
100
AcDbLine
 10
34.0
 20
-996.0
 30
0.0
 11
34.0
 21
-956.0
 31
0.0
  0
LINE
  5
203
330
17
100
AcDbEntity
  8
DIMENSIONS
100
AcDbLine
 10
30.8
 20
-996.0
 30
0.0
 11
37.2
 21
-996.0
 31
0.0
  0
LINE
  5
204
330
17
100
AcDbEntity
  8
DIMENSIONS
100
AcDbLine
 10
30.8
 20
-956.0
 30
0.0
 11
37.2
 21
-956.0
 31
0.0
  0
TEXT
  5
205
330
17
100
AcDbEntity
  8
DIMENSIONS
100
AcDbText
 10
41.2
 20
-976.0
 30
0.0
 40
8.0
  1
10
 50
90.0
 72
1
 11
41.2
 21
-976.0
 31
0.0
100
AcDbText
 73
2
  0
TEXT
  5
206
330
17
100
AcDbEntity
  8
NOTES
100
AcDbText
 10
280.0
 20
-1070.0
 30
0.0
 40
9.0
  1
F01 keeps z0-10, F02 keeps z10-20  ->  flush 20 mm
 72
1
 11
280.0
 21
-1070.0
 31
0.0
100
AcDbText
 73
2
  0
TEXT
  5
207
330
17
100
AcDbEntity
  8
NOTES
100
AcDbText
 10
280.0
 20
-1086.0
 30
0.0
 40
9.0
  1
POCKET DEPTH 10.0 mm  /  STOCK THICKNESS 20.0 mm
 72
1
 11
280.0
 21
-1086.0
 31
0.0
100
AcDbText
 73
2
  0
TEXT
  5
208
330
17
100
AcDbEntity
  8
NOTES
100
AcDbText
 10
900.0
 20
-420.0
 30
0.0
 40
16.0
  1
J2   SASH CORNER HALF-LAP   30 x 30 x d10
 72
1
 11
900.0
 21
-420.0
 31
0.0
100
AcDbText
 73
2
  0
TEXT
  5
209
330
17
100
AcDbEntity
  8
NOTES
100
AcDbText
 10
900.0
 20
-442.0
 30
0.0
 40
9.0
  1
SCALE 4:1   REFERENCE DETAIL - NOT A CUTTING CONTOUR
 72
1
 11
900.0
 21
-442.0
 31
0.0
100
AcDbText
 73
2
  0
TEXT
  5
20A
330
17
100
AcDbEntity
  8
NOTES
100
AcDbText
 10
900.0
 20
-474.0
 30
0.0
 40
11.0
  1
S01 SASH STILE  (POCKET ON FACE B)  x4
 72
1
 11
900.0
 21
-474.0
 31
0.0
100
AcDbText
 73
2
  0
LWPOLYLINE
  5
20B
330
17
100
AcDbEntity
  8
ASSEMBLY_REFERENCE
100
AcDbPolyline
 90
4
 70
1
 10
700.0
 20
-606.0
 10
1100.0
 20
-606.0
 10
1100.0
 20
-486.0
 10
700.0
 20
-486.0
  0
LWPOLYLINE
  5
20C
330
17
100
AcDbEntity
  8
ASSEMBLY_REFERENCE
100
AcDbPolyline
 90
4
 70
1
 10
700.0
 20
-606.0
 10
820.0
 20
-606.0
 10
820.0
 20
-486.0
 10
700.0
 20
-486.0
  0
LINE
  5
20D
330
17
100
AcDbEntity
  8
DIMENSIONS
100
AcDbLine
 10
700.0
 20
-622.0
 30
0.0
 11
820.0
 21
-622.0
 31
0.0
  0
LINE
  5
20E
330
17
100
AcDbEntity
  8
DIMENSIONS
100
AcDbLine
 10
700.0
 20
-625.2
 30
0.0
 11
700.0
 21
-618.8
 31
0.0
  0
LINE
  5
20F
330
17
100
AcDbEntity
  8
DIMENSIONS
100
AcDbLine
 10
820.0
 20
-625.2
 30
0.0
 11
820.0
 21
-618.8
 31
0.0
  0
TEXT
  5
210
330
17
100
AcDbEntity
  8
DIMENSIONS
100
AcDbText
 10
760.0
 20
-615.6
 30
0.0
 40
8.0
  1
30
 72
1
 11
760.0
 21
-615.6
 31
0.0
100
AcDbText
 73
2
  0
LINE
  5
211
330
17
100
AcDbEntity
  8
DIMENSIONS
100
AcDbLine
 10
1114.0
 20
-606.0
 30
0.0
 11
1114.0
 21
-486.0
 31
0.0
  0
LINE
  5
212
330
17
100
AcDbEntity
  8
DIMENSIONS
100
AcDbLine
 10
1110.8
 20
-606.0
 30
0.0
 11
1117.2
 21
-606.0
 31
0.0
  0
LINE
  5
213
330
17
100
AcDbEntity
  8
DIMENSIONS
100
AcDbLine
 10
1110.8
 20
-486.0
 30
0.0
 11
1117.2
 21
-486.0
 31
0.0
  0
TEXT
  5
214
330
17
100
AcDbEntity
  8
DIMENSIONS
100
AcDbText
 10
1121.2
 20
-546.0
 30
0.0
 40
8.0
  1
30
 50
90.0
 72
1
 11
1121.2
 21
-546.0
 31
0.0
100
AcDbText
 73
2
  0
TEXT
  5
215
330
17
100
AcDbEntity
  8
NOTES
100
AcDbText
 10
900.0
 20
-640.0
 30
0.0
 40
9.0
  1
8 sash corners total (2 leaves x 4)
 72
1
 11
900.0
 21
-640.0
 31
0.0
100
AcDbText
 73
2
  0
TEXT
  5
216
330
17
100
AcDbEntity
  8
NOTES
100
AcDbText
 10
900.0
 20
-656.0
 30
0.0
 40
11.0
  1
S02 SASH RAIL  (POCKET ON FACE A)  x4
 72
1
 11
900.0
 21
-656.0
 31
0.0
100
AcDbText
 73
2
  0
LWPOLYLINE
  5
217
330
17
100
AcDbEntity
  8
ASSEMBLY_REFERENCE
100
AcDbPolyline
 90
4
 70
1
 10
700.0
 20
-788.0
 10
1100.0
 20
-788.0
 10
1100.0
 20
-668.0
 10
700.0
 20
-668.0
  0
LWPOLYLINE
  5
218
330
17
100
AcDbEntity
  8
ASSEMBLY_REFERENCE
100
AcDbPolyline
 90
4
 70
1
 10
700.0
 20
-788.0
 10
820.0
 20
-788.0
 10
820.0
 20
-668.0
 10
700.0
 20
-668.0
  0
LINE
  5
219
330
17
100
AcDbEntity
  8
DIMENSIONS
100
AcDbLine
 10
700.0
 20
-804.0
 30
0.0
 11
820.0
 21
-804.0
 31
0.0
  0
LINE
  5
21A
330
17
100
AcDbEntity
  8
DIMENSIONS
100
AcDbLine
 10
700.0
 20
-807.2
 30
0.0
 11
700.0
 21
-800.8
 31
0.0
  0
LINE
  5
21B
330
17
100
AcDbEntity
  8
DIMENSIONS
100
AcDbLine
 10
820.0
 20
-807.2
 30
0.0
 11
820.0
 21
-800.8
 31
0.0
  0
TEXT
  5
21C
330
17
100
AcDbEntity
  8
DIMENSIONS
100
AcDbText
 10
760.0
 20
-797.6
 30
0.0
 40
8.0
  1
30
 72
1
 11
760.0
 21
-797.6
 31
0.0
100
AcDbText
 73
2
  0
LINE
  5
21D
330
17
100
AcDbEntity
  8
DIMENSIONS
100
AcDbLine
 10
1114.0
 20
-788.0
 30
0.0
 11
1114.0
 21
-668.0
 31
0.0
  0
LINE
  5
21E
330
17
100
AcDbEntity
  8
DIMENSIONS
100
AcDbLine
 10
1110.8
 20
-788.0
 30
0.0
 11
1117.2
 21
-788.0
 31
0.0
  0
LINE
  5
21F
330
17
100
AcDbEntity
  8
DIMENSIONS
100
AcDbLine
 10
1110.8
 20
-668.0
 30
0.0
 11
1117.2
 21
-668.0
 31
0.0
  0
TEXT
  5
220
330
17
100
AcDbEntity
  8
DIMENSIONS
100
AcDbText
 10
1121.2
 20
-728.0
 30
0.0
 40
8.0
  1
30
 50
90.0
 72
1
 11
1121.2
 21
-728.0
 31
0.0
100
AcDbText
 73
2
  0
TEXT
  5
221
330
17
100
AcDbEntity
  8
NOTES
100
AcDbText
 10
900.0
 20
-822.0
 30
0.0
 40
9.0
  1
open-sided rebate - no dog-bone needed
 72
1
 11
900.0
 21
-822.0
 31
0.0
100
AcDbText
 73
2
  0
TEXT
  5
222
330
17
100
AcDbEntity
  8
NOTES
100
AcDbText
 10
900.0
 20
-856.0
 30
0.0
 40
11.0
  1
ASSEMBLED SECTION  -  STOCK 20 mm
 72
1
 11
900.0
 21
-856.0
 31
0.0
100
AcDbText
 73
2
  0
LWPOLYLINE
  5
223
330
17
100
AcDbEntity
  8
ASSEMBLY_REFERENCE
100
AcDbPolyline
 90
6
 70
1
 10
700.0
 20
-956.0
 10
1100.0
 20
-956.0
 10
1100.0
 20
-876.0
 10
820.0
 20
-876.0
 10
820.0
 20
-916.0
 10
700.0
 20
-916.0
  0
LWPOLYLINE
  5
224
330
17
100
AcDbEntity
  8
ASSEMBLY_REFERENCE
100
AcDbPolyline
 90
4
 70
1
 10
700.0
 20
-916.0
 10
820.0
 20
-916.0
 10
820.0
 20
-876.0
 10
700.0
 20
-876.0
  0
LINE
  5
225
330
17
100
AcDbEntity
  8
DIMENSIONS
100
AcDbLine
 10
674.0
 20
-956.0
 30
0.0
 11
674.0
 21
-916.0
 31
0.0
  0
LINE
  5
226
330
17
100
AcDbEntity
  8
DIMENSIONS
100
AcDbLine
 10
670.8
 20
-956.0
 30
0.0
 11
677.2
 21
-956.0
 31
0.0
  0
LINE
  5
227
330
17
100
AcDbEntity
  8
DIMENSIONS
100
AcDbLine
 10
670.8
 20
-916.0
 30
0.0
 11
677.2
 21
-916.0
 31
0.0
  0
TEXT
  5
228
330
17
100
AcDbEntity
  8
DIMENSIONS
100
AcDbText
 10
681.2
 20
-936.0
 30
0.0
 40
8.0
  1
10
 50
90.0
 72
1
 11
681.2
 21
-936.0
 31
0.0
100
AcDbText
 73
2
  0
LINE
  5
229
330
17
100
AcDbEntity
  8
DIMENSIONS
100
AcDbLine
 10
674.0
 20
-916.0
 30
0.0
 11
674.0
 21
-876.0
 31
0.0
  0
LINE
  5
22A
330
17
100
AcDbEntity
  8
DIMENSIONS
100
AcDbLine
 10
670.8
 20
-916.0
 30
0.0
 11
677.2
 21
-916.0
 31
0.0
  0
LINE
  5
22B
330
17
100
AcDbEntity
  8
DIMENSIONS
100
AcDbLine
 10
670.8
 20
-876.0
 30
0.0
 11
677.2
 21
-876.0
 31
0.0
  0
TEXT
  5
22C
330
17
100
AcDbEntity
  8
DIMENSIONS
100
AcDbText
 10
681.2
 20
-896.0
 30
0.0
 40
8.0
  1
10
 50
90.0
 72
1
 11
681.2
 21
-896.0
 31
0.0
100
AcDbText
 73
2
  0
TEXT
  5
22D
330
17
100
AcDbEntity
  8
NOTES
100
AcDbText
 10
900.0
 20
-990.0
 30
0.0
 40
9.0
  1
S01 keeps z10-20, S02 keeps z0-10  ->  flush 20 mm
 72
1
 11
900.0
 21
-990.0
 31
0.0
100
AcDbText
 73
2
  0
TEXT
  5
22E
330
17
100
AcDbEntity
  8
NOTES
100
AcDbText
 10
900.0
 20
-1006.0
 30
0.0
 40
9.0
  1
POCKET DEPTH 10.0 mm  /  STOCK THICKNESS 20.0 mm
 72
1
 11
900.0
 21
-1006.0
 31
0.0
100
AcDbText
 73
2
  0
TEXT
  5
22F
330
17
100
AcDbEntity
  8
NOTES
100
AcDbText
 10
1520.0
 20
-420.0
 30
0.0
 40
16.0
  1
J3   LATTICE CROSSING HALF-LAP   10 x 10 x d10
 72
1
 11
1520.0
 21
-420.0
 31
0.0
100
AcDbText
 73
2
  0
TEXT
  5
230
330
17
100
AcDbEntity
  8
NOTES
100
AcDbText
 10
1520.0
 20
-442.0
 30
0.0
 40
9.0
  1
SCALE 8:1   REFERENCE DETAIL - NOT A CUTTING CONTOUR
 72
1
 11
1520.0
 21
-442.0
 31
0.0
100
AcDbText
 73
2
  0
TEXT
  5
231
330
17
100
AcDbEntity
  8
NOTES
100
AcDbText
 10
1520.0
 20
-474.0
 30
0.0
 40
11.0
  1
L01 VERTICAL LATTICE  (POCKET ON FACE B)
 72
1
 11
1520.0
 21
-474.0
 31
0.0
100
AcDbText
 73
2
  0
LWPOLYLINE
  5
232
330
17
100
AcDbEntity
  8
ASSEMBLY_REFERENCE
100
AcDbPolyline
 90
4
 70
1
 10
1360.0
 20
-566.0
 10
1680.0
 20
-566.0
 10
1680.0
 20
-486.0
 10
1360.0
 20
-486.0
  0
LWPOLYLINE
  5
233
330
17
100
AcDbEntity
  8
ASSEMBLY_REFERENCE
100
AcDbPolyline
 90
4
 70
1
 10
1480.0
 20
-566.0
 10
1560.0
 20
-566.0
 10
1560.0
 20
-486.0
 10
1480.0
 20
-486.0
  0
LINE
  5
234
330
17
100
AcDbEntity
  8
DIMENSIONS
100
AcDbLine
 10
1480.0
 20
-582.0
 30
0.0
 11
1560.0
 21
-582.0
 31
0.0
  0
LINE
  5
235
330
17
100
AcDbEntity
  8
DIMENSIONS
100
AcDbLine
 10
1480.0
 20
-585.2
 30
0.0
 11
1480.0
 21
-578.8
 31
0.0
  0
LINE
  5
236
330
17
100
AcDbEntity
  8
DIMENSIONS
100
AcDbLine
 10
1560.0
 20
-585.2
 30
0.0
 11
1560.0
 21
-578.8
 31
0.0
  0
TEXT
  5
237
330
17
100
AcDbEntity
  8
DIMENSIONS
100
AcDbText
 10
1520.0
 20
-575.6
 30
0.0
 40
8.0
  1
10
 72
1
 11
1520.0
 21
-575.6
 31
0.0
100
AcDbText
 73
2
  0
LINE
  5
238
330
17
100
AcDbEntity
  8
DIMENSIONS
100
AcDbLine
 10
1694.0
 20
-566.0
 30
0.0
 11
1694.0
 21
-486.0
 31
0.0
  0
LINE
  5
239
330
17
100
AcDbEntity
  8
DIMENSIONS
100
AcDbLine
 10
1690.8
 20
-566.0
 30
0.0
 11
1697.2
 21
-566.0
 31
0.0
  0
LINE
  5
23A
330
17
100
AcDbEntity
  8
DIMENSIONS
100
AcDbLine
 10
1690.8
 20
-486.0
 30
0.0
 11
1697.2
 21
-486.0
 31
0.0
  0
TEXT
  5
23B
330
17
100
AcDbEntity
  8
DIMENSIONS
100
AcDbText
 10
1701.2
 20
-526.0
 30
0.0
 40
8.0
  1
10
 50
90.0
 72
1
 11
1701.2
 21
-526.0
 31
0.0
100
AcDbText
 73
2
  0
TEXT
  5
23C
330
17
100
AcDbEntity
  8
NOTES
100
AcDbText
 10
1520.0
 20
-600.0
 30
0.0
 40
9.0
  1
5 crossings per L01 bar, 5 per leaf, 10 total
 72
1
 11
1520.0
 21
-600.0
 31
0.0
100
AcDbText
 73
2
  0
TEXT
  5
23D
330
17
100
AcDbEntity
  8
NOTES
100
AcDbText
 10
1520.0
 20
-616.0
 30
0.0
 40
11.0
  1
L02 HORIZONTAL LATTICE  (POCKET ON FACE A)
 72
1
 11
1520.0
 21
-616.0
 31
0.0
100
AcDbText
 73
2
  0
LWPOLYLINE
  5
23E
330
17
100
AcDbEntity
  8
ASSEMBLY_REFERENCE
100
AcDbPolyline
 90
4
 70
1
 10
1360.0
 20
-708.0
 10
1680.0
 20
-708.0
 10
1680.0
 20
-628.0
 10
1360.0
 20
-628.0
  0
LWPOLYLINE
  5
23F
330
17
100
AcDbEntity
  8
ASSEMBLY_REFERENCE
100
AcDbPolyline
 90
4
 70
1
 10
1480.0
 20
-708.0
 10
1560.0
 20
-708.0
 10
1560.0
 20
-628.0
 10
1480.0
 20
-628.0
  0
LINE
  5
240
330
17
100
AcDbEntity
  8
DIMENSIONS
100
AcDbLine
 10
1480.0
 20
-724.0
 30
0.0
 11
1560.0
 21
-724.0
 31
0.0
  0
LINE
  5
241
330
17
100
AcDbEntity
  8
DIMENSIONS
100
AcDbLine
 10
1480.0
 20
-727.2
 30
0.0
 11
1480.0
 21
-720.8
 31
0.0
  0
LINE
  5
242
330
17
100
AcDbEntity
  8
DIMENSIONS
100
AcDbLine
 10
1560.0
 20
-727.2
 30
0.0
 11
1560.0
 21
-720.8
 31
0.0
  0
TEXT
  5
243
330
17
100
AcDbEntity
  8
DIMENSIONS
100
AcDbText
 10
1520.0
 20
-717.6
 30
0.0
 40
8.0
  1
10
 72
1
 11
1520.0
 21
-717.6
 31
0.0
100
AcDbText
 73
2
  0
LINE
  5
244
330
17
100
AcDbEntity
  8
DIMENSIONS
100
AcDbLine
 10
1694.0
 20
-708.0
 30
0.0
 11
1694.0
 21
-628.0
 31
0.0
  0
LINE
  5
245
330
17
100
AcDbEntity
  8
DIMENSIONS
100
AcDbLine
 10
1690.8
 20
-708.0
 30
0.0
 11
1697.2
 21
-708.0
 31
0.0
  0
LINE
  5
246
330
17
100
AcDbEntity
  8
DIMENSIONS
100
AcDbLine
 10
1690.8
 20
-628.0
 30
0.0
 11
1697.2
 21
-628.0
 31
0.0
  0
TEXT
  5
247
330
17
100
AcDbEntity
  8
DIMENSIONS
100
AcDbText
 10
1701.2
 20
-668.0
 30
0.0
 40
8.0
  1
10
 50
90.0
 72
1
 11
1701.2
 21
-668.0
 31
0.0
100
AcDbText
 73
2
  0
TEXT
  5
248
330
17
100
AcDbEntity
  8
NOTES
100
AcDbText
 10
1520.0
 20
-742.0
 30
0.0
 40
9.0
  1
1 crossing per L02 bar - pocket crosses full width
 72
1
 11
1520.0
 21
-742.0
 31
0.0
100
AcDbText
 73
2
  0
TEXT
  5
249
330
17
100
AcDbEntity
  8
NOTES
100
AcDbText
 10
1520.0
 20
-776.0
 30
0.0
 40
11.0
  1
ASSEMBLED SECTION  -  STOCK 20 mm
 72
1
 11
1520.0
 21
-776.0
 31
0.0
100
AcDbText
 73
2
  0
LWPOLYLINE
  5
24A
330
17
100
AcDbEntity
  8
ASSEMBLY_REFERENCE
100
AcDbPolyline
 90
8
 70
1
 10
1360.0
 20
-876.0
 10
1480.0
 20
-876.0
 10
1480.0
 20
-956.0
 10
1560.0
 20
-956.0
 10
1560.0
 20
-876.0
 10
1680.0
 20
-876.0
 10
1680.0
 20
-796.0
 10
1360.0
 20
-796.0
  0
LWPOLYLINE
  5
24B
330
17
100
AcDbEntity
  8
ASSEMBLY_REFERENCE
100
AcDbPolyline
 90
4
 70
1
 10
1480.0
 20
-956.0
 10
1560.0
 20
-956.0
 10
1560.0
 20
-876.0
 10
1480.0
 20
-876.0
  0
LINE
  5
24C
330
17
100
AcDbEntity
  8
DIMENSIONS
100
AcDbLine
 10
1334.0
 20
-956.0
 30
0.0
 11
1334.0
 21
-876.0
 31
0.0
  0
LINE
  5
24D
330
17
100
AcDbEntity
  8
DIMENSIONS
100
AcDbLine
 10
1330.8
 20
-956.0
 30
0.0
 11
1337.2
 21
-956.0
 31
0.0
  0
LINE
  5
24E
330
17
100
AcDbEntity
  8
DIMENSIONS
100
AcDbLine
 10
1330.8
 20
-876.0
 30
0.0
 11
1337.2
 21
-876.0
 31
0.0
  0
TEXT
  5
24F
330
17
100
AcDbEntity
  8
DIMENSIONS
100
AcDbText
 10
1341.2
 20
-916.0
 30
0.0
 40
8.0
  1
10
 50
90.0
 72
1
 11
1341.2
 21
-916.0
 31
0.0
100
AcDbText
 73
2
  0
LINE
  5
250
330
17
100
AcDbEntity
  8
DIMENSIONS
100
AcDbLine
 10
1334.0
 20
-876.0
 30
0.0
 11
1334.0
 21
-796.0
 31
0.0
  0
LINE
  5
251
330
17
100
AcDbEntity
  8
DIMENSIONS
100
AcDbLine
 10
1330.8
 20
-876.0
 30
0.0
 11
1337.2
 21
-876.0
 31
0.0
  0
LINE
  5
252
330
17
100
AcDbEntity
  8
DIMENSIONS
100
AcDbLine
 10
1330.8
 20
-796.0
 30
0.0
 11
1337.2
 21
-796.0
 31
0.0
  0
TEXT
  5
253
330
17
100
AcDbEntity
  8
DIMENSIONS
100
AcDbText
 10
1341.2
 20
-836.0
 30
0.0
 40
8.0
  1
10
 50
90.0
 72
1
 11
1341.2
 21
-836.0
 31
0.0
100
AcDbText
 73
2
  0
TEXT
  5
254
330
17
100
AcDbEntity
  8
NOTES
100
AcDbText
 10
1520.0
 20
-990.0
 30
0.0
 40
9.0
  1
L01 front z10-20 continuous, L02 back z0-10 continuous - faces flush
 72
1
 11
1520.0
 21
-990.0
 31
0.0
100
AcDbText
 73
2
  0
TEXT
  5
255
330
17
100
AcDbEntity
  8
NOTES
100
AcDbText
 10
1520.0
 20
-1006.0
 30
0.0
 40
9.0
  1
POCKET DEPTH 10.0 mm  /  STOCK THICKNESS 20.0 mm
 72
1
 11
1520.0
 21
-1006.0
 31
0.0
100
AcDbText
 73
2
  0
TEXT
  5
256
330
17
100
AcDbEntity
  8
NOTES
100
AcDbText
 10
2140.0
 20
-420.0
 30
0.0
 40
16.0
  1
J4   LATTICE END SEAT IN SASH   10 x 10 x d10
 72
1
 11
2140.0
 21
-420.0
 31
0.0
100
AcDbText
 73
2
  0
TEXT
  5
257
330
17
100
AcDbEntity
  8
NOTES
100
AcDbText
 10
2140.0
 20
-442.0
 30
0.0
 40
9.0
  1
SCALE 6:1   REFERENCE DETAIL - NOT A CUTTING CONTOUR
 72
1
 11
2140.0
 21
-442.0
 31
0.0
100
AcDbText
 73
2
  0
TEXT
  5
258
330
17
100
AcDbEntity
  8
NOTES
100
AcDbText
 10
2140.0
 20
-474.0
 30
0.0
 40
11.0
  1
S01 (5 seats) / S02 (1 seat)  + DOG-BONE
 72
1
 11
2140.0
 21
-474.0
 31
0.0
100
AcDbText
 73
2
  0
LWPOLYLINE
  5
259
330
17
100
AcDbEntity
  8
ASSEMBLY_REFERENCE
100
AcDbPolyline
 90
4
 70
1
 10
2020.0
 20
-666.0
 10
2260.0
 20
-666.0
 10
2260.0
 20
-486.0
 10
2020.0
 20
-486.0
  0
LWPOLYLINE
  5
25A
330
17
100
AcDbEntity
  8
ASSEMBLY_REFERENCE
100
AcDbPolyline
 90
4
 70
1
 10
2110.0
 20
-546.0
 10
2170.0
 20
-546.0
 10
2170.0
 20
-486.0
 10
2110.0
 20
-486.0
  0
LINE
  5
25B
330
17
100
AcDbEntity
  8
DIMENSIONS
100
AcDbLine
 10
2110.0
 20
-682.0
 30
0.0
 11
2170.0
 21
-682.0
 31
0.0
  0
LINE
  5
25C
330
17
100
AcDbEntity
  8
DIMENSIONS
100
AcDbLine
 10
2110.0
 20
-685.2
 30
0.0
 11
2110.0
 21
-678.8
 31
0.0
  0
LINE
  5
25D
330
17
100
AcDbEntity
  8
DIMENSIONS
100
AcDbLine
 10
2170.0
 20
-685.2
 30
0.0
 11
2170.0
 21
-678.8
 31
0.0
  0
TEXT
  5
25E
330
17
100
AcDbEntity
  8
DIMENSIONS
100
AcDbText
 10
2140.0
 20
-675.6
 30
0.0
 40
8.0
  1
10
 72
1
 11
2140.0
 21
-675.6
 31
0.0
100
AcDbText
 73
2
  0
LINE
  5
25F
330
17
100
AcDbEntity
  8
DIMENSIONS
100
AcDbLine
 10
2274.0
 20
-546.0
 30
0.0
 11
2274.0
 21
-486.0
 31
0.0
  0
LINE
  5
260
330
17
100
AcDbEntity
  8
DIMENSIONS
100
AcDbLine
 10
2270.8
 20
-546.0
 30
0.0
 11
2277.2
 21
-546.0
 31
0.0
  0
LINE
  5
261
330
17
100
AcDbEntity
  8
DIMENSIONS
100
AcDbLine
 10
2270.8
 20
-486.0
 30
0.0
 11
2277.2
 21
-486.0
 31
0.0
  0
TEXT
  5
262
330
17
100
AcDbEntity
  8
DIMENSIONS
100
AcDbText
 10
2281.2
 20
-516.0
 30
0.0
 40
8.0
  1
10
 50
90.0
 72
1
 11
2281.2
 21
-516.0
 31
0.0
100
AcDbText
 73
2
  0
CIRCLE
  5
263
330
17
100
AcDbEntity
  8
DOGBONE
100
AcDbCircle
 10
2123.576450198782
 20
-532.4235498012183
 30
0.0
 40
19.200000000000003
  0
CIRCLE
  5
264
330
17
100
AcDbEntity
  8
DOGBONE
100
AcDbCircle
 10
2156.423549801218
 20
-532.4235498012183
 30
0.0
 40
19.200000000000003
  0
TEXT
  5
265
330
17
100
AcDbEntity
  8
NOTES
100
AcDbText
 10
2140.0
 20
-700.0
 30
0.0
 40
9.0
  1
S01 x5 each, S02 x1 each = 24 seats, 48 dog-bones
 72
1
 11
2140.0
 21
-700.0
 31
0.0
100
AcDbText
 73
2
  0
TEXT
  5
266
330
17
100
AcDbEntity
  8
NOTES
100
AcDbText
 10
2140.0
 20
-716.0
 30
0.0
 40
11.0
  1
L01 / L02 LATTICE END LAP
 72
1
 11
2140.0
 21
-716.0
 31
0.0
100
AcDbText
 73
2
  0
LWPOLYLINE
  5
267
330
17
100
AcDbEntity
  8
ASSEMBLY_REFERENCE
100
AcDbPolyline
 90
4
 70
1
 10
2020.0
 20
-788.0
 10
2260.0
 20
-788.0
 10
2260.0
 20
-728.0
 10
2020.0
 20
-728.0
  0
LWPOLYLINE
  5
268
330
17
100
AcDbEntity
  8
ASSEMBLY_REFERENCE
100
AcDbPolyline
 90
4
 70
1
 10
2020.0
 20
-788.0
 10
2080.0
 20
-788.0
 10
2080.0
 20
-728.0
 10
2020.0
 20
-728.0
  0
LINE
  5
269
330
17
100
AcDbEntity
  8
DIMENSIONS
100
AcDbLine
 10
2020.0
 20
-804.0
 30
0.0
 11
2080.0
 21
-804.0
 31
0.0
  0
LINE
  5
26A
330
17
100
AcDbEntity
  8
DIMENSIONS
100
AcDbLine
 10
2020.0
 20
-807.2
 30
0.0
 11
2020.0
 21
-800.8
 31
0.0
  0
LINE
  5
26B
330
17
100
AcDbEntity
  8
DIMENSIONS
100
AcDbLine
 10
2080.0
 20
-807.2
 30
0.0
 11
2080.0
 21
-800.8
 31
0.0
  0
TEXT
  5
26C
330
17
100
AcDbEntity
  8
DIMENSIONS
100
AcDbText
 10
2050.0
 20
-797.6
 30
0.0
 40
8.0
  1
10
 72
1
 11
2050.0
 21
-797.6
 31
0.0
100
AcDbText
 73
2
  0
LINE
  5
26D
330
17
100
AcDbEntity
  8
DIMENSIONS
100
AcDbLine
 10
2274.0
 20
-788.0
 30
0.0
 11
2274.0
 21
-728.0
 31
0.0
  0
LINE
  5
26E
330
17
100
AcDbEntity
  8
DIMENSIONS
100
AcDbLine
 10
2270.8
 20
-788.0
 30
0.0
 11
2277.2
 21
-788.0
 31
0.0
  0
LINE
  5
26F
330
17
100
AcDbEntity
  8
DIMENSIONS
100
AcDbLine
 10
2270.8
 20
-728.0
 30
0.0
 11
2277.2
 21
-728.0
 31
0.0
  0
TEXT
  5
270
330
17
100
AcDbEntity
  8
DIMENSIONS
100
AcDbText
 10
2281.2
 20
-758.0
 30
0.0
 40
8.0
  1
10
 50
90.0
 72
1
 11
2281.2
 21
-758.0
 31
0.0
100
AcDbText
 73
2
  0
TEXT
  5
271
330
17
100
AcDbEntity
  8
NOTES
100
AcDbText
 10
2140.0
 20
-822.0
 30
0.0
 40
9.0
  1
end rebate 10 long x d10 leaves a 10 mm tenon
 72
1
 11
2140.0
 21
-822.0
 31
0.0
100
AcDbText
 73
2
  0
TEXT
  5
272
330
17
100
AcDbEntity
  8
NOTES
100
AcDbText
 10
2140.0
 20
-856.0
 30
0.0
 40
11.0
  1
ASSEMBLED SECTION  -  STOCK 20 mm
 72
1
 11
2140.0
 21
-856.0
 31
0.0
100
AcDbText
 73
2
  0
LWPOLYLINE
  5
273
330
17
100
AcDbEntity
  8
ASSEMBLY_REFERENCE
100
AcDbPolyline
 90
6
 70
1
 10
1960.0
 20
-996.0
 10
2140.0
 20
-996.0
 10
2140.0
 20
-936.0
 10
2080.0
 20
-936.0
 10
2080.0
 20
-876.0
 10
1960.0
 20
-876.0
  0
LWPOLYLINE
  5
274
330
17
100
AcDbEntity
  8
ASSEMBLY_REFERENCE
100
AcDbPolyline
 90
6
 70
1
 10
2080.0
 20
-936.0
 10
2140.0
 20
-936.0
 10
2140.0
 20
-996.0
 10
2320.0
 20
-996.0
 10
2320.0
 20
-876.0
 10
2080.0
 20
-876.0
  0
LINE
  5
275
330
17
100
AcDbEntity
  8
DIMENSIONS
100
AcDbLine
 10
1934.0
 20
-996.0
 30
0.0
 11
1934.0
 21
-936.0
 31
0.0
  0
LINE
  5
276
330
17
100
AcDbEntity
  8
DIMENSIONS
100
AcDbLine
 10
1930.8
 20
-996.0
 30
0.0
 11
1937.2
 21
-996.0
 31
0.0
  0
LINE
  5
277
330
17
100
AcDbEntity
  8
DIMENSIONS
100
AcDbLine
 10
1930.8
 20
-936.0
 30
0.0
 11
1937.2
 21
-936.0
 31
0.0
  0
TEXT
  5
278
330
17
100
AcDbEntity
  8
DIMENSIONS
100
AcDbText
 10
1941.2
 20
-966.0
 30
0.0
 40
8.0
  1
10
 50
90.0
 72
1
 11
1941.2
 21
-966.0
 31
0.0
100
AcDbText
 73
2
  0
LINE
  5
279
330
17
100
AcDbEntity
  8
DIMENSIONS
100
AcDbLine
 10
1934.0
 20
-936.0
 30
0.0
 11
1934.0
 21
-876.0
 31
0.0
  0
LINE
  5
27A
330
17
100
AcDbEntity
  8
DIMENSIONS
100
AcDbLine
 10
1930.8
 20
-936.0
 30
0.0
 11
1937.2
 21
-936.0
 31
0.0
  0
LINE
  5
27B
330
17
100
AcDbEntity
  8
DIMENSIONS
100
AcDbLine
 10
1930.8
 20
-876.0
 30
0.0
 11
1937.2
 21
-876.0
 31
0.0
  0
TEXT
  5
27C
330
17
100
AcDbEntity
  8
DIMENSIONS
100
AcDbText
 10
1941.2
 20
-906.0
 30
0.0
 40
8.0
  1
10
 50
90.0
 72
1
 11
1941.2
 21
-906.0
 31
0.0
100
AcDbText
 73
2
  0
TEXT
  5
27D
330
17
100
AcDbEntity
  8
NOTES
100
AcDbText
 10
2140.0
 20
-1030.0
 30
0.0
 40
9.0
  1
tenon z10-20 drops into the sash pocket - lattice and sash faces flush
 72
1
 11
2140.0
 21
-1030.0
 31
0.0
100
AcDbText
 73
2
  0
TEXT
  5
27E
330
17
100
AcDbEntity
  8
NOTES
100
AcDbText
 10
2140.0
 20
-1046.0
 30
0.0
 40
9.0
  1
POCKET DEPTH 10.0 mm  /  STOCK THICKNESS 20.0 mm
 72
1
 11
2140.0
 21
-1046.0
 31
0.0
100
AcDbText
 73
2
  0
TEXT
  5
27F
330
17
100
AcDbEntity
  8
NOTES
100
AcDbText
 10
2760.0
 20
-420.0
 30
0.0
 40
16.0
  1
J5   CENTRE MEETING JOINT   BUTT, GAP 3
 72
1
 11
2760.0
 21
-420.0
 31
0.0
100
AcDbText
 73
2
  0
TEXT
  5
280
330
17
100
AcDbEntity
  8
NOTES
100
AcDbText
 10
2760.0
 20
-442.0
 30
0.0
 40
9.0
  1
SCALE 6:1   REFERENCE DETAIL - NOT A CUTTING CONTOUR
 72
1
 11
2760.0
 21
-442.0
 31
0.0
100
AcDbText
 73
2
  0
TEXT
  5
281
330
17
100
AcDbEntity
  8
NOTES
100
AcDbText
 10
2760.0
 20
-474.0
 30
0.0
 40
11.0
  1
S01 LEFT LEAF MEETING STILE  (NO MACHINING HERE)
 72
1
 11
2760.0
 21
-474.0
 31
0.0
100
AcDbText
 73
2
  0
LWPOLYLINE
  5
282
330
17
100
AcDbEntity
  8
ASSEMBLY_REFERENCE
100
AcDbPolyline
 90
4
 70
1
 10
2670.0
 20
-666.0
 10
2850.0
 20
-666.0
 10
2850.0
 20
-486.0
 10
2670.0
 20
-486.0
  0
TEXT
  5
283
330
17
100
AcDbEntity
  8
NOTES
100
AcDbText
 10
2760.0
 20
-700.0
 30
0.0
 40
9.0
  1
meeting edge is left square - do not rebate
 72
1
 11
2760.0
 21
-700.0
 31
0.0
100
AcDbText
 73
2
  0
TEXT
  5
284
330
17
100
AcDbEntity
  8
NOTES
100
AcDbText
 10
2760.0
 20
-716.0
 30
0.0
 40
11.0
  1
S01 RIGHT LEAF MEETING STILE  (NO MACHINING HERE)
 72
1
 11
2760.0
 21
-716.0
 31
0.0
100
AcDbText
 73
2
  0
LWPOLYLINE
  5
285
330
17
100
AcDbEntity
  8
ASSEMBLY_REFERENCE
100
AcDbPolyline
 90
4
 70
1
 10
2670.0
 20
-908.0
 10
2850.0
 20
-908.0
 10
2850.0
 20
-728.0
 10
2670.0
 20
-728.0
  0
TEXT
  5
286
330
17
100
AcDbEntity
  8
NOTES
100
AcDbText
 10
2760.0
 20
-942.0
 30
0.0
 40
9.0
  1
a full-length rebate would break through the J2 corner lap
 72
1
 11
2760.0
 21
-942.0
 31
0.0
100
AcDbText
 73
2
  0
TEXT
  5
287
330
17
100
AcDbEntity
  8
NOTES
100
AcDbText
 10
2760.0
 20
-976.0
 30
0.0
 40
11.0
  1
ASSEMBLED SECTION  -  STOCK 20 mm
 72
1
 11
2760.0
 21
-976.0
 31
0.0
100
AcDbText
 73
2
  0
LWPOLYLINE
  5
288
330
17
100
AcDbEntity
  8
ASSEMBLY_REFERENCE
100
AcDbPolyline
 90
4
 70
1
 10
2571.0
 20
-1116.0
 10
2751.0
 20
-1116.0
 10
2751.0
 20
-996.0
 10
2571.0
 20
-996.0
  0
LWPOLYLINE
  5
289
330
17
100
AcDbEntity
  8
ASSEMBLY_REFERENCE
100
AcDbPolyline
 90
4
 70
1
 10
2769.0
 20
-1116.0
 10
2949.0
 20
-1116.0
 10
2949.0
 20
-996.0
 10
2769.0
 20
-996.0
  0
LINE
  5
28A
330
17
100
AcDbEntity
  8
DIMENSIONS
100
AcDbLine
 10
2545.0
 20
-1116.0
 30
0.0
 11
2545.0
 21
-996.0
 31
0.0
  0
LINE
  5
28B
330
17
100
AcDbEntity
  8
DIMENSIONS
100
AcDbLine
 10
2541.8
 20
-1116.0
 30
0.0
 11
2548.2
 21
-1116.0
 31
0.0
  0
LINE
  5
28C
330
17
100
AcDbEntity
  8
DIMENSIONS
100
AcDbLine
 10
2541.8
 20
-996.0
 30
0.0
 11
2548.2
 21
-996.0
 31
0.0
  0
TEXT
  5
28D
330
17
100
AcDbEntity
  8
DIMENSIONS
100
AcDbText
 10
2552.2
 20
-1056.0
 30
0.0
 40
8.0
  1
20
 50
90.0
 72
1
 11
2552.2
 21
-1056.0
 31
0.0
100
AcDbText
 73
2
  0
LINE
  5
28E
330
17
100
AcDbEntity
  8
DIMENSIONS
100
AcDbLine
 10
2751.0
 20
-1134.0
 30
0.0
 11
2769.0
 21
-1134.0
 31
0.0
  0
LINE
  5
28F
330
17
100
AcDbEntity
  8
DIMENSIONS
100
AcDbLine
 10
2751.0
 20
-1137.2
 30
0.0
 11
2751.0
 21
-1130.8
 31
0.0
  0
LINE
  5
290
330
17
100
AcDbEntity
  8
DIMENSIONS
100
AcDbLine
 10
2769.0
 20
-1137.2
 30
0.0
 11
2769.0
 21
-1130.8
 31
0.0
  0
TEXT
  5
291
330
17
100
AcDbEntity
  8
DIMENSIONS
100
AcDbText
 10
2760.0
 20
-1127.6
 30
0.0
 40
8.0
  1
3
 72
1
 11
2760.0
 21
-1127.6
 31
0.0
100
AcDbText
 73
2
  0
TEXT
  5
292
330
17
100
AcDbEntity
  8
NOTES
100
AcDbText
 10
2760.0
 20
-1150.0
 30
0.0
 40
9.0
  1
two 30 x 20 stiles butt with a 3 mm running gap - no timber joint
 72
1
 11
2760.0
 21
-1150.0
 31
0.0
100
AcDbText
 73
2
  0
TEXT
  5
293
330
17
100
AcDbEntity
  8
NOTES
100
AcDbText
 10
2760.0
 20
-1166.0
 30
0.0
 40
9.0
  1
NO TIMBER MACHINING IN THIS JOINT - RUNNING GAP ONLY
 72
1
 11
2760.0
 21
-1166.0
 31
0.0
100
AcDbText
 73
2
  0
TEXT
  5
294
330
17
100
AcDbEntity
  8
NOTES
100
AcDbText
 10
10.0
 20
1220.0
 30
0.0
 40
14.0
  1
HANOK PORTRAIT DOUBLE-LEAF LATTICE WINDOW FOR A PORTRAIT A3 PICTURE  -  ONE-BOARD CNC CUTTING DRAWING   (mm, 1:1, MODEL SPACE)
 11
10.0
 21
1220.0
 31
0.0
100
AcDbText
 73
2
  0
TEXT
  5
295
330
17
100
AcDbEntity
  8
NOTES
100
AcDbText
 10
10.0
 20
1199.0
 30
0.0
 40
11.0
  1

 11
10.0
 21
1199.0
 31
0.0
100
AcDbText
 73
2
  0
TEXT
  5
296
330
17
100
AcDbEntity
  8
NOTES
100
AcDbText
 10
10.0
 20
1178.0
 30
0.0
 40
11.0
  1
DIMENSION CHAIN : 187 x 2 + 3 = 377   |   377 + 3 x 2 + 40 x 2 = 463 (W)   |   500 + 3 x 2 + 40 x 2 = 586 (H)
 11
10.0
 21
1178.0
 31
0.0
100
AcDbText
 73
2
  0
TEXT
  5
297
330
17
100
AcDbEntity
  8
NOTES
100
AcDbText
 10
10.0
 20
1157.0
 30
0.0
 40
11.0
  1
                  LEAF CLEAR 127 x 440   TOTAL CLEAR 317 x 440   A3 297 x 420 PORTRAIT WITH 10 MARGIN
 11
10.0
 21
1157.0
 31
0.0
100
AcDbText
 73
2
  0
TEXT
  5
298
330
17
100
AcDbEntity
  8
NOTES
100
AcDbText
 10
10.0
 20
1136.0
 30
0.0
 40
11.0
  1
STOCK           : SOLID TIMBER 1220 x 900 x 20 mm, GRAIN ALONG X.  24 PARTS, 6 TYPES
 11
10.0
 21
1136.0
 31
0.0
100
AcDbText
 73
2
  0
TEXT
  5
299
330
17
100
AcDbEntity
  8
NOTES
100
AcDbText
 10
10.0
 20
1115.0
 30
0.0
 40
11.0
  1
TOOL            : O6 FLAT END MILL (R3).  DOG-BONE RELIEF R3.2 ON DOGBONE LAYER, 48 OFF
 11
10.0
 21
1115.0
 31
0.0
100
AcDbText
 73
2
  0
TEXT
  5
29A
330
17
100
AcDbEntity
  8
NOTES
100
AcDbText
 10
10.0
 20
1094.0
 30
0.0
 40
11.0
  1
CUT_THROUGH     : 20 mm THROUGH PROFILE  -  USE TABS OR VACUUM HOLD-DOWN
 11
10.0
 21
1094.0
 31
0.0
100
AcDbText
 73
2
  0
TEXT
  5
29B
330
17
100
AcDbEntity
  8
NOTES
100
AcDbText
 10
10.0
 20
1073.0
 30
0.0
 40
11.0
  1
POCKET_10MM     : ALL HALF-LAP AND SEAT POCKETS, DEPTH 10.0 mm
 11
10.0
 21
1073.0
 31
0.0
100
AcDbText
 73
2
  0
TEXT
  5
29C
330
17
100
AcDbEntity
  8
NOTES
100
AcDbText
 10
10.0
 20
1052.0
 30
0.0
 40
11.0
  1
MACHINING FACE  : F01 / S02 / L02 = FACE A      F02 / S01 / L01 = FACE B
 11
10.0
 21
1052.0
 31
0.0
100
AcDbText
 73
2
  0
TEXT
  5
29D
330
17
100
AcDbEntity
  8
NOTES
100
AcDbText
 10
10.0
 20
1031.0
 30
0.0
 40
11.0
  1
                  SETUP 1 = ALL FACE A POCKETS,  FLIP BOARD ON DOWEL PINS,
 11
10.0
 21
1031.0
 31
0.0
100
AcDbText
 73
2
  0
TEXT
  5
29E
330
17
100
AcDbEntity
  8
NOTES
100
AcDbText
 10
10.0
 20
1010.0
 30
0.0
 40
11.0
  1
                  SETUP 2 = ALL FACE B POCKETS,  THEN CUT_THROUGH PROFILES
 11
10.0
 21
1010.0
 31
0.0
100
AcDbText
 73
2
  0
TEXT
  5
29F
330
17
100
AcDbEntity
  8
NOTES
100
AcDbText
 10
10.0
 20
989.0
 30
0.0
 40
11.0
  1
LEAVES          : BOTH LEAVES ARE THE SAME SET OF PARTS - THE LATTICE IS SYMMETRIC ABOUT
 11
10.0
 21
989.0
 31
0.0
100
AcDbText
 73
2
  0
TEXT
  5
2A0
330
17
100
AcDbEntity
  8
NOTES
100
AcDbText
 10
10.0
 20
968.0
 30
0.0
 40
11.0
  1
                  BOTH LEAF AXES, SO ONE LEAF ROTATED 180 IN PLANE BECOMES THE OTHER.
 11
10.0
 21
968.0
 31
0.0
100
AcDbText
 73
2
  0
TEXT
  5
2A1
330
17
100
AcDbEntity
  8
NOTES
100
AcDbText
 10
10.0
 20
947.0
 30
0.0
 40
11.0
  1
CENTRE MEETING  : SIMPLE BUTT, RUNNING GAP 3 mm - SAME AS THE FRAME GAP ON ALL FOUR SIDES.
 11
10.0
 21
947.0
 31
0.0
100
AcDbText
 73
2
  0
TEXT
  5
2A2
330
17
100
AcDbEntity
  8
NOTES
100
AcDbText
 10
10.0
 20
926.0
 30
0.0
 40
11.0
  1
HINGE_REF / LATCH_REF : REFERENCE ONLY (depth 2 mm) - RE-CUT AFTER THE REAL HARDWARE IS
 11
10.0
 21
926.0
 31
0.0
100
AcDbText
 73
2
  0
TEXT
  5
2A3
330
17
100
AcDbEntity
  8
NOTES
100
AcDbText
 10
10.0
 20
905.0
 30
0.0
 40
11.0
  1
                  SELECTED.  NOT A FINAL PRODUCTION DIMENSION.  4 HINGES, 2 PER LEAF.
 11
10.0
 21
905.0
 31
0.0
100
AcDbText
 73
2
  0
TEXT
  5
2A4
330
17
100
AcDbEntity
  8
NOTES
100
AcDbText
 10
10.0
 20
884.0
 30
0.0
 40
11.0
  1
NO CAM TOOLPATH IS INCLUDED - CAD GEOMETRY AND MACHINING INTENT ONLY.
 11
10.0
 21
884.0
 31
0.0
100
AcDbText
 73
2
  0
ENDSEC
  0
SECTION
  2
OBJECTS
  0
DICTIONARY
  5
A
330
0
100
AcDbDictionary
281
1
  3
ACAD_COLOR
350
B
  3
ACAD_GROUP
350
C
  3
ACAD_LAYOUT
350
D
  3
ACAD_MATERIAL
350
E
  3
ACAD_MLEADERSTYLE
350
F
  3
ACAD_MLINESTYLE
350
10
  3
ACAD_PLOTSETTINGS
350
11
  3
ACAD_PLOTSTYLENAME
350
12
  3
ACAD_SCALELIST
350
14
  3
ACAD_TABLESTYLE
350
15
  3
ACAD_VISUALSTYLE
350
16
  3
EZDXF_META
350
2D
  0
DICTIONARY
  5
B
330
A
100
AcDbDictionary
281
1
  0
DICTIONARY
  5
C
330
A
100
AcDbDictionary
281
1
  0
DICTIONARY
  5
D
330
A
100
AcDbDictionary
281
1
  3
Model
350
1A
  3
Layout1
350
1E
  0
DICTIONARY
  5
E
330
A
100
AcDbDictionary
281
1
  3
ByBlock
350
1F
  3
ByLayer
350
20
  3
Global
350
21
  0
DICTIONARY
  5
F
330
A
100
AcDbDictionary
281
1
  3
Standard
350
2C
  0
DICTIONARY
  5
10
330
A
100
AcDbDictionary
281
1
  3
Standard
350
22
  0
DICTIONARY
  5
11
330
A
100
AcDbDictionary
281
1
  0
ACDBDICTIONARYWDFLT
  5
12
330
A
100
AcDbDictionary
281
1
  3
Normal
350
13
100
AcDbDictionaryWithDefault
340
13
  0
ACDBPLACEHOLDER
  5
13
330
12
  0
DICTIONARY
  5
14
330
A
100
AcDbDictionary
281
1
  0
DICTIONARY
  5
15
330
A
100
AcDbDictionary
281
1
  0
DICTIONARY
  5
16
330
A
100
AcDbDictionary
281
1
  3
2dWireframe
350
5A
  3
Basic
350
5B
  3
Brighten
350
5C
  3
ColorChange
350
5D
  3
Conceptual
350
5E
  3
Dim
350
5F
  3
EdgeColorOff
350
60
  3
Facepattern
350
61
  3
Flat
350
62
  3
FlatWithEdges
350
63
  3
Gouraud
350
64
  3
GouraudWithEdges
350
65
  3
Hidden
350
66
  3
JitterOff
350
67
  3
Linepattern
350
68
  3
Modeling
350
69
  3
OverhangOff
350
6A
  3
Realistic
350
6B
  3
Shaded
350
6C
  3
Shaded with edges
350
6D
  3
Shades of Gray
350
6E
  3
Sketchy
350
6F
  3
Thicken
350
70
  3
Wireframe
350
71
  3
X-Ray
350
72
  0
LAYOUT
  5
1A
330
D
100
AcDbPlotSettings
  1

  4
A3
  6

 40
7.5
 41
20.0
 42
7.5
 43
20.0
 44
420.0
 45
297.0
 46
0.0
 47
0.0
 48
0.0
 49
0.0
140
0.0
141
0.0
142
1.0
143
1.0
 70
1024
 72
1
 73
0
 74
5
  7

 75
16
 76
0
 77
2
 78
300
147
1.0
148
0.0
149
0.0
100
AcDbLayout
  1
Model
 70
1
 71
0
 10
0.0
 20
0.0
 11
420.0
 21
297.0
 12
0.0
 22
0.0
 32
0.0
 14
1e+20
 24
1e+20
 34
1e+20
 15
-1e+20
 25
-1e+20
 35
-1e+20
146
0.0
 13
0.0
 23
0.0
 33
0.0
 16
1.0
 26
0.0
 36
0.0
 17
0.0
 27
1.0
 37
0.0
 76
1
330
17
  0
LAYOUT
  5
1E
330
D
100
AcDbPlotSettings
  1

  4
A3
  6

 40
7.5
 41
20.0
 42
7.5
 43
20.0
 44
420.0
 45
297.0
 46
0.0
 47
0.0
 48
0.0
 49
0.0
140
0.0
141
0.0
142
1.0
143
1.0
 70
0
 72
1
 73
0
 74
5
  7

 75
16
 76
0
 77
2
 78
300
147
1.0
148
0.0
149
0.0
100
AcDbLayout
  1
Layout1
 70
1
 71
1
 10
0.0
 20
0.0
 11
420.0
 21
297.0
 12
0.0
 22
0.0
 32
0.0
 14
1e+20
 24
1e+20
 34
1e+20
 15
-1e+20
 25
-1e+20
 35
-1e+20
146
0.0
 13
0.0
 23
0.0
 33
0.0
 16
1.0
 26
0.0
 36
0.0
 17
0.0
 27
1.0
 37
0.0
 76
1
330
1B
  0
MATERIAL
  5
1F
102
{ACAD_REACTORS
330
E
102
}
330
E
100
AcDbMaterial
  1
ByBlock
  2

 70
0
 40
1.0
 71
1
 41
1.0
 91
-1023410177
 42
1.0
 72
1
  3

 73
1
 74
1
 75
1
 44
0.5
 73
0
 45
1.0
 46
1.0
 77
1
  4

 78
1
 79
1
170
1
 48
1.0
171
1
  6

172
1
173
1
174
1
140
1.0
141
1.0
175
1
  7

176
1
177
1
178
1
143
1.0
179
1
  8

270
1
271
1
272
1
145
1.0
146
1.0
273
1
  9

274
1
275
1
276
1
 42
1.0
 72
1
  3

 73
1
 74
1
 75
1
 94
63
  0
MATERIAL
  5
20
102
{ACAD_REACTORS
330
E
102
}
330
E
100
AcDbMaterial
  1
ByLayer
  2

 70
0
 40
1.0
 71
1
 41
1.0
 91
-1023410177
 42
1.0
 72
1
  3

 73
1
 74
1
 75
1
 44
0.5
 73
0
 45
1.0
 46
1.0
 77
1
  4

 78
1
 79
1
170
1
 48
1.0
171
1
  6

172
1
173
1
174
1
140
1.0
141
1.0
175
1
  7

176
1
177
1
178
1
143
1.0
179
1
  8

270
1
271
1
272
1
145
1.0
146
1.0
273
1
  9

274
1
275
1
276
1
 42
1.0
 72
1
  3

 73
1
 74
1
 75
1
 94
63
  0
MATERIAL
  5
21
102
{ACAD_REACTORS
330
E
102
}
330
E
100
AcDbMaterial
  1
Global
  2

 70
0
 40
1.0
 71
1
 41
1.0
 91
-1023410177
 42
1.0
 72
1
  3

 73
1
 74
1
 75
1
 44
0.5
 73
0
 45
1.0
 46
1.0
 77
1
  4

 78
1
 79
1
170
1
 48
1.0
171
1
  6

172
1
173
1
174
1
140
1.0
141
1.0
175
1
  7

176
1
177
1
178
1
143
1.0
179
1
  8

270
1
271
1
272
1
145
1.0
146
1.0
273
1
  9

274
1
275
1
276
1
 42
1.0
 72
1
  3

 73
1
 74
1
 75
1
 94
63
  0
MLINESTYLE
  5
22
102
{ACAD_REACTORS
330
10
102
}
330
10
100
AcDbMlineStyle
  2
Standard
 70
0
  3

 62
256
 51
90.0
 52
90.0
 71
2
 49
0.5
 62
256
  6
BYLAYER
 49
-0.5
 62
256
  6
BYLAYER
  0
MLEADERSTYLE
  5
2C
102
{ACAD_REACTORS
330
F
102
}
330
F
100
AcDbMLeaderStyle
179
2
170
2
171
1
172
0
 90
2
 40
0.0
 41
0.0
173
1
 91
-1056964608
 92
-2
290
1
 42
2.0
291
1
 43
8.0
  3
Standard
 44
4.0
300

342
29
174
1
175
1
176
0
178
1
 93
-1056964608
 45
4.0
292
0
297
0
 46
4.0
 94
-1056964608
 47
1.0
 49
1.0
140
1.0
294
1
141
0.0
177
0
142
1.0
295
0
296
0
143
3.75
271
0
272
9
273
9
  0
DICTIONARY
  5
2D
330
A
100
AcDbDictionary
280
1
281
1
  3
CREATED_BY_EZDXF
350
2E
  3
WRITTEN_BY_EZDXF
350
2A7
  0
DICTIONARYVAR
  5
2E
330
2D
100
DictionaryVariables
280
0
  1
1.4.4 @ 2026-09-10T12:03:05.660698+00:00
  0
VISUALSTYLE
  5
5A
102
{ACAD_REACTORS
330
16
102
}
330
16
100
AcDbVisualStyle
  2
2dWireframe
 70
4
 90
0
 40
0.6
 62
7
290
0
291
0
  0
VISUALSTYLE
  5
5B
102
{ACAD_REACTORS
330
16
102
}
330
16
100
AcDbVisualStyle
  2
Basic
 70
7
 90
1
 40
0.6
 62
7
290
0
291
1
  0
VISUALSTYLE
  5
5C
102
{ACAD_REACTORS
330
16
102
}
330
16
100
AcDbVisualStyle
  2
Brighten
 70
12
 90
2
 40
0.6
 62
7
290
0
291
1
  0
VISUALSTYLE
  5
5D
102
{ACAD_REACTORS
330
16
102
}
330
16
100
AcDbVisualStyle
  2
ColorChange
 70
16
 90
2
 40
0.6
 62
8
290
0
291
1
  0
VISUALSTYLE
  5
5E
102
{ACAD_REACTORS
330
16
102
}
330
16
100
AcDbVisualStyle
  2
Conceptual
 70
9
 90
3
 40
0.6
 62
7
290
0
291
0
  0
VISUALSTYLE
  5
5F
102
{ACAD_REACTORS
330
16
102
}
330
16
100
AcDbVisualStyle
  2
Dim
 70
11
 90
2
 40
0.6
 62
7
290
0
291
1
  0
VISUALSTYLE
  5
60
102
{ACAD_REACTORS
330
16
102
}
330
16
100
AcDbVisualStyle
  2
EdgeColorOff
 70
22
 90
2
 40
0.6
 62
7
290
0
291
1
  0
VISUALSTYLE
  5
61
102
{ACAD_REACTORS
330
16
102
}
330
16
100
AcDbVisualStyle
  2
Facepattern
 70
15
 90
2
 40
0.6
 62
7
290
0
291
1
  0
VISUALSTYLE
  5
62
102
{ACAD_REACTORS
330
16
102
}
330
16
100
AcDbVisualStyle
  2
Flat
 70
0
 90
2
 40
0.6
 62
7
290
0
291
1
  0
VISUALSTYLE
  5
63
102
{ACAD_REACTORS
330
16
102
}
330
16
100
AcDbVisualStyle
  2
FlatWithEdges
 70
1
 90
2
 40
0.6
 62
7
290
0
291
1
  0
VISUALSTYLE
  5
64
102
{ACAD_REACTORS
330
16
102
}
330
16
100
AcDbVisualStyle
  2
Gouraud
 70
2
 90
2
 40
0.6
 62
7
290
0
291
1
  0
VISUALSTYLE
  5
65
102
{ACAD_REACTORS
330
16
102
}
330
16
100
AcDbVisualStyle
  2
GouraudWithEdges
 70
3
 90
2
 40
0.6
 62
7
290
0
291
1
  0
VISUALSTYLE
  5
66
102
{ACAD_REACTORS
330
16
102
}
330
16
100
AcDbVisualStyle
  2
Hidden
 70
6
 90
1
 40
0.6
 62
7
290
0
291
0
  0
VISUALSTYLE
  5
67
102
{ACAD_REACTORS
330
16
102
}
330
16
100
AcDbVisualStyle
  2
JitterOff
 70
20
 90
2
 40
0.6
 62
7
290
0
291
1
  0
VISUALSTYLE
  5
68
102
{ACAD_REACTORS
330
16
102
}
330
16
100
AcDbVisualStyle
  2
Linepattern
 70
14
 90
2
 40
0.6
 62
7
290
0
291
1
  0
VISUALSTYLE
  5
69
102
{ACAD_REACTORS
330
16
102
}
330
16
100
AcDbVisualStyle
  2
Modeling
 70
10
 90
2
 40
0.6
 62
7
290
0
291
0
  0
VISUALSTYLE
  5
6A
102
{ACAD_REACTORS
330
16
102
}
330
16
100
AcDbVisualStyle
  2
OverhangOff
 70
21
 90
2
 40
0.6
 62
7
290
0
291
1
  0
VISUALSTYLE
  5
6B
102
{ACAD_REACTORS
330
16
102
}
330
16
100
AcDbVisualStyle
  2
Realistic
 70
8
 90
2
 40
0.6
 62
7
290
0
291
0
  0
VISUALSTYLE
  5
6C
102
{ACAD_REACTORS
330
16
102
}
330
16
100
AcDbVisualStyle
  2
Shaded
 70
27
 90
2
 40
0.6
 62
7
290
0
291
0
  0
VISUALSTYLE
  5
6D
102
{ACAD_REACTORS
330
16
102
}
330
16
100
AcDbVisualStyle
  2
Shaded with edges
 70
26
 90
2
 40
0.6
 62
7
290
0
291
0
  0
VISUALSTYLE
  5
6E
102
{ACAD_REACTORS
330
16
102
}
330
16
100
AcDbVisualStyle
  2
Shades of Gray
 70
23
 90
2
 40
0.6
 62
7
290
0
291
0
  0
VISUALSTYLE
  5
6F
102
{ACAD_REACTORS
330
16
102
}
330
16
100
AcDbVisualStyle
  2
Sketchy
 70
24
 90
1
 40
0.6
 62
7
290
0
291
0
  0
VISUALSTYLE
  5
70
102
{ACAD_REACTORS
330
16
102
}
330
16
100
AcDbVisualStyle
  2
Thicken
 70
13
 90
2
 40
0.6
 62
7
290
0
291
1
  0
VISUALSTYLE
  5
71
102
{ACAD_REACTORS
330
16
102
}
330
16
100
AcDbVisualStyle
  2
Wireframe
 70
5
 90
0
 40
0.6
 62
7
290
0
291
0
  0
VISUALSTYLE
  5
72
102
{ACAD_REACTORS
330
16
102
}
330
16
100
AcDbVisualStyle
  2
X-Ray
 70
25
 90
2
 40
0.5
 62
7
290
0
291
0
  0
DICTIONARYVAR
  5
2A7
330
2D
100
DictionaryVariables
280
0
  1
1.4.4 @ 2026-09-10T12:03:05.692531+00:00
  0
ENDSEC
  0
EOF
